<?xml version="1.0" encoding="UTF-8"?>
<svg xmlns="http://www.w3.org/2000/svg" version="1.1" width="500" height="500" viewBox="0 0 500 500"><rect x="0" y="0" width="500" height="500" fill="#8a2be2"/><g transform="scale(20)"><g transform="translate(0,0)"><path fill-rule="evenodd" d="M10 0.25L10 0.75A0.25 0.25 0 0 1 9.75 1L9.25 1A0.25 0.25 0 0 0 9 1.25L9 1.75A0.25 0.25 0 0 1 8.75 2L8.25 2A0.25 0.25 0 0 0 8 2.25L8 3.75A0.25 0.25 0 0 0 8.25 4L8.75 4A0.25 0.25 0 0 0 9 3.75L9 2.25A0.25 0.25 0 0 1 9.25 2L10.75 2A0.25 0.25 0 0 1 11 2.25L11 2.75A0.25 0.25 0 0 1 10.75 3L10.25 3A0.25 0.25 0 0 0 10 3.25L10 7.75A0.25 0.25 0 0 1 9.75 8L9.25 8A0.25 0.25 0 0 0 9 8.25L9 8.75A0.25 0.25 0 0 1 8.75 9L8.25 9A0.25 0.25 0 0 1 8 8.75L8 8.25A0.25 0.25 0 0 0 7.75 8L6.25 8A0.25 0.25 0 0 0 6 8.25L6 8.75A0.25 0.25 0 0 1 5.75 9L5.25 9A0.25 0.25 0 0 1 5 8.75L5 8.25A0.25 0.25 0 0 0 4.75 8L3.25 8A0.25 0.25 0 0 0 3 8.25L3 8.75A0.25 0.25 0 0 0 3.25 9L3.75 9A0.25 0.25 0 0 1 4 9.25L4 10.75A0.25 0.25 0 0 1 3.75 11L3.25 11A0.25 0.25 0 0 1 3 10.75L3 10.25A0.25 0.25 0 0 0 2.75 10L1.25 10A0.25 0.25 0 0 1 1 9.75L1 9.25A0.25 0.25 0 0 0 0.75 9L0.25 9A0.25 0.25 0 0 0 0 9.25L0 9.75A0.25 0.25 0 0 0 0.25 10L0.75 10A0.25 0.25 0 0 1 1 10.25L1 10.75A0.25 0.25 0 0 1 0.75 11L0.25 11A0.25 0.25 0 0 0 0 11.25L0 11.75A0.25 0.25 0 0 0 0.25 12L0.75 12A0.25 0.25 0 0 1 1 12.25L1 12.75A0.25 0.25 0 0 1 0.75 13L0.25 13A0.25 0.25 0 0 0 0 13.25L0 16.75A0.25 0.25 0 0 0 0.25 17L0.75 17A0.25 0.25 0 0 0 1 16.75L1 15.25A0.25 0.25 0 0 1 1.25 15L1.75 15A0.25 0.25 0 0 1 2 15.25L2 16.75A0.25 0.25 0 0 0 2.25 17L2.75 17A0.25 0.25 0 0 0 3 16.75L3 16.25A0.25 0.25 0 0 1 3.25 16L3.75 16A0.25 0.25 0 0 1 4 16.25L4 16.75A0.25 0.25 0 0 0 4.25 17L6.75 17A0.25 0.25 0 0 0 7 16.75L7 16.25A0.25 0.25 0 0 0 6.75 16L6.25 16A0.25 0.25 0 0 1 6 15.75L6 15.25A0.25 0.25 0 0 1 6.25 15L6.75 15A0.25 0.25 0 0 0 7 14.75L7 14.25A0.25 0.25 0 0 0 6.75 14L6.25 14A0.25 0.25 0 0 1 6 13.75L6 13.25A0.25 0.25 0 0 1 6.25 13L6.75 13A0.25 0.25 0 0 0 7 12.75L7 12.25A0.25 0.25 0 0 0 6.75 12L5.25 12A0.25 0.25 0 0 1 5 11.75L5 10.25A0.25 0.25 0 0 1 5.25 10L5.75 10A0.25 0.25 0 0 1 6 10.25L6 10.75A0.25 0.25 0 0 0 6.25 11L6.75 11A0.25 0.25 0 0 0 7 10.75L7 10.25A0.25 0.25 0 0 1 7.25 10L7.75 10A0.25 0.25 0 0 1 8 10.25L8 11.75A0.25 0.25 0 0 0 8.25 12L9.75 12A0.25 0.25 0 0 1 10 12.25L10 13.75A0.25 0.25 0 0 1 9.75 14L9.25 14A0.25 0.25 0 0 1 9 13.75L9 13.25A0.25 0.25 0 0 0 8.75 13L8.25 13A0.25 0.25 0 0 0 8 13.25L8 13.75A0.25 0.25 0 0 0 8.25 14L8.75 14A0.25 0.25 0 0 1 9 14.25L9 14.75A0.25 0.25 0 0 1 8.75 15L8.25 15A0.25 0.25 0 0 0 8 15.25L8 18.75A0.25 0.25 0 0 0 8.25 19L8.75 19A0.25 0.25 0 0 1 9 19.25L9 19.75A0.25 0.25 0 0 1 8.75 20L8.25 20A0.25 0.25 0 0 0 8 20.25L8 21.75A0.25 0.25 0 0 0 8.25 22L8.75 22A0.25 0.25 0 0 1 9 22.25L9 22.75A0.25 0.25 0 0 0 9.25 23L9.75 23A0.25 0.25 0 0 1 10 23.25L10 23.75A0.25 0.25 0 0 0 10.25 24L10.75 24A0.25 0.25 0 0 1 11 24.25L11 24.75A0.25 0.25 0 0 0 11.25 25L11.75 25A0.25 0.25 0 0 0 12 24.75L12 23.25A0.25 0.25 0 0 0 11.75 23L10.25 23A0.25 0.25 0 0 1 10 22.75L10 22.25A0.25 0.25 0 0 0 9.75 22L9.25 22A0.25 0.25 0 0 1 9 21.75L9 21.25A0.25 0.25 0 0 1 9.25 21L12.75 21A0.25 0.25 0 0 0 13 20.75L13 20.25A0.25 0.25 0 0 0 12.75 20L12.25 20A0.25 0.25 0 0 1 12 19.75L12 19.25A0.25 0.25 0 0 0 11.75 19L11.25 19A0.25 0.25 0 0 1 11 18.75L11 18.25A0.25 0.25 0 0 0 10.75 18L10.25 18A0.25 0.25 0 0 1 10 17.75L10 17.25A0.25 0.25 0 0 1 10.25 17L10.75 17A0.25 0.25 0 0 0 11 16.75L11 15.25A0.25 0.25 0 0 1 11.25 15L11.75 15A0.25 0.25 0 0 0 12 14.75L12 14.25A0.25 0.25 0 0 1 12.25 14L12.75 14A0.25 0.25 0 0 1 13 14.25L13 15.75A0.25 0.25 0 0 0 13.25 16L14.75 16A0.25 0.25 0 0 1 15 16.25L15 16.75A0.25 0.25 0 0 1 14.75 17L14.25 17A0.25 0.25 0 0 0 14 17.25L14 18.75A0.25 0.25 0 0 0 14.25 19L14.75 19A0.25 0.25 0 0 1 15 19.25L15 19.75A0.25 0.25 0 0 0 15.25 20L15.75 20A0.25 0.25 0 0 1 16 20.25L16 20.75A0.25 0.25 0 0 0 16.25 21L17.75 21A0.25 0.25 0 0 1 18 21.25L18 22.75A0.25 0.25 0 0 0 18.25 23L18.75 23A0.25 0.25 0 0 1 19 23.25L19 24.75A0.25 0.25 0 0 0 19.25 25L19.75 25A0.25 0.25 0 0 0 20 24.75L20 24.25A0.25 0.25 0 0 1 20.25 24L20.75 24A0.25 0.25 0 0 1 21 24.25L21 24.75A0.25 0.25 0 0 0 21.25 25L21.75 25A0.25 0.25 0 0 0 22 24.75L22 23.25A0.25 0.25 0 0 0 21.75 23L21.25 23A0.25 0.25 0 0 1 21 22.75L21 22.25A0.25 0.25 0 0 1 21.25 22L22.75 22A0.25 0.25 0 0 1 23 22.25L23 24.75A0.25 0.25 0 0 0 23.25 25L24.75 25A0.25 0.25 0 0 0 25 24.75L25 24.25A0.25 0.25 0 0 0 24.75 24L24.25 24A0.25 0.25 0 0 1 24 23.75L24 23.25A0.25 0.25 0 0 1 24.25 23L24.75 23A0.25 0.25 0 0 0 25 22.75L25 21.25A0.25 0.25 0 0 0 24.75 21L24.25 21A0.25 0.25 0 0 0 24 21.25L24 21.75A0.25 0.25 0 0 1 23.75 22L23.25 22A0.25 0.25 0 0 1 23 21.75L23 19.25A0.25 0.25 0 0 1 23.25 19L23.75 19A0.25 0.25 0 0 1 24 19.25L24 19.75A0.25 0.25 0 0 0 24.25 20L24.75 20A0.25 0.25 0 0 0 25 19.75L25 19.25A0.25 0.25 0 0 0 24.75 19L24.25 19A0.25 0.25 0 0 1 24 18.75L24 18.25A0.25 0.25 0 0 1 24.25 18L24.75 18A0.25 0.25 0 0 0 25 17.75L25 17.25A0.25 0.25 0 0 0 24.75 17L24.25 17A0.25 0.25 0 0 1 24 16.75L24 16.25A0.25 0.25 0 0 0 23.75 16L23.25 16A0.25 0.25 0 0 0 23 16.25L23 17.75A0.25 0.25 0 0 1 22.75 18L21.25 18A0.25 0.25 0 0 1 21 17.75L21 17.25A0.25 0.25 0 0 1 21.25 17L21.75 17A0.25 0.25 0 0 0 22 16.75L22 14.25A0.25 0.25 0 0 1 22.25 14L22.75 14A0.25 0.25 0 0 1 23 14.25L23 14.75A0.25 0.25 0 0 0 23.25 15L24.75 15A0.25 0.25 0 0 0 25 14.75L25 14.25A0.25 0.25 0 0 0 24.75 14L23.25 14A0.25 0.25 0 0 1 23 13.75L23 13.25A0.25 0.25 0 0 1 23.25 13L23.75 13A0.25 0.25 0 0 0 24 12.75L24 12.25A0.25 0.25 0 0 0 23.75 12L23.25 12A0.25 0.25 0 0 1 23 11.75L23 10.25A0.25 0.25 0 0 0 22.75 10L22.25 10A0.25 0.25 0 0 1 22 9.75L22 9.25A0.25 0.25 0 0 1 22.25 9L22.75 9A0.25 0.25 0 0 0 23 8.75L23 8.25A0.25 0.25 0 0 0 22.75 8L21.25 8A0.25 0.25 0 0 0 21 8.25L21 9.75A0.25 0.25 0 0 1 20.75 10L20.25 10A0.25 0.25 0 0 1 20 9.75L20 9.25A0.25 0.25 0 0 0 19.75 9L19.25 9A0.25 0.25 0 0 0 19 9.25L19 9.75A0.25 0.25 0 0 1 18.75 10L18.25 10A0.25 0.25 0 0 1 18 9.75L18 9.25A0.25 0.25 0 0 0 17.75 9L17.25 9A0.25 0.25 0 0 1 17 8.75L17 8.25A0.25 0.25 0 0 0 16.75 8L14.25 8A0.25 0.25 0 0 1 14 7.75L14 7.25A0.25 0.25 0 0 1 14.25 7L14.75 7A0.25 0.25 0 0 0 15 6.75L15 6.25A0.25 0.25 0 0 1 15.25 6L15.75 6A0.25 0.25 0 0 1 16 6.25L16 6.75A0.25 0.25 0 0 0 16.25 7L16.75 7A0.25 0.25 0 0 0 17 6.75L17 4.25A0.25 0.25 0 0 0 16.75 4L16.25 4A0.25 0.25 0 0 0 16 4.25L16 4.75A0.25 0.25 0 0 1 15.75 5L15.25 5A0.25 0.25 0 0 1 15 4.75L15 3.25A0.25 0.25 0 0 1 15.25 3L15.75 3A0.25 0.25 0 0 0 16 2.75L16 1.25A0.25 0.25 0 0 1 16.25 1L16.75 1A0.25 0.25 0 0 0 17 0.75L17 0.25A0.25 0.25 0 0 0 16.75 0L16.25 0A0.25 0.25 0 0 0 16 0.25L16 0.75A0.25 0.25 0 0 1 15.75 1L15.25 1A0.25 0.25 0 0 0 15 1.25L15 2.75A0.25 0.25 0 0 1 14.75 3L13.25 3A0.25 0.25 0 0 1 13 2.75L13 1.25A0.25 0.25 0 0 1 13.25 1L13.75 1A0.25 0.25 0 0 0 14 0.75L14 0.25A0.25 0.25 0 0 0 13.75 0L10.25 0A0.25 0.25 0 0 0 10 0.25ZM11 1.25L11 1.75A0.25 0.25 0 0 0 11.25 2L11.75 2A0.25 0.25 0 0 0 12 1.75L12 1.25A0.25 0.25 0 0 0 11.75 1L11.25 1A0.25 0.25 0 0 0 11 1.25ZM11 3.25L11 4.75A0.25 0.25 0 0 0 11.25 5L11.75 5A0.25 0.25 0 0 1 12 5.25L12 5.75A0.25 0.25 0 0 1 11.75 6L11.25 6A0.25 0.25 0 0 0 11 6.25L11 8.75A0.25 0.25 0 0 1 10.75 9L9.25 9A0.25 0.25 0 0 0 9 9.25L9 10.75A0.25 0.25 0 0 0 9.25 11L9.75 11A0.25 0.25 0 0 0 10 10.75L10 10.25A0.25 0.25 0 0 1 10.25 10L10.75 10A0.25 0.25 0 0 1 11 10.25L11 12.75A0.25 0.25 0 0 0 11.25 13L12.75 13A0.25 0.25 0 0 1 13 13.25L13 13.75A0.25 0.25 0 0 0 13.25 14L13.75 14A0.25 0.25 0 0 1 14 14.25L14 14.75A0.25 0.25 0 0 0 14.25 15L14.75 15A0.25 0.25 0 0 1 15 15.25L15 15.75A0.25 0.25 0 0 0 15.25 16L15.75 16A0.25 0.25 0 0 0 16 15.75L16 15.25A0.25 0.25 0 0 1 16.25 15L16.75 15A0.25 0.25 0 0 1 17 15.25L17 15.75A0.25 0.25 0 0 0 17.25 16L17.75 16A0.25 0.25 0 0 0 18 15.75L18 15.25A0.25 0.25 0 0 1 18.25 15L18.75 15A0.25 0.25 0 0 1 19 15.25L19 15.75A0.25 0.25 0 0 0 19.25 16L19.75 16A0.25 0.25 0 0 0 20 15.75L20 15.25A0.25 0.25 0 0 0 19.75 15L19.25 15A0.25 0.25 0 0 1 19 14.75L19 14.25A0.25 0.25 0 0 0 18.75 14L18.25 14A0.25 0.25 0 0 0 18 14.25L18 14.75A0.25 0.25 0 0 1 17.75 15L17.25 15A0.25 0.25 0 0 1 17 14.75L17 13.25A0.25 0.25 0 0 1 17.25 13L17.75 13A0.25 0.25 0 0 0 18 12.75L18 12.25A0.25 0.25 0 0 0 17.75 12L15.25 12A0.25 0.25 0 0 0 15 12.25L15 13.75A0.25 0.25 0 0 1 14.75 14L14.25 14A0.25 0.25 0 0 1 14 13.75L14 12.25A0.25 0.25 0 0 0 13.75 12L12.25 12A0.25 0.25 0 0 1 12 11.75L12 10.25A0.25 0.25 0 0 1 12.25 10L12.75 10A0.25 0.25 0 0 1 13 10.25L13 10.75A0.25 0.25 0 0 0 13.25 11L13.75 11A0.25 0.25 0 0 0 14 10.75L14 10.25A0.25 0.25 0 0 1 14.25 10L14.75 10A0.25 0.25 0 0 1 15 10.25L15 10.75A0.25 0.25 0 0 0 15.25 11L16.75 11A0.25 0.25 0 0 0 17 10.75L17 9.25A0.25 0.25 0 0 0 16.75 9L16.25 9A0.25 0.25 0 0 0 16 9.25L16 9.75A0.25 0.25 0 0 1 15.75 10L15.25 10A0.25 0.25 0 0 1 15 9.75L15 9.25A0.25 0.25 0 0 0 14.75 9L12.25 9A0.25 0.25 0 0 1 12 8.75L12 6.25A0.25 0.25 0 0 1 12.25 6L12.75 6A0.25 0.25 0 0 1 13 6.25L13 6.75A0.25 0.25 0 0 0 13.25 7L13.75 7A0.25 0.25 0 0 0 14 6.75L14 5.25A0.25 0.25 0 0 0 13.75 5L12.25 5A0.25 0.25 0 0 1 12 4.75L12 3.25A0.25 0.25 0 0 0 11.75 3L11.25 3A0.25 0.25 0 0 0 11 3.25ZM8 6.25L8 6.75A0.25 0.25 0 0 0 8.25 7L8.75 7A0.25 0.25 0 0 0 9 6.75L9 6.25A0.25 0.25 0 0 0 8.75 6L8.25 6A0.25 0.25 0 0 0 8 6.25ZM6 9.25L6 9.75A0.25 0.25 0 0 0 6.25 10L6.75 10A0.25 0.25 0 0 0 7 9.75L7 9.25A0.25 0.25 0 0 0 6.75 9L6.25 9A0.25 0.25 0 0 0 6 9.25ZM24 9.25L24 10.75A0.25 0.25 0 0 0 24.25 11L24.75 11A0.25 0.25 0 0 0 25 10.75L25 9.25A0.25 0.25 0 0 0 24.75 9L24.25 9A0.25 0.25 0 0 0 24 9.25ZM19 10.25L19 10.75A0.25 0.25 0 0 0 19.25 11L19.75 11A0.25 0.25 0 0 1 20 11.25L20 12.75A0.25 0.25 0 0 0 20.25 13L20.75 13A0.25 0.25 0 0 0 21 12.75L21 11.25A0.25 0.25 0 0 0 20.75 11L20.25 11A0.25 0.25 0 0 1 20 10.75L20 10.25A0.25 0.25 0 0 0 19.75 10L19.25 10A0.25 0.25 0 0 0 19 10.25ZM1 11.25L1 11.75A0.25 0.25 0 0 0 1.25 12L1.75 12A0.25 0.25 0 0 1 2 12.25L2 12.75A0.25 0.25 0 0 1 1.75 13L1.25 13A0.25 0.25 0 0 0 1 13.25L1 13.75A0.25 0.25 0 0 0 1.25 14L1.75 14A0.25 0.25 0 0 1 2 14.25L2 14.75A0.25 0.25 0 0 0 2.25 15L2.75 15A0.25 0.25 0 0 0 3 14.75L3 14.25A0.25 0.25 0 0 1 3.25 14L3.75 14A0.25 0.25 0 0 1 4 14.25L4 15.75A0.25 0.25 0 0 0 4.25 16L4.75 16A0.25 0.25 0 0 0 5 15.75L5 15.25A0.25 0.25 0 0 1 5.25 15L5.75 15A0.25 0.25 0 0 0 6 14.75L6 14.25A0.25 0.25 0 0 0 5.75 14L4.25 14A0.25 0.25 0 0 1 4 13.75L4 13.25A0.25 0.25 0 0 1 4.25 13L4.75 13A0.25 0.25 0 0 0 5 12.75L5 12.25A0.25 0.25 0 0 0 4.75 12L4.25 12A0.25 0.25 0 0 0 4 12.25L4 12.75A0.25 0.25 0 0 1 3.75 13L3.25 13A0.25 0.25 0 0 1 3 12.75L3 11.25A0.25 0.25 0 0 0 2.75 11L1.25 11A0.25 0.25 0 0 0 1 11.25ZM10 14.25L10 14.75A0.25 0.25 0 0 0 10.25 15L10.75 15A0.25 0.25 0 0 0 11 14.75L11 14.25A0.25 0.25 0 0 0 10.75 14L10.25 14A0.25 0.25 0 0 0 10 14.25ZM15 14.25L15 14.75A0.25 0.25 0 0 0 15.25 15L15.75 15A0.25 0.25 0 0 0 16 14.75L16 14.25A0.25 0.25 0 0 0 15.75 14L15.25 14A0.25 0.25 0 0 0 15 14.25ZM15 17.25L15 17.75A0.25 0.25 0 0 0 15.25 18L15.75 18A0.25 0.25 0 0 0 16 17.75L16 17.25A0.25 0.25 0 0 0 15.75 17L15.25 17A0.25 0.25 0 0 0 15 17.25ZM17 17.25L17 19.75A0.25 0.25 0 0 0 17.25 20L19.75 20A0.25 0.25 0 0 0 20 19.75L20 17.25A0.25 0.25 0 0 0 19.75 17L17.25 17A0.25 0.25 0 0 0 17 17.25ZM9 18.25L9 18.75A0.25 0.25 0 0 0 9.25 19L9.75 19A0.25 0.25 0 0 0 10 18.75L10 18.25A0.25 0.25 0 0 0 9.75 18L9.25 18A0.25 0.25 0 0 0 9 18.25ZM18 18.25L18 18.75A0.25 0.25 0 0 0 18.25 19L18.75 19A0.25 0.25 0 0 0 19 18.75L19 18.25A0.25 0.25 0 0 0 18.75 18L18.25 18A0.25 0.25 0 0 0 18 18.25ZM21 19.25L21 20.75A0.25 0.25 0 0 1 20.75 21L19.25 21A0.25 0.25 0 0 0 19 21.25L19 22.75A0.25 0.25 0 0 0 19.25 23L19.75 23A0.25 0.25 0 0 0 20 22.75L20 22.25A0.25 0.25 0 0 1 20.25 22L20.75 22A0.25 0.25 0 0 0 21 21.75L21 21.25A0.25 0.25 0 0 1 21.25 21L21.75 21A0.25 0.25 0 0 0 22 20.75L22 19.25A0.25 0.25 0 0 0 21.75 19L21.25 19A0.25 0.25 0 0 0 21 19.25ZM14 21.25L14 21.75A0.25 0.25 0 0 1 13.75 22L13.25 22A0.25 0.25 0 0 0 13 22.25L13 23.75A0.25 0.25 0 0 0 13.25 24L14.75 24A0.25 0.25 0 0 1 15 24.25L15 24.75A0.25 0.25 0 0 0 15.25 25L17.75 25A0.25 0.25 0 0 0 18 24.75L18 24.25A0.25 0.25 0 0 0 17.75 24L17.25 24A0.25 0.25 0 0 1 17 23.75L17 22.25A0.25 0.25 0 0 0 16.75 22L16.25 22A0.25 0.25 0 0 0 16 22.25L16 23.75A0.25 0.25 0 0 1 15.75 24L15.25 24A0.25 0.25 0 0 1 15 23.75L15 23.25A0.25 0.25 0 0 0 14.75 23L14.25 23A0.25 0.25 0 0 1 14 22.75L14 22.25A0.25 0.25 0 0 1 14.25 22L14.75 22A0.25 0.25 0 0 0 15 21.75L15 21.25A0.25 0.25 0 0 0 14.75 21L14.25 21A0.25 0.25 0 0 0 14 21.25ZM0 0.25L0 6.75A0.25 0.25 0 0 0 0.25 7L6.75 7A0.25 0.25 0 0 0 7 6.75L7 0.25A0.25 0.25 0 0 0 6.75 0L0.25 0A0.25 0.25 0 0 0 0 0.25ZM1 1.25L1 5.75A0.25 0.25 0 0 0 1.25 6L5.75 6A0.25 0.25 0 0 0 6 5.75L6 1.25A0.25 0.25 0 0 0 5.75 1L1.25 1A0.25 0.25 0 0 0 1 1.25ZM2 2.25L2 4.75A0.25 0.25 0 0 0 2.25 5L4.75 5A0.25 0.25 0 0 0 5 4.75L5 2.25A0.25 0.25 0 0 0 4.75 2L2.25 2A0.25 0.25 0 0 0 2 2.25ZM18 0.25L18 6.75A0.25 0.25 0 0 0 18.25 7L24.75 7A0.25 0.25 0 0 0 25 6.75L25 0.25A0.25 0.25 0 0 0 24.75 0L18.25 0A0.25 0.25 0 0 0 18 0.25ZM19 1.25L19 5.75A0.25 0.25 0 0 0 19.25 6L23.75 6A0.25 0.25 0 0 0 24 5.75L24 1.25A0.25 0.25 0 0 0 23.75 1L19.25 1A0.25 0.25 0 0 0 19 1.25ZM20 2.25L20 4.75A0.25 0.25 0 0 0 20.25 5L22.75 5A0.25 0.25 0 0 0 23 4.75L23 2.25A0.25 0.25 0 0 0 22.75 2L20.25 2A0.25 0.25 0 0 0 20 2.25ZM0 18.25L0 24.75A0.25 0.25 0 0 0 0.25 25L6.75 25A0.25 0.25 0 0 0 7 24.75L7 18.25A0.25 0.25 0 0 0 6.75 18L0.25 18A0.25 0.25 0 0 0 0 18.25ZM1 19.25L1 23.75A0.25 0.25 0 0 0 1.25 24L5.75 24A0.25 0.25 0 0 0 6 23.75L6 19.25A0.25 0.25 0 0 0 5.75 19L1.25 19A0.25 0.25 0 0 0 1 19.25ZM2 20.25L2 22.75A0.25 0.25 0 0 0 2.25 23L4.75 23A0.25 0.25 0 0 0 5 22.75L5 20.25A0.25 0.25 0 0 0 4.75 20L2.25 20A0.25 0.25 0 0 0 2 20.25Z" fill="#000000"/></g></g></svg>
