<?xml version="1.0" encoding="UTF-8"?>
<svg xmlns="http://www.w3.org/2000/svg" version="1.1" width="500" height="500" viewBox="0 0 500 500"><rect x="0" y="0" width="500" height="500" fill="#ffffff"/><g transform="scale(15.152)"><g transform="translate(0,0)"><path fill-rule="evenodd" d="M10.75 0.5A0.25 0.25 0 0 1 10.5 0.75A0.25 0.25 0 0 1 10.25 0.5A0.25 0.25 0 0 1 10.5 0.25A0.25 0.25 0 0 1 10.75 0.5ZM15.75 0.5A0.25 0.25 0 0 1 15.5 0.75A0.25 0.25 0 0 1 15.25 0.5A0.25 0.25 0 0 1 15.5 0.25A0.25 0.25 0 0 1 15.75 0.5ZM16.75 0.5A0.25 0.25 0 0 1 16.5 0.75A0.25 0.25 0 0 1 16.25 0.5A0.25 0.25 0 0 1 16.5 0.25A0.25 0.25 0 0 1 16.75 0.5ZM17.75 0.5A0.25 0.25 0 0 1 17.5 0.75A0.25 0.25 0 0 1 17.25 0.5A0.25 0.25 0 0 1 17.5 0.25A0.25 0.25 0 0 1 17.75 0.5ZM18.75 0.5A0.25 0.25 0 0 1 18.5 0.75A0.25 0.25 0 0 1 18.25 0.5A0.25 0.25 0 0 1 18.5 0.25A0.25 0.25 0 0 1 18.75 0.5ZM19.75 0.5A0.25 0.25 0 0 1 19.5 0.75A0.25 0.25 0 0 1 19.25 0.5A0.25 0.25 0 0 1 19.5 0.25A0.25 0.25 0 0 1 19.75 0.5ZM20.75 0.5A0.25 0.25 0 0 1 20.5 0.75A0.25 0.25 0 0 1 20.25 0.5A0.25 0.25 0 0 1 20.5 0.25A0.25 0.25 0 0 1 20.75 0.5ZM21.75 0.5A0.25 0.25 0 0 1 21.5 0.75A0.25 0.25 0 0 1 21.25 0.5A0.25 0.25 0 0 1 21.5 0.25A0.25 0.25 0 0 1 21.75 0.5ZM22.75 0.5A0.25 0.25 0 0 1 22.5 0.75A0.25 0.25 0 0 1 22.25 0.5A0.25 0.25 0 0 1 22.5 0.25A0.25 0.25 0 0 1 22.75 0.5ZM8.75 1.5A0.25 0.25 0 0 1 8.5 1.75A0.25 0.25 0 0 1 8.25 1.5A0.25 0.25 0 0 1 8.5 1.25A0.25 0.25 0 0 1 8.75 1.5ZM12.75 1.5A0.25 0.25 0 0 1 12.5 1.75A0.25 0.25 0 0 1 12.25 1.5A0.25 0.25 0 0 1 12.5 1.25A0.25 0.25 0 0 1 12.75 1.5ZM13.75 1.5A0.25 0.25 0 0 1 13.5 1.75A0.25 0.25 0 0 1 13.25 1.5A0.25 0.25 0 0 1 13.5 1.25A0.25 0.25 0 0 1 13.75 1.5ZM15.75 1.5A0.25 0.25 0 0 1 15.5 1.75A0.25 0.25 0 0 1 15.25 1.5A0.25 0.25 0 0 1 15.5 1.25A0.25 0.25 0 0 1 15.75 1.5ZM16.75 1.5A0.25 0.25 0 0 1 16.5 1.75A0.25 0.25 0 0 1 16.25 1.5A0.25 0.25 0 0 1 16.5 1.25A0.25 0.25 0 0 1 16.75 1.5ZM18.75 1.5A0.25 0.25 0 0 1 18.5 1.75A0.25 0.25 0 0 1 18.25 1.5A0.25 0.25 0 0 1 18.5 1.25A0.25 0.25 0 0 1 18.75 1.5ZM8.75 2.5A0.25 0.25 0 0 1 8.5 2.75A0.25 0.25 0 0 1 8.25 2.5A0.25 0.25 0 0 1 8.5 2.25A0.25 0.25 0 0 1 8.75 2.5ZM9.75 2.5A0.25 0.25 0 0 1 9.5 2.75A0.25 0.25 0 0 1 9.25 2.5A0.25 0.25 0 0 1 9.5 2.25A0.25 0.25 0 0 1 9.75 2.5ZM10.75 2.5A0.25 0.25 0 0 1 10.5 2.75A0.25 0.25 0 0 1 10.25 2.5A0.25 0.25 0 0 1 10.5 2.25A0.25 0.25 0 0 1 10.75 2.5ZM11.75 2.5A0.25 0.25 0 0 1 11.5 2.75A0.25 0.25 0 0 1 11.25 2.5A0.25 0.25 0 0 1 11.5 2.25A0.25 0.25 0 0 1 11.75 2.5ZM13.75 2.5A0.25 0.25 0 0 1 13.5 2.75A0.25 0.25 0 0 1 13.25 2.5A0.25 0.25 0 0 1 13.5 2.25A0.25 0.25 0 0 1 13.75 2.5ZM15.75 2.5A0.25 0.25 0 0 1 15.5 2.75A0.25 0.25 0 0 1 15.25 2.5A0.25 0.25 0 0 1 15.5 2.25A0.25 0.25 0 0 1 15.75 2.5ZM17.75 2.5A0.25 0.25 0 0 1 17.5 2.75A0.25 0.25 0 0 1 17.25 2.5A0.25 0.25 0 0 1 17.5 2.25A0.25 0.25 0 0 1 17.75 2.5ZM21.75 2.5A0.25 0.25 0 0 1 21.5 2.75A0.25 0.25 0 0 1 21.25 2.5A0.25 0.25 0 0 1 21.5 2.25A0.25 0.25 0 0 1 21.75 2.5ZM23.75 2.5A0.25 0.25 0 0 1 23.5 2.75A0.25 0.25 0 0 1 23.25 2.5A0.25 0.25 0 0 1 23.5 2.25A0.25 0.25 0 0 1 23.75 2.5ZM8.75 3.5A0.25 0.25 0 0 1 8.5 3.75A0.25 0.25 0 0 1 8.25 3.5A0.25 0.25 0 0 1 8.5 3.25A0.25 0.25 0 0 1 8.75 3.5ZM10.75 3.5A0.25 0.25 0 0 1 10.5 3.75A0.25 0.25 0 0 1 10.25 3.5A0.25 0.25 0 0 1 10.5 3.25A0.25 0.25 0 0 1 10.75 3.5ZM13.75 3.5A0.25 0.25 0 0 1 13.5 3.75A0.25 0.25 0 0 1 13.25 3.5A0.25 0.25 0 0 1 13.5 3.25A0.25 0.25 0 0 1 13.75 3.5ZM16.75 3.5A0.25 0.25 0 0 1 16.5 3.75A0.25 0.25 0 0 1 16.25 3.5A0.25 0.25 0 0 1 16.5 3.25A0.25 0.25 0 0 1 16.75 3.5ZM18.75 3.5A0.25 0.25 0 0 1 18.5 3.75A0.25 0.25 0 0 1 18.25 3.5A0.25 0.25 0 0 1 18.5 3.25A0.25 0.25 0 0 1 18.75 3.5ZM20.75 3.5A0.25 0.25 0 0 1 20.5 3.75A0.25 0.25 0 0 1 20.25 3.5A0.25 0.25 0 0 1 20.5 3.25A0.25 0.25 0 0 1 20.75 3.5ZM21.75 3.5A0.25 0.25 0 0 1 21.5 3.75A0.25 0.25 0 0 1 21.25 3.5A0.25 0.25 0 0 1 21.5 3.25A0.25 0.25 0 0 1 21.75 3.5ZM24.75 3.5A0.25 0.25 0 0 1 24.5 3.75A0.25 0.25 0 0 1 24.25 3.5A0.25 0.25 0 0 1 24.5 3.25A0.25 0.25 0 0 1 24.75 3.5ZM8.75 4.5A0.25 0.25 0 0 1 8.5 4.75A0.25 0.25 0 0 1 8.25 4.5A0.25 0.25 0 0 1 8.5 4.25A0.25 0.25 0 0 1 8.75 4.5ZM10.75 4.5A0.25 0.25 0 0 1 10.5 4.75A0.25 0.25 0 0 1 10.25 4.5A0.25 0.25 0 0 1 10.5 4.25A0.25 0.25 0 0 1 10.75 4.5ZM15.75 4.5A0.25 0.25 0 0 1 15.5 4.75A0.25 0.25 0 0 1 15.25 4.5A0.25 0.25 0 0 1 15.5 4.25A0.25 0.25 0 0 1 15.75 4.5ZM17.75 4.5A0.25 0.25 0 0 1 17.5 4.75A0.25 0.25 0 0 1 17.25 4.5A0.25 0.25 0 0 1 17.5 4.25A0.25 0.25 0 0 1 17.75 4.5ZM18.75 4.5A0.25 0.25 0 0 1 18.5 4.75A0.25 0.25 0 0 1 18.25 4.5A0.25 0.25 0 0 1 18.5 4.25A0.25 0.25 0 0 1 18.75 4.5ZM19.75 4.5A0.25 0.25 0 0 1 19.5 4.75A0.25 0.25 0 0 1 19.25 4.5A0.25 0.25 0 0 1 19.5 4.25A0.25 0.25 0 0 1 19.75 4.5ZM20.75 4.5A0.25 0.25 0 0 1 20.5 4.75A0.25 0.25 0 0 1 20.25 4.5A0.25 0.25 0 0 1 20.5 4.25A0.25 0.25 0 0 1 20.75 4.5ZM21.75 4.5A0.25 0.25 0 0 1 21.5 4.75A0.25 0.25 0 0 1 21.25 4.5A0.25 0.25 0 0 1 21.5 4.25A0.25 0.25 0 0 1 21.75 4.5ZM23.75 4.5A0.25 0.25 0 0 1 23.5 4.75A0.25 0.25 0 0 1 23.25 4.5A0.25 0.25 0 0 1 23.5 4.25A0.25 0.25 0 0 1 23.75 4.5ZM24.75 4.5A0.25 0.25 0 0 1 24.5 4.75A0.25 0.25 0 0 1 24.25 4.5A0.25 0.25 0 0 1 24.5 4.25A0.25 0.25 0 0 1 24.75 4.5ZM8.75 5.5A0.25 0.25 0 0 1 8.5 5.75A0.25 0.25 0 0 1 8.25 5.5A0.25 0.25 0 0 1 8.5 5.25A0.25 0.25 0 0 1 8.75 5.5ZM9.75 5.5A0.25 0.25 0 0 1 9.5 5.75A0.25 0.25 0 0 1 9.25 5.5A0.25 0.25 0 0 1 9.5 5.25A0.25 0.25 0 0 1 9.75 5.5ZM10.75 5.5A0.25 0.25 0 0 1 10.5 5.75A0.25 0.25 0 0 1 10.25 5.5A0.25 0.25 0 0 1 10.5 5.25A0.25 0.25 0 0 1 10.75 5.5ZM11.75 5.5A0.25 0.25 0 0 1 11.5 5.75A0.25 0.25 0 0 1 11.25 5.5A0.25 0.25 0 0 1 11.5 5.25A0.25 0.25 0 0 1 11.75 5.5ZM12.75 5.5A0.25 0.25 0 0 1 12.5 5.75A0.25 0.25 0 0 1 12.25 5.5A0.25 0.25 0 0 1 12.5 5.25A0.25 0.25 0 0 1 12.75 5.5ZM14.75 5.5A0.25 0.25 0 0 1 14.5 5.75A0.25 0.25 0 0 1 14.25 5.5A0.25 0.25 0 0 1 14.5 5.25A0.25 0.25 0 0 1 14.75 5.5ZM15.75 5.5A0.25 0.25 0 0 1 15.5 5.75A0.25 0.25 0 0 1 15.25 5.5A0.25 0.25 0 0 1 15.5 5.25A0.25 0.25 0 0 1 15.75 5.5ZM17.75 5.5A0.25 0.25 0 0 1 17.5 5.75A0.25 0.25 0 0 1 17.25 5.5A0.25 0.25 0 0 1 17.5 5.25A0.25 0.25 0 0 1 17.75 5.5ZM21.75 5.5A0.25 0.25 0 0 1 21.5 5.75A0.25 0.25 0 0 1 21.25 5.5A0.25 0.25 0 0 1 21.5 5.25A0.25 0.25 0 0 1 21.75 5.5ZM24.75 5.5A0.25 0.25 0 0 1 24.5 5.75A0.25 0.25 0 0 1 24.25 5.5A0.25 0.25 0 0 1 24.5 5.25A0.25 0.25 0 0 1 24.75 5.5ZM8.75 6.5A0.25 0.25 0 0 1 8.5 6.75A0.25 0.25 0 0 1 8.25 6.5A0.25 0.25 0 0 1 8.5 6.25A0.25 0.25 0 0 1 8.75 6.5ZM10.75 6.5A0.25 0.25 0 0 1 10.5 6.75A0.25 0.25 0 0 1 10.25 6.5A0.25 0.25 0 0 1 10.5 6.25A0.25 0.25 0 0 1 10.75 6.5ZM12.75 6.5A0.25 0.25 0 0 1 12.5 6.75A0.25 0.25 0 0 1 12.25 6.5A0.25 0.25 0 0 1 12.5 6.25A0.25 0.25 0 0 1 12.75 6.5ZM14.75 6.5A0.25 0.25 0 0 1 14.5 6.75A0.25 0.25 0 0 1 14.25 6.5A0.25 0.25 0 0 1 14.5 6.25A0.25 0.25 0 0 1 14.75 6.5ZM16.75 6.5A0.25 0.25 0 0 1 16.5 6.75A0.25 0.25 0 0 1 16.25 6.5A0.25 0.25 0 0 1 16.5 6.25A0.25 0.25 0 0 1 16.75 6.5ZM18.75 6.5A0.25 0.25 0 0 1 18.5 6.75A0.25 0.25 0 0 1 18.25 6.5A0.25 0.25 0 0 1 18.5 6.25A0.25 0.25 0 0 1 18.75 6.5ZM20.75 6.5A0.25 0.25 0 0 1 20.5 6.75A0.25 0.25 0 0 1 20.25 6.5A0.25 0.25 0 0 1 20.5 6.25A0.25 0.25 0 0 1 20.75 6.5ZM22.75 6.5A0.25 0.25 0 0 1 22.5 6.75A0.25 0.25 0 0 1 22.25 6.5A0.25 0.25 0 0 1 22.5 6.25A0.25 0.25 0 0 1 22.75 6.5ZM24.75 6.5A0.25 0.25 0 0 1 24.5 6.75A0.25 0.25 0 0 1 24.25 6.5A0.25 0.25 0 0 1 24.5 6.25A0.25 0.25 0 0 1 24.75 6.5ZM9.75 7.5A0.25 0.25 0 0 1 9.5 7.75A0.25 0.25 0 0 1 9.25 7.5A0.25 0.25 0 0 1 9.5 7.25A0.25 0.25 0 0 1 9.75 7.5ZM12.75 7.5A0.25 0.25 0 0 1 12.5 7.75A0.25 0.25 0 0 1 12.25 7.5A0.25 0.25 0 0 1 12.5 7.25A0.25 0.25 0 0 1 12.75 7.5ZM13.75 7.5A0.25 0.25 0 0 1 13.5 7.75A0.25 0.25 0 0 1 13.25 7.5A0.25 0.25 0 0 1 13.5 7.25A0.25 0.25 0 0 1 13.75 7.5ZM15.75 7.5A0.25 0.25 0 0 1 15.5 7.75A0.25 0.25 0 0 1 15.25 7.5A0.25 0.25 0 0 1 15.5 7.25A0.25 0.25 0 0 1 15.75 7.5ZM16.75 7.5A0.25 0.25 0 0 1 16.5 7.75A0.25 0.25 0 0 1 16.25 7.5A0.25 0.25 0 0 1 16.5 7.25A0.25 0.25 0 0 1 16.75 7.5ZM17.75 7.5A0.25 0.25 0 0 1 17.5 7.75A0.25 0.25 0 0 1 17.25 7.5A0.25 0.25 0 0 1 17.5 7.25A0.25 0.25 0 0 1 17.75 7.5ZM18.75 7.5A0.25 0.25 0 0 1 18.5 7.75A0.25 0.25 0 0 1 18.25 7.5A0.25 0.25 0 0 1 18.5 7.25A0.25 0.25 0 0 1 18.75 7.5ZM2.75 8.5A0.25 0.25 0 0 1 2.5 8.75A0.25 0.25 0 0 1 2.25 8.5A0.25 0.25 0 0 1 2.5 8.25A0.25 0.25 0 0 1 2.75 8.5ZM5.75 8.5A0.25 0.25 0 0 1 5.5 8.75A0.25 0.25 0 0 1 5.25 8.5A0.25 0.25 0 0 1 5.5 8.25A0.25 0.25 0 0 1 5.75 8.5ZM6.75 8.5A0.25 0.25 0 0 1 6.5 8.75A0.25 0.25 0 0 1 6.25 8.5A0.25 0.25 0 0 1 6.5 8.25A0.25 0.25 0 0 1 6.75 8.5ZM7.75 8.5A0.25 0.25 0 0 1 7.5 8.75A0.25 0.25 0 0 1 7.25 8.5A0.25 0.25 0 0 1 7.5 8.25A0.25 0.25 0 0 1 7.75 8.5ZM8.75 8.5A0.25 0.25 0 0 1 8.5 8.75A0.25 0.25 0 0 1 8.25 8.5A0.25 0.25 0 0 1 8.5 8.25A0.25 0.25 0 0 1 8.75 8.5ZM11.75 8.5A0.25 0.25 0 0 1 11.5 8.75A0.25 0.25 0 0 1 11.25 8.5A0.25 0.25 0 0 1 11.5 8.25A0.25 0.25 0 0 1 11.75 8.5ZM12.75 8.5A0.25 0.25 0 0 1 12.5 8.75A0.25 0.25 0 0 1 12.25 8.5A0.25 0.25 0 0 1 12.5 8.25A0.25 0.25 0 0 1 12.75 8.5ZM13.75 8.5A0.25 0.25 0 0 1 13.5 8.75A0.25 0.25 0 0 1 13.25 8.5A0.25 0.25 0 0 1 13.5 8.25A0.25 0.25 0 0 1 13.75 8.5ZM14.75 8.5A0.25 0.25 0 0 1 14.5 8.75A0.25 0.25 0 0 1 14.25 8.5A0.25 0.25 0 0 1 14.5 8.25A0.25 0.25 0 0 1 14.75 8.5ZM15.75 8.5A0.25 0.25 0 0 1 15.5 8.75A0.25 0.25 0 0 1 15.25 8.5A0.25 0.25 0 0 1 15.5 8.25A0.25 0.25 0 0 1 15.75 8.5ZM17.75 8.5A0.25 0.25 0 0 1 17.5 8.75A0.25 0.25 0 0 1 17.25 8.5A0.25 0.25 0 0 1 17.5 8.25A0.25 0.25 0 0 1 17.75 8.5ZM18.75 8.5A0.25 0.25 0 0 1 18.5 8.75A0.25 0.25 0 0 1 18.25 8.5A0.25 0.25 0 0 1 18.5 8.25A0.25 0.25 0 0 1 18.75 8.5ZM19.75 8.5A0.25 0.25 0 0 1 19.5 8.75A0.25 0.25 0 0 1 19.25 8.5A0.25 0.25 0 0 1 19.5 8.25A0.25 0.25 0 0 1 19.75 8.5ZM22.75 8.5A0.25 0.25 0 0 1 22.5 8.75A0.25 0.25 0 0 1 22.25 8.5A0.25 0.25 0 0 1 22.5 8.25A0.25 0.25 0 0 1 22.75 8.5ZM23.75 8.5A0.25 0.25 0 0 1 23.5 8.75A0.25 0.25 0 0 1 23.25 8.5A0.25 0.25 0 0 1 23.5 8.25A0.25 0.25 0 0 1 23.75 8.5ZM25.75 8.5A0.25 0.25 0 0 1 25.5 8.75A0.25 0.25 0 0 1 25.25 8.5A0.25 0.25 0 0 1 25.5 8.25A0.25 0.25 0 0 1 25.75 8.5ZM27.75 8.5A0.25 0.25 0 0 1 27.5 8.75A0.25 0.25 0 0 1 27.25 8.5A0.25 0.25 0 0 1 27.5 8.25A0.25 0.25 0 0 1 27.75 8.5ZM28.75 8.5A0.25 0.25 0 0 1 28.5 8.75A0.25 0.25 0 0 1 28.25 8.5A0.25 0.25 0 0 1 28.5 8.25A0.25 0.25 0 0 1 28.75 8.5ZM29.75 8.5A0.25 0.25 0 0 1 29.5 8.75A0.25 0.25 0 0 1 29.25 8.5A0.25 0.25 0 0 1 29.5 8.25A0.25 0.25 0 0 1 29.75 8.5ZM30.75 8.5A0.25 0.25 0 0 1 30.5 8.75A0.25 0.25 0 0 1 30.25 8.5A0.25 0.25 0 0 1 30.5 8.25A0.25 0.25 0 0 1 30.75 8.5ZM31.75 8.5A0.25 0.25 0 0 1 31.5 8.75A0.25 0.25 0 0 1 31.25 8.5A0.25 0.25 0 0 1 31.5 8.25A0.25 0.25 0 0 1 31.75 8.5ZM0.75 9.5A0.25 0.25 0 0 1 0.5 9.75A0.25 0.25 0 0 1 0.25 9.5A0.25 0.25 0 0 1 0.5 9.25A0.25 0.25 0 0 1 0.75 9.5ZM3.75 9.5A0.25 0.25 0 0 1 3.5 9.75A0.25 0.25 0 0 1 3.25 9.5A0.25 0.25 0 0 1 3.5 9.25A0.25 0.25 0 0 1 3.75 9.5ZM4.75 9.5A0.25 0.25 0 0 1 4.5 9.75A0.25 0.25 0 0 1 4.25 9.5A0.25 0.25 0 0 1 4.5 9.25A0.25 0.25 0 0 1 4.75 9.5ZM5.75 9.5A0.25 0.25 0 0 1 5.5 9.75A0.25 0.25 0 0 1 5.25 9.5A0.25 0.25 0 0 1 5.5 9.25A0.25 0.25 0 0 1 5.75 9.5ZM9.75 9.5A0.25 0.25 0 0 1 9.5 9.75A0.25 0.25 0 0 1 9.25 9.5A0.25 0.25 0 0 1 9.5 9.25A0.25 0.25 0 0 1 9.75 9.5ZM10.75 9.5A0.25 0.25 0 0 1 10.5 9.75A0.25 0.25 0 0 1 10.25 9.5A0.25 0.25 0 0 1 10.5 9.25A0.25 0.25 0 0 1 10.75 9.5ZM11.75 9.5A0.25 0.25 0 0 1 11.5 9.75A0.25 0.25 0 0 1 11.25 9.5A0.25 0.25 0 0 1 11.5 9.25A0.25 0.25 0 0 1 11.75 9.5ZM12.75 9.5A0.25 0.25 0 0 1 12.5 9.75A0.25 0.25 0 0 1 12.25 9.5A0.25 0.25 0 0 1 12.5 9.25A0.25 0.25 0 0 1 12.75 9.5ZM13.75 9.5A0.25 0.25 0 0 1 13.5 9.75A0.25 0.25 0 0 1 13.25 9.5A0.25 0.25 0 0 1 13.5 9.25A0.25 0.25 0 0 1 13.75 9.5ZM14.75 9.5A0.25 0.25 0 0 1 14.5 9.75A0.25 0.25 0 0 1 14.25 9.5A0.25 0.25 0 0 1 14.5 9.25A0.25 0.25 0 0 1 14.75 9.5ZM15.75 9.5A0.25 0.25 0 0 1 15.5 9.75A0.25 0.25 0 0 1 15.25 9.5A0.25 0.25 0 0 1 15.5 9.25A0.25 0.25 0 0 1 15.75 9.5ZM16.75 9.5A0.25 0.25 0 0 1 16.5 9.75A0.25 0.25 0 0 1 16.25 9.5A0.25 0.25 0 0 1 16.5 9.25A0.25 0.25 0 0 1 16.75 9.5ZM18.75 9.5A0.25 0.25 0 0 1 18.5 9.75A0.25 0.25 0 0 1 18.25 9.5A0.25 0.25 0 0 1 18.5 9.25A0.25 0.25 0 0 1 18.75 9.5ZM21.75 9.5A0.25 0.25 0 0 1 21.5 9.75A0.25 0.25 0 0 1 21.25 9.5A0.25 0.25 0 0 1 21.5 9.25A0.25 0.25 0 0 1 21.75 9.5ZM22.75 9.5A0.25 0.25 0 0 1 22.5 9.75A0.25 0.25 0 0 1 22.25 9.5A0.25 0.25 0 0 1 22.5 9.25A0.25 0.25 0 0 1 22.75 9.5ZM23.75 9.5A0.25 0.25 0 0 1 23.5 9.75A0.25 0.25 0 0 1 23.25 9.5A0.25 0.25 0 0 1 23.5 9.25A0.25 0.25 0 0 1 23.75 9.5ZM26.75 9.5A0.25 0.25 0 0 1 26.5 9.75A0.25 0.25 0 0 1 26.25 9.5A0.25 0.25 0 0 1 26.5 9.25A0.25 0.25 0 0 1 26.75 9.5ZM27.75 9.5A0.25 0.25 0 0 1 27.5 9.75A0.25 0.25 0 0 1 27.25 9.5A0.25 0.25 0 0 1 27.5 9.25A0.25 0.25 0 0 1 27.75 9.5ZM29.75 9.5A0.25 0.25 0 0 1 29.5 9.75A0.25 0.25 0 0 1 29.25 9.5A0.25 0.25 0 0 1 29.5 9.25A0.25 0.25 0 0 1 29.75 9.5ZM30.75 9.5A0.25 0.25 0 0 1 30.5 9.75A0.25 0.25 0 0 1 30.25 9.5A0.25 0.25 0 0 1 30.5 9.25A0.25 0.25 0 0 1 30.75 9.5ZM31.75 9.5A0.25 0.25 0 0 1 31.5 9.75A0.25 0.25 0 0 1 31.25 9.5A0.25 0.25 0 0 1 31.5 9.25A0.25 0.25 0 0 1 31.75 9.5ZM32.75 9.5A0.25 0.25 0 0 1 32.5 9.75A0.25 0.25 0 0 1 32.25 9.5A0.25 0.25 0 0 1 32.5 9.25A0.25 0.25 0 0 1 32.75 9.5ZM0.75 10.5A0.25 0.25 0 0 1 0.5 10.75A0.25 0.25 0 0 1 0.25 10.5A0.25 0.25 0 0 1 0.5 10.25A0.25 0.25 0 0 1 0.75 10.5ZM3.75 10.5A0.25 0.25 0 0 1 3.5 10.75A0.25 0.25 0 0 1 3.25 10.5A0.25 0.25 0 0 1 3.5 10.25A0.25 0.25 0 0 1 3.75 10.5ZM4.75 10.5A0.25 0.25 0 0 1 4.5 10.75A0.25 0.25 0 0 1 4.25 10.5A0.25 0.25 0 0 1 4.5 10.25A0.25 0.25 0 0 1 4.75 10.5ZM6.75 10.5A0.25 0.25 0 0 1 6.5 10.75A0.25 0.25 0 0 1 6.25 10.5A0.25 0.25 0 0 1 6.5 10.25A0.25 0.25 0 0 1 6.75 10.5ZM7.75 10.5A0.25 0.25 0 0 1 7.5 10.75A0.25 0.25 0 0 1 7.25 10.5A0.25 0.25 0 0 1 7.5 10.25A0.25 0.25 0 0 1 7.75 10.5ZM9.75 10.5A0.25 0.25 0 0 1 9.5 10.75A0.25 0.25 0 0 1 9.25 10.5A0.25 0.25 0 0 1 9.5 10.25A0.25 0.25 0 0 1 9.75 10.5ZM10.75 10.5A0.25 0.25 0 0 1 10.5 10.75A0.25 0.25 0 0 1 10.25 10.5A0.25 0.25 0 0 1 10.5 10.25A0.25 0.25 0 0 1 10.75 10.5ZM11.75 10.5A0.25 0.25 0 0 1 11.5 10.75A0.25 0.25 0 0 1 11.25 10.5A0.25 0.25 0 0 1 11.5 10.25A0.25 0.25 0 0 1 11.75 10.5ZM12.75 10.5A0.25 0.25 0 0 1 12.5 10.75A0.25 0.25 0 0 1 12.25 10.5A0.25 0.25 0 0 1 12.5 10.25A0.25 0.25 0 0 1 12.75 10.5ZM15.75 10.5A0.25 0.25 0 0 1 15.5 10.75A0.25 0.25 0 0 1 15.25 10.5A0.25 0.25 0 0 1 15.5 10.25A0.25 0.25 0 0 1 15.75 10.5ZM19.75 10.5A0.25 0.25 0 0 1 19.5 10.75A0.25 0.25 0 0 1 19.25 10.5A0.25 0.25 0 0 1 19.5 10.25A0.25 0.25 0 0 1 19.75 10.5ZM20.75 10.5A0.25 0.25 0 0 1 20.5 10.75A0.25 0.25 0 0 1 20.25 10.5A0.25 0.25 0 0 1 20.5 10.25A0.25 0.25 0 0 1 20.75 10.5ZM23.75 10.5A0.25 0.25 0 0 1 23.5 10.75A0.25 0.25 0 0 1 23.25 10.5A0.25 0.25 0 0 1 23.5 10.25A0.25 0.25 0 0 1 23.75 10.5ZM24.75 10.5A0.25 0.25 0 0 1 24.5 10.75A0.25 0.25 0 0 1 24.25 10.5A0.25 0.25 0 0 1 24.5 10.25A0.25 0.25 0 0 1 24.75 10.5ZM25.75 10.5A0.25 0.25 0 0 1 25.5 10.75A0.25 0.25 0 0 1 25.25 10.5A0.25 0.25 0 0 1 25.5 10.25A0.25 0.25 0 0 1 25.75 10.5ZM27.75 10.5A0.25 0.25 0 0 1 27.5 10.75A0.25 0.25 0 0 1 27.25 10.5A0.25 0.25 0 0 1 27.5 10.25A0.25 0.25 0 0 1 27.75 10.5ZM28.75 10.5A0.25 0.25 0 0 1 28.5 10.75A0.25 0.25 0 0 1 28.25 10.5A0.25 0.25 0 0 1 28.5 10.25A0.25 0.25 0 0 1 28.75 10.5ZM29.75 10.5A0.25 0.25 0 0 1 29.5 10.75A0.25 0.25 0 0 1 29.25 10.5A0.25 0.25 0 0 1 29.5 10.25A0.25 0.25 0 0 1 29.75 10.5ZM30.75 10.5A0.25 0.25 0 0 1 30.5 10.75A0.25 0.25 0 0 1 30.25 10.5A0.25 0.25 0 0 1 30.5 10.25A0.25 0.25 0 0 1 30.75 10.5ZM31.75 10.5A0.25 0.25 0 0 1 31.5 10.75A0.25 0.25 0 0 1 31.25 10.5A0.25 0.25 0 0 1 31.5 10.25A0.25 0.25 0 0 1 31.75 10.5ZM32.75 10.5A0.25 0.25 0 0 1 32.5 10.75A0.25 0.25 0 0 1 32.25 10.5A0.25 0.25 0 0 1 32.5 10.25A0.25 0.25 0 0 1 32.75 10.5ZM0.75 11.5A0.25 0.25 0 0 1 0.5 11.75A0.25 0.25 0 0 1 0.25 11.5A0.25 0.25 0 0 1 0.5 11.25A0.25 0.25 0 0 1 0.75 11.5ZM1.75 11.5A0.25 0.25 0 0 1 1.5 11.75A0.25 0.25 0 0 1 1.25 11.5A0.25 0.25 0 0 1 1.5 11.25A0.25 0.25 0 0 1 1.75 11.5ZM5.75 11.5A0.25 0.25 0 0 1 5.5 11.75A0.25 0.25 0 0 1 5.25 11.5A0.25 0.25 0 0 1 5.5 11.25A0.25 0.25 0 0 1 5.75 11.5ZM8.75 11.5A0.25 0.25 0 0 1 8.5 11.75A0.25 0.25 0 0 1 8.25 11.5A0.25 0.25 0 0 1 8.5 11.25A0.25 0.25 0 0 1 8.75 11.5ZM11.75 11.5A0.25 0.25 0 0 1 11.5 11.75A0.25 0.25 0 0 1 11.25 11.5A0.25 0.25 0 0 1 11.5 11.25A0.25 0.25 0 0 1 11.75 11.5ZM14.75 11.5A0.25 0.25 0 0 1 14.5 11.75A0.25 0.25 0 0 1 14.25 11.5A0.25 0.25 0 0 1 14.5 11.25A0.25 0.25 0 0 1 14.75 11.5ZM19.75 11.5A0.25 0.25 0 0 1 19.5 11.75A0.25 0.25 0 0 1 19.25 11.5A0.25 0.25 0 0 1 19.5 11.25A0.25 0.25 0 0 1 19.75 11.5ZM20.75 11.5A0.25 0.25 0 0 1 20.5 11.75A0.25 0.25 0 0 1 20.25 11.5A0.25 0.25 0 0 1 20.5 11.25A0.25 0.25 0 0 1 20.75 11.5ZM21.75 11.5A0.25 0.25 0 0 1 21.5 11.75A0.25 0.25 0 0 1 21.25 11.5A0.25 0.25 0 0 1 21.5 11.25A0.25 0.25 0 0 1 21.75 11.5ZM24.75 11.5A0.25 0.25 0 0 1 24.5 11.75A0.25 0.25 0 0 1 24.25 11.5A0.25 0.25 0 0 1 24.5 11.25A0.25 0.25 0 0 1 24.75 11.5ZM28.75 11.5A0.25 0.25 0 0 1 28.5 11.75A0.25 0.25 0 0 1 28.25 11.5A0.25 0.25 0 0 1 28.5 11.25A0.25 0.25 0 0 1 28.75 11.5ZM29.75 11.5A0.25 0.25 0 0 1 29.5 11.75A0.25 0.25 0 0 1 29.25 11.5A0.25 0.25 0 0 1 29.5 11.25A0.25 0.25 0 0 1 29.75 11.5ZM2.75 12.5A0.25 0.25 0 0 1 2.5 12.75A0.25 0.25 0 0 1 2.25 12.5A0.25 0.25 0 0 1 2.5 12.25A0.25 0.25 0 0 1 2.75 12.5ZM4.75 12.5A0.25 0.25 0 0 1 4.5 12.75A0.25 0.25 0 0 1 4.25 12.5A0.25 0.25 0 0 1 4.5 12.25A0.25 0.25 0 0 1 4.75 12.5ZM6.75 12.5A0.25 0.25 0 0 1 6.5 12.75A0.25 0.25 0 0 1 6.25 12.5A0.25 0.25 0 0 1 6.5 12.25A0.25 0.25 0 0 1 6.75 12.5ZM7.75 12.5A0.25 0.25 0 0 1 7.5 12.75A0.25 0.25 0 0 1 7.25 12.5A0.25 0.25 0 0 1 7.5 12.25A0.25 0.25 0 0 1 7.75 12.5ZM10.75 12.5A0.25 0.25 0 0 1 10.5 12.75A0.25 0.25 0 0 1 10.25 12.5A0.25 0.25 0 0 1 10.5 12.25A0.25 0.25 0 0 1 10.75 12.5ZM11.75 12.5A0.25 0.25 0 0 1 11.5 12.75A0.25 0.25 0 0 1 11.25 12.5A0.25 0.25 0 0 1 11.5 12.25A0.25 0.25 0 0 1 11.75 12.5ZM17.75 12.5A0.25 0.25 0 0 1 17.5 12.75A0.25 0.25 0 0 1 17.25 12.5A0.25 0.25 0 0 1 17.5 12.25A0.25 0.25 0 0 1 17.75 12.5ZM19.75 12.5A0.25 0.25 0 0 1 19.5 12.75A0.25 0.25 0 0 1 19.25 12.5A0.25 0.25 0 0 1 19.5 12.25A0.25 0.25 0 0 1 19.75 12.5ZM21.75 12.5A0.25 0.25 0 0 1 21.5 12.75A0.25 0.25 0 0 1 21.25 12.5A0.25 0.25 0 0 1 21.5 12.25A0.25 0.25 0 0 1 21.75 12.5ZM23.75 12.5A0.25 0.25 0 0 1 23.5 12.75A0.25 0.25 0 0 1 23.25 12.5A0.25 0.25 0 0 1 23.5 12.25A0.25 0.25 0 0 1 23.75 12.5ZM25.75 12.5A0.25 0.25 0 0 1 25.5 12.75A0.25 0.25 0 0 1 25.25 12.5A0.25 0.25 0 0 1 25.5 12.25A0.25 0.25 0 0 1 25.75 12.5ZM26.75 12.5A0.25 0.25 0 0 1 26.5 12.75A0.25 0.25 0 0 1 26.25 12.5A0.25 0.25 0 0 1 26.5 12.25A0.25 0.25 0 0 1 26.75 12.5ZM27.75 12.5A0.25 0.25 0 0 1 27.5 12.75A0.25 0.25 0 0 1 27.25 12.5A0.25 0.25 0 0 1 27.5 12.25A0.25 0.25 0 0 1 27.75 12.5ZM28.75 12.5A0.25 0.25 0 0 1 28.5 12.75A0.25 0.25 0 0 1 28.25 12.5A0.25 0.25 0 0 1 28.5 12.25A0.25 0.25 0 0 1 28.75 12.5ZM30.75 12.5A0.25 0.25 0 0 1 30.5 12.75A0.25 0.25 0 0 1 30.25 12.5A0.25 0.25 0 0 1 30.5 12.25A0.25 0.25 0 0 1 30.75 12.5ZM0.75 13.5A0.25 0.25 0 0 1 0.5 13.75A0.25 0.25 0 0 1 0.25 13.5A0.25 0.25 0 0 1 0.5 13.25A0.25 0.25 0 0 1 0.75 13.5ZM2.75 13.5A0.25 0.25 0 0 1 2.5 13.75A0.25 0.25 0 0 1 2.25 13.5A0.25 0.25 0 0 1 2.5 13.25A0.25 0.25 0 0 1 2.75 13.5ZM3.75 13.5A0.25 0.25 0 0 1 3.5 13.75A0.25 0.25 0 0 1 3.25 13.5A0.25 0.25 0 0 1 3.5 13.25A0.25 0.25 0 0 1 3.75 13.5ZM4.75 13.5A0.25 0.25 0 0 1 4.5 13.75A0.25 0.25 0 0 1 4.25 13.5A0.25 0.25 0 0 1 4.5 13.25A0.25 0.25 0 0 1 4.75 13.5ZM5.75 13.5A0.25 0.25 0 0 1 5.5 13.75A0.25 0.25 0 0 1 5.25 13.5A0.25 0.25 0 0 1 5.5 13.25A0.25 0.25 0 0 1 5.75 13.5ZM11.75 13.5A0.25 0.25 0 0 1 11.5 13.75A0.25 0.25 0 0 1 11.25 13.5A0.25 0.25 0 0 1 11.5 13.25A0.25 0.25 0 0 1 11.75 13.5ZM12.75 13.5A0.25 0.25 0 0 1 12.5 13.75A0.25 0.25 0 0 1 12.25 13.5A0.25 0.25 0 0 1 12.5 13.25A0.25 0.25 0 0 1 12.75 13.5ZM13.75 13.5A0.25 0.25 0 0 1 13.5 13.75A0.25 0.25 0 0 1 13.25 13.5A0.25 0.25 0 0 1 13.5 13.25A0.25 0.25 0 0 1 13.75 13.5ZM14.75 13.5A0.25 0.25 0 0 1 14.5 13.75A0.25 0.25 0 0 1 14.25 13.5A0.25 0.25 0 0 1 14.5 13.25A0.25 0.25 0 0 1 14.75 13.5ZM19.75 13.5A0.25 0.25 0 0 1 19.5 13.75A0.25 0.25 0 0 1 19.25 13.5A0.25 0.25 0 0 1 19.5 13.25A0.25 0.25 0 0 1 19.75 13.5ZM21.75 13.5A0.25 0.25 0 0 1 21.5 13.75A0.25 0.25 0 0 1 21.25 13.5A0.25 0.25 0 0 1 21.5 13.25A0.25 0.25 0 0 1 21.75 13.5ZM23.75 13.5A0.25 0.25 0 0 1 23.5 13.75A0.25 0.25 0 0 1 23.25 13.5A0.25 0.25 0 0 1 23.5 13.25A0.25 0.25 0 0 1 23.75 13.5ZM25.75 13.5A0.25 0.25 0 0 1 25.5 13.75A0.25 0.25 0 0 1 25.25 13.5A0.25 0.25 0 0 1 25.5 13.25A0.25 0.25 0 0 1 25.75 13.5ZM26.75 13.5A0.25 0.25 0 0 1 26.5 13.75A0.25 0.25 0 0 1 26.25 13.5A0.25 0.25 0 0 1 26.5 13.25A0.25 0.25 0 0 1 26.75 13.5ZM27.75 13.5A0.25 0.25 0 0 1 27.5 13.75A0.25 0.25 0 0 1 27.25 13.5A0.25 0.25 0 0 1 27.5 13.25A0.25 0.25 0 0 1 27.75 13.5ZM28.75 13.5A0.25 0.25 0 0 1 28.5 13.75A0.25 0.25 0 0 1 28.25 13.5A0.25 0.25 0 0 1 28.5 13.25A0.25 0.25 0 0 1 28.75 13.5ZM29.75 13.5A0.25 0.25 0 0 1 29.5 13.75A0.25 0.25 0 0 1 29.25 13.5A0.25 0.25 0 0 1 29.5 13.25A0.25 0.25 0 0 1 29.75 13.5ZM30.75 13.5A0.25 0.25 0 0 1 30.5 13.75A0.25 0.25 0 0 1 30.25 13.5A0.25 0.25 0 0 1 30.5 13.25A0.25 0.25 0 0 1 30.75 13.5ZM0.75 14.5A0.25 0.25 0 0 1 0.5 14.75A0.25 0.25 0 0 1 0.25 14.5A0.25 0.25 0 0 1 0.5 14.25A0.25 0.25 0 0 1 0.75 14.5ZM1.75 14.5A0.25 0.25 0 0 1 1.5 14.75A0.25 0.25 0 0 1 1.25 14.5A0.25 0.25 0 0 1 1.5 14.25A0.25 0.25 0 0 1 1.75 14.5ZM3.75 14.5A0.25 0.25 0 0 1 3.5 14.75A0.25 0.25 0 0 1 3.25 14.5A0.25 0.25 0 0 1 3.5 14.25A0.25 0.25 0 0 1 3.75 14.5ZM4.75 14.5A0.25 0.25 0 0 1 4.5 14.75A0.25 0.25 0 0 1 4.25 14.5A0.25 0.25 0 0 1 4.5 14.25A0.25 0.25 0 0 1 4.75 14.5ZM6.75 14.5A0.25 0.25 0 0 1 6.5 14.75A0.25 0.25 0 0 1 6.25 14.5A0.25 0.25 0 0 1 6.5 14.25A0.25 0.25 0 0 1 6.75 14.5ZM7.75 14.5A0.25 0.25 0 0 1 7.5 14.75A0.25 0.25 0 0 1 7.25 14.5A0.25 0.25 0 0 1 7.5 14.25A0.25 0.25 0 0 1 7.75 14.5ZM8.75 14.5A0.25 0.25 0 0 1 8.5 14.75A0.25 0.25 0 0 1 8.25 14.5A0.25 0.25 0 0 1 8.5 14.25A0.25 0.25 0 0 1 8.75 14.5ZM9.75 14.5A0.25 0.25 0 0 1 9.5 14.75A0.25 0.25 0 0 1 9.25 14.5A0.25 0.25 0 0 1 9.5 14.25A0.25 0.25 0 0 1 9.75 14.5ZM10.75 14.5A0.25 0.25 0 0 1 10.5 14.75A0.25 0.25 0 0 1 10.25 14.5A0.25 0.25 0 0 1 10.5 14.25A0.25 0.25 0 0 1 10.75 14.5ZM11.75 14.5A0.25 0.25 0 0 1 11.5 14.75A0.25 0.25 0 0 1 11.25 14.5A0.25 0.25 0 0 1 11.5 14.25A0.25 0.25 0 0 1 11.75 14.5ZM13.75 14.5A0.25 0.25 0 0 1 13.5 14.75A0.25 0.25 0 0 1 13.25 14.5A0.25 0.25 0 0 1 13.5 14.25A0.25 0.25 0 0 1 13.75 14.5ZM14.75 14.5A0.25 0.25 0 0 1 14.5 14.75A0.25 0.25 0 0 1 14.25 14.5A0.25 0.25 0 0 1 14.5 14.25A0.25 0.25 0 0 1 14.75 14.5ZM15.75 14.5A0.25 0.25 0 0 1 15.5 14.75A0.25 0.25 0 0 1 15.25 14.5A0.25 0.25 0 0 1 15.5 14.25A0.25 0.25 0 0 1 15.75 14.5ZM17.75 14.5A0.25 0.25 0 0 1 17.5 14.75A0.25 0.25 0 0 1 17.25 14.5A0.25 0.25 0 0 1 17.5 14.25A0.25 0.25 0 0 1 17.75 14.5ZM18.75 14.5A0.25 0.25 0 0 1 18.5 14.75A0.25 0.25 0 0 1 18.25 14.5A0.25 0.25 0 0 1 18.5 14.25A0.25 0.25 0 0 1 18.75 14.5ZM20.75 14.5A0.25 0.25 0 0 1 20.5 14.75A0.25 0.25 0 0 1 20.25 14.5A0.25 0.25 0 0 1 20.5 14.25A0.25 0.25 0 0 1 20.75 14.5ZM23.75 14.5A0.25 0.25 0 0 1 23.5 14.75A0.25 0.25 0 0 1 23.25 14.5A0.25 0.25 0 0 1 23.5 14.25A0.25 0.25 0 0 1 23.75 14.5ZM24.75 14.5A0.25 0.25 0 0 1 24.5 14.75A0.25 0.25 0 0 1 24.25 14.5A0.25 0.25 0 0 1 24.5 14.25A0.25 0.25 0 0 1 24.75 14.5ZM25.75 14.5A0.25 0.25 0 0 1 25.5 14.75A0.25 0.25 0 0 1 25.25 14.5A0.25 0.25 0 0 1 25.5 14.25A0.25 0.25 0 0 1 25.75 14.5ZM27.75 14.5A0.25 0.25 0 0 1 27.5 14.75A0.25 0.25 0 0 1 27.25 14.5A0.25 0.25 0 0 1 27.5 14.25A0.25 0.25 0 0 1 27.75 14.5ZM29.75 14.5A0.25 0.25 0 0 1 29.5 14.75A0.25 0.25 0 0 1 29.25 14.5A0.25 0.25 0 0 1 29.5 14.25A0.25 0.25 0 0 1 29.75 14.5ZM32.75 14.5A0.25 0.25 0 0 1 32.5 14.75A0.25 0.25 0 0 1 32.25 14.5A0.25 0.25 0 0 1 32.5 14.25A0.25 0.25 0 0 1 32.75 14.5ZM0.75 15.5A0.25 0.25 0 0 1 0.5 15.75A0.25 0.25 0 0 1 0.25 15.5A0.25 0.25 0 0 1 0.5 15.25A0.25 0.25 0 0 1 0.75 15.5ZM1.75 15.5A0.25 0.25 0 0 1 1.5 15.75A0.25 0.25 0 0 1 1.25 15.5A0.25 0.25 0 0 1 1.5 15.25A0.25 0.25 0 0 1 1.75 15.5ZM11.75 15.5A0.25 0.25 0 0 1 11.5 15.75A0.25 0.25 0 0 1 11.25 15.5A0.25 0.25 0 0 1 11.5 15.25A0.25 0.25 0 0 1 11.75 15.5ZM15.75 15.5A0.25 0.25 0 0 1 15.5 15.75A0.25 0.25 0 0 1 15.25 15.5A0.25 0.25 0 0 1 15.5 15.25A0.25 0.25 0 0 1 15.75 15.5ZM17.75 15.5A0.25 0.25 0 0 1 17.5 15.75A0.25 0.25 0 0 1 17.25 15.5A0.25 0.25 0 0 1 17.5 15.25A0.25 0.25 0 0 1 17.75 15.5ZM18.75 15.5A0.25 0.25 0 0 1 18.5 15.75A0.25 0.25 0 0 1 18.25 15.5A0.25 0.25 0 0 1 18.5 15.25A0.25 0.25 0 0 1 18.75 15.5ZM19.75 15.5A0.25 0.25 0 0 1 19.5 15.75A0.25 0.25 0 0 1 19.25 15.5A0.25 0.25 0 0 1 19.5 15.25A0.25 0.25 0 0 1 19.75 15.5ZM22.75 15.5A0.25 0.25 0 0 1 22.5 15.75A0.25 0.25 0 0 1 22.25 15.5A0.25 0.25 0 0 1 22.5 15.25A0.25 0.25 0 0 1 22.75 15.5ZM25.75 15.5A0.25 0.25 0 0 1 25.5 15.75A0.25 0.25 0 0 1 25.25 15.5A0.25 0.25 0 0 1 25.5 15.25A0.25 0.25 0 0 1 25.75 15.5ZM27.75 15.5A0.25 0.25 0 0 1 27.5 15.75A0.25 0.25 0 0 1 27.25 15.5A0.25 0.25 0 0 1 27.5 15.25A0.25 0.25 0 0 1 27.75 15.5ZM28.75 15.5A0.25 0.25 0 0 1 28.5 15.75A0.25 0.25 0 0 1 28.25 15.5A0.25 0.25 0 0 1 28.5 15.25A0.25 0.25 0 0 1 28.75 15.5ZM29.75 15.5A0.25 0.25 0 0 1 29.5 15.75A0.25 0.25 0 0 1 29.25 15.5A0.25 0.25 0 0 1 29.5 15.25A0.25 0.25 0 0 1 29.75 15.5ZM30.75 15.5A0.25 0.25 0 0 1 30.5 15.75A0.25 0.25 0 0 1 30.25 15.5A0.25 0.25 0 0 1 30.5 15.25A0.25 0.25 0 0 1 30.75 15.5ZM32.75 15.5A0.25 0.25 0 0 1 32.5 15.75A0.25 0.25 0 0 1 32.25 15.5A0.25 0.25 0 0 1 32.5 15.25A0.25 0.25 0 0 1 32.75 15.5ZM0.75 16.5A0.25 0.25 0 0 1 0.5 16.75A0.25 0.25 0 0 1 0.25 16.5A0.25 0.25 0 0 1 0.5 16.25A0.25 0.25 0 0 1 0.75 16.5ZM4.75 16.5A0.25 0.25 0 0 1 4.5 16.75A0.25 0.25 0 0 1 4.25 16.5A0.25 0.25 0 0 1 4.5 16.25A0.25 0.25 0 0 1 4.75 16.5ZM5.75 16.5A0.25 0.25 0 0 1 5.5 16.75A0.25 0.25 0 0 1 5.25 16.5A0.25 0.25 0 0 1 5.5 16.25A0.25 0.25 0 0 1 5.75 16.5ZM6.75 16.5A0.25 0.25 0 0 1 6.5 16.75A0.25 0.25 0 0 1 6.25 16.5A0.25 0.25 0 0 1 6.5 16.25A0.25 0.25 0 0 1 6.75 16.5ZM9.75 16.5A0.25 0.25 0 0 1 9.5 16.75A0.25 0.25 0 0 1 9.25 16.5A0.25 0.25 0 0 1 9.5 16.25A0.25 0.25 0 0 1 9.75 16.5ZM11.75 16.5A0.25 0.25 0 0 1 11.5 16.75A0.25 0.25 0 0 1 11.25 16.5A0.25 0.25 0 0 1 11.5 16.25A0.25 0.25 0 0 1 11.75 16.5ZM13.75 16.5A0.25 0.25 0 0 1 13.5 16.75A0.25 0.25 0 0 1 13.25 16.5A0.25 0.25 0 0 1 13.5 16.25A0.25 0.25 0 0 1 13.75 16.5ZM14.75 16.5A0.25 0.25 0 0 1 14.5 16.75A0.25 0.25 0 0 1 14.25 16.5A0.25 0.25 0 0 1 14.5 16.25A0.25 0.25 0 0 1 14.75 16.5ZM19.75 16.5A0.25 0.25 0 0 1 19.5 16.75A0.25 0.25 0 0 1 19.25 16.5A0.25 0.25 0 0 1 19.5 16.25A0.25 0.25 0 0 1 19.75 16.5ZM20.75 16.5A0.25 0.25 0 0 1 20.5 16.75A0.25 0.25 0 0 1 20.25 16.5A0.25 0.25 0 0 1 20.5 16.25A0.25 0.25 0 0 1 20.75 16.5ZM23.75 16.5A0.25 0.25 0 0 1 23.5 16.75A0.25 0.25 0 0 1 23.25 16.5A0.25 0.25 0 0 1 23.5 16.25A0.25 0.25 0 0 1 23.75 16.5ZM24.75 16.5A0.25 0.25 0 0 1 24.5 16.75A0.25 0.25 0 0 1 24.25 16.5A0.25 0.25 0 0 1 24.5 16.25A0.25 0.25 0 0 1 24.75 16.5ZM25.75 16.5A0.25 0.25 0 0 1 25.5 16.75A0.25 0.25 0 0 1 25.25 16.5A0.25 0.25 0 0 1 25.5 16.25A0.25 0.25 0 0 1 25.75 16.5ZM26.75 16.5A0.25 0.25 0 0 1 26.5 16.75A0.25 0.25 0 0 1 26.25 16.5A0.25 0.25 0 0 1 26.5 16.25A0.25 0.25 0 0 1 26.75 16.5ZM29.75 16.5A0.25 0.25 0 0 1 29.5 16.75A0.25 0.25 0 0 1 29.25 16.5A0.25 0.25 0 0 1 29.5 16.25A0.25 0.25 0 0 1 29.75 16.5ZM30.75 16.5A0.25 0.25 0 0 1 30.5 16.75A0.25 0.25 0 0 1 30.25 16.5A0.25 0.25 0 0 1 30.5 16.25A0.25 0.25 0 0 1 30.75 16.5ZM31.75 16.5A0.25 0.25 0 0 1 31.5 16.75A0.25 0.25 0 0 1 31.25 16.5A0.25 0.25 0 0 1 31.5 16.25A0.25 0.25 0 0 1 31.75 16.5ZM0.75 17.5A0.25 0.25 0 0 1 0.5 17.75A0.25 0.25 0 0 1 0.25 17.5A0.25 0.25 0 0 1 0.5 17.25A0.25 0.25 0 0 1 0.75 17.5ZM1.75 17.5A0.25 0.25 0 0 1 1.5 17.75A0.25 0.25 0 0 1 1.25 17.5A0.25 0.25 0 0 1 1.5 17.25A0.25 0.25 0 0 1 1.75 17.5ZM4.75 17.5A0.25 0.25 0 0 1 4.5 17.75A0.25 0.25 0 0 1 4.25 17.5A0.25 0.25 0 0 1 4.5 17.25A0.25 0.25 0 0 1 4.75 17.5ZM5.75 17.5A0.25 0.25 0 0 1 5.5 17.75A0.25 0.25 0 0 1 5.25 17.5A0.25 0.25 0 0 1 5.5 17.25A0.25 0.25 0 0 1 5.75 17.5ZM7.75 17.5A0.25 0.25 0 0 1 7.5 17.75A0.25 0.25 0 0 1 7.25 17.5A0.25 0.25 0 0 1 7.5 17.25A0.25 0.25 0 0 1 7.75 17.5ZM8.75 17.5A0.25 0.25 0 0 1 8.5 17.75A0.25 0.25 0 0 1 8.25 17.5A0.25 0.25 0 0 1 8.5 17.25A0.25 0.25 0 0 1 8.75 17.5ZM9.75 17.5A0.25 0.25 0 0 1 9.5 17.75A0.25 0.25 0 0 1 9.25 17.5A0.25 0.25 0 0 1 9.5 17.25A0.25 0.25 0 0 1 9.75 17.5ZM14.75 17.5A0.25 0.25 0 0 1 14.5 17.75A0.25 0.25 0 0 1 14.25 17.5A0.25 0.25 0 0 1 14.5 17.25A0.25 0.25 0 0 1 14.75 17.5ZM18.75 17.5A0.25 0.25 0 0 1 18.5 17.75A0.25 0.25 0 0 1 18.25 17.5A0.25 0.25 0 0 1 18.5 17.25A0.25 0.25 0 0 1 18.75 17.5ZM20.75 17.5A0.25 0.25 0 0 1 20.5 17.75A0.25 0.25 0 0 1 20.25 17.5A0.25 0.25 0 0 1 20.5 17.25A0.25 0.25 0 0 1 20.75 17.5ZM24.75 17.5A0.25 0.25 0 0 1 24.5 17.75A0.25 0.25 0 0 1 24.25 17.5A0.25 0.25 0 0 1 24.5 17.25A0.25 0.25 0 0 1 24.75 17.5ZM25.75 17.5A0.25 0.25 0 0 1 25.5 17.75A0.25 0.25 0 0 1 25.25 17.5A0.25 0.25 0 0 1 25.5 17.25A0.25 0.25 0 0 1 25.75 17.5ZM26.75 17.5A0.25 0.25 0 0 1 26.5 17.75A0.25 0.25 0 0 1 26.25 17.5A0.25 0.25 0 0 1 26.5 17.25A0.25 0.25 0 0 1 26.75 17.5ZM30.75 17.5A0.25 0.25 0 0 1 30.5 17.75A0.25 0.25 0 0 1 30.25 17.5A0.25 0.25 0 0 1 30.5 17.25A0.25 0.25 0 0 1 30.75 17.5ZM1.75 18.5A0.25 0.25 0 0 1 1.5 18.75A0.25 0.25 0 0 1 1.25 18.5A0.25 0.25 0 0 1 1.5 18.25A0.25 0.25 0 0 1 1.75 18.5ZM2.75 18.5A0.25 0.25 0 0 1 2.5 18.75A0.25 0.25 0 0 1 2.25 18.5A0.25 0.25 0 0 1 2.5 18.25A0.25 0.25 0 0 1 2.75 18.5ZM3.75 18.5A0.25 0.25 0 0 1 3.5 18.75A0.25 0.25 0 0 1 3.25 18.5A0.25 0.25 0 0 1 3.5 18.25A0.25 0.25 0 0 1 3.75 18.5ZM6.75 18.5A0.25 0.25 0 0 1 6.5 18.75A0.25 0.25 0 0 1 6.25 18.5A0.25 0.25 0 0 1 6.5 18.25A0.25 0.25 0 0 1 6.75 18.5ZM9.75 18.5A0.25 0.25 0 0 1 9.5 18.75A0.25 0.25 0 0 1 9.25 18.5A0.25 0.25 0 0 1 9.5 18.25A0.25 0.25 0 0 1 9.75 18.5ZM13.75 18.5A0.25 0.25 0 0 1 13.5 18.75A0.25 0.25 0 0 1 13.25 18.5A0.25 0.25 0 0 1 13.5 18.25A0.25 0.25 0 0 1 13.75 18.5ZM20.75 18.5A0.25 0.25 0 0 1 20.5 18.75A0.25 0.25 0 0 1 20.25 18.5A0.25 0.25 0 0 1 20.5 18.25A0.25 0.25 0 0 1 20.75 18.5ZM21.75 18.5A0.25 0.25 0 0 1 21.5 18.75A0.25 0.25 0 0 1 21.25 18.5A0.25 0.25 0 0 1 21.5 18.25A0.25 0.25 0 0 1 21.75 18.5ZM23.75 18.5A0.25 0.25 0 0 1 23.5 18.75A0.25 0.25 0 0 1 23.25 18.5A0.25 0.25 0 0 1 23.5 18.25A0.25 0.25 0 0 1 23.75 18.5ZM24.75 18.5A0.25 0.25 0 0 1 24.5 18.75A0.25 0.25 0 0 1 24.25 18.5A0.25 0.25 0 0 1 24.5 18.25A0.25 0.25 0 0 1 24.75 18.5ZM25.75 18.5A0.25 0.25 0 0 1 25.5 18.75A0.25 0.25 0 0 1 25.25 18.5A0.25 0.25 0 0 1 25.5 18.25A0.25 0.25 0 0 1 25.75 18.5ZM26.75 18.5A0.25 0.25 0 0 1 26.5 18.75A0.25 0.25 0 0 1 26.25 18.5A0.25 0.25 0 0 1 26.5 18.25A0.25 0.25 0 0 1 26.75 18.5ZM28.75 18.5A0.25 0.25 0 0 1 28.5 18.75A0.25 0.25 0 0 1 28.25 18.5A0.25 0.25 0 0 1 28.5 18.25A0.25 0.25 0 0 1 28.75 18.5ZM29.75 18.5A0.25 0.25 0 0 1 29.5 18.75A0.25 0.25 0 0 1 29.25 18.5A0.25 0.25 0 0 1 29.5 18.25A0.25 0.25 0 0 1 29.75 18.5ZM31.75 18.5A0.25 0.25 0 0 1 31.5 18.75A0.25 0.25 0 0 1 31.25 18.5A0.25 0.25 0 0 1 31.5 18.25A0.25 0.25 0 0 1 31.75 18.5ZM32.75 18.5A0.25 0.25 0 0 1 32.5 18.75A0.25 0.25 0 0 1 32.25 18.5A0.25 0.25 0 0 1 32.5 18.25A0.25 0.25 0 0 1 32.75 18.5ZM0.75 19.5A0.25 0.25 0 0 1 0.5 19.75A0.25 0.25 0 0 1 0.25 19.5A0.25 0.25 0 0 1 0.5 19.25A0.25 0.25 0 0 1 0.75 19.5ZM1.75 19.5A0.25 0.25 0 0 1 1.5 19.75A0.25 0.25 0 0 1 1.25 19.5A0.25 0.25 0 0 1 1.5 19.25A0.25 0.25 0 0 1 1.75 19.5ZM4.75 19.5A0.25 0.25 0 0 1 4.5 19.75A0.25 0.25 0 0 1 4.25 19.5A0.25 0.25 0 0 1 4.5 19.25A0.25 0.25 0 0 1 4.75 19.5ZM7.75 19.5A0.25 0.25 0 0 1 7.5 19.75A0.25 0.25 0 0 1 7.25 19.5A0.25 0.25 0 0 1 7.5 19.25A0.25 0.25 0 0 1 7.75 19.5ZM8.75 19.5A0.25 0.25 0 0 1 8.5 19.75A0.25 0.25 0 0 1 8.25 19.5A0.25 0.25 0 0 1 8.5 19.25A0.25 0.25 0 0 1 8.75 19.5ZM9.75 19.5A0.25 0.25 0 0 1 9.5 19.75A0.25 0.25 0 0 1 9.25 19.5A0.25 0.25 0 0 1 9.5 19.25A0.25 0.25 0 0 1 9.75 19.5ZM11.75 19.5A0.25 0.25 0 0 1 11.5 19.75A0.25 0.25 0 0 1 11.25 19.5A0.25 0.25 0 0 1 11.5 19.25A0.25 0.25 0 0 1 11.75 19.5ZM12.75 19.5A0.25 0.25 0 0 1 12.5 19.75A0.25 0.25 0 0 1 12.25 19.5A0.25 0.25 0 0 1 12.5 19.25A0.25 0.25 0 0 1 12.75 19.5ZM14.75 19.5A0.25 0.25 0 0 1 14.5 19.75A0.25 0.25 0 0 1 14.25 19.5A0.25 0.25 0 0 1 14.5 19.25A0.25 0.25 0 0 1 14.75 19.5ZM16.75 19.5A0.25 0.25 0 0 1 16.5 19.75A0.25 0.25 0 0 1 16.25 19.5A0.25 0.25 0 0 1 16.5 19.25A0.25 0.25 0 0 1 16.75 19.5ZM17.75 19.5A0.25 0.25 0 0 1 17.5 19.75A0.25 0.25 0 0 1 17.25 19.5A0.25 0.25 0 0 1 17.5 19.25A0.25 0.25 0 0 1 17.75 19.5ZM20.75 19.5A0.25 0.25 0 0 1 20.5 19.75A0.25 0.25 0 0 1 20.25 19.5A0.25 0.25 0 0 1 20.5 19.25A0.25 0.25 0 0 1 20.75 19.5ZM22.75 19.5A0.25 0.25 0 0 1 22.5 19.75A0.25 0.25 0 0 1 22.25 19.5A0.25 0.25 0 0 1 22.5 19.25A0.25 0.25 0 0 1 22.75 19.5ZM25.75 19.5A0.25 0.25 0 0 1 25.5 19.75A0.25 0.25 0 0 1 25.25 19.5A0.25 0.25 0 0 1 25.5 19.25A0.25 0.25 0 0 1 25.75 19.5ZM27.75 19.5A0.25 0.25 0 0 1 27.5 19.75A0.25 0.25 0 0 1 27.25 19.5A0.25 0.25 0 0 1 27.5 19.25A0.25 0.25 0 0 1 27.75 19.5ZM29.75 19.5A0.25 0.25 0 0 1 29.5 19.75A0.25 0.25 0 0 1 29.25 19.5A0.25 0.25 0 0 1 29.5 19.25A0.25 0.25 0 0 1 29.75 19.5ZM2.75 20.5A0.25 0.25 0 0 1 2.5 20.75A0.25 0.25 0 0 1 2.25 20.5A0.25 0.25 0 0 1 2.5 20.25A0.25 0.25 0 0 1 2.75 20.5ZM3.75 20.5A0.25 0.25 0 0 1 3.5 20.75A0.25 0.25 0 0 1 3.25 20.5A0.25 0.25 0 0 1 3.5 20.25A0.25 0.25 0 0 1 3.75 20.5ZM6.75 20.5A0.25 0.25 0 0 1 6.5 20.75A0.25 0.25 0 0 1 6.25 20.5A0.25 0.25 0 0 1 6.5 20.25A0.25 0.25 0 0 1 6.75 20.5ZM9.75 20.5A0.25 0.25 0 0 1 9.5 20.75A0.25 0.25 0 0 1 9.25 20.5A0.25 0.25 0 0 1 9.5 20.25A0.25 0.25 0 0 1 9.75 20.5ZM11.75 20.5A0.25 0.25 0 0 1 11.5 20.75A0.25 0.25 0 0 1 11.25 20.5A0.25 0.25 0 0 1 11.5 20.25A0.25 0.25 0 0 1 11.75 20.5ZM12.75 20.5A0.25 0.25 0 0 1 12.5 20.75A0.25 0.25 0 0 1 12.25 20.5A0.25 0.25 0 0 1 12.5 20.25A0.25 0.25 0 0 1 12.75 20.5ZM13.75 20.5A0.25 0.25 0 0 1 13.5 20.75A0.25 0.25 0 0 1 13.25 20.5A0.25 0.25 0 0 1 13.5 20.25A0.25 0.25 0 0 1 13.75 20.5ZM15.75 20.5A0.25 0.25 0 0 1 15.5 20.75A0.25 0.25 0 0 1 15.25 20.5A0.25 0.25 0 0 1 15.5 20.25A0.25 0.25 0 0 1 15.75 20.5ZM16.75 20.5A0.25 0.25 0 0 1 16.5 20.75A0.25 0.25 0 0 1 16.25 20.5A0.25 0.25 0 0 1 16.5 20.25A0.25 0.25 0 0 1 16.75 20.5ZM17.75 20.5A0.25 0.25 0 0 1 17.5 20.75A0.25 0.25 0 0 1 17.25 20.5A0.25 0.25 0 0 1 17.5 20.25A0.25 0.25 0 0 1 17.75 20.5ZM18.75 20.5A0.25 0.25 0 0 1 18.5 20.75A0.25 0.25 0 0 1 18.25 20.5A0.25 0.25 0 0 1 18.5 20.25A0.25 0.25 0 0 1 18.75 20.5ZM19.75 20.5A0.25 0.25 0 0 1 19.5 20.75A0.25 0.25 0 0 1 19.25 20.5A0.25 0.25 0 0 1 19.5 20.25A0.25 0.25 0 0 1 19.75 20.5ZM22.75 20.5A0.25 0.25 0 0 1 22.5 20.75A0.25 0.25 0 0 1 22.25 20.5A0.25 0.25 0 0 1 22.5 20.25A0.25 0.25 0 0 1 22.75 20.5ZM23.75 20.5A0.25 0.25 0 0 1 23.5 20.75A0.25 0.25 0 0 1 23.25 20.5A0.25 0.25 0 0 1 23.5 20.25A0.25 0.25 0 0 1 23.75 20.5ZM24.75 20.5A0.25 0.25 0 0 1 24.5 20.75A0.25 0.25 0 0 1 24.25 20.5A0.25 0.25 0 0 1 24.5 20.25A0.25 0.25 0 0 1 24.75 20.5ZM25.75 20.5A0.25 0.25 0 0 1 25.5 20.75A0.25 0.25 0 0 1 25.25 20.5A0.25 0.25 0 0 1 25.5 20.25A0.25 0.25 0 0 1 25.75 20.5ZM26.75 20.5A0.25 0.25 0 0 1 26.5 20.75A0.25 0.25 0 0 1 26.25 20.5A0.25 0.25 0 0 1 26.5 20.25A0.25 0.25 0 0 1 26.75 20.5ZM27.75 20.5A0.25 0.25 0 0 1 27.5 20.75A0.25 0.25 0 0 1 27.25 20.5A0.25 0.25 0 0 1 27.5 20.25A0.25 0.25 0 0 1 27.75 20.5ZM28.75 20.5A0.25 0.25 0 0 1 28.5 20.75A0.25 0.25 0 0 1 28.25 20.5A0.25 0.25 0 0 1 28.5 20.25A0.25 0.25 0 0 1 28.75 20.5ZM29.75 20.5A0.25 0.25 0 0 1 29.5 20.75A0.25 0.25 0 0 1 29.25 20.5A0.25 0.25 0 0 1 29.5 20.25A0.25 0.25 0 0 1 29.75 20.5ZM31.75 20.5A0.25 0.25 0 0 1 31.5 20.75A0.25 0.25 0 0 1 31.25 20.5A0.25 0.25 0 0 1 31.5 20.25A0.25 0.25 0 0 1 31.75 20.5ZM1.75 21.5A0.25 0.25 0 0 1 1.5 21.75A0.25 0.25 0 0 1 1.25 21.5A0.25 0.25 0 0 1 1.5 21.25A0.25 0.25 0 0 1 1.75 21.5ZM5.75 21.5A0.25 0.25 0 0 1 5.5 21.75A0.25 0.25 0 0 1 5.25 21.5A0.25 0.25 0 0 1 5.5 21.25A0.25 0.25 0 0 1 5.75 21.5ZM7.75 21.5A0.25 0.25 0 0 1 7.5 21.75A0.25 0.25 0 0 1 7.25 21.5A0.25 0.25 0 0 1 7.5 21.25A0.25 0.25 0 0 1 7.75 21.5ZM10.75 21.5A0.25 0.25 0 0 1 10.5 21.75A0.25 0.25 0 0 1 10.25 21.5A0.25 0.25 0 0 1 10.5 21.25A0.25 0.25 0 0 1 10.75 21.5ZM13.75 21.5A0.25 0.25 0 0 1 13.5 21.75A0.25 0.25 0 0 1 13.25 21.5A0.25 0.25 0 0 1 13.5 21.25A0.25 0.25 0 0 1 13.75 21.5ZM14.75 21.5A0.25 0.25 0 0 1 14.5 21.75A0.25 0.25 0 0 1 14.25 21.5A0.25 0.25 0 0 1 14.5 21.25A0.25 0.25 0 0 1 14.75 21.5ZM15.75 21.5A0.25 0.25 0 0 1 15.5 21.75A0.25 0.25 0 0 1 15.25 21.5A0.25 0.25 0 0 1 15.5 21.25A0.25 0.25 0 0 1 15.75 21.5ZM16.75 21.5A0.25 0.25 0 0 1 16.5 21.75A0.25 0.25 0 0 1 16.25 21.5A0.25 0.25 0 0 1 16.5 21.25A0.25 0.25 0 0 1 16.75 21.5ZM18.75 21.5A0.25 0.25 0 0 1 18.5 21.75A0.25 0.25 0 0 1 18.25 21.5A0.25 0.25 0 0 1 18.5 21.25A0.25 0.25 0 0 1 18.75 21.5ZM22.75 21.5A0.25 0.25 0 0 1 22.5 21.75A0.25 0.25 0 0 1 22.25 21.5A0.25 0.25 0 0 1 22.5 21.25A0.25 0.25 0 0 1 22.75 21.5ZM24.75 21.5A0.25 0.25 0 0 1 24.5 21.75A0.25 0.25 0 0 1 24.25 21.5A0.25 0.25 0 0 1 24.5 21.25A0.25 0.25 0 0 1 24.75 21.5ZM25.75 21.5A0.25 0.25 0 0 1 25.5 21.75A0.25 0.25 0 0 1 25.25 21.5A0.25 0.25 0 0 1 25.5 21.25A0.25 0.25 0 0 1 25.75 21.5ZM27.75 21.5A0.25 0.25 0 0 1 27.5 21.75A0.25 0.25 0 0 1 27.25 21.5A0.25 0.25 0 0 1 27.5 21.25A0.25 0.25 0 0 1 27.75 21.5ZM0.75 22.5A0.25 0.25 0 0 1 0.5 22.75A0.25 0.25 0 0 1 0.25 22.5A0.25 0.25 0 0 1 0.5 22.25A0.25 0.25 0 0 1 0.75 22.5ZM1.75 22.5A0.25 0.25 0 0 1 1.5 22.75A0.25 0.25 0 0 1 1.25 22.5A0.25 0.25 0 0 1 1.5 22.25A0.25 0.25 0 0 1 1.75 22.5ZM4.75 22.5A0.25 0.25 0 0 1 4.5 22.75A0.25 0.25 0 0 1 4.25 22.5A0.25 0.25 0 0 1 4.5 22.25A0.25 0.25 0 0 1 4.75 22.5ZM5.75 22.5A0.25 0.25 0 0 1 5.5 22.75A0.25 0.25 0 0 1 5.25 22.5A0.25 0.25 0 0 1 5.5 22.25A0.25 0.25 0 0 1 5.75 22.5ZM6.75 22.5A0.25 0.25 0 0 1 6.5 22.75A0.25 0.25 0 0 1 6.25 22.5A0.25 0.25 0 0 1 6.5 22.25A0.25 0.25 0 0 1 6.75 22.5ZM7.75 22.5A0.25 0.25 0 0 1 7.5 22.75A0.25 0.25 0 0 1 7.25 22.5A0.25 0.25 0 0 1 7.5 22.25A0.25 0.25 0 0 1 7.75 22.5ZM8.75 22.5A0.25 0.25 0 0 1 8.5 22.75A0.25 0.25 0 0 1 8.25 22.5A0.25 0.25 0 0 1 8.5 22.25A0.25 0.25 0 0 1 8.75 22.5ZM10.75 22.5A0.25 0.25 0 0 1 10.5 22.75A0.25 0.25 0 0 1 10.25 22.5A0.25 0.25 0 0 1 10.5 22.25A0.25 0.25 0 0 1 10.75 22.5ZM11.75 22.5A0.25 0.25 0 0 1 11.5 22.75A0.25 0.25 0 0 1 11.25 22.5A0.25 0.25 0 0 1 11.5 22.25A0.25 0.25 0 0 1 11.75 22.5ZM13.75 22.5A0.25 0.25 0 0 1 13.5 22.75A0.25 0.25 0 0 1 13.25 22.5A0.25 0.25 0 0 1 13.5 22.25A0.25 0.25 0 0 1 13.75 22.5ZM18.75 22.5A0.25 0.25 0 0 1 18.5 22.75A0.25 0.25 0 0 1 18.25 22.5A0.25 0.25 0 0 1 18.5 22.25A0.25 0.25 0 0 1 18.75 22.5ZM19.75 22.5A0.25 0.25 0 0 1 19.5 22.75A0.25 0.25 0 0 1 19.25 22.5A0.25 0.25 0 0 1 19.5 22.25A0.25 0.25 0 0 1 19.75 22.5ZM20.75 22.5A0.25 0.25 0 0 1 20.5 22.75A0.25 0.25 0 0 1 20.25 22.5A0.25 0.25 0 0 1 20.5 22.25A0.25 0.25 0 0 1 20.75 22.5ZM21.75 22.5A0.25 0.25 0 0 1 21.5 22.75A0.25 0.25 0 0 1 21.25 22.5A0.25 0.25 0 0 1 21.5 22.25A0.25 0.25 0 0 1 21.75 22.5ZM24.75 22.5A0.25 0.25 0 0 1 24.5 22.75A0.25 0.25 0 0 1 24.25 22.5A0.25 0.25 0 0 1 24.5 22.25A0.25 0.25 0 0 1 24.75 22.5ZM27.75 22.5A0.25 0.25 0 0 1 27.5 22.75A0.25 0.25 0 0 1 27.25 22.5A0.25 0.25 0 0 1 27.5 22.25A0.25 0.25 0 0 1 27.75 22.5ZM28.75 22.5A0.25 0.25 0 0 1 28.5 22.75A0.25 0.25 0 0 1 28.25 22.5A0.25 0.25 0 0 1 28.5 22.25A0.25 0.25 0 0 1 28.75 22.5ZM32.75 22.5A0.25 0.25 0 0 1 32.5 22.75A0.25 0.25 0 0 1 32.25 22.5A0.25 0.25 0 0 1 32.5 22.25A0.25 0.25 0 0 1 32.75 22.5ZM2.75 23.5A0.25 0.25 0 0 1 2.5 23.75A0.25 0.25 0 0 1 2.25 23.5A0.25 0.25 0 0 1 2.5 23.25A0.25 0.25 0 0 1 2.75 23.5ZM4.75 23.5A0.25 0.25 0 0 1 4.5 23.75A0.25 0.25 0 0 1 4.25 23.5A0.25 0.25 0 0 1 4.5 23.25A0.25 0.25 0 0 1 4.75 23.5ZM5.75 23.5A0.25 0.25 0 0 1 5.5 23.75A0.25 0.25 0 0 1 5.25 23.5A0.25 0.25 0 0 1 5.5 23.25A0.25 0.25 0 0 1 5.75 23.5ZM7.75 23.5A0.25 0.25 0 0 1 7.5 23.75A0.25 0.25 0 0 1 7.25 23.5A0.25 0.25 0 0 1 7.5 23.25A0.25 0.25 0 0 1 7.75 23.5ZM9.75 23.5A0.25 0.25 0 0 1 9.5 23.75A0.25 0.25 0 0 1 9.25 23.5A0.25 0.25 0 0 1 9.5 23.25A0.25 0.25 0 0 1 9.75 23.5ZM11.75 23.5A0.25 0.25 0 0 1 11.5 23.75A0.25 0.25 0 0 1 11.25 23.5A0.25 0.25 0 0 1 11.5 23.25A0.25 0.25 0 0 1 11.75 23.5ZM12.75 23.5A0.25 0.25 0 0 1 12.5 23.75A0.25 0.25 0 0 1 12.25 23.5A0.25 0.25 0 0 1 12.5 23.25A0.25 0.25 0 0 1 12.75 23.5ZM13.75 23.5A0.25 0.25 0 0 1 13.5 23.75A0.25 0.25 0 0 1 13.25 23.5A0.25 0.25 0 0 1 13.5 23.25A0.25 0.25 0 0 1 13.75 23.5ZM14.75 23.5A0.25 0.25 0 0 1 14.5 23.75A0.25 0.25 0 0 1 14.25 23.5A0.25 0.25 0 0 1 14.5 23.25A0.25 0.25 0 0 1 14.75 23.5ZM15.75 23.5A0.25 0.25 0 0 1 15.5 23.75A0.25 0.25 0 0 1 15.25 23.5A0.25 0.25 0 0 1 15.5 23.25A0.25 0.25 0 0 1 15.75 23.5ZM19.75 23.5A0.25 0.25 0 0 1 19.5 23.75A0.25 0.25 0 0 1 19.25 23.5A0.25 0.25 0 0 1 19.5 23.25A0.25 0.25 0 0 1 19.75 23.5ZM20.75 23.5A0.25 0.25 0 0 1 20.5 23.75A0.25 0.25 0 0 1 20.25 23.5A0.25 0.25 0 0 1 20.5 23.25A0.25 0.25 0 0 1 20.75 23.5ZM22.75 23.5A0.25 0.25 0 0 1 22.5 23.75A0.25 0.25 0 0 1 22.25 23.5A0.25 0.25 0 0 1 22.5 23.25A0.25 0.25 0 0 1 22.75 23.5ZM23.75 23.5A0.25 0.25 0 0 1 23.5 23.75A0.25 0.25 0 0 1 23.25 23.5A0.25 0.25 0 0 1 23.5 23.25A0.25 0.25 0 0 1 23.75 23.5ZM24.75 23.5A0.25 0.25 0 0 1 24.5 23.75A0.25 0.25 0 0 1 24.25 23.5A0.25 0.25 0 0 1 24.5 23.25A0.25 0.25 0 0 1 24.75 23.5ZM26.75 23.5A0.25 0.25 0 0 1 26.5 23.75A0.25 0.25 0 0 1 26.25 23.5A0.25 0.25 0 0 1 26.5 23.25A0.25 0.25 0 0 1 26.75 23.5ZM27.75 23.5A0.25 0.25 0 0 1 27.5 23.75A0.25 0.25 0 0 1 27.25 23.5A0.25 0.25 0 0 1 27.5 23.25A0.25 0.25 0 0 1 27.75 23.5ZM32.75 23.5A0.25 0.25 0 0 1 32.5 23.75A0.25 0.25 0 0 1 32.25 23.5A0.25 0.25 0 0 1 32.5 23.25A0.25 0.25 0 0 1 32.75 23.5ZM0.75 24.5A0.25 0.25 0 0 1 0.5 24.75A0.25 0.25 0 0 1 0.25 24.5A0.25 0.25 0 0 1 0.5 24.25A0.25 0.25 0 0 1 0.75 24.5ZM1.75 24.5A0.25 0.25 0 0 1 1.5 24.75A0.25 0.25 0 0 1 1.25 24.5A0.25 0.25 0 0 1 1.5 24.25A0.25 0.25 0 0 1 1.75 24.5ZM2.75 24.5A0.25 0.25 0 0 1 2.5 24.75A0.25 0.25 0 0 1 2.25 24.5A0.25 0.25 0 0 1 2.5 24.25A0.25 0.25 0 0 1 2.75 24.5ZM3.75 24.5A0.25 0.25 0 0 1 3.5 24.75A0.25 0.25 0 0 1 3.25 24.5A0.25 0.25 0 0 1 3.5 24.25A0.25 0.25 0 0 1 3.75 24.5ZM4.75 24.5A0.25 0.25 0 0 1 4.5 24.75A0.25 0.25 0 0 1 4.25 24.5A0.25 0.25 0 0 1 4.5 24.25A0.25 0.25 0 0 1 4.75 24.5ZM5.75 24.5A0.25 0.25 0 0 1 5.5 24.75A0.25 0.25 0 0 1 5.25 24.5A0.25 0.25 0 0 1 5.5 24.25A0.25 0.25 0 0 1 5.75 24.5ZM6.75 24.5A0.25 0.25 0 0 1 6.5 24.75A0.25 0.25 0 0 1 6.25 24.5A0.25 0.25 0 0 1 6.5 24.25A0.25 0.25 0 0 1 6.75 24.5ZM8.75 24.5A0.25 0.25 0 0 1 8.5 24.75A0.25 0.25 0 0 1 8.25 24.5A0.25 0.25 0 0 1 8.5 24.25A0.25 0.25 0 0 1 8.75 24.5ZM9.75 24.5A0.25 0.25 0 0 1 9.5 24.75A0.25 0.25 0 0 1 9.25 24.5A0.25 0.25 0 0 1 9.5 24.25A0.25 0.25 0 0 1 9.75 24.5ZM11.75 24.5A0.25 0.25 0 0 1 11.5 24.75A0.25 0.25 0 0 1 11.25 24.5A0.25 0.25 0 0 1 11.5 24.25A0.25 0.25 0 0 1 11.75 24.5ZM13.75 24.5A0.25 0.25 0 0 1 13.5 24.75A0.25 0.25 0 0 1 13.25 24.5A0.25 0.25 0 0 1 13.5 24.25A0.25 0.25 0 0 1 13.75 24.5ZM14.75 24.5A0.25 0.25 0 0 1 14.5 24.75A0.25 0.25 0 0 1 14.25 24.5A0.25 0.25 0 0 1 14.5 24.25A0.25 0.25 0 0 1 14.75 24.5ZM15.75 24.5A0.25 0.25 0 0 1 15.5 24.75A0.25 0.25 0 0 1 15.25 24.5A0.25 0.25 0 0 1 15.5 24.25A0.25 0.25 0 0 1 15.75 24.5ZM16.75 24.5A0.25 0.25 0 0 1 16.5 24.75A0.25 0.25 0 0 1 16.25 24.5A0.25 0.25 0 0 1 16.5 24.25A0.25 0.25 0 0 1 16.75 24.5ZM17.75 24.5A0.25 0.25 0 0 1 17.5 24.75A0.25 0.25 0 0 1 17.25 24.5A0.25 0.25 0 0 1 17.5 24.25A0.25 0.25 0 0 1 17.75 24.5ZM18.75 24.5A0.25 0.25 0 0 1 18.5 24.75A0.25 0.25 0 0 1 18.25 24.5A0.25 0.25 0 0 1 18.5 24.25A0.25 0.25 0 0 1 18.75 24.5ZM21.75 24.5A0.25 0.25 0 0 1 21.5 24.75A0.25 0.25 0 0 1 21.25 24.5A0.25 0.25 0 0 1 21.5 24.25A0.25 0.25 0 0 1 21.75 24.5ZM24.75 24.5A0.25 0.25 0 0 1 24.5 24.75A0.25 0.25 0 0 1 24.25 24.5A0.25 0.25 0 0 1 24.5 24.25A0.25 0.25 0 0 1 24.75 24.5ZM25.75 24.5A0.25 0.25 0 0 1 25.5 24.75A0.25 0.25 0 0 1 25.25 24.5A0.25 0.25 0 0 1 25.5 24.25A0.25 0.25 0 0 1 25.75 24.5ZM26.75 24.5A0.25 0.25 0 0 1 26.5 24.75A0.25 0.25 0 0 1 26.25 24.5A0.25 0.25 0 0 1 26.5 24.25A0.25 0.25 0 0 1 26.75 24.5ZM27.75 24.5A0.25 0.25 0 0 1 27.5 24.75A0.25 0.25 0 0 1 27.25 24.5A0.25 0.25 0 0 1 27.5 24.25A0.25 0.25 0 0 1 27.75 24.5ZM28.75 24.5A0.25 0.25 0 0 1 28.5 24.75A0.25 0.25 0 0 1 28.25 24.5A0.25 0.25 0 0 1 28.5 24.25A0.25 0.25 0 0 1 28.75 24.5ZM32.75 24.5A0.25 0.25 0 0 1 32.5 24.75A0.25 0.25 0 0 1 32.25 24.5A0.25 0.25 0 0 1 32.5 24.25A0.25 0.25 0 0 1 32.75 24.5ZM8.75 25.5A0.25 0.25 0 0 1 8.5 25.75A0.25 0.25 0 0 1 8.25 25.5A0.25 0.25 0 0 1 8.5 25.25A0.25 0.25 0 0 1 8.75 25.5ZM9.75 25.5A0.25 0.25 0 0 1 9.5 25.75A0.25 0.25 0 0 1 9.25 25.5A0.25 0.25 0 0 1 9.5 25.25A0.25 0.25 0 0 1 9.75 25.5ZM12.75 25.5A0.25 0.25 0 0 1 12.5 25.75A0.25 0.25 0 0 1 12.25 25.5A0.25 0.25 0 0 1 12.5 25.25A0.25 0.25 0 0 1 12.75 25.5ZM13.75 25.5A0.25 0.25 0 0 1 13.5 25.75A0.25 0.25 0 0 1 13.25 25.5A0.25 0.25 0 0 1 13.5 25.25A0.25 0.25 0 0 1 13.75 25.5ZM15.75 25.5A0.25 0.25 0 0 1 15.5 25.75A0.25 0.25 0 0 1 15.25 25.5A0.25 0.25 0 0 1 15.5 25.25A0.25 0.25 0 0 1 15.75 25.5ZM16.75 25.5A0.25 0.25 0 0 1 16.5 25.75A0.25 0.25 0 0 1 16.25 25.5A0.25 0.25 0 0 1 16.5 25.25A0.25 0.25 0 0 1 16.75 25.5ZM18.75 25.5A0.25 0.25 0 0 1 18.5 25.75A0.25 0.25 0 0 1 18.25 25.5A0.25 0.25 0 0 1 18.5 25.25A0.25 0.25 0 0 1 18.75 25.5ZM19.75 25.5A0.25 0.25 0 0 1 19.5 25.75A0.25 0.25 0 0 1 19.25 25.5A0.25 0.25 0 0 1 19.5 25.25A0.25 0.25 0 0 1 19.75 25.5ZM20.75 25.5A0.25 0.25 0 0 1 20.5 25.75A0.25 0.25 0 0 1 20.25 25.5A0.25 0.25 0 0 1 20.5 25.25A0.25 0.25 0 0 1 20.75 25.5ZM22.75 25.5A0.25 0.25 0 0 1 22.5 25.75A0.25 0.25 0 0 1 22.25 25.5A0.25 0.25 0 0 1 22.5 25.25A0.25 0.25 0 0 1 22.75 25.5ZM23.75 25.5A0.25 0.25 0 0 1 23.5 25.75A0.25 0.25 0 0 1 23.25 25.5A0.25 0.25 0 0 1 23.5 25.25A0.25 0.25 0 0 1 23.75 25.5ZM24.75 25.5A0.25 0.25 0 0 1 24.5 25.75A0.25 0.25 0 0 1 24.25 25.5A0.25 0.25 0 0 1 24.5 25.25A0.25 0.25 0 0 1 24.75 25.5ZM28.75 25.5A0.25 0.25 0 0 1 28.5 25.75A0.25 0.25 0 0 1 28.25 25.5A0.25 0.25 0 0 1 28.5 25.25A0.25 0.25 0 0 1 28.75 25.5ZM30.75 25.5A0.25 0.25 0 0 1 30.5 25.75A0.25 0.25 0 0 1 30.25 25.5A0.25 0.25 0 0 1 30.5 25.25A0.25 0.25 0 0 1 30.75 25.5ZM31.75 25.5A0.25 0.25 0 0 1 31.5 25.75A0.25 0.25 0 0 1 31.25 25.5A0.25 0.25 0 0 1 31.5 25.25A0.25 0.25 0 0 1 31.75 25.5ZM32.75 25.5A0.25 0.25 0 0 1 32.5 25.75A0.25 0.25 0 0 1 32.25 25.5A0.25 0.25 0 0 1 32.5 25.25A0.25 0.25 0 0 1 32.75 25.5ZM8.75 26.5A0.25 0.25 0 0 1 8.5 26.75A0.25 0.25 0 0 1 8.25 26.5A0.25 0.25 0 0 1 8.5 26.25A0.25 0.25 0 0 1 8.75 26.5ZM9.75 26.5A0.25 0.25 0 0 1 9.5 26.75A0.25 0.25 0 0 1 9.25 26.5A0.25 0.25 0 0 1 9.5 26.25A0.25 0.25 0 0 1 9.75 26.5ZM20.75 26.5A0.25 0.25 0 0 1 20.5 26.75A0.25 0.25 0 0 1 20.25 26.5A0.25 0.25 0 0 1 20.5 26.25A0.25 0.25 0 0 1 20.75 26.5ZM21.75 26.5A0.25 0.25 0 0 1 21.5 26.75A0.25 0.25 0 0 1 21.25 26.5A0.25 0.25 0 0 1 21.5 26.25A0.25 0.25 0 0 1 21.75 26.5ZM22.75 26.5A0.25 0.25 0 0 1 22.5 26.75A0.25 0.25 0 0 1 22.25 26.5A0.25 0.25 0 0 1 22.5 26.25A0.25 0.25 0 0 1 22.75 26.5ZM24.75 26.5A0.25 0.25 0 0 1 24.5 26.75A0.25 0.25 0 0 1 24.25 26.5A0.25 0.25 0 0 1 24.5 26.25A0.25 0.25 0 0 1 24.75 26.5ZM26.75 26.5A0.25 0.25 0 0 1 26.5 26.75A0.25 0.25 0 0 1 26.25 26.5A0.25 0.25 0 0 1 26.5 26.25A0.25 0.25 0 0 1 26.75 26.5ZM28.75 26.5A0.25 0.25 0 0 1 28.5 26.75A0.25 0.25 0 0 1 28.25 26.5A0.25 0.25 0 0 1 28.5 26.25A0.25 0.25 0 0 1 28.75 26.5ZM30.75 26.5A0.25 0.25 0 0 1 30.5 26.75A0.25 0.25 0 0 1 30.25 26.5A0.25 0.25 0 0 1 30.5 26.25A0.25 0.25 0 0 1 30.75 26.5ZM32.75 26.5A0.25 0.25 0 0 1 32.5 26.75A0.25 0.25 0 0 1 32.25 26.5A0.25 0.25 0 0 1 32.5 26.25A0.25 0.25 0 0 1 32.75 26.5ZM8.75 27.5A0.25 0.25 0 0 1 8.5 27.75A0.25 0.25 0 0 1 8.25 27.5A0.25 0.25 0 0 1 8.5 27.25A0.25 0.25 0 0 1 8.75 27.5ZM10.75 27.5A0.25 0.25 0 0 1 10.5 27.75A0.25 0.25 0 0 1 10.25 27.5A0.25 0.25 0 0 1 10.5 27.25A0.25 0.25 0 0 1 10.75 27.5ZM11.75 27.5A0.25 0.25 0 0 1 11.5 27.75A0.25 0.25 0 0 1 11.25 27.5A0.25 0.25 0 0 1 11.5 27.25A0.25 0.25 0 0 1 11.75 27.5ZM15.75 27.5A0.25 0.25 0 0 1 15.5 27.75A0.25 0.25 0 0 1 15.25 27.5A0.25 0.25 0 0 1 15.5 27.25A0.25 0.25 0 0 1 15.75 27.5ZM19.75 27.5A0.25 0.25 0 0 1 19.5 27.75A0.25 0.25 0 0 1 19.25 27.5A0.25 0.25 0 0 1 19.5 27.25A0.25 0.25 0 0 1 19.75 27.5ZM20.75 27.5A0.25 0.25 0 0 1 20.5 27.75A0.25 0.25 0 0 1 20.25 27.5A0.25 0.25 0 0 1 20.5 27.25A0.25 0.25 0 0 1 20.75 27.5ZM22.75 27.5A0.25 0.25 0 0 1 22.5 27.75A0.25 0.25 0 0 1 22.25 27.5A0.25 0.25 0 0 1 22.5 27.25A0.25 0.25 0 0 1 22.75 27.5ZM24.75 27.5A0.25 0.25 0 0 1 24.5 27.75A0.25 0.25 0 0 1 24.25 27.5A0.25 0.25 0 0 1 24.5 27.25A0.25 0.25 0 0 1 24.75 27.5ZM28.75 27.5A0.25 0.25 0 0 1 28.5 27.75A0.25 0.25 0 0 1 28.25 27.5A0.25 0.25 0 0 1 28.5 27.25A0.25 0.25 0 0 1 28.75 27.5ZM31.75 27.5A0.25 0.25 0 0 1 31.5 27.75A0.25 0.25 0 0 1 31.25 27.5A0.25 0.25 0 0 1 31.5 27.25A0.25 0.25 0 0 1 31.75 27.5ZM10.75 28.5A0.25 0.25 0 0 1 10.5 28.75A0.25 0.25 0 0 1 10.25 28.5A0.25 0.25 0 0 1 10.5 28.25A0.25 0.25 0 0 1 10.75 28.5ZM11.75 28.5A0.25 0.25 0 0 1 11.5 28.75A0.25 0.25 0 0 1 11.25 28.5A0.25 0.25 0 0 1 11.5 28.25A0.25 0.25 0 0 1 11.75 28.5ZM16.75 28.5A0.25 0.25 0 0 1 16.5 28.75A0.25 0.25 0 0 1 16.25 28.5A0.25 0.25 0 0 1 16.5 28.25A0.25 0.25 0 0 1 16.75 28.5ZM20.75 28.5A0.25 0.25 0 0 1 20.5 28.75A0.25 0.25 0 0 1 20.25 28.5A0.25 0.25 0 0 1 20.5 28.25A0.25 0.25 0 0 1 20.75 28.5ZM21.75 28.5A0.25 0.25 0 0 1 21.5 28.75A0.25 0.25 0 0 1 21.25 28.5A0.25 0.25 0 0 1 21.5 28.25A0.25 0.25 0 0 1 21.75 28.5ZM22.75 28.5A0.25 0.25 0 0 1 22.5 28.75A0.25 0.25 0 0 1 22.25 28.5A0.25 0.25 0 0 1 22.5 28.25A0.25 0.25 0 0 1 22.75 28.5ZM23.75 28.5A0.25 0.25 0 0 1 23.5 28.75A0.25 0.25 0 0 1 23.25 28.5A0.25 0.25 0 0 1 23.5 28.25A0.25 0.25 0 0 1 23.75 28.5ZM24.75 28.5A0.25 0.25 0 0 1 24.5 28.75A0.25 0.25 0 0 1 24.25 28.5A0.25 0.25 0 0 1 24.5 28.25A0.25 0.25 0 0 1 24.75 28.5ZM25.75 28.5A0.25 0.25 0 0 1 25.5 28.75A0.25 0.25 0 0 1 25.25 28.5A0.25 0.25 0 0 1 25.5 28.25A0.25 0.25 0 0 1 25.75 28.5ZM26.75 28.5A0.25 0.25 0 0 1 26.5 28.75A0.25 0.25 0 0 1 26.25 28.5A0.25 0.25 0 0 1 26.5 28.25A0.25 0.25 0 0 1 26.75 28.5ZM27.75 28.5A0.25 0.25 0 0 1 27.5 28.75A0.25 0.25 0 0 1 27.25 28.5A0.25 0.25 0 0 1 27.5 28.25A0.25 0.25 0 0 1 27.75 28.5ZM28.75 28.5A0.25 0.25 0 0 1 28.5 28.75A0.25 0.25 0 0 1 28.25 28.5A0.25 0.25 0 0 1 28.5 28.25A0.25 0.25 0 0 1 28.75 28.5ZM32.75 28.5A0.25 0.25 0 0 1 32.5 28.75A0.25 0.25 0 0 1 32.25 28.5A0.25 0.25 0 0 1 32.5 28.25A0.25 0.25 0 0 1 32.75 28.5ZM9.75 29.5A0.25 0.25 0 0 1 9.5 29.75A0.25 0.25 0 0 1 9.25 29.5A0.25 0.25 0 0 1 9.5 29.25A0.25 0.25 0 0 1 9.75 29.5ZM11.75 29.5A0.25 0.25 0 0 1 11.5 29.75A0.25 0.25 0 0 1 11.25 29.5A0.25 0.25 0 0 1 11.5 29.25A0.25 0.25 0 0 1 11.75 29.5ZM12.75 29.5A0.25 0.25 0 0 1 12.5 29.75A0.25 0.25 0 0 1 12.25 29.5A0.25 0.25 0 0 1 12.5 29.25A0.25 0.25 0 0 1 12.75 29.5ZM16.75 29.5A0.25 0.25 0 0 1 16.5 29.75A0.25 0.25 0 0 1 16.25 29.5A0.25 0.25 0 0 1 16.5 29.25A0.25 0.25 0 0 1 16.75 29.5ZM20.75 29.5A0.25 0.25 0 0 1 20.5 29.75A0.25 0.25 0 0 1 20.25 29.5A0.25 0.25 0 0 1 20.5 29.25A0.25 0.25 0 0 1 20.75 29.5ZM22.75 29.5A0.25 0.25 0 0 1 22.5 29.75A0.25 0.25 0 0 1 22.25 29.5A0.25 0.25 0 0 1 22.5 29.25A0.25 0.25 0 0 1 22.75 29.5ZM23.75 29.5A0.25 0.25 0 0 1 23.5 29.75A0.25 0.25 0 0 1 23.25 29.5A0.25 0.25 0 0 1 23.5 29.25A0.25 0.25 0 0 1 23.75 29.5ZM28.75 29.5A0.25 0.25 0 0 1 28.5 29.75A0.25 0.25 0 0 1 28.25 29.5A0.25 0.25 0 0 1 28.5 29.25A0.25 0.25 0 0 1 28.75 29.5ZM31.75 29.5A0.25 0.25 0 0 1 31.5 29.75A0.25 0.25 0 0 1 31.25 29.5A0.25 0.25 0 0 1 31.5 29.25A0.25 0.25 0 0 1 31.75 29.5ZM8.75 30.5A0.25 0.25 0 0 1 8.5 30.75A0.25 0.25 0 0 1 8.25 30.5A0.25 0.25 0 0 1 8.5 30.25A0.25 0.25 0 0 1 8.75 30.5ZM11.75 30.5A0.25 0.25 0 0 1 11.5 30.75A0.25 0.25 0 0 1 11.25 30.5A0.25 0.25 0 0 1 11.5 30.25A0.25 0.25 0 0 1 11.75 30.5ZM13.75 30.5A0.25 0.25 0 0 1 13.5 30.75A0.25 0.25 0 0 1 13.25 30.5A0.25 0.25 0 0 1 13.5 30.25A0.25 0.25 0 0 1 13.75 30.5ZM14.75 30.5A0.25 0.25 0 0 1 14.5 30.75A0.25 0.25 0 0 1 14.25 30.5A0.25 0.25 0 0 1 14.5 30.25A0.25 0.25 0 0 1 14.75 30.5ZM17.75 30.5A0.25 0.25 0 0 1 17.5 30.75A0.25 0.25 0 0 1 17.25 30.5A0.25 0.25 0 0 1 17.5 30.25A0.25 0.25 0 0 1 17.75 30.5ZM18.75 30.5A0.25 0.25 0 0 1 18.5 30.75A0.25 0.25 0 0 1 18.25 30.5A0.25 0.25 0 0 1 18.5 30.25A0.25 0.25 0 0 1 18.75 30.5ZM19.75 30.5A0.25 0.25 0 0 1 19.5 30.75A0.25 0.25 0 0 1 19.25 30.5A0.25 0.25 0 0 1 19.5 30.25A0.25 0.25 0 0 1 19.75 30.5ZM21.75 30.5A0.25 0.25 0 0 1 21.5 30.75A0.25 0.25 0 0 1 21.25 30.5A0.25 0.25 0 0 1 21.5 30.25A0.25 0.25 0 0 1 21.75 30.5ZM23.75 30.5A0.25 0.25 0 0 1 23.5 30.75A0.25 0.25 0 0 1 23.25 30.5A0.25 0.25 0 0 1 23.5 30.25A0.25 0.25 0 0 1 23.75 30.5ZM24.75 30.5A0.25 0.25 0 0 1 24.5 30.75A0.25 0.25 0 0 1 24.25 30.5A0.25 0.25 0 0 1 24.5 30.25A0.25 0.25 0 0 1 24.75 30.5ZM25.75 30.5A0.25 0.25 0 0 1 25.5 30.75A0.25 0.25 0 0 1 25.25 30.5A0.25 0.25 0 0 1 25.5 30.25A0.25 0.25 0 0 1 25.75 30.5ZM28.75 30.5A0.25 0.25 0 0 1 28.5 30.75A0.25 0.25 0 0 1 28.25 30.5A0.25 0.25 0 0 1 28.5 30.25A0.25 0.25 0 0 1 28.75 30.5ZM30.75 30.5A0.25 0.25 0 0 1 30.5 30.75A0.25 0.25 0 0 1 30.25 30.5A0.25 0.25 0 0 1 30.5 30.25A0.25 0.25 0 0 1 30.75 30.5ZM31.75 30.5A0.25 0.25 0 0 1 31.5 30.75A0.25 0.25 0 0 1 31.25 30.5A0.25 0.25 0 0 1 31.5 30.25A0.25 0.25 0 0 1 31.75 30.5ZM32.75 30.5A0.25 0.25 0 0 1 32.5 30.75A0.25 0.25 0 0 1 32.25 30.5A0.25 0.25 0 0 1 32.5 30.25A0.25 0.25 0 0 1 32.75 30.5ZM10.75 31.5A0.25 0.25 0 0 1 10.5 31.75A0.25 0.25 0 0 1 10.25 31.5A0.25 0.25 0 0 1 10.5 31.25A0.25 0.25 0 0 1 10.75 31.5ZM12.75 31.5A0.25 0.25 0 0 1 12.5 31.75A0.25 0.25 0 0 1 12.25 31.5A0.25 0.25 0 0 1 12.5 31.25A0.25 0.25 0 0 1 12.75 31.5ZM13.75 31.5A0.25 0.25 0 0 1 13.5 31.75A0.25 0.25 0 0 1 13.25 31.5A0.25 0.25 0 0 1 13.5 31.25A0.25 0.25 0 0 1 13.75 31.5ZM15.75 31.5A0.25 0.25 0 0 1 15.5 31.75A0.25 0.25 0 0 1 15.25 31.5A0.25 0.25 0 0 1 15.5 31.25A0.25 0.25 0 0 1 15.75 31.5ZM16.75 31.5A0.25 0.25 0 0 1 16.5 31.75A0.25 0.25 0 0 1 16.25 31.5A0.25 0.25 0 0 1 16.5 31.25A0.25 0.25 0 0 1 16.75 31.5ZM18.75 31.5A0.25 0.25 0 0 1 18.5 31.75A0.25 0.25 0 0 1 18.25 31.5A0.25 0.25 0 0 1 18.5 31.25A0.25 0.25 0 0 1 18.75 31.5ZM20.75 31.5A0.25 0.25 0 0 1 20.5 31.75A0.25 0.25 0 0 1 20.25 31.5A0.25 0.25 0 0 1 20.5 31.25A0.25 0.25 0 0 1 20.75 31.5ZM22.75 31.5A0.25 0.25 0 0 1 22.5 31.75A0.25 0.25 0 0 1 22.25 31.5A0.25 0.25 0 0 1 22.5 31.25A0.25 0.25 0 0 1 22.75 31.5ZM23.75 31.5A0.25 0.25 0 0 1 23.5 31.75A0.25 0.25 0 0 1 23.25 31.5A0.25 0.25 0 0 1 23.5 31.25A0.25 0.25 0 0 1 23.75 31.5ZM24.75 31.5A0.25 0.25 0 0 1 24.5 31.75A0.25 0.25 0 0 1 24.25 31.5A0.25 0.25 0 0 1 24.5 31.25A0.25 0.25 0 0 1 24.75 31.5ZM25.75 31.5A0.25 0.25 0 0 1 25.5 31.75A0.25 0.25 0 0 1 25.25 31.5A0.25 0.25 0 0 1 25.5 31.25A0.25 0.25 0 0 1 25.75 31.5ZM27.75 31.5A0.25 0.25 0 0 1 27.5 31.75A0.25 0.25 0 0 1 27.25 31.5A0.25 0.25 0 0 1 27.5 31.25A0.25 0.25 0 0 1 27.75 31.5ZM28.75 31.5A0.25 0.25 0 0 1 28.5 31.75A0.25 0.25 0 0 1 28.25 31.5A0.25 0.25 0 0 1 28.5 31.25A0.25 0.25 0 0 1 28.75 31.5ZM13.75 32.5A0.25 0.25 0 0 1 13.5 32.75A0.25 0.25 0 0 1 13.25 32.5A0.25 0.25 0 0 1 13.5 32.25A0.25 0.25 0 0 1 13.75 32.5ZM14.75 32.5A0.25 0.25 0 0 1 14.5 32.75A0.25 0.25 0 0 1 14.25 32.5A0.25 0.25 0 0 1 14.5 32.25A0.25 0.25 0 0 1 14.75 32.5ZM15.75 32.5A0.25 0.25 0 0 1 15.5 32.75A0.25 0.25 0 0 1 15.25 32.5A0.25 0.25 0 0 1 15.5 32.25A0.25 0.25 0 0 1 15.75 32.5ZM16.75 32.5A0.25 0.25 0 0 1 16.5 32.75A0.25 0.25 0 0 1 16.25 32.5A0.25 0.25 0 0 1 16.5 32.25A0.25 0.25 0 0 1 16.75 32.5ZM17.75 32.5A0.25 0.25 0 0 1 17.5 32.75A0.25 0.25 0 0 1 17.25 32.5A0.25 0.25 0 0 1 17.5 32.25A0.25 0.25 0 0 1 17.75 32.5ZM19.75 32.5A0.25 0.25 0 0 1 19.5 32.75A0.25 0.25 0 0 1 19.25 32.5A0.25 0.25 0 0 1 19.5 32.25A0.25 0.25 0 0 1 19.75 32.5ZM20.75 32.5A0.25 0.25 0 0 1 20.5 32.75A0.25 0.25 0 0 1 20.25 32.5A0.25 0.25 0 0 1 20.5 32.25A0.25 0.25 0 0 1 20.75 32.5ZM22.75 32.5A0.25 0.25 0 0 1 22.5 32.75A0.25 0.25 0 0 1 22.25 32.5A0.25 0.25 0 0 1 22.5 32.25A0.25 0.25 0 0 1 22.75 32.5ZM23.75 32.5A0.25 0.25 0 0 1 23.5 32.75A0.25 0.25 0 0 1 23.25 32.5A0.25 0.25 0 0 1 23.5 32.25A0.25 0.25 0 0 1 23.75 32.5ZM24.75 32.5A0.25 0.25 0 0 1 24.5 32.75A0.25 0.25 0 0 1 24.25 32.5A0.25 0.25 0 0 1 24.5 32.25A0.25 0.25 0 0 1 24.75 32.5ZM30.75 32.5A0.25 0.25 0 0 1 30.5 32.75A0.25 0.25 0 0 1 30.25 32.5A0.25 0.25 0 0 1 30.5 32.25A0.25 0.25 0 0 1 30.75 32.5ZM32.75 32.5A0.25 0.25 0 0 1 32.5 32.75A0.25 0.25 0 0 1 32.25 32.5A0.25 0.25 0 0 1 32.5 32.25A0.25 0.25 0 0 1 32.75 32.5ZM0 0L7 0L7 7L0 7ZM1 1L1 6L6 6L6 1ZM5 3.5A1.5 1.5 0 0 1 3.5 5A1.5 1.5 0 0 1 2 3.5A1.5 1.5 0 0 1 3.5 2A1.5 1.5 0 0 1 5 3.5ZM26 0L33 0L33 7L26 7ZM27 1L27 6L32 6L32 1ZM31 3.5A1.5 1.5 0 0 1 29.5 5A1.5 1.5 0 0 1 28 3.5A1.5 1.5 0 0 1 29.5 2A1.5 1.5 0 0 1 31 3.5ZM0 26L7 26L7 33L0 33ZM1 27L1 32L6 32L6 27ZM5 29.5A1.5 1.5 0 0 1 3.5 31A1.5 1.5 0 0 1 2 29.5A1.5 1.5 0 0 1 3.5 28A1.5 1.5 0 0 1 5 29.5Z" fill="#000000"/></g></g></svg>
