<?xml version="1.0" encoding="UTF-8"?>
<svg xmlns="http://www.w3.org/2000/svg" version="1.1" width="500" height="500" viewBox="0 0 500 500"><rect x="0" y="0" width="500" height="500" fill="#8a2be2"/><g transform="scale(15.152)"><g transform="translate(0,0)"><path fill-rule="evenodd" d="M9 0.25L9 3.75A0.25 0.25 0 0 1 8.75 4L8.25 4A0.25 0.25 0 0 0 8 4.25L8 4.75A0.25 0.25 0 0 0 8.25 5L8.75 5A0.25 0.25 0 0 0 9 4.75L9 4.25A0.25 0.25 0 0 1 9.25 4L10.75 4A0.25 0.25 0 0 0 11 3.75L11 2.25A0.25 0.25 0 0 1 11.25 2L11.75 2A0.25 0.25 0 0 1 12 2.25L12 2.75A0.25 0.25 0 0 0 12.25 3L13.75 3A0.25 0.25 0 0 1 14 3.25L14 3.75A0.25 0.25 0 0 1 13.75 4L13.25 4A0.25 0.25 0 0 0 13 4.25L13 4.75A0.25 0.25 0 0 0 13.25 5L13.75 5A0.25 0.25 0 0 1 14 5.25L14 6.75A0.25 0.25 0 0 0 14.25 7L14.75 7A0.25 0.25 0 0 1 15 7.25L15 7.75A0.25 0.25 0 0 1 14.75 8L13.25 8A0.25 0.25 0 0 1 13 7.75L13 6.25A0.25 0.25 0 0 0 12.75 6L12.25 6A0.25 0.25 0 0 1 12 5.75L12 5.25A0.25 0.25 0 0 0 11.75 5L10.25 5A0.25 0.25 0 0 0 10 5.25L10 6.75A0.25 0.25 0 0 1 9.75 7L9.25 7A0.25 0.25 0 0 1 9 6.75L9 6.25A0.25 0.25 0 0 0 8.75 6L8.25 6A0.25 0.25 0 0 0 8 6.25L8 7.75A0.25 0.25 0 0 1 7.75 8L6.25 8A0.25 0.25 0 0 0 6 8.25L6 8.75A0.25 0.25 0 0 1 5.75 9L5.25 9A0.25 0.25 0 0 0 5 9.25L5 9.75A0.25 0.25 0 0 1 4.75 10L4.25 10A0.25 0.25 0 0 0 4 10.25L4 10.75A0.25 0.25 0 0 0 4.25 11L6.75 11A0.25 0.25 0 0 1 7 11.25L7 11.75A0.25 0.25 0 0 1 6.75 12L4.25 12A0.25 0.25 0 0 0 4 12.25L4 12.75A0.25 0.25 0 0 1 3.75 13L3.25 13A0.25 0.25 0 0 0 3 13.25L3 14.75A0.25 0.25 0 0 1 2.75 15L2.25 15A0.25 0.25 0 0 1 2 14.75L2 13.25A0.25 0.25 0 0 0 1.75 13L1.25 13A0.25 0.25 0 0 0 1 13.25L1 14.75A0.25 0.25 0 0 1 0.75 15L0.25 15A0.25 0.25 0 0 0 0 15.25L0 16.75A0.25 0.25 0 0 0 0.25 17L0.75 17A0.25 0.25 0 0 0 1 16.75L1 16.25A0.25 0.25 0 0 1 1.25 16L1.75 16A0.25 0.25 0 0 1 2 16.25L2 17.75A0.25 0.25 0 0 1 1.75 18L0.25 18A0.25 0.25 0 0 0 0 18.25L0 19.75A0.25 0.25 0 0 0 0.25 20L0.75 20A0.25 0.25 0 0 1 1 20.25L1 20.75A0.25 0.25 0 0 1 0.75 21L0.25 21A0.25 0.25 0 0 0 0 21.25L0 21.75A0.25 0.25 0 0 0 0.25 22L0.75 22A0.25 0.25 0 0 0 1 21.75L1 21.25A0.25 0.25 0 0 1 1.25 21L1.75 21A0.25 0.25 0 0 0 2 20.75L2 18.25A0.25 0.25 0 0 1 2.25 18L3.75 18A0.25 0.25 0 0 1 4 18.25L4 20.75A0.25 0.25 0 0 1 3.75 21L3.25 21A0.25 0.25 0 0 0 3 21.25L3 21.75A0.25 0.25 0 0 1 2.75 22L2.25 22A0.25 0.25 0 0 0 2 22.25L2 22.75A0.25 0.25 0 0 1 1.75 23L1.25 23A0.25 0.25 0 0 0 1 23.25L1 23.75A0.25 0.25 0 0 1 0.75 24L0.25 24A0.25 0.25 0 0 0 0 24.25L0 24.75A0.25 0.25 0 0 0 0.25 25L0.75 25A0.25 0.25 0 0 0 1 24.75L1 24.25A0.25 0.25 0 0 1 1.25 24L1.75 24A0.25 0.25 0 0 1 2 24.25L2 24.75A0.25 0.25 0 0 0 2.25 25L3.75 25A0.25 0.25 0 0 0 4 24.75L4 24.25A0.25 0.25 0 0 0 3.75 24L2.25 24A0.25 0.25 0 0 1 2 23.75L2 23.25A0.25 0.25 0 0 1 2.25 23L2.75 23A0.25 0.25 0 0 0 3 22.75L3 22.25A0.25 0.25 0 0 1 3.25 22L3.75 22A0.25 0.25 0 0 0 4 21.75L4 21.25A0.25 0.25 0 0 1 4.25 21L4.75 21A0.25 0.25 0 0 0 5 20.75L5 20.25A0.25 0.25 0 0 1 5.25 20L5.75 20A0.25 0.25 0 0 1 6 20.25L6 20.75A0.25 0.25 0 0 0 6.25 21L6.75 21A0.25 0.25 0 0 1 7 21.25L7 21.75A0.25 0.25 0 0 1 6.75 22L5.25 22A0.25 0.25 0 0 0 5 22.25L5 23.75A0.25 0.25 0 0 0 5.25 24L5.75 24A0.25 0.25 0 0 1 6 24.25L6 24.75A0.25 0.25 0 0 0 6.25 25L6.75 25A0.25 0.25 0 0 0 7 24.75L7 24.25A0.25 0.25 0 0 1 7.25 24L7.75 24A0.25 0.25 0 0 0 8 23.75L8 20.25A0.25 0.25 0 0 1 8.25 20L8.75 20A0.25 0.25 0 0 1 9 20.25L9 20.75A0.25 0.25 0 0 0 9.25 21L10.75 21A0.25 0.25 0 0 1 11 21.25L11 21.75A0.25 0.25 0 0 1 10.75 22L9.25 22A0.25 0.25 0 0 0 9 22.25L9 23.75A0.25 0.25 0 0 0 9.25 24L9.75 24A0.25 0.25 0 0 1 10 24.25L10 24.75A0.25 0.25 0 0 1 9.75 25L8.25 25A0.25 0.25 0 0 0 8 25.25L8 26.75A0.25 0.25 0 0 0 8.25 27L9.75 27A0.25 0.25 0 0 1 10 27.25L10 28.75A0.25 0.25 0 0 1 9.75 29L8.25 29A0.25 0.25 0 0 0 8 29.25L8 30.75A0.25 0.25 0 0 0 8.25 31L8.75 31A0.25 0.25 0 0 0 9 30.75L9 30.25A0.25 0.25 0 0 1 9.25 30L9.75 30A0.25 0.25 0 0 1 10 30.25L10 31.75A0.25 0.25 0 0 1 9.75 32L9.25 32A0.25 0.25 0 0 0 9 32.25L9 32.75A0.25 0.25 0 0 0 9.25 33L9.75 33A0.25 0.25 0 0 0 10 32.75L10 32.25A0.25 0.25 0 0 1 10.25 32L10.75 32A0.25 0.25 0 0 1 11 32.25L11 32.75A0.25 0.25 0 0 0 11.25 33L13.75 33A0.25 0.25 0 0 0 14 32.75L14 32.25A0.25 0.25 0 0 1 14.25 32L14.75 32A0.25 0.25 0 0 1 15 32.25L15 32.75A0.25 0.25 0 0 0 15.25 33L16.75 33A0.25 0.25 0 0 0 17 32.75L17 32.25A0.25 0.25 0 0 1 17.25 32L17.75 32A0.25 0.25 0 0 1 18 32.25L18 32.75A0.25 0.25 0 0 0 18.25 33L19.75 33A0.25 0.25 0 0 0 20 32.75L20 32.25A0.25 0.25 0 0 0 19.75 32L19.25 32A0.25 0.25 0 0 1 19 31.75L19 30.25A0.25 0.25 0 0 1 19.25 30L19.75 30A0.25 0.25 0 0 1 20 30.25L20 30.75A0.25 0.25 0 0 0 20.25 31L21.75 31A0.25 0.25 0 0 1 22 31.25L22 31.75A0.25 0.25 0 0 1 21.75 32L21.25 32A0.25 0.25 0 0 0 21 32.25L21 32.75A0.25 0.25 0 0 0 21.25 33L22.75 33A0.25 0.25 0 0 0 23 32.75L23 31.25A0.25 0.25 0 0 1 23.25 31L23.75 31A0.25 0.25 0 0 1 24 31.25L24 31.75A0.25 0.25 0 0 0 24.25 32L25.75 32A0.25 0.25 0 0 1 26 32.25L26 32.75A0.25 0.25 0 0 0 26.25 33L27.75 33A0.25 0.25 0 0 0 28 32.75L28 32.25A0.25 0.25 0 0 1 28.25 32L28.75 32A0.25 0.25 0 0 1 29 32.25L29 32.75A0.25 0.25 0 0 0 29.25 33L29.75 33A0.25 0.25 0 0 0 30 32.75L30 31.25A0.25 0.25 0 0 1 30.25 31L30.75 31A0.25 0.25 0 0 0 31 30.75L31 30.25A0.25 0.25 0 0 0 30.75 30L29.25 30A0.25 0.25 0 0 0 29 30.25L29 30.75A0.25 0.25 0 0 1 28.75 31L27.25 31A0.25 0.25 0 0 1 27 30.75L27 30.25A0.25 0.25 0 0 0 26.75 30L26.25 30A0.25 0.25 0 0 1 26 29.75L26 29.25A0.25 0.25 0 0 1 26.25 29L28.75 29A0.25 0.25 0 0 0 29 28.75L29 26.25A0.25 0.25 0 0 1 29.25 26L29.75 26A0.25 0.25 0 0 1 30 26.25L30 28.75A0.25 0.25 0 0 0 30.25 29L32.75 29A0.25 0.25 0 0 0 33 28.75L33 28.25A0.25 0.25 0 0 0 32.75 28L32.25 28A0.25 0.25 0 0 1 32 27.75L32 27.25A0.25 0.25 0 0 0 31.75 27L31.25 27A0.25 0.25 0 0 1 31 26.75L31 26.25A0.25 0.25 0 0 1 31.25 26L31.75 26A0.25 0.25 0 0 0 32 25.75L32 25.25A0.25 0.25 0 0 0 31.75 25L31.25 25A0.25 0.25 0 0 1 31 24.75L31 24.25A0.25 0.25 0 0 1 31.25 24L31.75 24A0.25 0.25 0 0 0 32 23.75L32 23.25A0.25 0.25 0 0 1 32.25 23L32.75 23A0.25 0.25 0 0 0 33 22.75L33 22.25A0.25 0.25 0 0 0 32.75 22L31.25 22A0.25 0.25 0 0 1 31 21.75L31 21.25A0.25 0.25 0 0 1 31.25 21L31.75 21A0.25 0.25 0 0 0 32 20.75L32 20.25A0.25 0.25 0 0 1 32.25 20L32.75 20A0.25 0.25 0 0 0 33 19.75L33 19.25A0.25 0.25 0 0 0 32.75 19L31.25 19A0.25 0.25 0 0 0 31 19.25L31 19.75A0.25 0.25 0 0 1 30.75 20L30.25 20A0.25 0.25 0 0 0 30 20.25L30 21.75A0.25 0.25 0 0 1 29.75 22L29.25 22A0.25 0.25 0 0 0 29 22.25L29 23.75A0.25 0.25 0 0 1 28.75 24L27.25 24A0.25 0.25 0 0 1 27 23.75L27 23.25A0.25 0.25 0 0 0 26.75 23L26.25 23A0.25 0.25 0 0 1 26 22.75L26 20.25A0.25 0.25 0 0 1 26.25 20L26.75 20A0.25 0.25 0 0 1 27 20.25L27 21.75A0.25 0.25 0 0 0 27.25 22L27.75 22A0.25 0.25 0 0 0 28 21.75L28 19.25A0.25 0.25 0 0 0 27.75 19L25.25 19A0.25 0.25 0 0 1 25 18.75L25 17.25A0.25 0.25 0 0 0 24.75 17L24.25 17A0.25 0.25 0 0 1 24 16.75L24 16.25A0.25 0.25 0 0 1 24.25 16L24.75 16A0.25 0.25 0 0 0 25 15.75L25 15.25A0.25 0.25 0 0 1 25.25 15L26.75 15A0.25 0.25 0 0 0 27 14.75L27 14.25A0.25 0.25 0 0 1 27.25 14L28.75 14A0.25 0.25 0 0 0 29 13.75L29 13.25A0.25 0.25 0 0 0 28.75 13L28.25 13A0.25 0.25 0 0 1 28 12.75L28 12.25A0.25 0.25 0 0 0 27.75 12L27.25 12A0.25 0.25 0 0 0 27 12.25L27 13.75A0.25 0.25 0 0 1 26.75 14L26.25 14A0.25 0.25 0 0 1 26 13.75L26 13.25A0.25 0.25 0 0 0 25.75 13L25.25 13A0.25 0.25 0 0 0 25 13.25L25 13.75A0.25 0.25 0 0 1 24.75 14L24.25 14A0.25 0.25 0 0 0 24 14.25L24 15.75A0.25 0.25 0 0 1 23.75 16L23.25 16A0.25 0.25 0 0 1 23 15.75L23 15.25A0.25 0.25 0 0 0 22.75 15L22.25 15A0.25 0.25 0 0 1 22 14.75L22 13.25A0.25 0.25 0 0 1 22.25 13L22.75 13A0.25 0.25 0 0 0 23 12.75L23 12.25A0.25 0.25 0 0 1 23.25 12L25.75 12A0.25 0.25 0 0 0 26 11.75L26 11.25A0.25 0.25 0 0 0 25.75 11L24.25 11A0.25 0.25 0 0 1 24 10.75L24 10.25A0.25 0.25 0 0 1 24.25 10L24.75 10A0.25 0.25 0 0 0 25 9.75L25 9.25A0.25 0.25 0 0 1 25.25 9L25.75 9A0.25 0.25 0 0 1 26 9.25L26 9.75A0.25 0.25 0 0 0 26.25 10L26.75 10A0.25 0.25 0 0 0 27 9.75L27 8.25A0.25 0.25 0 0 0 26.75 8L24.25 8A0.25 0.25 0 0 1 24 7.75L24 7.25A0.25 0.25 0 0 1 24.25 7L24.75 7A0.25 0.25 0 0 0 25 6.75L25 5.25A0.25 0.25 0 0 0 24.75 5L24.25 5A0.25 0.25 0 0 1 24 4.75L24 4.25A0.25 0.25 0 0 0 23.75 4L22.25 4A0.25 0.25 0 0 0 22 4.25L22 4.75A0.25 0.25 0 0 0 22.25 5L23.75 5A0.25 0.25 0 0 1 24 5.25L24 6.75A0.25 0.25 0 0 1 23.75 7L23.25 7A0.25 0.25 0 0 1 23 6.75L23 6.25A0.25 0.25 0 0 0 22.75 6L22.25 6A0.25 0.25 0 0 0 22 6.25L22 7.75A0.25 0.25 0 0 1 21.75 8L21.25 8A0.25 0.25 0 0 0 21 8.25L21 8.75A0.25 0.25 0 0 1 20.75 9L20.25 9A0.25 0.25 0 0 0 20 9.25L20 9.75A0.25 0.25 0 0 1 19.75 10L19.25 10A0.25 0.25 0 0 1 19 9.75L19 9.25A0.25 0.25 0 0 0 18.75 9L18.25 9A0.25 0.25 0 0 0 18 9.25L18 9.75A0.25 0.25 0 0 1 17.75 10L17.25 10A0.25 0.25 0 0 1 17 9.75L17 9.25A0.25 0.25 0 0 0 16.75 9L16.25 9A0.25 0.25 0 0 0 16 9.25L16 10.75A0.25 0.25 0 0 0 16.25 11L17.75 11A0.25 0.25 0 0 1 18 11.25L18 11.75A0.25 0.25 0 0 1 17.75 12L17.25 12A0.25 0.25 0 0 0 17 12.25L17 12.75A0.25 0.25 0 0 1 16.75 13L16.25 13A0.25 0.25 0 0 0 16 13.25L16 13.75A0.25 0.25 0 0 1 15.75 14L15.25 14A0.25 0.25 0 0 0 15 14.25L15 14.75A0.25 0.25 0 0 0 15.25 15L16.75 15A0.25 0.25 0 0 1 17 15.25L17 15.75A0.25 0.25 0 0 1 16.75 16L14.25 16A0.25 0.25 0 0 0 14 16.25L14 17.75A0.25 0.25 0 0 1 13.75 18L13.25 18A0.25 0.25 0 0 0 13 18.25L13 18.75A0.25 0.25 0 0 1 12.75 19L12.25 19A0.25 0.25 0 0 1 12 18.75L12 18.25A0.25 0.25 0 0 0 11.75 18L11.25 18A0.25 0.25 0 0 1 11 17.75L11 16.25A0.25 0.25 0 0 0 10.75 16L10.25 16A0.25 0.25 0 0 1 10 15.75L10 15.25A0.25 0.25 0 0 1 10.25 15L10.75 15A0.25 0.25 0 0 0 11 14.75L11 14.25A0.25 0.25 0 0 0 10.75 14L10.25 14A0.25 0.25 0 0 0 10 14.25L10 14.75A0.25 0.25 0 0 1 9.75 15L9.25 15A0.25 0.25 0 0 1 9 14.75L9 13.25A0.25 0.25 0 0 0 8.75 13L8.25 13A0.25 0.25 0 0 0 8 13.25L8 13.75A0.25 0.25 0 0 1 7.75 14L5.25 14A0.25 0.25 0 0 1 5 13.75L5 13.25A0.25 0.25 0 0 1 5.25 13L6.75 13A0.25 0.25 0 0 0 7 12.75L7 12.25A0.25 0.25 0 0 1 7.25 12L9.75 12A0.25 0.25 0 0 1 10 12.25L10 12.75A0.25 0.25 0 0 0 10.25 13L12.75 13A0.25 0.25 0 0 1 13 13.25L13 13.75A0.25 0.25 0 0 1 12.75 14L12.25 14A0.25 0.25 0 0 0 12 14.25L12 14.75A0.25 0.25 0 0 0 12.25 15L13.75 15A0.25 0.25 0 0 0 14 14.75L14 12.25A0.25 0.25 0 0 1 14.25 12L14.75 12A0.25 0.25 0 0 0 15 11.75L15 11.25A0.25 0.25 0 0 0 14.75 11L13.25 11A0.25 0.25 0 0 0 13 11.25L13 11.75A0.25 0.25 0 0 1 12.75 12L12.25 12A0.25 0.25 0 0 1 12 11.75L12 11.25A0.25 0.25 0 0 0 11.75 11L11.25 11A0.25 0.25 0 0 1 11 10.75L11 10.25A0.25 0.25 0 0 0 10.75 10L9.25 10A0.25 0.25 0 0 0 9 10.25L9 10.75A0.25 0.25 0 0 1 8.75 11L7.25 11A0.25 0.25 0 0 1 7 10.75L7 10.25A0.25 0.25 0 0 0 6.75 10L6.25 10A0.25 0.25 0 0 1 6 9.75L6 9.25A0.25 0.25 0 0 1 6.25 9L9.75 9A0.25 0.25 0 0 0 10 8.75L10 8.25A0.25 0.25 0 0 1 10.25 8L10.75 8A0.25 0.25 0 0 1 11 8.25L11 8.75A0.25 0.25 0 0 0 11.25 9L11.75 9A0.25 0.25 0 0 1 12 9.25L12 9.75A0.25 0.25 0 0 0 12.25 10L13.75 10A0.25 0.25 0 0 0 14 9.75L14 9.25A0.25 0.25 0 0 1 14.25 9L14.75 9A0.25 0.25 0 0 0 15 8.75L15 8.25A0.25 0.25 0 0 1 15.25 8L16.75 8A0.25 0.25 0 0 0 17 7.75L17 5.25A0.25 0.25 0 0 1 17.25 5L18.75 5A0.25 0.25 0 0 1 19 5.25L19 5.75A0.25 0.25 0 0 1 18.75 6L18.25 6A0.25 0.25 0 0 0 18 6.25L18 7.75A0.25 0.25 0 0 0 18.25 8L19.75 8A0.25 0.25 0 0 0 20 7.75L20 7.25A0.25 0.25 0 0 1 20.25 7L20.75 7A0.25 0.25 0 0 0 21 6.75L21 6.25A0.25 0.25 0 0 0 20.75 6L20.25 6A0.25 0.25 0 0 1 20 5.75L20 5.25A0.25 0.25 0 0 1 20.25 5L20.75 5A0.25 0.25 0 0 0 21 4.75L21 1.25A0.25 0.25 0 0 1 21.25 1L21.75 1A0.25 0.25 0 0 0 22 0.75L22 0.25A0.25 0.25 0 0 0 21.75 0L21.25 0A0.25 0.25 0 0 0 21 0.25L21 0.75A0.25 0.25 0 0 1 20.75 1L20.25 1A0.25 0.25 0 0 0 20 1.25L20 4.75A0.25 0.25 0 0 1 19.75 5L19.25 5A0.25 0.25 0 0 1 19 4.75L19 4.25A0.25 0.25 0 0 0 18.75 4L17.25 4A0.25 0.25 0 0 0 17 4.25L17 4.75A0.25 0.25 0 0 1 16.75 5L16.25 5A0.25 0.25 0 0 1 16 4.75L16 3.25A0.25 0.25 0 0 0 15.75 3L15.25 3A0.25 0.25 0 0 1 15 2.75L15 2.25A0.25 0.25 0 0 1 15.25 2L16.75 2A0.25 0.25 0 0 1 17 2.25L17 2.75A0.25 0.25 0 0 0 17.25 3L18.75 3A0.25 0.25 0 0 0 19 2.75L19 2.25A0.25 0.25 0 0 0 18.75 2L17.25 2A0.25 0.25 0 0 1 17 1.75L17 1.25A0.25 0.25 0 0 0 16.75 1L16.25 1A0.25 0.25 0 0 1 16 0.75L16 0.25A0.25 0.25 0 0 0 15.75 0L13.25 0A0.25 0.25 0 0 0 13 0.25L13 0.75A0.25 0.25 0 0 1 12.75 1L12.25 1A0.25 0.25 0 0 1 12 0.75L12 0.25A0.25 0.25 0 0 0 11.75 0L11.25 0A0.25 0.25 0 0 0 11 0.25L11 1.75A0.25 0.25 0 0 1 10.75 2L10.25 2A0.25 0.25 0 0 1 10 1.75L10 0.25A0.25 0.25 0 0 0 9.75 0L9.25 0A0.25 0.25 0 0 0 9 0.25ZM18 0.25L18 0.75A0.25 0.25 0 0 0 18.25 1L18.75 1A0.25 0.25 0 0 0 19 0.75L19 0.25A0.25 0.25 0 0 0 18.75 0L18.25 0A0.25 0.25 0 0 0 18 0.25ZM23 0.25L23 1.75A0.25 0.25 0 0 0 23.25 2L23.75 2A0.25 0.25 0 0 1 24 2.25L24 2.75A0.25 0.25 0 0 0 24.25 3L24.75 3A0.25 0.25 0 0 0 25 2.75L25 2.25A0.25 0.25 0 0 0 24.75 2L24.25 2A0.25 0.25 0 0 1 24 1.75L24 0.25A0.25 0.25 0 0 0 23.75 0L23.25 0A0.25 0.25 0 0 0 23 0.25ZM14 4.25L14 4.75A0.25 0.25 0 0 0 14.25 5L14.75 5A0.25 0.25 0 0 0 15 4.75L15 4.25A0.25 0.25 0 0 0 14.75 4L14.25 4A0.25 0.25 0 0 0 14 4.25ZM11 6.25L11 7.75A0.25 0.25 0 0 0 11.25 8L11.75 8A0.25 0.25 0 0 1 12 8.25L12 8.75A0.25 0.25 0 0 0 12.25 9L12.75 9A0.25 0.25 0 0 0 13 8.75L13 8.25A0.25 0.25 0 0 0 12.75 8L12.25 8A0.25 0.25 0 0 1 12 7.75L12 6.25A0.25 0.25 0 0 0 11.75 6L11.25 6A0.25 0.25 0 0 0 11 6.25ZM15 6.25L15 6.75A0.25 0.25 0 0 0 15.25 7L15.75 7A0.25 0.25 0 0 0 16 6.75L16 6.25A0.25 0.25 0 0 0 15.75 6L15.25 6A0.25 0.25 0 0 0 15 6.25ZM19 6.25L19 6.75A0.25 0.25 0 0 0 19.25 7L19.75 7A0.25 0.25 0 0 0 20 6.75L20 6.25A0.25 0.25 0 0 0 19.75 6L19.25 6A0.25 0.25 0 0 0 19 6.25ZM2 8.25L2 8.75A0.25 0.25 0 0 0 2.25 9L3.75 9A0.25 0.25 0 0 0 4 8.75L4 8.25A0.25 0.25 0 0 0 3.75 8L2.25 8A0.25 0.25 0 0 0 2 8.25ZM23 8.25L23 8.75A0.25 0.25 0 0 0 23.25 9L23.75 9A0.25 0.25 0 0 0 24 8.75L24 8.25A0.25 0.25 0 0 0 23.75 8L23.25 8A0.25 0.25 0 0 0 23 8.25ZM28 8.25L28 8.75A0.25 0.25 0 0 0 28.25 9L28.75 9A0.25 0.25 0 0 0 29 8.75L29 8.25A0.25 0.25 0 0 0 28.75 8L28.25 8A0.25 0.25 0 0 0 28 8.25ZM0 9.25L0 9.75A0.25 0.25 0 0 0 0.25 10L0.75 10A0.25 0.25 0 0 1 1 10.25L1 10.75A0.25 0.25 0 0 1 0.75 11L0.25 11A0.25 0.25 0 0 0 0 11.25L0 11.75A0.25 0.25 0 0 0 0.25 12L1.75 12A0.25 0.25 0 0 0 2 11.75L2 10.25A0.25 0.25 0 0 0 1.75 10L1.25 10A0.25 0.25 0 0 1 1 9.75L1 9.25A0.25 0.25 0 0 0 0.75 9L0.25 9A0.25 0.25 0 0 0 0 9.25ZM21 9.25L21 9.75A0.25 0.25 0 0 1 20.75 10L20.25 10A0.25 0.25 0 0 0 20 10.25L20 11.75A0.25 0.25 0 0 0 20.25 12L20.75 12A0.25 0.25 0 0 0 21 11.75L21 10.25A0.25 0.25 0 0 1 21.25 10L21.75 10A0.25 0.25 0 0 0 22 9.75L22 9.25A0.25 0.25 0 0 0 21.75 9L21.25 9A0.25 0.25 0 0 0 21 9.25ZM30 9.25L30 9.75A0.25 0.25 0 0 1 29.75 10L29.25 10A0.25 0.25 0 0 0 29 10.25L29 11.75A0.25 0.25 0 0 0 29.25 12L29.75 12A0.25 0.25 0 0 1 30 12.25L30 14.75A0.25 0.25 0 0 1 29.75 15L28.25 15A0.25 0.25 0 0 0 28 15.25L28 15.75A0.25 0.25 0 0 1 27.75 16L26.25 16A0.25 0.25 0 0 0 26 16.25L26 17.75A0.25 0.25 0 0 0 26.25 18L26.75 18A0.25 0.25 0 0 0 27 17.75L27 17.25A0.25 0.25 0 0 1 27.25 17L27.75 17A0.25 0.25 0 0 1 28 17.25L28 17.75A0.25 0.25 0 0 0 28.25 18L28.75 18A0.25 0.25 0 0 0 29 17.75L29 17.25A0.25 0.25 0 0 1 29.25 17L29.75 17A0.25 0.25 0 0 1 30 17.25L30 17.75A0.25 0.25 0 0 0 30.25 18L31.75 18A0.25 0.25 0 0 0 32 17.75L32 17.25A0.25 0.25 0 0 0 31.75 17L30.25 17A0.25 0.25 0 0 1 30 16.75L30 15.25A0.25 0.25 0 0 1 30.25 15L30.75 15A0.25 0.25 0 0 0 31 14.75L31 13.25A0.25 0.25 0 0 1 31.25 13L31.75 13A0.25 0.25 0 0 1 32 13.25L32 13.75A0.25 0.25 0 0 0 32.25 14L32.75 14A0.25 0.25 0 0 0 33 13.75L33 12.25A0.25 0.25 0 0 0 32.75 12L32.25 12A0.25 0.25 0 0 1 32 11.75L32 11.25A0.25 0.25 0 0 1 32.25 11L32.75 11A0.25 0.25 0 0 0 33 10.75L33 9.25A0.25 0.25 0 0 0 32.75 9L30.25 9A0.25 0.25 0 0 0 30 9.25ZM18 10.25L18 10.75A0.25 0.25 0 0 0 18.25 11L18.75 11A0.25 0.25 0 0 0 19 10.75L19 10.25A0.25 0.25 0 0 0 18.75 10L18.25 10A0.25 0.25 0 0 0 18 10.25ZM31 10.25L31 10.75A0.25 0.25 0 0 1 30.75 11L30.25 11A0.25 0.25 0 0 0 30 11.25L30 11.75A0.25 0.25 0 0 0 30.25 12L30.75 12A0.25 0.25 0 0 0 31 11.75L31 11.25A0.25 0.25 0 0 1 31.25 11L31.75 11A0.25 0.25 0 0 0 32 10.75L32 10.25A0.25 0.25 0 0 0 31.75 10L31.25 10A0.25 0.25 0 0 0 31 10.25ZM10 11.25L10 11.75A0.25 0.25 0 0 0 10.25 12L10.75 12A0.25 0.25 0 0 0 11 11.75L11 11.25A0.25 0.25 0 0 0 10.75 11L10.25 11A0.25 0.25 0 0 0 10 11.25ZM18 12.25L18 13.75A0.25 0.25 0 0 1 17.75 14L17.25 14A0.25 0.25 0 0 0 17 14.25L17 14.75A0.25 0.25 0 0 0 17.25 15L17.75 15A0.25 0.25 0 0 1 18 15.25L18 15.75A0.25 0.25 0 0 1 17.75 16L17.25 16A0.25 0.25 0 0 0 17 16.25L17 16.75A0.25 0.25 0 0 0 17.25 17L17.75 17A0.25 0.25 0 0 0 18 16.75L18 16.25A0.25 0.25 0 0 1 18.25 16L18.75 16A0.25 0.25 0 0 0 19 15.75L19 15.25A0.25 0.25 0 0 1 19.25 15L19.75 15A0.25 0.25 0 0 0 20 14.75L20 14.25A0.25 0.25 0 0 0 19.75 14L19.25 14A0.25 0.25 0 0 1 19 13.75L19 12.25A0.25 0.25 0 0 0 18.75 12L18.25 12A0.25 0.25 0 0 0 18 12.25ZM4 14.25L4 14.75A0.25 0.25 0 0 0 4.25 15L4.75 15A0.25 0.25 0 0 0 5 14.75L5 14.25A0.25 0.25 0 0 0 4.75 14L4.25 14A0.25 0.25 0 0 0 4 14.25ZM6 15.25L6 15.75A0.25 0.25 0 0 0 6.25 16L6.75 16A0.25 0.25 0 0 1 7 16.25L7 16.75A0.25 0.25 0 0 1 6.75 17L4.25 17A0.25 0.25 0 0 0 4 17.25L4 17.75A0.25 0.25 0 0 0 4.25 18L4.75 18A0.25 0.25 0 0 1 5 18.25L5 18.75A0.25 0.25 0 0 0 5.25 19L5.75 19A0.25 0.25 0 0 1 6 19.25L6 19.75A0.25 0.25 0 0 0 6.25 20L7.75 20A0.25 0.25 0 0 0 8 19.75L8 19.25A0.25 0.25 0 0 0 7.75 19L6.25 19A0.25 0.25 0 0 1 6 18.75L6 18.25A0.25 0.25 0 0 1 6.25 18L8.75 18A0.25 0.25 0 0 1 9 18.25L9 19.75A0.25 0.25 0 0 0 9.25 20L10.75 20A0.25 0.25 0 0 1 11 20.25L11 20.75A0.25 0.25 0 0 0 11.25 21L12.75 21A0.25 0.25 0 0 0 13 20.75L13 20.25A0.25 0.25 0 0 0 12.75 20L12.25 20A0.25 0.25 0 0 1 12 19.75L12 19.25A0.25 0.25 0 0 0 11.75 19L11.25 19A0.25 0.25 0 0 1 11 18.75L11 18.25A0.25 0.25 0 0 0 10.75 18L10.25 18A0.25 0.25 0 0 1 10 17.75L10 16.25A0.25 0.25 0 0 0 9.75 16L9.25 16A0.25 0.25 0 0 1 9 15.75L9 15.25A0.25 0.25 0 0 0 8.75 15L8.25 15A0.25 0.25 0 0 0 8 15.25L8 15.75A0.25 0.25 0 0 1 7.75 16L7.25 16A0.25 0.25 0 0 1 7 15.75L7 15.25A0.25 0.25 0 0 0 6.75 15L6.25 15A0.25 0.25 0 0 0 6 15.25ZM32 15.25L32 15.75A0.25 0.25 0 0 0 32.25 16L32.75 16A0.25 0.25 0 0 0 33 15.75L33 15.25A0.25 0.25 0 0 0 32.75 15L32.25 15A0.25 0.25 0 0 0 32 15.25ZM12 16.25L12 16.75A0.25 0.25 0 0 0 12.25 17L12.75 17A0.25 0.25 0 0 0 13 16.75L13 16.25A0.25 0.25 0 0 0 12.75 16L12.25 16A0.25 0.25 0 0 0 12 16.25ZM15 17.25L15 17.75A0.25 0.25 0 0 1 14.75 18L14.25 18A0.25 0.25 0 0 0 14 18.25L14 21.75A0.25 0.25 0 0 1 13.75 22L12.25 22A0.25 0.25 0 0 0 12 22.25L12 22.75A0.25 0.25 0 0 1 11.75 23L11.25 23A0.25 0.25 0 0 0 11 23.25L11 23.75A0.25 0.25 0 0 0 11.25 24L12.75 24A0.25 0.25 0 0 1 13 24.25L13 24.75A0.25 0.25 0 0 1 12.75 25L11.25 25A0.25 0.25 0 0 0 11 25.25L11 25.75A0.25 0.25 0 0 1 10.75 26L10.25 26A0.25 0.25 0 0 0 10 26.25L10 26.75A0.25 0.25 0 0 0 10.25 27L10.75 27A0.25 0.25 0 0 0 11 26.75L11 26.25A0.25 0.25 0 0 1 11.25 26L12.75 26A0.25 0.25 0 0 1 13 26.25L13 27.75A0.25 0.25 0 0 1 12.75 28L11.25 28A0.25 0.25 0 0 0 11 28.25L11 28.75A0.25 0.25 0 0 1 10.75 29L10.25 29A0.25 0.25 0 0 0 10 29.25L10 29.75A0.25 0.25 0 0 0 10.25 30L10.75 30A0.25 0.25 0 0 1 11 30.25L11 31.75A0.25 0.25 0 0 0 11.25 32L11.75 32A0.25 0.25 0 0 0 12 31.75L12 30.25A0.25 0.25 0 0 1 12.25 30L12.75 30A0.25 0.25 0 0 1 13 30.25L13 30.75A0.25 0.25 0 0 0 13.25 31L14.75 31A0.25 0.25 0 0 1 15 31.25L15 31.75A0.25 0.25 0 0 0 15.25 32L16.75 32A0.25 0.25 0 0 0 17 31.75L17 31.25A0.25 0.25 0 0 1 17.25 31L17.75 31A0.25 0.25 0 0 0 18 30.75L18 28.25A0.25 0.25 0 0 0 17.75 28L16.25 28A0.25 0.25 0 0 1 16 27.75L16 27.25A0.25 0.25 0 0 1 16.25 27L16.75 27A0.25 0.25 0 0 0 17 26.75L17 26.25A0.25 0.25 0 0 0 16.75 26L16.25 26A0.25 0.25 0 0 1 16 25.75L16 25.25A0.25 0.25 0 0 1 16.25 25L16.75 25A0.25 0.25 0 0 0 17 24.75L17 24.25A0.25 0.25 0 0 0 16.75 24L16.25 24A0.25 0.25 0 0 1 16 23.75L16 23.25A0.25 0.25 0 0 1 16.25 23L16.75 23A0.25 0.25 0 0 0 17 22.75L17 22.25A0.25 0.25 0 0 1 17.25 22L17.75 22A0.25 0.25 0 0 0 18 21.75L18 20.25A0.25 0.25 0 0 0 17.75 20L17.25 20A0.25 0.25 0 0 0 17 20.25L17 21.75A0.25 0.25 0 0 1 16.75 22L16.25 22A0.25 0.25 0 0 0 16 22.25L16 22.75A0.25 0.25 0 0 1 15.75 23L15.25 23A0.25 0.25 0 0 1 15 22.75L15 21.25A0.25 0.25 0 0 1 15.25 21L15.75 21A0.25 0.25 0 0 0 16 20.75L16 17.25A0.25 0.25 0 0 0 15.75 17L15.25 17A0.25 0.25 0 0 0 15 17.25ZM21 17.25L21 17.75A0.25 0.25 0 0 1 20.75 18L20.25 18A0.25 0.25 0 0 0 20 18.25L20 18.75A0.25 0.25 0 0 1 19.75 19L19.25 19A0.25 0.25 0 0 1 19 18.75L19 18.25A0.25 0.25 0 0 0 18.75 18L18.25 18A0.25 0.25 0 0 0 18 18.25L18 18.75A0.25 0.25 0 0 0 18.25 19L18.75 19A0.25 0.25 0 0 1 19 19.25L19 19.75A0.25 0.25 0 0 0 19.25 20L22.75 20A0.25 0.25 0 0 1 23 20.25L23 21.75A0.25 0.25 0 0 1 22.75 22L22.25 22A0.25 0.25 0 0 0 22 22.25L22 22.75A0.25 0.25 0 0 1 21.75 23L20.25 23A0.25 0.25 0 0 1 20 22.75L20 22.25A0.25 0.25 0 0 1 20.25 22L20.75 22A0.25 0.25 0 0 0 21 21.75L21 21.25A0.25 0.25 0 0 0 20.75 21L20.25 21A0.25 0.25 0 0 0 20 21.25L20 21.75A0.25 0.25 0 0 1 19.75 22L19.25 22A0.25 0.25 0 0 0 19 22.25L19 22.75A0.25 0.25 0 0 0 19.25 23L19.75 23A0.25 0.25 0 0 1 20 23.25L20 23.75A0.25 0.25 0 0 1 19.75 24L18.25 24A0.25 0.25 0 0 0 18 24.25L18 26.75A0.25 0.25 0 0 0 18.25 27L18.75 27A0.25 0.25 0 0 1 19 27.25L19 27.75A0.25 0.25 0 0 0 19.25 28L19.75 28A0.25 0.25 0 0 1 20 28.25L20 28.75A0.25 0.25 0 0 0 20.25 29L20.75 29A0.25 0.25 0 0 1 21 29.25L21 29.75A0.25 0.25 0 0 0 21.25 30L22.75 30A0.25 0.25 0 0 0 23 29.75L23 28.25A0.25 0.25 0 0 1 23.25 28L23.75 28A0.25 0.25 0 0 0 24 27.75L24 27.25A0.25 0.25 0 0 0 23.75 27L23.25 27A0.25 0.25 0 0 0 23 27.25L23 27.75A0.25 0.25 0 0 1 22.75 28L20.25 28A0.25 0.25 0 0 1 20 27.75L20 27.25A0.25 0.25 0 0 1 20.25 27L21.75 27A0.25 0.25 0 0 0 22 26.75L22 26.25A0.25 0.25 0 0 1 22.25 26L23.75 26A0.25 0.25 0 0 0 24 25.75L24 25.25A0.25 0.25 0 0 0 23.75 25L21.25 25A0.25 0.25 0 0 1 21 24.75L21 24.25A0.25 0.25 0 0 1 21.25 24L22.75 24A0.25 0.25 0 0 0 23 23.75L23 23.25A0.25 0.25 0 0 1 23.25 23L24.75 23A0.25 0.25 0 0 0 25 22.75L25 19.25A0.25 0.25 0 0 0 24.75 19L24.25 19A0.25 0.25 0 0 1 24 18.75L24 17.25A0.25 0.25 0 0 0 23.75 17L23.25 17A0.25 0.25 0 0 0 23 17.25L23 18.75A0.25 0.25 0 0 1 22.75 19L22.25 19A0.25 0.25 0 0 1 22 18.75L22 17.25A0.25 0.25 0 0 0 21.75 17L21.25 17A0.25 0.25 0 0 0 21 17.25ZM23 19.25L23 19.75A0.25 0.25 0 0 0 23.25 20L23.75 20A0.25 0.25 0 0 0 24 19.75L24 19.25A0.25 0.25 0 0 0 23.75 19L23.25 19A0.25 0.25 0 0 0 23 19.25ZM30 22.25L30 23.75A0.25 0.25 0 0 1 29.75 24L29.25 24A0.25 0.25 0 0 0 29 24.25L29 24.75A0.25 0.25 0 0 0 29.25 25L29.75 25A0.25 0.25 0 0 0 30 24.75L30 24.25A0.25 0.25 0 0 1 30.25 24L30.75 24A0.25 0.25 0 0 0 31 23.75L31 22.25A0.25 0.25 0 0 0 30.75 22L30.25 22A0.25 0.25 0 0 0 30 22.25ZM6 23.25L6 23.75A0.25 0.25 0 0 0 6.25 24L6.75 24A0.25 0.25 0 0 0 7 23.75L7 23.25A0.25 0.25 0 0 0 6.75 23L6.25 23A0.25 0.25 0 0 0 6 23.25ZM13 23.25L13 23.75A0.25 0.25 0 0 0 13.25 24L13.75 24A0.25 0.25 0 0 1 14 24.25L14 24.75A0.25 0.25 0 0 0 14.25 25L14.75 25A0.25 0.25 0 0 0 15 24.75L15 24.25A0.25 0.25 0 0 0 14.75 24L14.25 24A0.25 0.25 0 0 1 14 23.75L14 23.25A0.25 0.25 0 0 0 13.75 23L13.25 23A0.25 0.25 0 0 0 13 23.25ZM19 25.25L19 25.75A0.25 0.25 0 0 0 19.25 26L20.75 26A0.25 0.25 0 0 0 21 25.75L21 25.25A0.25 0.25 0 0 0 20.75 25L19.25 25A0.25 0.25 0 0 0 19 25.25ZM25 25.25L25 27.75A0.25 0.25 0 0 0 25.25 28L27.75 28A0.25 0.25 0 0 0 28 27.75L28 25.25A0.25 0.25 0 0 0 27.75 25L25.25 25A0.25 0.25 0 0 0 25 25.25ZM14 26.25L14 26.75A0.25 0.25 0 0 0 14.25 27L14.75 27A0.25 0.25 0 0 0 15 26.75L15 26.25A0.25 0.25 0 0 0 14.75 26L14.25 26A0.25 0.25 0 0 0 14 26.25ZM26 26.25L26 26.75A0.25 0.25 0 0 0 26.25 27L26.75 27A0.25 0.25 0 0 0 27 26.75L27 26.25A0.25 0.25 0 0 0 26.75 26L26.25 26A0.25 0.25 0 0 0 26 26.25ZM13 28.25L13 29.75A0.25 0.25 0 0 0 13.25 30L14.75 30A0.25 0.25 0 0 1 15 30.25L15 30.75A0.25 0.25 0 0 0 15.25 31L15.75 31A0.25 0.25 0 0 0 16 30.75L16 30.25A0.25 0.25 0 0 0 15.75 30L15.25 30A0.25 0.25 0 0 1 15 29.75L15 29.25A0.25 0.25 0 0 1 15.25 29L15.75 29A0.25 0.25 0 0 0 16 28.75L16 28.25A0.25 0.25 0 0 0 15.75 28L13.25 28A0.25 0.25 0 0 0 13 28.25ZM25 30.25L25 30.75A0.25 0.25 0 0 0 25.25 31L25.75 31A0.25 0.25 0 0 0 26 30.75L26 30.25A0.25 0.25 0 0 0 25.75 30L25.25 30A0.25 0.25 0 0 0 25 30.25ZM32 31.25L32 31.75A0.25 0.25 0 0 0 32.25 32L32.75 32A0.25 0.25 0 0 0 33 31.75L33 31.25A0.25 0.25 0 0 0 32.75 31L32.25 31A0.25 0.25 0 0 0 32 31.25ZM0 0.25L0 6.75A0.25 0.25 0 0 0 0.25 7L6.75 7A0.25 0.25 0 0 0 7 6.75L7 0.25A0.25 0.25 0 0 0 6.75 0L0.25 0A0.25 0.25 0 0 0 0 0.25ZM1 1.25L1 5.75A0.25 0.25 0 0 0 1.25 6L5.75 6A0.25 0.25 0 0 0 6 5.75L6 1.25A0.25 0.25 0 0 0 5.75 1L1.25 1A0.25 0.25 0 0 0 1 1.25ZM2 2.25L2 4.75A0.25 0.25 0 0 0 2.25 5L4.75 5A0.25 0.25 0 0 0 5 4.75L5 2.25A0.25 0.25 0 0 0 4.75 2L2.25 2A0.25 0.25 0 0 0 2 2.25ZM26 0.25L26 6.75A0.25 0.25 0 0 0 26.25 7L32.75 7A0.25 0.25 0 0 0 33 6.75L33 0.25A0.25 0.25 0 0 0 32.75 0L26.25 0A0.25 0.25 0 0 0 26 0.25ZM27 1.25L27 5.75A0.25 0.25 0 0 0 27.25 6L31.75 6A0.25 0.25 0 0 0 32 5.75L32 1.25A0.25 0.25 0 0 0 31.75 1L27.25 1A0.25 0.25 0 0 0 27 1.25ZM28 2.25L28 4.75A0.25 0.25 0 0 0 28.25 5L30.75 5A0.25 0.25 0 0 0 31 4.75L31 2.25A0.25 0.25 0 0 0 30.75 2L28.25 2A0.25 0.25 0 0 0 28 2.25ZM0 26.25L0 32.75A0.25 0.25 0 0 0 0.25 33L6.75 33A0.25 0.25 0 0 0 7 32.75L7 26.25A0.25 0.25 0 0 0 6.75 26L0.25 26A0.25 0.25 0 0 0 0 26.25ZM1 27.25L1 31.75A0.25 0.25 0 0 0 1.25 32L5.75 32A0.25 0.25 0 0 0 6 31.75L6 27.25A0.25 0.25 0 0 0 5.75 27L1.25 27A0.25 0.25 0 0 0 1 27.25ZM2 28.25L2 30.75A0.25 0.25 0 0 0 2.25 31L4.75 31A0.25 0.25 0 0 0 5 30.75L5 28.25A0.25 0.25 0 0 0 4.75 28L2.25 28A0.25 0.25 0 0 0 2 28.25Z" fill="#000000"/></g></g></svg>
