<?xml version="1.0" encoding="UTF-8"?>
<svg xmlns="http://www.w3.org/2000/svg" version="1.1" width="500" height="500" viewBox="0 0 500 500"><rect x="0" y="0" width="500" height="500" fill="#8a2be2"/><g transform="scale(15.152)"><g transform="translate(0,0)"><path fill-rule="evenodd" d="M9 0.25L9 0.75A0.25 0.25 0 0 0 9.25 1L10.75 1A0.25 0.25 0 0 0 11 0.75L11 0.25A0.25 0.25 0 0 0 10.75 0L9.25 0A0.25 0.25 0 0 0 9 0.25ZM13 0.25L13 0.75A0.25 0.25 0 0 0 13.25 1L13.75 1A0.25 0.25 0 0 0 14 0.75L14 0.25A0.25 0.25 0 0 0 13.75 0L13.25 0A0.25 0.25 0 0 0 13 0.25ZM15 0.25L15 2.75A0.25 0.25 0 0 1 14.75 3L14.25 3A0.25 0.25 0 0 1 14 2.75L14 2.25A0.25 0.25 0 0 0 13.75 2L13.25 2A0.25 0.25 0 0 0 13 2.25L13 2.75A0.25 0.25 0 0 0 13.25 3L13.75 3A0.25 0.25 0 0 1 14 3.25L14 3.75A0.25 0.25 0 0 1 13.75 4L12.25 4A0.25 0.25 0 0 0 12 4.25L12 4.75A0.25 0.25 0 0 1 11.75 5L11.25 5A0.25 0.25 0 0 1 11 4.75L11 3.25A0.25 0.25 0 0 0 10.75 3L10.25 3A0.25 0.25 0 0 1 10 2.75L10 2.25A0.25 0.25 0 0 0 9.75 2L8.25 2A0.25 0.25 0 0 0 8 2.25L8 3.75A0.25 0.25 0 0 0 8.25 4L8.75 4A0.25 0.25 0 0 0 9 3.75L9 3.25A0.25 0.25 0 0 1 9.25 3L9.75 3A0.25 0.25 0 0 1 10 3.25L10 4.75A0.25 0.25 0 0 1 9.75 5L9.25 5A0.25 0.25 0 0 0 9 5.25L9 5.75A0.25 0.25 0 0 1 8.75 6L8.25 6A0.25 0.25 0 0 0 8 6.25L8 6.75A0.25 0.25 0 0 0 8.25 7L8.75 7A0.25 0.25 0 0 0 9 6.75L9 6.25A0.25 0.25 0 0 1 9.25 6L9.75 6A0.25 0.25 0 0 1 10 6.25L10 6.75A0.25 0.25 0 0 0 10.25 7L10.75 7A0.25 0.25 0 0 1 11 7.25L11 7.75A0.25 0.25 0 0 0 11.25 8L11.75 8A0.25 0.25 0 0 0 12 7.75L12 7.25A0.25 0.25 0 0 1 12.25 7L12.75 7A0.25 0.25 0 0 1 13 7.25L13 7.75A0.25 0.25 0 0 0 13.25 8L13.75 8A0.25 0.25 0 0 0 14 7.75L14 7.25A0.25 0.25 0 0 1 14.25 7L14.75 7A0.25 0.25 0 0 0 15 6.75L15 6.25A0.25 0.25 0 0 1 15.25 6L15.75 6A0.25 0.25 0 0 1 16 6.25L16 6.75A0.25 0.25 0 0 0 16.25 7L16.75 7A0.25 0.25 0 0 0 17 6.75L17 6.25A0.25 0.25 0 0 1 17.25 6L17.75 6A0.25 0.25 0 0 1 18 6.25L18 7.75A0.25 0.25 0 0 1 17.75 8L17.25 8A0.25 0.25 0 0 0 17 8.25L17 8.75A0.25 0.25 0 0 0 17.25 9L17.75 9A0.25 0.25 0 0 1 18 9.25L18 10.75A0.25 0.25 0 0 0 18.25 11L18.75 11A0.25 0.25 0 0 1 19 11.25L19 11.75A0.25 0.25 0 0 1 18.75 12L17.25 12A0.25 0.25 0 0 1 17 11.75L17 10.25A0.25 0.25 0 0 0 16.75 10L16.25 10A0.25 0.25 0 0 1 16 9.75L16 9.25A0.25 0.25 0 0 0 15.75 9L15.25 9A0.25 0.25 0 0 0 15 9.25L15 10.75A0.25 0.25 0 0 0 15.25 11L15.75 11A0.25 0.25 0 0 1 16 11.25L16 12.75A0.25 0.25 0 0 1 15.75 13L15.25 13A0.25 0.25 0 0 0 15 13.25L15 14.75A0.25 0.25 0 0 1 14.75 15L14.25 15A0.25 0.25 0 0 1 14 14.75L14 14.25A0.25 0.25 0 0 0 13.75 14L13.25 14A0.25 0.25 0 0 1 13 13.75L13 12.25A0.25 0.25 0 0 1 13.25 12L13.75 12A0.25 0.25 0 0 0 14 11.75L14 11.25A0.25 0.25 0 0 0 13.75 11L13.25 11A0.25 0.25 0 0 0 13 11.25L13 11.75A0.25 0.25 0 0 1 12.75 12L11.25 12A0.25 0.25 0 0 1 11 11.75L11 11.25A0.25 0.25 0 0 1 11.25 11L11.75 11A0.25 0.25 0 0 0 12 10.75L12 10.25A0.25 0.25 0 0 1 12.25 10L13.75 10A0.25 0.25 0 0 0 14 9.75L14 9.25A0.25 0.25 0 0 0 13.75 9L10.25 9A0.25 0.25 0 0 1 10 8.75L10 8.25A0.25 0.25 0 0 0 9.75 8L9.25 8A0.25 0.25 0 0 0 9 8.25L9 8.75A0.25 0.25 0 0 1 8.75 9L8.25 9A0.25 0.25 0 0 1 8 8.75L8 8.25A0.25 0.25 0 0 0 7.75 8L6.25 8A0.25 0.25 0 0 0 6 8.25L6 8.75A0.25 0.25 0 0 1 5.75 9L5.25 9A0.25 0.25 0 0 1 5 8.75L5 8.25A0.25 0.25 0 0 0 4.75 8L3.25 8A0.25 0.25 0 0 0 3 8.25L3 8.75A0.25 0.25 0 0 1 2.75 9L2.25 9A0.25 0.25 0 0 0 2 9.25L2 9.75A0.25 0.25 0 0 1 1.75 10L1.25 10A0.25 0.25 0 0 1 1 9.75L1 9.25A0.25 0.25 0 0 0 0.75 9L0.25 9A0.25 0.25 0 0 0 0 9.25L0 9.75A0.25 0.25 0 0 0 0.25 10L0.75 10A0.25 0.25 0 0 1 1 10.25L1 10.75A0.25 0.25 0 0 1 0.75 11L0.25 11A0.25 0.25 0 0 0 0 11.25L0 12.75A0.25 0.25 0 0 0 0.25 13L2.75 13A0.25 0.25 0 0 1 3 13.25L3 13.75A0.25 0.25 0 0 1 2.75 14L0.25 14A0.25 0.25 0 0 0 0 14.25L0 15.75A0.25 0.25 0 0 0 0.25 16L0.75 16A0.25 0.25 0 0 1 1 16.25L1 16.75A0.25 0.25 0 0 1 0.75 17L0.25 17A0.25 0.25 0 0 0 0 17.25L0 24.75A0.25 0.25 0 0 0 0.25 25L1.75 25A0.25 0.25 0 0 0 2 24.75L2 24.25A0.25 0.25 0 0 1 2.25 24L2.75 24A0.25 0.25 0 0 1 3 24.25L3 24.75A0.25 0.25 0 0 0 3.25 25L6.75 25A0.25 0.25 0 0 0 7 24.75L7 24.25A0.25 0.25 0 0 1 7.25 24L7.75 24A0.25 0.25 0 0 1 8 24.25L8 26.75A0.25 0.25 0 0 0 8.25 27L10.75 27A0.25 0.25 0 0 1 11 27.25L11 27.75A0.25 0.25 0 0 0 11.25 28L11.75 28A0.25 0.25 0 0 0 12 27.75L12 27.25A0.25 0.25 0 0 0 11.75 27L11.25 27A0.25 0.25 0 0 1 11 26.75L11 26.25A0.25 0.25 0 0 1 11.25 26L11.75 26A0.25 0.25 0 0 0 12 25.75L12 24.25A0.25 0.25 0 0 1 12.25 24L12.75 24A0.25 0.25 0 0 0 13 23.75L13 23.25A0.25 0.25 0 0 1 13.25 23L13.75 23A0.25 0.25 0 0 1 14 23.25L14 26.75A0.25 0.25 0 0 1 13.75 27L13.25 27A0.25 0.25 0 0 0 13 27.25L13 28.75A0.25 0.25 0 0 1 12.75 29L12.25 29A0.25 0.25 0 0 0 12 29.25L12 29.75A0.25 0.25 0 0 1 11.75 30L11.25 30A0.25 0.25 0 0 0 11 30.25L11 30.75A0.25 0.25 0 0 1 10.75 31L10.25 31A0.25 0.25 0 0 0 10 31.25L10 31.75A0.25 0.25 0 0 0 10.25 32L10.75 32A0.25 0.25 0 0 1 11 32.25L11 32.75A0.25 0.25 0 0 0 11.25 33L11.75 33A0.25 0.25 0 0 0 12 32.75L12 32.25A0.25 0.25 0 0 1 12.25 32L12.75 32A0.25 0.25 0 0 1 13 32.25L13 32.75A0.25 0.25 0 0 0 13.25 33L13.75 33A0.25 0.25 0 0 0 14 32.75L14 32.25A0.25 0.25 0 0 1 14.25 32L14.75 32A0.25 0.25 0 0 0 15 31.75L15 26.25A0.25 0.25 0 0 1 15.25 26L15.75 26A0.25 0.25 0 0 1 16 26.25L16 29.75A0.25 0.25 0 0 0 16.25 30L16.75 30A0.25 0.25 0 0 1 17 30.25L17 30.75A0.25 0.25 0 0 0 17.25 31L18.75 31A0.25 0.25 0 0 1 19 31.25L19 31.75A0.25 0.25 0 0 0 19.25 32L20.75 32A0.25 0.25 0 0 0 21 31.75L21 31.25A0.25 0.25 0 0 1 21.25 31L21.75 31A0.25 0.25 0 0 1 22 31.25L22 32.75A0.25 0.25 0 0 0 22.25 33L22.75 33A0.25 0.25 0 0 0 23 32.75L23 32.25A0.25 0.25 0 0 1 23.25 32L23.75 32A0.25 0.25 0 0 1 24 32.25L24 32.75A0.25 0.25 0 0 0 24.25 33L25.75 33A0.25 0.25 0 0 0 26 32.75L26 30.25A0.25 0.25 0 0 0 25.75 30L24.25 30A0.25 0.25 0 0 1 24 29.75L24 29.25A0.25 0.25 0 0 1 24.25 29L28.75 29A0.25 0.25 0 0 1 29 29.25L29 29.75A0.25 0.25 0 0 1 28.75 30L28.25 30A0.25 0.25 0 0 0 28 30.25L28 30.75A0.25 0.25 0 0 1 27.75 31L27.25 31A0.25 0.25 0 0 0 27 31.25L27 31.75A0.25 0.25 0 0 0 27.25 32L28.75 32A0.25 0.25 0 0 1 29 32.25L29 32.75A0.25 0.25 0 0 0 29.25 33L30.75 33A0.25 0.25 0 0 0 31 32.75L31 32.25A0.25 0.25 0 0 1 31.25 32L32.75 32A0.25 0.25 0 0 0 33 31.75L33 30.25A0.25 0.25 0 0 0 32.75 30L32.25 30A0.25 0.25 0 0 1 32 29.75L32 29.25A0.25 0.25 0 0 1 32.25 29L32.75 29A0.25 0.25 0 0 0 33 28.75L33 27.25A0.25 0.25 0 0 0 32.75 27L31.25 27A0.25 0.25 0 0 1 31 26.75L31 25.25A0.25 0.25 0 0 1 31.25 25L32.75 25A0.25 0.25 0 0 0 33 24.75L33 21.25A0.25 0.25 0 0 0 32.75 21L32.25 21A0.25 0.25 0 0 0 32 21.25L32 21.75A0.25 0.25 0 0 1 31.75 22L31.25 22A0.25 0.25 0 0 1 31 21.75L31 21.25A0.25 0.25 0 0 0 30.75 21L30.25 21A0.25 0.25 0 0 0 30 21.25L30 23.75A0.25 0.25 0 0 1 29.75 24L29.25 24A0.25 0.25 0 0 1 29 23.75L29 23.25A0.25 0.25 0 0 0 28.75 23L26.25 23A0.25 0.25 0 0 1 26 22.75L26 22.25A0.25 0.25 0 0 1 26.25 22L28.75 22A0.25 0.25 0 0 0 29 21.75L29 20.25A0.25 0.25 0 0 1 29.25 20L31.75 20A0.25 0.25 0 0 0 32 19.75L32 19.25A0.25 0.25 0 0 1 32.25 19L32.75 19A0.25 0.25 0 0 0 33 18.75L33 18.25A0.25 0.25 0 0 0 32.75 18L31.25 18A0.25 0.25 0 0 0 31 18.25L31 18.75A0.25 0.25 0 0 1 30.75 19L30.25 19A0.25 0.25 0 0 1 30 18.75L30 17.25A0.25 0.25 0 0 1 30.25 17L30.75 17A0.25 0.25 0 0 0 31 16.75L31 16.25A0.25 0.25 0 0 0 30.75 16L30.25 16A0.25 0.25 0 0 1 30 15.75L30 15.25A0.25 0.25 0 0 0 29.75 15L29.25 15A0.25 0.25 0 0 0 29 15.25L29 15.75A0.25 0.25 0 0 1 28.75 16L28.25 16A0.25 0.25 0 0 1 28 15.75L28 14.25A0.25 0.25 0 0 1 28.25 14L29.75 14A0.25 0.25 0 0 0 30 13.75L30 13.25A0.25 0.25 0 0 0 29.75 13L29.25 13A0.25 0.25 0 0 1 29 12.75L29 12.25A0.25 0.25 0 0 1 29.25 12L30.75 12A0.25 0.25 0 0 0 31 11.75L31 11.25A0.25 0.25 0 0 0 30.75 11L30.25 11A0.25 0.25 0 0 1 30 10.75L30 10.25A0.25 0.25 0 0 0 29.75 10L29.25 10A0.25 0.25 0 0 1 29 9.75L29 9.25A0.25 0.25 0 0 1 29.25 9L30.75 9A0.25 0.25 0 0 1 31 9.25L31 9.75A0.25 0.25 0 0 0 31.25 10L31.75 10A0.25 0.25 0 0 1 32 10.25L32 10.75A0.25 0.25 0 0 0 32.25 11L32.75 11A0.25 0.25 0 0 0 33 10.75L33 10.25A0.25 0.25 0 0 0 32.75 10L32.25 10A0.25 0.25 0 0 1 32 9.75L32 9.25A0.25 0.25 0 0 0 31.75 9L31.25 9A0.25 0.25 0 0 1 31 8.75L31 8.25A0.25 0.25 0 0 0 30.75 8L29.25 8A0.25 0.25 0 0 0 29 8.25L29 8.75A0.25 0.25 0 0 1 28.75 9L27.25 9A0.25 0.25 0 0 0 27 9.25L27 10.75A0.25 0.25 0 0 0 27.25 11L27.75 11A0.25 0.25 0 0 0 28 10.75L28 10.25A0.25 0.25 0 0 1 28.25 10L28.75 10A0.25 0.25 0 0 1 29 10.25L29 11.75A0.25 0.25 0 0 1 28.75 12L26.25 12A0.25 0.25 0 0 1 26 11.75L26 11.25A0.25 0.25 0 0 0 25.75 11L25.25 11A0.25 0.25 0 0 0 25 11.25L25 12.75A0.25 0.25 0 0 1 24.75 13L24.25 13A0.25 0.25 0 0 1 24 12.75L24 12.25A0.25 0.25 0 0 0 23.75 12L23.25 12A0.25 0.25 0 0 1 23 11.75L23 11.25A0.25 0.25 0 0 1 23.25 11L23.75 11A0.25 0.25 0 0 0 24 10.75L24 10.25A0.25 0.25 0 0 1 24.25 10L24.75 10A0.25 0.25 0 0 0 25 9.75L25 9.25A0.25 0.25 0 0 0 24.75 9L23.25 9A0.25 0.25 0 0 1 23 8.75L23 8.25A0.25 0.25 0 0 0 22.75 8L22.25 8A0.25 0.25 0 0 0 22 8.25L22 8.75A0.25 0.25 0 0 1 21.75 9L21.25 9A0.25 0.25 0 0 0 21 9.25L21 9.75A0.25 0.25 0 0 1 20.75 10L20.25 10A0.25 0.25 0 0 1 20 9.75L20 7.25A0.25 0.25 0 0 1 20.25 7L20.75 7A0.25 0.25 0 0 0 21 6.75L21 6.25A0.25 0.25 0 0 1 21.25 6L21.75 6A0.25 0.25 0 0 1 22 6.25L22 6.75A0.25 0.25 0 0 0 22.25 7L22.75 7A0.25 0.25 0 0 0 23 6.75L23 6.25A0.25 0.25 0 0 1 23.25 6L23.75 6A0.25 0.25 0 0 1 24 6.25L24 7.75A0.25 0.25 0 0 0 24.25 8L24.75 8A0.25 0.25 0 0 0 25 7.75L25 6.25A0.25 0.25 0 0 0 24.75 6L24.25 6A0.25 0.25 0 0 1 24 5.75L24 5.25A0.25 0.25 0 0 1 24.25 5L24.75 5A0.25 0.25 0 0 0 25 4.75L25 4.25A0.25 0.25 0 0 0 24.75 4L23.25 4A0.25 0.25 0 0 1 23 3.75L23 3.25A0.25 0.25 0 0 0 22.75 3L22.25 3A0.25 0.25 0 0 1 22 2.75L22 2.25A0.25 0.25 0 0 0 21.75 2L21.25 2A0.25 0.25 0 0 1 21 1.75L21 0.25A0.25 0.25 0 0 0 20.75 0L18.25 0A0.25 0.25 0 0 0 18 0.25L18 1.75A0.25 0.25 0 0 1 17.75 2L17.25 2A0.25 0.25 0 0 1 17 1.75L17 0.25A0.25 0.25 0 0 0 16.75 0L15.25 0A0.25 0.25 0 0 0 15 0.25ZM22 0.25L22 0.75A0.25 0.25 0 0 0 22.25 1L22.75 1A0.25 0.25 0 0 0 23 0.75L23 0.25A0.25 0.25 0 0 0 22.75 0L22.25 0A0.25 0.25 0 0 0 22 0.25ZM24 1.25L24 1.75A0.25 0.25 0 0 0 24.25 2L24.75 2A0.25 0.25 0 0 0 25 1.75L25 1.25A0.25 0.25 0 0 0 24.75 1L24.25 1A0.25 0.25 0 0 0 24 1.25ZM16 2.25L16 2.75A0.25 0.25 0 0 1 15.75 3L15.25 3A0.25 0.25 0 0 0 15 3.25L15 3.75A0.25 0.25 0 0 1 14.75 4L14.25 4A0.25 0.25 0 0 0 14 4.25L14 5.75A0.25 0.25 0 0 1 13.75 6L13.25 6A0.25 0.25 0 0 1 13 5.75L13 5.25A0.25 0.25 0 0 0 12.75 5L12.25 5A0.25 0.25 0 0 0 12 5.25L12 5.75A0.25 0.25 0 0 1 11.75 6L11.25 6A0.25 0.25 0 0 0 11 6.25L11 6.75A0.25 0.25 0 0 0 11.25 7L11.75 7A0.25 0.25 0 0 0 12 6.75L12 6.25A0.25 0.25 0 0 1 12.25 6L12.75 6A0.25 0.25 0 0 1 13 6.25L13 6.75A0.25 0.25 0 0 0 13.25 7L13.75 7A0.25 0.25 0 0 0 14 6.75L14 6.25A0.25 0.25 0 0 1 14.25 6L14.75 6A0.25 0.25 0 0 0 15 5.75L15 4.25A0.25 0.25 0 0 1 15.25 4L15.75 4A0.25 0.25 0 0 0 16 3.75L16 3.25A0.25 0.25 0 0 1 16.25 3L16.75 3A0.25 0.25 0 0 0 17 2.75L17 2.25A0.25 0.25 0 0 0 16.75 2L16.25 2A0.25 0.25 0 0 0 16 2.25ZM18 2.25L18 3.75A0.25 0.25 0 0 1 17.75 4L17.25 4A0.25 0.25 0 0 0 17 4.25L17 4.75A0.25 0.25 0 0 1 16.75 5L16.25 5A0.25 0.25 0 0 0 16 5.25L16 5.75A0.25 0.25 0 0 0 16.25 6L16.75 6A0.25 0.25 0 0 0 17 5.75L17 5.25A0.25 0.25 0 0 1 17.25 5L17.75 5A0.25 0.25 0 0 1 18 5.25L18 5.75A0.25 0.25 0 0 0 18.25 6L18.75 6A0.25 0.25 0 0 1 19 6.25L19 6.75A0.25 0.25 0 0 0 19.25 7L19.75 7A0.25 0.25 0 0 0 20 6.75L20 6.25A0.25 0.25 0 0 1 20.25 6L20.75 6A0.25 0.25 0 0 0 21 5.75L21 5.25A0.25 0.25 0 0 0 20.75 5L20.25 5A0.25 0.25 0 0 0 20 5.25L20 5.75A0.25 0.25 0 0 1 19.75 6L19.25 6A0.25 0.25 0 0 1 19 5.75L19 4.25A0.25 0.25 0 0 1 19.25 4L19.75 4A0.25 0.25 0 0 0 20 3.75L20 2.25A0.25 0.25 0 0 0 19.75 2L18.25 2A0.25 0.25 0 0 0 18 2.25ZM22 5.25L22 5.75A0.25 0.25 0 0 0 22.25 6L22.75 6A0.25 0.25 0 0 0 23 5.75L23 5.25A0.25 0.25 0 0 0 22.75 5L22.25 5A0.25 0.25 0 0 0 22 5.25ZM6 9.25L6 9.75A0.25 0.25 0 0 0 6.25 10L6.75 10A0.25 0.25 0 0 1 7 10.25L7 10.75A0.25 0.25 0 0 1 6.75 11L5.25 11A0.25 0.25 0 0 0 5 11.25L5 11.75A0.25 0.25 0 0 0 5.25 12L7.75 12A0.25 0.25 0 0 1 8 12.25L8 12.75A0.25 0.25 0 0 1 7.75 13L6.25 13A0.25 0.25 0 0 0 6 13.25L6 13.75A0.25 0.25 0 0 0 6.25 14L6.75 14A0.25 0.25 0 0 1 7 14.25L7 14.75A0.25 0.25 0 0 1 6.75 15L6.25 15A0.25 0.25 0 0 0 6 15.25L6 15.75A0.25 0.25 0 0 1 5.75 16L5.25 16A0.25 0.25 0 0 1 5 15.75L5 14.25A0.25 0.25 0 0 0 4.75 14L3.25 14A0.25 0.25 0 0 0 3 14.25L3 14.75A0.25 0.25 0 0 0 3.25 15L3.75 15A0.25 0.25 0 0 1 4 15.25L4 15.75A0.25 0.25 0 0 1 3.75 16L3.25 16A0.25 0.25 0 0 0 3 16.25L3 17.75A0.25 0.25 0 0 0 3.25 18L6.75 18A0.25 0.25 0 0 0 7 17.75L7 17.25A0.25 0.25 0 0 1 7.25 17L7.75 17A0.25 0.25 0 0 0 8 16.75L8 16.25A0.25 0.25 0 0 1 8.25 16L9.75 16A0.25 0.25 0 0 0 10 15.75L10 15.25A0.25 0.25 0 0 0 9.75 15L8.25 15A0.25 0.25 0 0 1 8 14.75L8 14.25A0.25 0.25 0 0 1 8.25 14L9.75 14A0.25 0.25 0 0 0 10 13.75L10 13.25A0.25 0.25 0 0 0 9.75 13L9.25 13A0.25 0.25 0 0 1 9 12.75L9 12.25A0.25 0.25 0 0 1 9.25 12L9.75 12A0.25 0.25 0 0 0 10 11.75L10 11.25A0.25 0.25 0 0 1 10.25 11L10.75 11A0.25 0.25 0 0 0 11 10.75L11 10.25A0.25 0.25 0 0 0 10.75 10L10.25 10A0.25 0.25 0 0 1 10 9.75L10 9.25A0.25 0.25 0 0 0 9.75 9L9.25 9A0.25 0.25 0 0 0 9 9.25L9 9.75A0.25 0.25 0 0 1 8.75 10L8.25 10A0.25 0.25 0 0 1 8 9.75L8 9.25A0.25 0.25 0 0 0 7.75 9L6.25 9A0.25 0.25 0 0 0 6 9.25ZM22 9.25L22 9.75A0.25 0.25 0 0 1 21.75 10L21.25 10A0.25 0.25 0 0 0 21 10.25L21 10.75A0.25 0.25 0 0 1 20.75 11L20.25 11A0.25 0.25 0 0 0 20 11.25L20 11.75A0.25 0.25 0 0 0 20.25 12L20.75 12A0.25 0.25 0 0 0 21 11.75L21 11.25A0.25 0.25 0 0 1 21.25 11L21.75 11A0.25 0.25 0 0 0 22 10.75L22 10.25A0.25 0.25 0 0 1 22.25 10L22.75 10A0.25 0.25 0 0 0 23 9.75L23 9.25A0.25 0.25 0 0 0 22.75 9L22.25 9A0.25 0.25 0 0 0 22 9.25ZM2 10.25L2 11.75A0.25 0.25 0 0 0 2.25 12L2.75 12A0.25 0.25 0 0 1 3 12.25L3 12.75A0.25 0.25 0 0 0 3.25 13L3.75 13A0.25 0.25 0 0 0 4 12.75L4 11.25A0.25 0.25 0 0 0 3.75 11L3.25 11A0.25 0.25 0 0 1 3 10.75L3 10.25A0.25 0.25 0 0 0 2.75 10L2.25 10A0.25 0.25 0 0 0 2 10.25ZM8 11.25L8 11.75A0.25 0.25 0 0 0 8.25 12L8.75 12A0.25 0.25 0 0 0 9 11.75L9 11.25A0.25 0.25 0 0 0 8.75 11L8.25 11A0.25 0.25 0 0 0 8 11.25ZM22 12.25L22 13.75A0.25 0.25 0 0 1 21.75 14L21.25 14A0.25 0.25 0 0 1 21 13.75L21 13.25A0.25 0.25 0 0 0 20.75 13L20.25 13A0.25 0.25 0 0 0 20 13.25L20 13.75A0.25 0.25 0 0 1 19.75 14L19.25 14A0.25 0.25 0 0 0 19 14.25L19 14.75A0.25 0.25 0 0 1 18.75 15L18.25 15A0.25 0.25 0 0 1 18 14.75L18 13.25A0.25 0.25 0 0 0 17.75 13L17.25 13A0.25 0.25 0 0 0 17 13.25L17 13.75A0.25 0.25 0 0 1 16.75 14L16.25 14A0.25 0.25 0 0 0 16 14.25L16 14.75A0.25 0.25 0 0 0 16.25 15L17.75 15A0.25 0.25 0 0 1 18 15.25L18 15.75A0.25 0.25 0 0 1 17.75 16L17.25 16A0.25 0.25 0 0 0 17 16.25L17 16.75A0.25 0.25 0 0 0 17.25 17L17.75 17A0.25 0.25 0 0 1 18 17.25L18 18.75A0.25 0.25 0 0 1 17.75 19L17.25 19A0.25 0.25 0 0 1 17 18.75L17 18.25A0.25 0.25 0 0 0 16.75 18L16.25 18A0.25 0.25 0 0 1 16 17.75L16 17.25A0.25 0.25 0 0 0 15.75 17L15.25 17A0.25 0.25 0 0 0 15 17.25L15 17.75A0.25 0.25 0 0 1 14.75 18L14.25 18A0.25 0.25 0 0 1 14 17.75L14 15.25A0.25 0.25 0 0 0 13.75 15L13.25 15A0.25 0.25 0 0 1 13 14.75L13 14.25A0.25 0.25 0 0 0 12.75 14L12.25 14A0.25 0.25 0 0 0 12 14.25L12 14.75A0.25 0.25 0 0 1 11.75 15L11.25 15A0.25 0.25 0 0 0 11 15.25L11 16.75A0.25 0.25 0 0 0 11.25 17L12.75 17A0.25 0.25 0 0 1 13 17.25L13 17.75A0.25 0.25 0 0 1 12.75 18L10.25 18A0.25 0.25 0 0 1 10 17.75L10 17.25A0.25 0.25 0 0 0 9.75 17L9.25 17A0.25 0.25 0 0 0 9 17.25L9 17.75A0.25 0.25 0 0 1 8.75 18L8.25 18A0.25 0.25 0 0 0 8 18.25L8 18.75A0.25 0.25 0 0 1 7.75 19L6.25 19A0.25 0.25 0 0 0 6 19.25L6 19.75A0.25 0.25 0 0 0 6.25 20L7.75 20A0.25 0.25 0 0 1 8 20.25L8 20.75A0.25 0.25 0 0 1 7.75 21L6.25 21A0.25 0.25 0 0 0 6 21.25L6 21.75A0.25 0.25 0 0 0 6.25 22L6.75 22A0.25 0.25 0 0 1 7 22.25L7 22.75A0.25 0.25 0 0 1 6.75 23L5.25 23A0.25 0.25 0 0 1 5 22.75L5 22.25A0.25 0.25 0 0 0 4.75 22L1.25 22A0.25 0.25 0 0 0 1 22.25L1 23.75A0.25 0.25 0 0 0 1.25 24L1.75 24A0.25 0.25 0 0 0 2 23.75L2 23.25A0.25 0.25 0 0 1 2.25 23L3.75 23A0.25 0.25 0 0 1 4 23.25L4 23.75A0.25 0.25 0 0 0 4.25 24L6.75 24A0.25 0.25 0 0 0 7 23.75L7 23.25A0.25 0.25 0 0 1 7.25 23L7.75 23A0.25 0.25 0 0 0 8 22.75L8 22.25A0.25 0.25 0 0 1 8.25 22L8.75 22A0.25 0.25 0 0 1 9 22.25L9 25.75A0.25 0.25 0 0 0 9.25 26L9.75 26A0.25 0.25 0 0 0 10 25.75L10 25.25A0.25 0.25 0 0 1 10.25 25L10.75 25A0.25 0.25 0 0 0 11 24.75L11 24.25A0.25 0.25 0 0 1 11.25 24L11.75 24A0.25 0.25 0 0 0 12 23.75L12 23.25A0.25 0.25 0 0 0 11.75 23L11.25 23A0.25 0.25 0 0 1 11 22.75L11 21.25A0.25 0.25 0 0 1 11.25 21L11.75 21A0.25 0.25 0 0 1 12 21.25L12 21.75A0.25 0.25 0 0 0 12.25 22L12.75 22A0.25 0.25 0 0 0 13 21.75L13 21.25A0.25 0.25 0 0 1 13.25 21L13.75 21A0.25 0.25 0 0 0 14 20.75L14 20.25A0.25 0.25 0 0 1 14.25 20L15.75 20A0.25 0.25 0 0 0 16 19.75L16 19.25A0.25 0.25 0 0 1 16.25 19L16.75 19A0.25 0.25 0 0 1 17 19.25L17 20.75A0.25 0.25 0 0 0 17.25 21L17.75 21A0.25 0.25 0 0 1 18 21.25L18 22.75A0.25 0.25 0 0 0 18.25 23L18.75 23A0.25 0.25 0 0 1 19 23.25L19 23.75A0.25 0.25 0 0 1 18.75 24L17.25 24A0.25 0.25 0 0 1 17 23.75L17 22.25A0.25 0.25 0 0 0 16.75 22L16.25 22A0.25 0.25 0 0 0 16 22.25L16 23.75A0.25 0.25 0 0 1 15.75 24L15.25 24A0.25 0.25 0 0 0 15 24.25L15 24.75A0.25 0.25 0 0 0 15.25 25L15.75 25A0.25 0.25 0 0 1 16 25.25L16 25.75A0.25 0.25 0 0 0 16.25 26L16.75 26A0.25 0.25 0 0 0 17 25.75L17 25.25A0.25 0.25 0 0 1 17.25 25L17.75 25A0.25 0.25 0 0 1 18 25.25L18 26.75A0.25 0.25 0 0 1 17.75 27L17.25 27A0.25 0.25 0 0 0 17 27.25L17 28.75A0.25 0.25 0 0 0 17.25 29L17.75 29A0.25 0.25 0 0 1 18 29.25L18 29.75A0.25 0.25 0 0 0 18.25 30L18.75 30A0.25 0.25 0 0 1 19 30.25L19 30.75A0.25 0.25 0 0 0 19.25 31L19.75 31A0.25 0.25 0 0 0 20 30.75L20 30.25A0.25 0.25 0 0 1 20.25 30L21.75 30A0.25 0.25 0 0 1 22 30.25L22 30.75A0.25 0.25 0 0 0 22.25 31L22.75 31A0.25 0.25 0 0 0 23 30.75L23 28.25A0.25 0.25 0 0 1 23.25 28L23.75 28A0.25 0.25 0 0 0 24 27.75L24 27.25A0.25 0.25 0 0 0 23.75 27L21.25 27A0.25 0.25 0 0 1 21 26.75L21 26.25A0.25 0.25 0 0 1 21.25 26L21.75 26A0.25 0.25 0 0 0 22 25.75L22 25.25A0.25 0.25 0 0 1 22.25 25L23.75 25A0.25 0.25 0 0 0 24 24.75L24 24.25A0.25 0.25 0 0 1 24.25 24L25.75 24A0.25 0.25 0 0 0 26 23.75L26 23.25A0.25 0.25 0 0 0 25.75 23L24.25 23A0.25 0.25 0 0 1 24 22.75L24 22.25A0.25 0.25 0 0 1 24.25 22L24.75 22A0.25 0.25 0 0 0 25 21.75L25 21.25A0.25 0.25 0 0 0 24.75 21L24.25 21A0.25 0.25 0 0 1 24 20.75L24 19.25A0.25 0.25 0 0 0 23.75 19L23.25 19A0.25 0.25 0 0 1 23 18.75L23 18.25A0.25 0.25 0 0 0 22.75 18L22.25 18A0.25 0.25 0 0 1 22 17.75L22 16.25A0.25 0.25 0 0 1 22.25 16L22.75 16A0.25 0.25 0 0 1 23 16.25L23 16.75A0.25 0.25 0 0 0 23.25 17L23.75 17A0.25 0.25 0 0 1 24 17.25L24 17.75A0.25 0.25 0 0 0 24.25 18L24.75 18A0.25 0.25 0 0 0 25 17.75L25 17.25A0.25 0.25 0 0 1 25.25 17L25.75 17A0.25 0.25 0 0 0 26 16.75L26 16.25A0.25 0.25 0 0 1 26.25 16L26.75 16A0.25 0.25 0 0 1 27 16.25L27 19.75A0.25 0.25 0 0 1 26.75 20L26.25 20A0.25 0.25 0 0 1 26 19.75L26 19.25A0.25 0.25 0 0 0 25.75 19L25.25 19A0.25 0.25 0 0 0 25 19.25L25 19.75A0.25 0.25 0 0 0 25.25 20L25.75 20A0.25 0.25 0 0 1 26 20.25L26 20.75A0.25 0.25 0 0 0 26.25 21L27.75 21A0.25 0.25 0 0 0 28 20.75L28 16.25A0.25 0.25 0 0 0 27.75 16L27.25 16A0.25 0.25 0 0 1 27 15.75L27 13.25A0.25 0.25 0 0 0 26.75 13L25.25 13A0.25 0.25 0 0 0 25 13.25L25 13.75A0.25 0.25 0 0 1 24.75 14L23.25 14A0.25 0.25 0 0 1 23 13.75L23 12.25A0.25 0.25 0 0 0 22.75 12L22.25 12A0.25 0.25 0 0 0 22 12.25ZM31 13.25L31 13.75A0.25 0.25 0 0 0 31.25 14L32.75 14A0.25 0.25 0 0 0 33 13.75L33 13.25A0.25 0.25 0 0 0 32.75 13L31.25 13A0.25 0.25 0 0 0 31 13.25ZM20 14.25L20 14.75A0.25 0.25 0 0 0 20.25 15L20.75 15A0.25 0.25 0 0 0 21 14.75L21 14.25A0.25 0.25 0 0 0 20.75 14L20.25 14A0.25 0.25 0 0 0 20 14.25ZM25 14.25L25 14.75A0.25 0.25 0 0 1 24.75 15L24.25 15A0.25 0.25 0 0 0 24 15.25L24 16.75A0.25 0.25 0 0 0 24.25 17L24.75 17A0.25 0.25 0 0 0 25 16.75L25 16.25A0.25 0.25 0 0 1 25.25 16L25.75 16A0.25 0.25 0 0 0 26 15.75L26 14.25A0.25 0.25 0 0 0 25.75 14L25.25 14A0.25 0.25 0 0 0 25 14.25ZM12 15.25L12 15.75A0.25 0.25 0 0 0 12.25 16L12.75 16A0.25 0.25 0 0 0 13 15.75L13 15.25A0.25 0.25 0 0 0 12.75 15L12.25 15A0.25 0.25 0 0 0 12 15.25ZM4 16.25L4 16.75A0.25 0.25 0 0 0 4.25 17L4.75 17A0.25 0.25 0 0 0 5 16.75L5 16.25A0.25 0.25 0 0 0 4.75 16L4.25 16A0.25 0.25 0 0 0 4 16.25ZM6 16.25L6 16.75A0.25 0.25 0 0 0 6.25 17L6.75 17A0.25 0.25 0 0 0 7 16.75L7 16.25A0.25 0.25 0 0 0 6.75 16L6.25 16A0.25 0.25 0 0 0 6 16.25ZM20 16.25L20 18.75A0.25 0.25 0 0 1 19.75 19L19.25 19A0.25 0.25 0 0 0 19 19.25L19 19.75A0.25 0.25 0 0 1 18.75 20L18.25 20A0.25 0.25 0 0 0 18 20.25L18 20.75A0.25 0.25 0 0 0 18.25 21L20.75 21A0.25 0.25 0 0 0 21 20.75L21 20.25A0.25 0.25 0 0 0 20.75 20L20.25 20A0.25 0.25 0 0 1 20 19.75L20 19.25A0.25 0.25 0 0 1 20.25 19L21.75 19A0.25 0.25 0 0 0 22 18.75L22 18.25A0.25 0.25 0 0 0 21.75 18L21.25 18A0.25 0.25 0 0 1 21 17.75L21 16.25A0.25 0.25 0 0 0 20.75 16L20.25 16A0.25 0.25 0 0 0 20 16.25ZM3 19.25L3 20.75A0.25 0.25 0 0 0 3.25 21L3.75 21A0.25 0.25 0 0 0 4 20.75L4 20.25A0.25 0.25 0 0 1 4.25 20L4.75 20A0.25 0.25 0 0 0 5 19.75L5 19.25A0.25 0.25 0 0 0 4.75 19L3.25 19A0.25 0.25 0 0 0 3 19.25ZM8 19.25L8 19.75A0.25 0.25 0 0 0 8.25 20L8.75 20A0.25 0.25 0 0 1 9 20.25L9 20.75A0.25 0.25 0 0 0 9.25 21L9.75 21A0.25 0.25 0 0 0 10 20.75L10 20.25A0.25 0.25 0 0 1 10.25 20L11.75 20A0.25 0.25 0 0 0 12 19.75L12 19.25A0.25 0.25 0 0 0 11.75 19L8.25 19A0.25 0.25 0 0 0 8 19.25ZM1 20.25L1 20.75A0.25 0.25 0 0 0 1.25 21L1.75 21A0.25 0.25 0 0 0 2 20.75L2 20.25A0.25 0.25 0 0 0 1.75 20L1.25 20A0.25 0.25 0 0 0 1 20.25ZM22 20.25L22 20.75A0.25 0.25 0 0 0 22.25 21L22.75 21A0.25 0.25 0 0 0 23 20.75L23 20.25A0.25 0.25 0 0 0 22.75 20L22.25 20A0.25 0.25 0 0 0 22 20.25ZM19 22.25L19 22.75A0.25 0.25 0 0 0 19.25 23L19.75 23A0.25 0.25 0 0 1 20 23.25L20 23.75A0.25 0.25 0 0 1 19.75 24L19.25 24A0.25 0.25 0 0 0 19 24.25L19 24.75A0.25 0.25 0 0 0 19.25 25L19.75 25A0.25 0.25 0 0 0 20 24.75L20 24.25A0.25 0.25 0 0 1 20.25 24L20.75 24A0.25 0.25 0 0 1 21 24.25L21 24.75A0.25 0.25 0 0 0 21.25 25L21.75 25A0.25 0.25 0 0 0 22 24.75L22 24.25A0.25 0.25 0 0 0 21.75 24L21.25 24A0.25 0.25 0 0 1 21 23.75L21 23.25A0.25 0.25 0 0 1 21.25 23L21.75 23A0.25 0.25 0 0 0 22 22.75L22 22.25A0.25 0.25 0 0 0 21.75 22L21.25 22A0.25 0.25 0 0 0 21 22.25L21 22.75A0.25 0.25 0 0 1 20.75 23L20.25 23A0.25 0.25 0 0 1 20 22.75L20 22.25A0.25 0.25 0 0 0 19.75 22L19.25 22A0.25 0.25 0 0 0 19 22.25ZM10 23.25L10 23.75A0.25 0.25 0 0 0 10.25 24L10.75 24A0.25 0.25 0 0 0 11 23.75L11 23.25A0.25 0.25 0 0 0 10.75 23L10.25 23A0.25 0.25 0 0 0 10 23.25ZM16 24.25L16 24.75A0.25 0.25 0 0 0 16.25 25L16.75 25A0.25 0.25 0 0 0 17 24.75L17 24.25A0.25 0.25 0 0 0 16.75 24L16.25 24A0.25 0.25 0 0 0 16 24.25ZM25 25.25L25 27.75A0.25 0.25 0 0 0 25.25 28L27.75 28A0.25 0.25 0 0 0 28 27.75L28 25.25A0.25 0.25 0 0 0 27.75 25L25.25 25A0.25 0.25 0 0 0 25 25.25ZM26 26.25L26 26.75A0.25 0.25 0 0 0 26.25 27L26.75 27A0.25 0.25 0 0 0 27 26.75L27 26.25A0.25 0.25 0 0 0 26.75 26L26.25 26A0.25 0.25 0 0 0 26 26.25ZM18 27.25L18 28.75A0.25 0.25 0 0 0 18.25 29L21.75 29A0.25 0.25 0 0 0 22 28.75L22 28.25A0.25 0.25 0 0 0 21.75 28L21.25 28A0.25 0.25 0 0 1 21 27.75L21 27.25A0.25 0.25 0 0 0 20.75 27L18.25 27A0.25 0.25 0 0 0 18 27.25ZM29 27.25L29 28.75A0.25 0.25 0 0 0 29.25 29L30.75 29A0.25 0.25 0 0 0 31 28.75L31 28.25A0.25 0.25 0 0 0 30.75 28L30.25 28A0.25 0.25 0 0 1 30 27.75L30 27.25A0.25 0.25 0 0 0 29.75 27L29.25 27A0.25 0.25 0 0 0 29 27.25ZM8 28.25L8 29.75A0.25 0.25 0 0 0 8.25 30L9.75 30A0.25 0.25 0 0 0 10 29.75L10 29.25A0.25 0.25 0 0 0 9.75 29L9.25 29A0.25 0.25 0 0 1 9 28.75L9 28.25A0.25 0.25 0 0 0 8.75 28L8.25 28A0.25 0.25 0 0 0 8 28.25ZM13 29.25L13 29.75A0.25 0.25 0 0 0 13.25 30L13.75 30A0.25 0.25 0 0 0 14 29.75L14 29.25A0.25 0.25 0 0 0 13.75 29L13.25 29A0.25 0.25 0 0 0 13 29.25ZM29 30.25L29 31.75A0.25 0.25 0 0 0 29.25 32L29.75 32A0.25 0.25 0 0 0 30 31.75L30 30.25A0.25 0.25 0 0 0 29.75 30L29.25 30A0.25 0.25 0 0 0 29 30.25ZM11 31.25L11 31.75A0.25 0.25 0 0 0 11.25 32L11.75 32A0.25 0.25 0 0 0 12 31.75L12 31.25A0.25 0.25 0 0 0 11.75 31L11.25 31A0.25 0.25 0 0 0 11 31.25ZM13 31.25L13 31.75A0.25 0.25 0 0 0 13.25 32L13.75 32A0.25 0.25 0 0 0 14 31.75L14 31.25A0.25 0.25 0 0 0 13.75 31L13.25 31A0.25 0.25 0 0 0 13 31.25ZM24 31.25L24 31.75A0.25 0.25 0 0 0 24.25 32L24.75 32A0.25 0.25 0 0 0 25 31.75L25 31.25A0.25 0.25 0 0 0 24.75 31L24.25 31A0.25 0.25 0 0 0 24 31.25ZM16 32.25L16 32.75A0.25 0.25 0 0 0 16.25 33L16.75 33A0.25 0.25 0 0 0 17 32.75L17 32.25A0.25 0.25 0 0 0 16.75 32L16.25 32A0.25 0.25 0 0 0 16 32.25ZM0 0.25L0 6.75A0.25 0.25 0 0 0 0.25 7L6.75 7A0.25 0.25 0 0 0 7 6.75L7 0.25A0.25 0.25 0 0 0 6.75 0L0.25 0A0.25 0.25 0 0 0 0 0.25ZM1 1.25L1 5.75A0.25 0.25 0 0 0 1.25 6L5.75 6A0.25 0.25 0 0 0 6 5.75L6 1.25A0.25 0.25 0 0 0 5.75 1L1.25 1A0.25 0.25 0 0 0 1 1.25ZM2 2.25L2 4.75A0.25 0.25 0 0 0 2.25 5L4.75 5A0.25 0.25 0 0 0 5 4.75L5 2.25A0.25 0.25 0 0 0 4.75 2L2.25 2A0.25 0.25 0 0 0 2 2.25ZM26 0.25L26 6.75A0.25 0.25 0 0 0 26.25 7L32.75 7A0.25 0.25 0 0 0 33 6.75L33 0.25A0.25 0.25 0 0 0 32.75 0L26.25 0A0.25 0.25 0 0 0 26 0.25ZM27 1.25L27 5.75A0.25 0.25 0 0 0 27.25 6L31.75 6A0.25 0.25 0 0 0 32 5.75L32 1.25A0.25 0.25 0 0 0 31.75 1L27.25 1A0.25 0.25 0 0 0 27 1.25ZM28 2.25L28 4.75A0.25 0.25 0 0 0 28.25 5L30.75 5A0.25 0.25 0 0 0 31 4.75L31 2.25A0.25 0.25 0 0 0 30.75 2L28.25 2A0.25 0.25 0 0 0 28 2.25ZM0 26.25L0 32.75A0.25 0.25 0 0 0 0.25 33L6.75 33A0.25 0.25 0 0 0 7 32.75L7 26.25A0.25 0.25 0 0 0 6.75 26L0.25 26A0.25 0.25 0 0 0 0 26.25ZM1 27.25L1 31.75A0.25 0.25 0 0 0 1.25 32L5.75 32A0.25 0.25 0 0 0 6 31.75L6 27.25A0.25 0.25 0 0 0 5.75 27L1.25 27A0.25 0.25 0 0 0 1 27.25ZM2 28.25L2 30.75A0.25 0.25 0 0 0 2.25 31L4.75 31A0.25 0.25 0 0 0 5 30.75L5 28.25A0.25 0.25 0 0 0 4.75 28L2.25 28A0.25 0.25 0 0 0 2 28.25Z" fill="#000000"/></g></g></svg>
