<?xml version="1.0" encoding="UTF-8"?>
<svg xmlns="http://www.w3.org/2000/svg" version="1.1" width="500" height="500" viewBox="0 0 500 500"><rect x="0" y="0" width="500" height="500" fill="#8a2be2"/><g transform="scale(15.152)"><g transform="translate(0,0)"><path fill-rule="evenodd" d="M8 0.25L8 2.75A0.25 0.25 0 0 0 8.25 3L8.75 3A0.25 0.25 0 0 1 9 3.25L9 4.75A0.25 0.25 0 0 1 8.75 5L8.25 5A0.25 0.25 0 0 0 8 5.25L8 8.75A0.25 0.25 0 0 0 8.25 9L8.75 9A0.25 0.25 0 0 0 9 8.75L9 8.25A0.25 0.25 0 0 1 9.25 8L9.75 8A0.25 0.25 0 0 0 10 7.75L10 7.25A0.25 0.25 0 0 1 10.25 7L10.75 7A0.25 0.25 0 0 0 11 6.75L11 6.25A0.25 0.25 0 0 0 10.75 6L10.25 6A0.25 0.25 0 0 0 10 6.25L10 6.75A0.25 0.25 0 0 1 9.75 7L9.25 7A0.25 0.25 0 0 1 9 6.75L9 5.25A0.25 0.25 0 0 1 9.25 5L9.75 5A0.25 0.25 0 0 0 10 4.75L10 4.25A0.25 0.25 0 0 1 10.25 4L10.75 4A0.25 0.25 0 0 1 11 4.25L11 4.75A0.25 0.25 0 0 0 11.25 5L11.75 5A0.25 0.25 0 0 0 12 4.75L12 4.25A0.25 0.25 0 0 0 11.75 4L11.25 4A0.25 0.25 0 0 1 11 3.75L11 3.25A0.25 0.25 0 0 0 10.75 3L10.25 3A0.25 0.25 0 0 1 10 2.75L10 2.25A0.25 0.25 0 0 1 10.25 2L10.75 2A0.25 0.25 0 0 0 11 1.75L11 1.25A0.25 0.25 0 0 1 11.25 1L11.75 1A0.25 0.25 0 0 0 12 0.75L12 0.25A0.25 0.25 0 0 0 11.75 0L11.25 0A0.25 0.25 0 0 0 11 0.25L11 0.75A0.25 0.25 0 0 1 10.75 1L10.25 1A0.25 0.25 0 0 0 10 1.25L10 1.75A0.25 0.25 0 0 1 9.75 2L9.25 2A0.25 0.25 0 0 1 9 1.75L9 0.25A0.25 0.25 0 0 0 8.75 0L8.25 0A0.25 0.25 0 0 0 8 0.25ZM14 0.25L14 0.75A0.25 0.25 0 0 0 14.25 1L15.75 1A0.25 0.25 0 0 1 16 1.25L16 1.75A0.25 0.25 0 0 1 15.75 2L14.25 2A0.25 0.25 0 0 0 14 2.25L14 2.75A0.25 0.25 0 0 0 14.25 3L14.75 3A0.25 0.25 0 0 1 15 3.25L15 4.75A0.25 0.25 0 0 1 14.75 5L14.25 5A0.25 0.25 0 0 1 14 4.75L14 4.25A0.25 0.25 0 0 0 13.75 4L13.25 4A0.25 0.25 0 0 0 13 4.25L13 5.75A0.25 0.25 0 0 1 12.75 6L12.25 6A0.25 0.25 0 0 0 12 6.25L12 6.75A0.25 0.25 0 0 0 12.25 7L12.75 7A0.25 0.25 0 0 0 13 6.75L13 6.25A0.25 0.25 0 0 1 13.25 6L13.75 6A0.25 0.25 0 0 1 14 6.25L14 6.75A0.25 0.25 0 0 0 14.25 7L14.75 7A0.25 0.25 0 0 1 15 7.25L15 7.75A0.25 0.25 0 0 1 14.75 8L14.25 8A0.25 0.25 0 0 0 14 8.25L14 8.75A0.25 0.25 0 0 1 13.75 9L13.25 9A0.25 0.25 0 0 1 13 8.75L13 8.25A0.25 0.25 0 0 0 12.75 8L11.25 8A0.25 0.25 0 0 0 11 8.25L11 8.75A0.25 0.25 0 0 0 11.25 9L12.75 9A0.25 0.25 0 0 1 13 9.25L13 10.75A0.25 0.25 0 0 0 13.25 11L13.75 11A0.25 0.25 0 0 1 14 11.25L14 11.75A0.25 0.25 0 0 1 13.75 12L11.25 12A0.25 0.25 0 0 0 11 12.25L11 12.75A0.25 0.25 0 0 1 10.75 13L7.25 13A0.25 0.25 0 0 1 7 12.75L7 12.25A0.25 0.25 0 0 0 6.75 12L6.25 12A0.25 0.25 0 0 1 6 11.75L6 11.25A0.25 0.25 0 0 1 6.25 11L6.75 11A0.25 0.25 0 0 0 7 10.75L7 10.25A0.25 0.25 0 0 0 6.75 10L6.25 10A0.25 0.25 0 0 1 6 9.75L6 9.25A0.25 0.25 0 0 1 6.25 9L6.75 9A0.25 0.25 0 0 0 7 8.75L7 8.25A0.25 0.25 0 0 0 6.75 8L6.25 8A0.25 0.25 0 0 0 6 8.25L6 8.75A0.25 0.25 0 0 1 5.75 9L5.25 9A0.25 0.25 0 0 1 5 8.75L5 8.25A0.25 0.25 0 0 0 4.75 8L2.25 8A0.25 0.25 0 0 0 2 8.25L2 8.75A0.25 0.25 0 0 0 2.25 9L4.75 9A0.25 0.25 0 0 1 5 9.25L5 9.75A0.25 0.25 0 0 1 4.75 10L2.25 10A0.25 0.25 0 0 0 2 10.25L2 10.75A0.25 0.25 0 0 1 1.75 11L1.25 11A0.25 0.25 0 0 0 1 11.25L1 11.75A0.25 0.25 0 0 1 0.75 12L0.25 12A0.25 0.25 0 0 0 0 12.25L0 14.75A0.25 0.25 0 0 0 0.25 15L0.75 15A0.25 0.25 0 0 1 1 15.25L1 15.75A0.25 0.25 0 0 1 0.75 16L0.25 16A0.25 0.25 0 0 0 0 16.25L0 16.75A0.25 0.25 0 0 0 0.25 17L0.75 17A0.25 0.25 0 0 0 1 16.75L1 16.25A0.25 0.25 0 0 1 1.25 16L1.75 16A0.25 0.25 0 0 0 2 15.75L2 15.25A0.25 0.25 0 0 1 2.25 15L3.75 15A0.25 0.25 0 0 0 4 14.75L4 13.25A0.25 0.25 0 0 0 3.75 13L3.25 13A0.25 0.25 0 0 0 3 13.25L3 13.75A0.25 0.25 0 0 1 2.75 14L2.25 14A0.25 0.25 0 0 1 2 13.75L2 11.25A0.25 0.25 0 0 1 2.25 11L2.75 11A0.25 0.25 0 0 1 3 11.25L3 11.75A0.25 0.25 0 0 0 3.25 12L3.75 12A0.25 0.25 0 0 0 4 11.75L4 11.25A0.25 0.25 0 0 1 4.25 11L4.75 11A0.25 0.25 0 0 1 5 11.25L5 11.75A0.25 0.25 0 0 0 5.25 12L5.75 12A0.25 0.25 0 0 1 6 12.25L6 12.75A0.25 0.25 0 0 0 6.25 13L6.75 13A0.25 0.25 0 0 1 7 13.25L7 13.75A0.25 0.25 0 0 1 6.75 14L6.25 14A0.25 0.25 0 0 0 6 14.25L6 14.75A0.25 0.25 0 0 1 5.75 15L5.25 15A0.25 0.25 0 0 0 5 15.25L5 15.75A0.25 0.25 0 0 1 4.75 16L3.25 16A0.25 0.25 0 0 0 3 16.25L3 16.75A0.25 0.25 0 0 1 2.75 17L2.25 17A0.25 0.25 0 0 0 2 17.25L2 18.75A0.25 0.25 0 0 0 2.25 19L2.75 19A0.25 0.25 0 0 1 3 19.25L3 20.75A0.25 0.25 0 0 0 3.25 21L4.75 21A0.25 0.25 0 0 1 5 21.25L5 21.75A0.25 0.25 0 0 0 5.25 22L5.75 22A0.25 0.25 0 0 1 6 22.25L6 22.75A0.25 0.25 0 0 1 5.75 23L2.25 23A0.25 0.25 0 0 0 2 23.25L2 24.75A0.25 0.25 0 0 0 2.25 25L3.75 25A0.25 0.25 0 0 0 4 24.75L4 24.25A0.25 0.25 0 0 1 4.25 24L5.75 24A0.25 0.25 0 0 1 6 24.25L6 24.75A0.25 0.25 0 0 0 6.25 25L7.75 25A0.25 0.25 0 0 1 8 25.25L8 25.75A0.25 0.25 0 0 0 8.25 26L8.75 26A0.25 0.25 0 0 0 9 25.75L9 25.25A0.25 0.25 0 0 0 8.75 25L8.25 25A0.25 0.25 0 0 1 8 24.75L8 24.25A0.25 0.25 0 0 1 8.25 24L9.75 24A0.25 0.25 0 0 1 10 24.25L10 24.75A0.25 0.25 0 0 0 10.25 25L10.75 25A0.25 0.25 0 0 1 11 25.25L11 25.75A0.25 0.25 0 0 1 10.75 26L10.25 26A0.25 0.25 0 0 0 10 26.25L10 26.75A0.25 0.25 0 0 1 9.75 27L9.25 27A0.25 0.25 0 0 0 9 27.25L9 27.75A0.25 0.25 0 0 1 8.75 28L8.25 28A0.25 0.25 0 0 0 8 28.25L8 30.75A0.25 0.25 0 0 0 8.25 31L8.75 31A0.25 0.25 0 0 1 9 31.25L9 31.75A0.25 0.25 0 0 0 9.25 32L9.75 32A0.25 0.25 0 0 1 10 32.25L10 32.75A0.25 0.25 0 0 0 10.25 33L11.75 33A0.25 0.25 0 0 0 12 32.75L12 32.25A0.25 0.25 0 0 1 12.25 32L13.75 32A0.25 0.25 0 0 0 14 31.75L14 31.25A0.25 0.25 0 0 0 13.75 31L12.25 31A0.25 0.25 0 0 0 12 31.25L12 31.75A0.25 0.25 0 0 1 11.75 32L11.25 32A0.25 0.25 0 0 1 11 31.75L11 30.25A0.25 0.25 0 0 0 10.75 30L10.25 30A0.25 0.25 0 0 0 10 30.25L10 30.75A0.25 0.25 0 0 1 9.75 31L9.25 31A0.25 0.25 0 0 1 9 30.75L9 29.25A0.25 0.25 0 0 1 9.25 29L9.75 29A0.25 0.25 0 0 0 10 28.75L10 28.25A0.25 0.25 0 0 1 10.25 28L10.75 28A0.25 0.25 0 0 1 11 28.25L11 28.75A0.25 0.25 0 0 0 11.25 29L11.75 29A0.25 0.25 0 0 1 12 29.25L12 29.75A0.25 0.25 0 0 0 12.25 30L12.75 30A0.25 0.25 0 0 0 13 29.75L13 28.25A0.25 0.25 0 0 0 12.75 28L12.25 28A0.25 0.25 0 0 1 12 27.75L12 27.25A0.25 0.25 0 0 1 12.25 27L12.75 27A0.25 0.25 0 0 0 13 26.75L13 25.25A0.25 0.25 0 0 1 13.25 25L13.75 25A0.25 0.25 0 0 0 14 24.75L14 24.25A0.25 0.25 0 0 0 13.75 24L13.25 24A0.25 0.25 0 0 1 13 23.75L13 23.25A0.25 0.25 0 0 1 13.25 23L14.75 23A0.25 0.25 0 0 1 15 23.25L15 24.75A0.25 0.25 0 0 0 15.25 25L15.75 25A0.25 0.25 0 0 0 16 24.75L16 24.25A0.25 0.25 0 0 1 16.25 24L16.75 24A0.25 0.25 0 0 0 17 23.75L17 23.25A0.25 0.25 0 0 0 16.75 23L16.25 23A0.25 0.25 0 0 1 16 22.75L16 22.25A0.25 0.25 0 0 0 15.75 22L13.25 22A0.25 0.25 0 0 1 13 21.75L13 21.25A0.25 0.25 0 0 1 13.25 21L13.75 21A0.25 0.25 0 0 0 14 20.75L14 20.25A0.25 0.25 0 0 1 14.25 20L14.75 20A0.25 0.25 0 0 1 15 20.25L15 20.75A0.25 0.25 0 0 0 15.25 21L18.75 21A0.25 0.25 0 0 0 19 20.75L19 20.25A0.25 0.25 0 0 0 18.75 20L17.25 20A0.25 0.25 0 0 1 17 19.75L17 19.25A0.25 0.25 0 0 1 17.25 19L19.75 19A0.25 0.25 0 0 1 20 19.25L20 21.75A0.25 0.25 0 0 1 19.75 22L18.25 22A0.25 0.25 0 0 0 18 22.25L18 24.75A0.25 0.25 0 0 1 17.75 25L17.25 25A0.25 0.25 0 0 0 17 25.25L17 25.75A0.25 0.25 0 0 1 16.75 26L15.25 26A0.25 0.25 0 0 0 15 26.25L15 28.75A0.25 0.25 0 0 0 15.25 29L15.75 29A0.25 0.25 0 0 1 16 29.25L16 29.75A0.25 0.25 0 0 0 16.25 30L16.75 30A0.25 0.25 0 0 0 17 29.75L17 29.25A0.25 0.25 0 0 1 17.25 29L18.75 29A0.25 0.25 0 0 1 19 29.25L19 29.75A0.25 0.25 0 0 1 18.75 30L18.25 30A0.25 0.25 0 0 0 18 30.25L18 30.75A0.25 0.25 0 0 0 18.25 31L18.75 31A0.25 0.25 0 0 1 19 31.25L19 32.75A0.25 0.25 0 0 0 19.25 33L19.75 33A0.25 0.25 0 0 0 20 32.75L20 31.25A0.25 0.25 0 0 1 20.25 31L20.75 31A0.25 0.25 0 0 1 21 31.25L21 31.75A0.25 0.25 0 0 0 21.25 32L23.75 32A0.25 0.25 0 0 1 24 32.25L24 32.75A0.25 0.25 0 0 0 24.25 33L24.75 33A0.25 0.25 0 0 0 25 32.75L25 32.25A0.25 0.25 0 0 1 25.25 32L25.75 32A0.25 0.25 0 0 0 26 31.75L26 31.25A0.25 0.25 0 0 1 26.25 31L26.75 31A0.25 0.25 0 0 0 27 30.75L27 30.25A0.25 0.25 0 0 1 27.25 30L28.75 30A0.25 0.25 0 0 1 29 30.25L29 30.75A0.25 0.25 0 0 1 28.75 31L28.25 31A0.25 0.25 0 0 0 28 31.25L28 32.75A0.25 0.25 0 0 0 28.25 33L31.75 33A0.25 0.25 0 0 0 32 32.75L32 32.25A0.25 0.25 0 0 0 31.75 32L31.25 32A0.25 0.25 0 0 1 31 31.75L31 30.25A0.25 0.25 0 0 1 31.25 30L31.75 30A0.25 0.25 0 0 0 32 29.75L32 26.25A0.25 0.25 0 0 1 32.25 26L32.75 26A0.25 0.25 0 0 0 33 25.75L33 25.25A0.25 0.25 0 0 0 32.75 25L31.25 25A0.25 0.25 0 0 1 31 24.75L31 23.25A0.25 0.25 0 0 0 30.75 23L29.25 23A0.25 0.25 0 0 0 29 23.25L29 23.75A0.25 0.25 0 0 1 28.75 24L28.25 24A0.25 0.25 0 0 1 28 23.75L28 23.25A0.25 0.25 0 0 0 27.75 23L27.25 23A0.25 0.25 0 0 1 27 22.75L27 22.25A0.25 0.25 0 0 0 26.75 22L26.25 22A0.25 0.25 0 0 1 26 21.75L26 21.25A0.25 0.25 0 0 0 25.75 21L25.25 21A0.25 0.25 0 0 1 25 20.75L25 20.25A0.25 0.25 0 0 1 25.25 20L25.75 20A0.25 0.25 0 0 0 26 19.75L26 19.25A0.25 0.25 0 0 0 25.75 19L25.25 19A0.25 0.25 0 0 1 25 18.75L25 18.25A0.25 0.25 0 0 1 25.25 18L27.75 18A0.25 0.25 0 0 0 28 17.75L28 17.25A0.25 0.25 0 0 1 28.25 17L28.75 17A0.25 0.25 0 0 0 29 16.75L29 16.25A0.25 0.25 0 0 1 29.25 16L29.75 16A0.25 0.25 0 0 1 30 16.25L30 16.75A0.25 0.25 0 0 0 30.25 17L30.75 17A0.25 0.25 0 0 0 31 16.75L31 16.25A0.25 0.25 0 0 0 30.75 16L30.25 16A0.25 0.25 0 0 1 30 15.75L30 15.25A0.25 0.25 0 0 0 29.75 15L29.25 15A0.25 0.25 0 0 1 29 14.75L29 14.25A0.25 0.25 0 0 1 29.25 14L29.75 14A0.25 0.25 0 0 0 30 13.75L30 13.25A0.25 0.25 0 0 1 30.25 13L32.75 13A0.25 0.25 0 0 0 33 12.75L33 12.25A0.25 0.25 0 0 0 32.75 12L31.25 12A0.25 0.25 0 0 1 31 11.75L31 10.25A0.25 0.25 0 0 1 31.25 10L32.75 10A0.25 0.25 0 0 0 33 9.75L33 8.25A0.25 0.25 0 0 0 32.75 8L30.25 8A0.25 0.25 0 0 0 30 8.25L30 10.75A0.25 0.25 0 0 1 29.75 11L28.25 11A0.25 0.25 0 0 1 28 10.75L28 10.25A0.25 0.25 0 0 0 27.75 10L27.25 10A0.25 0.25 0 0 1 27 9.75L27 9.25A0.25 0.25 0 0 1 27.25 9L27.75 9A0.25 0.25 0 0 0 28 8.75L28 8.25A0.25 0.25 0 0 0 27.75 8L25.25 8A0.25 0.25 0 0 1 25 7.75L25 6.25A0.25 0.25 0 0 0 24.75 6L24.25 6A0.25 0.25 0 0 0 24 6.25L24 7.75A0.25 0.25 0 0 0 24.25 8L24.75 8A0.25 0.25 0 0 1 25 8.25L25 8.75A0.25 0.25 0 0 1 24.75 9L22.25 9A0.25 0.25 0 0 0 22 9.25L22 10.75A0.25 0.25 0 0 0 22.25 11L22.75 11A0.25 0.25 0 0 1 23 11.25L23 11.75A0.25 0.25 0 0 1 22.75 12L21.25 12A0.25 0.25 0 0 1 21 11.75L21 11.25A0.25 0.25 0 0 0 20.75 11L20.25 11A0.25 0.25 0 0 0 20 11.25L20 11.75A0.25 0.25 0 0 0 20.25 12L20.75 12A0.25 0.25 0 0 1 21 12.25L21 12.75A0.25 0.25 0 0 0 21.25 13L22.75 13A0.25 0.25 0 0 1 23 13.25L23 13.75A0.25 0.25 0 0 1 22.75 14L22.25 14A0.25 0.25 0 0 0 22 14.25L22 14.75A0.25 0.25 0 0 1 21.75 15L21.25 15A0.25 0.25 0 0 0 21 15.25L21 15.75A0.25 0.25 0 0 0 21.25 16L21.75 16A0.25 0.25 0 0 1 22 16.25L22 16.75A0.25 0.25 0 0 1 21.75 17L20.25 17A0.25 0.25 0 0 1 20 16.75L20 15.25A0.25 0.25 0 0 0 19.75 15L19.25 15A0.25 0.25 0 0 1 19 14.75L19 12.25A0.25 0.25 0 0 0 18.75 12L18.25 12A0.25 0.25 0 0 1 18 11.75L18 11.25A0.25 0.25 0 0 1 18.25 11L18.75 11A0.25 0.25 0 0 0 19 10.75L19 10.25A0.25 0.25 0 0 0 18.75 10L18.25 10A0.25 0.25 0 0 1 18 9.75L18 9.25A0.25 0.25 0 0 0 17.75 9L17.25 9A0.25 0.25 0 0 0 17 9.25L17 9.75A0.25 0.25 0 0 1 16.75 10L16.25 10A0.25 0.25 0 0 1 16 9.75L16 9.25A0.25 0.25 0 0 0 15.75 9L15.25 9A0.25 0.25 0 0 1 15 8.75L15 8.25A0.25 0.25 0 0 1 15.25 8L15.75 8A0.25 0.25 0 0 0 16 7.75L16 7.25A0.25 0.25 0 0 1 16.25 7L16.75 7A0.25 0.25 0 0 1 17 7.25L17 7.75A0.25 0.25 0 0 0 17.25 8L17.75 8A0.25 0.25 0 0 0 18 7.75L18 7.25A0.25 0.25 0 0 1 18.25 7L18.75 7A0.25 0.25 0 0 1 19 7.25L19 8.75A0.25 0.25 0 0 0 19.25 9L20.75 9A0.25 0.25 0 0 0 21 8.75L21 8.25A0.25 0.25 0 0 1 21.25 8L21.75 8A0.25 0.25 0 0 0 22 7.75L22 7.25A0.25 0.25 0 0 1 22.25 7L22.75 7A0.25 0.25 0 0 0 23 6.75L23 6.25A0.25 0.25 0 0 0 22.75 6L22.25 6A0.25 0.25 0 0 0 22 6.25L22 6.75A0.25 0.25 0 0 1 21.75 7L21.25 7A0.25 0.25 0 0 1 21 6.75L21 6.25A0.25 0.25 0 0 0 20.75 6L20.25 6A0.25 0.25 0 0 1 20 5.75L20 4.25A0.25 0.25 0 0 0 19.75 4L19.25 4A0.25 0.25 0 0 1 19 3.75L19 3.25A0.25 0.25 0 0 1 19.25 3L22.75 3A0.25 0.25 0 0 0 23 2.75L23 2.25A0.25 0.25 0 0 0 22.75 2L19.25 2A0.25 0.25 0 0 1 19 1.75L19 0.25A0.25 0.25 0 0 0 18.75 0L18.25 0A0.25 0.25 0 0 0 18 0.25L18 0.75A0.25 0.25 0 0 1 17.75 1L16.25 1A0.25 0.25 0 0 1 16 0.75L16 0.25A0.25 0.25 0 0 0 15.75 0L14.25 0A0.25 0.25 0 0 0 14 0.25ZM21 0.25L21 0.75A0.25 0.25 0 0 0 21.25 1L21.75 1A0.25 0.25 0 0 0 22 0.75L22 0.25A0.25 0.25 0 0 0 21.75 0L21.25 0A0.25 0.25 0 0 0 21 0.25ZM23 0.25L23 0.75A0.25 0.25 0 0 0 23.25 1L23.75 1A0.25 0.25 0 0 1 24 1.25L24 1.75A0.25 0.25 0 0 0 24.25 2L24.75 2A0.25 0.25 0 0 0 25 1.75L25 1.25A0.25 0.25 0 0 0 24.75 1L24.25 1A0.25 0.25 0 0 1 24 0.75L24 0.25A0.25 0.25 0 0 0 23.75 0L23.25 0A0.25 0.25 0 0 0 23 0.25ZM17 2.25L17 3.75A0.25 0.25 0 0 1 16.75 4L16.25 4A0.25 0.25 0 0 0 16 4.25L16 4.75A0.25 0.25 0 0 1 15.75 5L15.25 5A0.25 0.25 0 0 0 15 5.25L15 6.75A0.25 0.25 0 0 0 15.25 7L15.75 7A0.25 0.25 0 0 0 16 6.75L16 5.25A0.25 0.25 0 0 1 16.25 5L16.75 5A0.25 0.25 0 0 1 17 5.25L17 6.75A0.25 0.25 0 0 0 17.25 7L17.75 7A0.25 0.25 0 0 0 18 6.75L18 5.25A0.25 0.25 0 0 1 18.25 5L18.75 5A0.25 0.25 0 0 0 19 4.75L19 4.25A0.25 0.25 0 0 0 18.75 4L18.25 4A0.25 0.25 0 0 1 18 3.75L18 3.25A0.25 0.25 0 0 1 18.25 3L18.75 3A0.25 0.25 0 0 0 19 2.75L19 2.25A0.25 0.25 0 0 0 18.75 2L17.25 2A0.25 0.25 0 0 0 17 2.25ZM17 4.25L17 4.75A0.25 0.25 0 0 0 17.25 5L17.75 5A0.25 0.25 0 0 0 18 4.75L18 4.25A0.25 0.25 0 0 0 17.75 4L17.25 4A0.25 0.25 0 0 0 17 4.25ZM21 4.25L21 4.75A0.25 0.25 0 0 0 21.25 5L22.75 5A0.25 0.25 0 0 0 23 4.75L23 4.25A0.25 0.25 0 0 0 22.75 4L21.25 4A0.25 0.25 0 0 0 21 4.25ZM24 4.25L24 4.75A0.25 0.25 0 0 0 24.25 5L24.75 5A0.25 0.25 0 0 0 25 4.75L25 4.25A0.25 0.25 0 0 0 24.75 4L24.25 4A0.25 0.25 0 0 0 24 4.25ZM19 6.25L19 6.75A0.25 0.25 0 0 0 19.25 7L19.75 7A0.25 0.25 0 0 0 20 6.75L20 6.25A0.25 0.25 0 0 0 19.75 6L19.25 6A0.25 0.25 0 0 0 19 6.25ZM25 9.25L25 9.75A0.25 0.25 0 0 0 25.25 10L25.75 10A0.25 0.25 0 0 1 26 10.25L26 10.75A0.25 0.25 0 0 0 26.25 11L26.75 11A0.25 0.25 0 0 0 27 10.75L27 10.25A0.25 0.25 0 0 0 26.75 10L26.25 10A0.25 0.25 0 0 1 26 9.75L26 9.25A0.25 0.25 0 0 0 25.75 9L25.25 9A0.25 0.25 0 0 0 25 9.25ZM5 10.25L5 10.75A0.25 0.25 0 0 0 5.25 11L5.75 11A0.25 0.25 0 0 0 6 10.75L6 10.25A0.25 0.25 0 0 0 5.75 10L5.25 10A0.25 0.25 0 0 0 5 10.25ZM8 10.25L8 11.75A0.25 0.25 0 0 0 8.25 12L8.75 12A0.25 0.25 0 0 0 9 11.75L9 10.25A0.25 0.25 0 0 0 8.75 10L8.25 10A0.25 0.25 0 0 0 8 10.25ZM11 10.25L11 10.75A0.25 0.25 0 0 0 11.25 11L11.75 11A0.25 0.25 0 0 0 12 10.75L12 10.25A0.25 0.25 0 0 0 11.75 10L11.25 10A0.25 0.25 0 0 0 11 10.25ZM15 10.25L15 10.75A0.25 0.25 0 0 0 15.25 11L15.75 11A0.25 0.25 0 0 0 16 10.75L16 10.25A0.25 0.25 0 0 0 15.75 10L15.25 10A0.25 0.25 0 0 0 15 10.25ZM23 10.25L23 10.75A0.25 0.25 0 0 0 23.25 11L23.75 11A0.25 0.25 0 0 1 24 11.25L24 11.75A0.25 0.25 0 0 1 23.75 12L23.25 12A0.25 0.25 0 0 0 23 12.25L23 12.75A0.25 0.25 0 0 0 23.25 13L26.75 13A0.25 0.25 0 0 1 27 13.25L27 13.75A0.25 0.25 0 0 1 26.75 14L25.25 14A0.25 0.25 0 0 0 25 14.25L25 14.75A0.25 0.25 0 0 0 25.25 15L26.75 15A0.25 0.25 0 0 1 27 15.25L27 15.75A0.25 0.25 0 0 1 26.75 16L25.25 16A0.25 0.25 0 0 0 25 16.25L25 16.75A0.25 0.25 0 0 1 24.75 17L22.25 17A0.25 0.25 0 0 0 22 17.25L22 18.75A0.25 0.25 0 0 0 22.25 19L22.75 19A0.25 0.25 0 0 1 23 19.25L23 19.75A0.25 0.25 0 0 1 22.75 20L21.25 20A0.25 0.25 0 0 0 21 20.25L21 20.75A0.25 0.25 0 0 0 21.25 21L22.75 21A0.25 0.25 0 0 1 23 21.25L23 21.75A0.25 0.25 0 0 1 22.75 22L22.25 22A0.25 0.25 0 0 0 22 22.25L22 23.75A0.25 0.25 0 0 1 21.75 24L21.25 24A0.25 0.25 0 0 1 21 23.75L21 22.25A0.25 0.25 0 0 0 20.75 22L20.25 22A0.25 0.25 0 0 0 20 22.25L20 23.75A0.25 0.25 0 0 1 19.75 24L19.25 24A0.25 0.25 0 0 0 19 24.25L19 24.75A0.25 0.25 0 0 1 18.75 25L18.25 25A0.25 0.25 0 0 0 18 25.25L18 26.75A0.25 0.25 0 0 1 17.75 27L16.25 27A0.25 0.25 0 0 0 16 27.25L16 28.75A0.25 0.25 0 0 0 16.25 29L16.75 29A0.25 0.25 0 0 0 17 28.75L17 28.25A0.25 0.25 0 0 1 17.25 28L20.75 28A0.25 0.25 0 0 0 21 27.75L21 27.25A0.25 0.25 0 0 0 20.75 27L20.25 27A0.25 0.25 0 0 1 20 26.75L20 26.25A0.25 0.25 0 0 0 19.75 26L19.25 26A0.25 0.25 0 0 1 19 25.75L19 25.25A0.25 0.25 0 0 1 19.25 25L22.75 25A0.25 0.25 0 0 0 23 24.75L23 22.25A0.25 0.25 0 0 1 23.25 22L24.75 22A0.25 0.25 0 0 0 25 21.75L25 21.25A0.25 0.25 0 0 0 24.75 21L24.25 21A0.25 0.25 0 0 1 24 20.75L24 18.25A0.25 0.25 0 0 1 24.25 18L24.75 18A0.25 0.25 0 0 0 25 17.75L25 17.25A0.25 0.25 0 0 1 25.25 17L27.75 17A0.25 0.25 0 0 0 28 16.75L28 15.25A0.25 0.25 0 0 0 27.75 15L27.25 15A0.25 0.25 0 0 1 27 14.75L27 14.25A0.25 0.25 0 0 1 27.25 14L27.75 14A0.25 0.25 0 0 0 28 13.75L28 13.25A0.25 0.25 0 0 1 28.25 13L29.75 13A0.25 0.25 0 0 0 30 12.75L30 12.25A0.25 0.25 0 0 0 29.75 12L28.25 12A0.25 0.25 0 0 0 28 12.25L28 12.75A0.25 0.25 0 0 1 27.75 13L27.25 13A0.25 0.25 0 0 1 27 12.75L27 12.25A0.25 0.25 0 0 0 26.75 12L25.25 12A0.25 0.25 0 0 1 25 11.75L25 11.25A0.25 0.25 0 0 0 24.75 11L24.25 11A0.25 0.25 0 0 1 24 10.75L24 10.25A0.25 0.25 0 0 0 23.75 10L23.25 10A0.25 0.25 0 0 0 23 10.25ZM14 12.25L14 12.75A0.25 0.25 0 0 0 14.25 13L14.75 13A0.25 0.25 0 0 1 15 13.25L15 13.75A0.25 0.25 0 0 1 14.75 14L13.25 14A0.25 0.25 0 0 1 13 13.75L13 13.25A0.25 0.25 0 0 0 12.75 13L12.25 13A0.25 0.25 0 0 0 12 13.25L12 13.75A0.25 0.25 0 0 1 11.75 14L10.25 14A0.25 0.25 0 0 0 10 14.25L10 15.75A0.25 0.25 0 0 0 10.25 16L10.75 16A0.25 0.25 0 0 0 11 15.75L11 15.25A0.25 0.25 0 0 1 11.25 15L12.75 15A0.25 0.25 0 0 1 13 15.25L13 15.75A0.25 0.25 0 0 1 12.75 16L12.25 16A0.25 0.25 0 0 0 12 16.25L12 16.75A0.25 0.25 0 0 1 11.75 17L10.25 17A0.25 0.25 0 0 0 10 17.25L10 17.75A0.25 0.25 0 0 1 9.75 18L9.25 18A0.25 0.25 0 0 0 9 18.25L9 18.75A0.25 0.25 0 0 1 8.75 19L8.25 19A0.25 0.25 0 0 1 8 18.75L8 17.25A0.25 0.25 0 0 1 8.25 17L8.75 17A0.25 0.25 0 0 0 9 16.75L9 16.25A0.25 0.25 0 0 0 8.75 16L8.25 16A0.25 0.25 0 0 1 8 15.75L8 15.25A0.25 0.25 0 0 1 8.25 15L8.75 15A0.25 0.25 0 0 0 9 14.75L9 14.25A0.25 0.25 0 0 0 8.75 14L7.25 14A0.25 0.25 0 0 0 7 14.25L7 14.75A0.25 0.25 0 0 1 6.75 15L6.25 15A0.25 0.25 0 0 0 6 15.25L6 15.75A0.25 0.25 0 0 1 5.75 16L5.25 16A0.25 0.25 0 0 0 5 16.25L5 16.75A0.25 0.25 0 0 0 5.25 17L5.75 17A0.25 0.25 0 0 1 6 17.25L6 17.75A0.25 0.25 0 0 1 5.75 18L4.25 18A0.25 0.25 0 0 1 4 17.75L4 17.25A0.25 0.25 0 0 0 3.75 17L3.25 17A0.25 0.25 0 0 0 3 17.25L3 18.75A0.25 0.25 0 0 0 3.25 19L4.75 19A0.25 0.25 0 0 1 5 19.25L5 19.75A0.25 0.25 0 0 0 5.25 20L7.75 20A0.25 0.25 0 0 1 8 20.25L8 20.75A0.25 0.25 0 0 1 7.75 21L6.25 21A0.25 0.25 0 0 0 6 21.25L6 21.75A0.25 0.25 0 0 0 6.25 22L6.75 22A0.25 0.25 0 0 1 7 22.25L7 22.75A0.25 0.25 0 0 1 6.75 23L6.25 23A0.25 0.25 0 0 0 6 23.25L6 23.75A0.25 0.25 0 0 0 6.25 24L6.75 24A0.25 0.25 0 0 0 7 23.75L7 23.25A0.25 0.25 0 0 1 7.25 23L8.75 23A0.25 0.25 0 0 0 9 22.75L9 22.25A0.25 0.25 0 0 0 8.75 22L8.25 22A0.25 0.25 0 0 1 8 21.75L8 21.25A0.25 0.25 0 0 1 8.25 21L10.75 21A0.25 0.25 0 0 1 11 21.25L11 21.75A0.25 0.25 0 0 1 10.75 22L10.25 22A0.25 0.25 0 0 0 10 22.25L10 22.75A0.25 0.25 0 0 0 10.25 23L10.75 23A0.25 0.25 0 0 1 11 23.25L11 23.75A0.25 0.25 0 0 0 11.25 24L11.75 24A0.25 0.25 0 0 1 12 24.25L12 24.75A0.25 0.25 0 0 0 12.25 25L12.75 25A0.25 0.25 0 0 0 13 24.75L13 24.25A0.25 0.25 0 0 0 12.75 24L12.25 24A0.25 0.25 0 0 1 12 23.75L12 23.25A0.25 0.25 0 0 1 12.25 23L12.75 23A0.25 0.25 0 0 0 13 22.75L13 22.25A0.25 0.25 0 0 0 12.75 22L12.25 22A0.25 0.25 0 0 1 12 21.75L12 21.25A0.25 0.25 0 0 1 12.25 21L12.75 21A0.25 0.25 0 0 0 13 20.75L13 20.25A0.25 0.25 0 0 1 13.25 20L13.75 20A0.25 0.25 0 0 0 14 19.75L14 19.25A0.25 0.25 0 0 1 14.25 19L15.75 19A0.25 0.25 0 0 0 16 18.75L16 18.25A0.25 0.25 0 0 1 16.25 18L19.75 18A0.25 0.25 0 0 1 20 18.25L20 18.75A0.25 0.25 0 0 0 20.25 19L20.75 19A0.25 0.25 0 0 0 21 18.75L21 18.25A0.25 0.25 0 0 0 20.75 18L20.25 18A0.25 0.25 0 0 1 20 17.75L20 17.25A0.25 0.25 0 0 0 19.75 17L19.25 17A0.25 0.25 0 0 1 19 16.75L19 15.25A0.25 0.25 0 0 0 18.75 15L18.25 15A0.25 0.25 0 0 1 18 14.75L18 12.25A0.25 0.25 0 0 0 17.75 12L16.25 12A0.25 0.25 0 0 0 16 12.25L16 12.75A0.25 0.25 0 0 1 15.75 13L15.25 13A0.25 0.25 0 0 1 15 12.75L15 12.25A0.25 0.25 0 0 0 14.75 12L14.25 12A0.25 0.25 0 0 0 14 12.25ZM16 13.25L16 13.75A0.25 0.25 0 0 1 15.75 14L15.25 14A0.25 0.25 0 0 0 15 14.25L15 16.75A0.25 0.25 0 0 1 14.75 17L12.25 17A0.25 0.25 0 0 0 12 17.25L12 17.75A0.25 0.25 0 0 1 11.75 18L11.25 18A0.25 0.25 0 0 0 11 18.25L11 18.75A0.25 0.25 0 0 1 10.75 19L9.25 19A0.25 0.25 0 0 0 9 19.25L9 19.75A0.25 0.25 0 0 0 9.25 20L11.75 20A0.25 0.25 0 0 0 12 19.75L12 18.25A0.25 0.25 0 0 1 12.25 18L12.75 18A0.25 0.25 0 0 1 13 18.25L13 18.75A0.25 0.25 0 0 0 13.25 19L13.75 19A0.25 0.25 0 0 0 14 18.75L14 18.25A0.25 0.25 0 0 1 14.25 18L15.75 18A0.25 0.25 0 0 0 16 17.75L16 17.25A0.25 0.25 0 0 1 16.25 17L17.75 17A0.25 0.25 0 0 0 18 16.75L18 15.25A0.25 0.25 0 0 0 17.75 15L16.25 15A0.25 0.25 0 0 1 16 14.75L16 14.25A0.25 0.25 0 0 1 16.25 14L16.75 14A0.25 0.25 0 0 0 17 13.75L17 13.25A0.25 0.25 0 0 0 16.75 13L16.25 13A0.25 0.25 0 0 0 16 13.25ZM23 14.25L23 15.75A0.25 0.25 0 0 0 23.25 16L23.75 16A0.25 0.25 0 0 0 24 15.75L24 14.25A0.25 0.25 0 0 0 23.75 14L23.25 14A0.25 0.25 0 0 0 23 14.25ZM31 14.25L31 14.75A0.25 0.25 0 0 0 31.25 15L31.75 15A0.25 0.25 0 0 1 32 15.25L32 16.75A0.25 0.25 0 0 0 32.25 17L32.75 17A0.25 0.25 0 0 0 33 16.75L33 15.25A0.25 0.25 0 0 0 32.75 15L32.25 15A0.25 0.25 0 0 1 32 14.75L32 14.25A0.25 0.25 0 0 0 31.75 14L31.25 14A0.25 0.25 0 0 0 31 14.25ZM6 16.25L6 16.75A0.25 0.25 0 0 0 6.25 17L6.75 17A0.25 0.25 0 0 0 7 16.75L7 16.25A0.25 0.25 0 0 0 6.75 16L6.25 16A0.25 0.25 0 0 0 6 16.25ZM6 18.25L6 18.75A0.25 0.25 0 0 0 6.25 19L6.75 19A0.25 0.25 0 0 0 7 18.75L7 18.25A0.25 0.25 0 0 0 6.75 18L6.25 18A0.25 0.25 0 0 0 6 18.25ZM0 19.25L0 24.75A0.25 0.25 0 0 0 0.25 25L0.75 25A0.25 0.25 0 0 0 1 24.75L1 19.25A0.25 0.25 0 0 0 0.75 19L0.25 19A0.25 0.25 0 0 0 0 19.25ZM27 19.25L27 20.75A0.25 0.25 0 0 0 27.25 21L27.75 21A0.25 0.25 0 0 0 28 20.75L28 20.25A0.25 0.25 0 0 1 28.25 20L31.75 20A0.25 0.25 0 0 1 32 20.25L32 20.75A0.25 0.25 0 0 1 31.75 21L30.25 21A0.25 0.25 0 0 0 30 21.25L30 21.75A0.25 0.25 0 0 0 30.25 22L32.75 22A0.25 0.25 0 0 0 33 21.75L33 20.25A0.25 0.25 0 0 0 32.75 20L32.25 20A0.25 0.25 0 0 1 32 19.75L32 19.25A0.25 0.25 0 0 0 31.75 19L27.25 19A0.25 0.25 0 0 0 27 19.25ZM11 22.25L11 22.75A0.25 0.25 0 0 0 11.25 23L11.75 23A0.25 0.25 0 0 0 12 22.75L12 22.25A0.25 0.25 0 0 0 11.75 22L11.25 22A0.25 0.25 0 0 0 11 22.25ZM24 23.25L24 23.75A0.25 0.25 0 0 0 24.25 24L25.75 24A0.25 0.25 0 0 0 26 23.75L26 23.25A0.25 0.25 0 0 0 25.75 23L24.25 23A0.25 0.25 0 0 0 24 23.25ZM32 23.25L32 23.75A0.25 0.25 0 0 0 32.25 24L32.75 24A0.25 0.25 0 0 0 33 23.75L33 23.25A0.25 0.25 0 0 0 32.75 23L32.25 23A0.25 0.25 0 0 0 32 23.25ZM29 24.25L29 24.75A0.25 0.25 0 0 0 29.25 25L29.75 25A0.25 0.25 0 0 1 30 25.25L30 25.75A0.25 0.25 0 0 0 30.25 26L30.75 26A0.25 0.25 0 0 0 31 25.75L31 25.25A0.25 0.25 0 0 0 30.75 25L30.25 25A0.25 0.25 0 0 1 30 24.75L30 24.25A0.25 0.25 0 0 0 29.75 24L29.25 24A0.25 0.25 0 0 0 29 24.25ZM25 25.25L25 27.75A0.25 0.25 0 0 0 25.25 28L27.75 28A0.25 0.25 0 0 0 28 27.75L28 25.25A0.25 0.25 0 0 0 27.75 25L25.25 25A0.25 0.25 0 0 0 25 25.25ZM22 26.25L22 26.75A0.25 0.25 0 0 0 22.25 27L22.75 27A0.25 0.25 0 0 1 23 27.25L23 27.75A0.25 0.25 0 0 1 22.75 28L22.25 28A0.25 0.25 0 0 0 22 28.25L22 28.75A0.25 0.25 0 0 0 22.25 29L23.75 29A0.25 0.25 0 0 0 24 28.75L24 27.25A0.25 0.25 0 0 0 23.75 27L23.25 27A0.25 0.25 0 0 1 23 26.75L23 26.25A0.25 0.25 0 0 0 22.75 26L22.25 26A0.25 0.25 0 0 0 22 26.25ZM26 26.25L26 26.75A0.25 0.25 0 0 0 26.25 27L26.75 27A0.25 0.25 0 0 0 27 26.75L27 26.25A0.25 0.25 0 0 0 26.75 26L26.25 26A0.25 0.25 0 0 0 26 26.25ZM29 27.25L29 27.75A0.25 0.25 0 0 0 29.25 28L29.75 28A0.25 0.25 0 0 1 30 28.25L30 28.75A0.25 0.25 0 0 1 29.75 29L29.25 29A0.25 0.25 0 0 0 29 29.25L29 29.75A0.25 0.25 0 0 0 29.25 30L29.75 30A0.25 0.25 0 0 0 30 29.75L30 29.25A0.25 0.25 0 0 1 30.25 29L30.75 29A0.25 0.25 0 0 0 31 28.75L31 28.25A0.25 0.25 0 0 0 30.75 28L30.25 28A0.25 0.25 0 0 1 30 27.75L30 27.25A0.25 0.25 0 0 0 29.75 27L29.25 27A0.25 0.25 0 0 0 29 27.25ZM20 29.25L20 29.75A0.25 0.25 0 0 1 19.75 30L19.25 30A0.25 0.25 0 0 0 19 30.25L19 30.75A0.25 0.25 0 0 0 19.25 31L19.75 31A0.25 0.25 0 0 0 20 30.75L20 30.25A0.25 0.25 0 0 1 20.25 30L20.75 30A0.25 0.25 0 0 0 21 29.75L21 29.25A0.25 0.25 0 0 0 20.75 29L20.25 29A0.25 0.25 0 0 0 20 29.25ZM25 29.25L25 30.75A0.25 0.25 0 0 1 24.75 31L24.25 31A0.25 0.25 0 0 0 24 31.25L24 31.75A0.25 0.25 0 0 0 24.25 32L24.75 32A0.25 0.25 0 0 0 25 31.75L25 31.25A0.25 0.25 0 0 1 25.25 31L25.75 31A0.25 0.25 0 0 0 26 30.75L26 30.25A0.25 0.25 0 0 1 26.25 30L26.75 30A0.25 0.25 0 0 0 27 29.75L27 29.25A0.25 0.25 0 0 0 26.75 29L25.25 29A0.25 0.25 0 0 0 25 29.25ZM16 31.25L16 31.75A0.25 0.25 0 0 0 16.25 32L16.75 32A0.25 0.25 0 0 0 17 31.75L17 31.25A0.25 0.25 0 0 0 16.75 31L16.25 31A0.25 0.25 0 0 0 16 31.25ZM29 31.25L29 31.75A0.25 0.25 0 0 0 29.25 32L29.75 32A0.25 0.25 0 0 0 30 31.75L30 31.25A0.25 0.25 0 0 0 29.75 31L29.25 31A0.25 0.25 0 0 0 29 31.25ZM0 0.25L0 6.75A0.25 0.25 0 0 0 0.25 7L6.75 7A0.25 0.25 0 0 0 7 6.75L7 0.25A0.25 0.25 0 0 0 6.75 0L0.25 0A0.25 0.25 0 0 0 0 0.25ZM1 1.25L1 5.75A0.25 0.25 0 0 0 1.25 6L5.75 6A0.25 0.25 0 0 0 6 5.75L6 1.25A0.25 0.25 0 0 0 5.75 1L1.25 1A0.25 0.25 0 0 0 1 1.25ZM2 2.25L2 4.75A0.25 0.25 0 0 0 2.25 5L4.75 5A0.25 0.25 0 0 0 5 4.75L5 2.25A0.25 0.25 0 0 0 4.75 2L2.25 2A0.25 0.25 0 0 0 2 2.25ZM26 0.25L26 6.75A0.25 0.25 0 0 0 26.25 7L32.75 7A0.25 0.25 0 0 0 33 6.75L33 0.25A0.25 0.25 0 0 0 32.75 0L26.25 0A0.25 0.25 0 0 0 26 0.25ZM27 1.25L27 5.75A0.25 0.25 0 0 0 27.25 6L31.75 6A0.25 0.25 0 0 0 32 5.75L32 1.25A0.25 0.25 0 0 0 31.75 1L27.25 1A0.25 0.25 0 0 0 27 1.25ZM28 2.25L28 4.75A0.25 0.25 0 0 0 28.25 5L30.75 5A0.25 0.25 0 0 0 31 4.75L31 2.25A0.25 0.25 0 0 0 30.75 2L28.25 2A0.25 0.25 0 0 0 28 2.25ZM0 26.25L0 32.75A0.25 0.25 0 0 0 0.25 33L6.75 33A0.25 0.25 0 0 0 7 32.75L7 26.25A0.25 0.25 0 0 0 6.75 26L0.25 26A0.25 0.25 0 0 0 0 26.25ZM1 27.25L1 31.75A0.25 0.25 0 0 0 1.25 32L5.75 32A0.25 0.25 0 0 0 6 31.75L6 27.25A0.25 0.25 0 0 0 5.75 27L1.25 27A0.25 0.25 0 0 0 1 27.25ZM2 28.25L2 30.75A0.25 0.25 0 0 0 2.25 31L4.75 31A0.25 0.25 0 0 0 5 30.75L5 28.25A0.25 0.25 0 0 0 4.75 28L2.25 28A0.25 0.25 0 0 0 2 28.25Z" fill="#000000"/></g></g></svg>
