<?xml version="1.0" encoding="UTF-8"?>
<svg xmlns="http://www.w3.org/2000/svg" version="1.1" width="500" height="500" viewBox="0 0 500 500"><rect x="0" y="0" width="500" height="500" fill="#8a2be2"/><g transform="scale(15.152)"><g transform="translate(0,0)"><path fill-rule="evenodd" d="M8 0.25L8 0.75A0.25 0.25 0 0 0 8.25 1L8.75 1A0.25 0.25 0 0 1 9 1.25L9 1.75A0.25 0.25 0 0 0 9.25 2L9.75 2A0.25 0.25 0 0 1 10 2.25L10 2.75A0.25 0.25 0 0 1 9.75 3L8.25 3A0.25 0.25 0 0 0 8 3.25L8 3.75A0.25 0.25 0 0 0 8.25 4L10.75 4A0.25 0.25 0 0 1 11 4.25L11 4.75A0.25 0.25 0 0 1 10.75 5L9.25 5A0.25 0.25 0 0 0 9 5.25L9 5.75A0.25 0.25 0 0 1 8.75 6L8.25 6A0.25 0.25 0 0 0 8 6.25L8 6.75A0.25 0.25 0 0 0 8.25 7L8.75 7A0.25 0.25 0 0 0 9 6.75L9 6.25A0.25 0.25 0 0 1 9.25 6L9.75 6A0.25 0.25 0 0 1 10 6.25L10 7.75A0.25 0.25 0 0 1 9.75 8L8.25 8A0.25 0.25 0 0 0 8 8.25L8 8.75A0.25 0.25 0 0 1 7.75 9L7.25 9A0.25 0.25 0 0 1 7 8.75L7 8.25A0.25 0.25 0 0 0 6.75 8L4.25 8A0.25 0.25 0 0 0 4 8.25L4 8.75A0.25 0.25 0 0 0 4.25 9L6.75 9A0.25 0.25 0 0 1 7 9.25L7 9.75A0.25 0.25 0 0 1 6.75 10L6.25 10A0.25 0.25 0 0 0 6 10.25L6 10.75A0.25 0.25 0 0 1 5.75 11L5.25 11A0.25 0.25 0 0 1 5 10.75L5 10.25A0.25 0.25 0 0 0 4.75 10L4.25 10A0.25 0.25 0 0 0 4 10.25L4 10.75A0.25 0.25 0 0 1 3.75 11L3.25 11A0.25 0.25 0 0 0 3 11.25L3 11.75A0.25 0.25 0 0 1 2.75 12L2.25 12A0.25 0.25 0 0 0 2 12.25L2 12.75A0.25 0.25 0 0 1 1.75 13L1.25 13A0.25 0.25 0 0 1 1 12.75L1 11.25A0.25 0.25 0 0 1 1.25 11L1.75 11A0.25 0.25 0 0 0 2 10.75L2 9.25A0.25 0.25 0 0 1 2.25 9L2.75 9A0.25 0.25 0 0 0 3 8.75L3 8.25A0.25 0.25 0 0 0 2.75 8L2.25 8A0.25 0.25 0 0 0 2 8.25L2 8.75A0.25 0.25 0 0 1 1.75 9L0.25 9A0.25 0.25 0 0 0 0 9.25L0 12.75A0.25 0.25 0 0 0 0.25 13L0.75 13A0.25 0.25 0 0 1 1 13.25L1 13.75A0.25 0.25 0 0 1 0.75 14L0.25 14A0.25 0.25 0 0 0 0 14.25L0 16.75A0.25 0.25 0 0 0 0.25 17L0.75 17A0.25 0.25 0 0 1 1 17.25L1 17.75A0.25 0.25 0 0 1 0.75 18L0.25 18A0.25 0.25 0 0 0 0 18.25L0 20.75A0.25 0.25 0 0 0 0.25 21L0.75 21A0.25 0.25 0 0 1 1 21.25L1 21.75A0.25 0.25 0 0 1 0.75 22L0.25 22A0.25 0.25 0 0 0 0 22.25L0 22.75A0.25 0.25 0 0 0 0.25 23L0.75 23A0.25 0.25 0 0 1 1 23.25L1 23.75A0.25 0.25 0 0 1 0.75 24L0.25 24A0.25 0.25 0 0 0 0 24.25L0 24.75A0.25 0.25 0 0 0 0.25 25L0.75 25A0.25 0.25 0 0 0 1 24.75L1 24.25A0.25 0.25 0 0 1 1.25 24L1.75 24A0.25 0.25 0 0 1 2 24.25L2 24.75A0.25 0.25 0 0 0 2.25 25L2.75 25A0.25 0.25 0 0 0 3 24.75L3 24.25A0.25 0.25 0 0 1 3.25 24L3.75 24A0.25 0.25 0 0 1 4 24.25L4 24.75A0.25 0.25 0 0 0 4.25 25L4.75 25A0.25 0.25 0 0 0 5 24.75L5 22.25A0.25 0.25 0 0 1 5.25 22L5.75 22A0.25 0.25 0 0 1 6 22.25L6 22.75A0.25 0.25 0 0 0 6.25 23L6.75 23A0.25 0.25 0 0 1 7 23.25L7 23.75A0.25 0.25 0 0 1 6.75 24L6.25 24A0.25 0.25 0 0 0 6 24.25L6 24.75A0.25 0.25 0 0 0 6.25 25L6.75 25A0.25 0.25 0 0 0 7 24.75L7 24.25A0.25 0.25 0 0 1 7.25 24L7.75 24A0.25 0.25 0 0 1 8 24.25L8 25.75A0.25 0.25 0 0 0 8.25 26L8.75 26A0.25 0.25 0 0 1 9 26.25L9 26.75A0.25 0.25 0 0 1 8.75 27L8.25 27A0.25 0.25 0 0 0 8 27.25L8 28.75A0.25 0.25 0 0 0 8.25 29L8.75 29A0.25 0.25 0 0 0 9 28.75L9 27.25A0.25 0.25 0 0 1 9.25 27L9.75 27A0.25 0.25 0 0 1 10 27.25L10 27.75A0.25 0.25 0 0 0 10.25 28L10.75 28A0.25 0.25 0 0 0 11 27.75L11 27.25A0.25 0.25 0 0 1 11.25 27L11.75 27A0.25 0.25 0 0 1 12 27.25L12 27.75A0.25 0.25 0 0 0 12.25 28L12.75 28A0.25 0.25 0 0 1 13 28.25L13 29.75A0.25 0.25 0 0 0 13.25 30L13.75 30A0.25 0.25 0 0 1 14 30.25L14 30.75A0.25 0.25 0 0 0 14.25 31L14.75 31A0.25 0.25 0 0 0 15 30.75L15 29.25A0.25 0.25 0 0 1 15.25 29L15.75 29A0.25 0.25 0 0 1 16 29.25L16 30.75A0.25 0.25 0 0 0 16.25 31L16.75 31A0.25 0.25 0 0 1 17 31.25L17 31.75A0.25 0.25 0 0 1 16.75 32L14.25 32A0.25 0.25 0 0 0 14 32.25L14 32.75A0.25 0.25 0 0 0 14.25 33L16.75 33A0.25 0.25 0 0 0 17 32.75L17 32.25A0.25 0.25 0 0 1 17.25 32L19.75 32A0.25 0.25 0 0 1 20 32.25L20 32.75A0.25 0.25 0 0 0 20.25 33L22.75 33A0.25 0.25 0 0 0 23 32.75L23 31.25A0.25 0.25 0 0 0 22.75 31L21.25 31A0.25 0.25 0 0 0 21 31.25L21 31.75A0.25 0.25 0 0 1 20.75 32L20.25 32A0.25 0.25 0 0 1 20 31.75L20 31.25A0.25 0.25 0 0 0 19.75 31L19.25 31A0.25 0.25 0 0 1 19 30.75L19 30.25A0.25 0.25 0 0 1 19.25 30L23.75 30A0.25 0.25 0 0 1 24 30.25L24 32.75A0.25 0.25 0 0 0 24.25 33L24.75 33A0.25 0.25 0 0 0 25 32.75L25 32.25A0.25 0.25 0 0 1 25.25 32L25.75 32A0.25 0.25 0 0 1 26 32.25L26 32.75A0.25 0.25 0 0 0 26.25 33L27.75 33A0.25 0.25 0 0 0 28 32.75L28 32.25A0.25 0.25 0 0 1 28.25 32L28.75 32A0.25 0.25 0 0 1 29 32.25L29 32.75A0.25 0.25 0 0 0 29.25 33L32.75 33A0.25 0.25 0 0 0 33 32.75L33 32.25A0.25 0.25 0 0 0 32.75 32L32.25 32A0.25 0.25 0 0 1 32 31.75L32 31.25A0.25 0.25 0 0 1 32.25 31L32.75 31A0.25 0.25 0 0 0 33 30.75L33 30.25A0.25 0.25 0 0 0 32.75 30L32.25 30A0.25 0.25 0 0 0 32 30.25L32 30.75A0.25 0.25 0 0 1 31.75 31L31.25 31A0.25 0.25 0 0 1 31 30.75L31 30.25A0.25 0.25 0 0 0 30.75 30L30.25 30A0.25 0.25 0 0 1 30 29.75L30 27.25A0.25 0.25 0 0 1 30.25 27L32.75 27A0.25 0.25 0 0 0 33 26.75L33 25.25A0.25 0.25 0 0 0 32.75 25L32.25 25A0.25 0.25 0 0 0 32 25.25L32 25.75A0.25 0.25 0 0 1 31.75 26L31.25 26A0.25 0.25 0 0 1 31 25.75L31 24.25A0.25 0.25 0 0 0 30.75 24L27.25 24A0.25 0.25 0 0 1 27 23.75L27 23.25A0.25 0.25 0 0 1 27.25 23L27.75 23A0.25 0.25 0 0 0 28 22.75L28 19.25A0.25 0.25 0 0 1 28.25 19L28.75 19A0.25 0.25 0 0 0 29 18.75L29 18.25A0.25 0.25 0 0 1 29.25 18L31.75 18A0.25 0.25 0 0 1 32 18.25L32 18.75A0.25 0.25 0 0 0 32.25 19L32.75 19A0.25 0.25 0 0 0 33 18.75L33 18.25A0.25 0.25 0 0 0 32.75 18L32.25 18A0.25 0.25 0 0 1 32 17.75L32 17.25A0.25 0.25 0 0 0 31.75 17L31.25 17A0.25 0.25 0 0 1 31 16.75L31 16.25A0.25 0.25 0 0 1 31.25 16L32.75 16A0.25 0.25 0 0 0 33 15.75L33 14.25A0.25 0.25 0 0 0 32.75 14L32.25 14A0.25 0.25 0 0 1 32 13.75L32 11.25A0.25 0.25 0 0 1 32.25 11L32.75 11A0.25 0.25 0 0 0 33 10.75L33 8.25A0.25 0.25 0 0 0 32.75 8L32.25 8A0.25 0.25 0 0 0 32 8.25L32 10.75A0.25 0.25 0 0 1 31.75 11L31.25 11A0.25 0.25 0 0 1 31 10.75L31 9.25A0.25 0.25 0 0 0 30.75 9L30.25 9A0.25 0.25 0 0 1 30 8.75L30 8.25A0.25 0.25 0 0 0 29.75 8L29.25 8A0.25 0.25 0 0 0 29 8.25L29 9.75A0.25 0.25 0 0 1 28.75 10L28.25 10A0.25 0.25 0 0 0 28 10.25L28 10.75A0.25 0.25 0 0 1 27.75 11L27.25 11A0.25 0.25 0 0 0 27 11.25L27 11.75A0.25 0.25 0 0 1 26.75 12L26.25 12A0.25 0.25 0 0 1 26 11.75L26 11.25A0.25 0.25 0 0 0 25.75 11L23.25 11A0.25 0.25 0 0 0 23 11.25L23 11.75A0.25 0.25 0 0 0 23.25 12L25.75 12A0.25 0.25 0 0 1 26 12.25L26 13.75A0.25 0.25 0 0 1 25.75 14L24.25 14A0.25 0.25 0 0 0 24 14.25L24 14.75A0.25 0.25 0 0 1 23.75 15L22.25 15A0.25 0.25 0 0 1 22 14.75L22 14.25A0.25 0.25 0 0 0 21.75 14L18.25 14A0.25 0.25 0 0 1 18 13.75L18 12.25A0.25 0.25 0 0 1 18.25 12L18.75 12A0.25 0.25 0 0 0 19 11.75L19 11.25A0.25 0.25 0 0 1 19.25 11L19.75 11A0.25 0.25 0 0 0 20 10.75L20 8.25A0.25 0.25 0 0 1 20.25 8L20.75 8A0.25 0.25 0 0 1 21 8.25L21 8.75A0.25 0.25 0 0 0 21.25 9L21.75 9A0.25 0.25 0 0 1 22 9.25L22 9.75A0.25 0.25 0 0 1 21.75 10L21.25 10A0.25 0.25 0 0 0 21 10.25L21 10.75A0.25 0.25 0 0 0 21.25 11L21.75 11A0.25 0.25 0 0 0 22 10.75L22 10.25A0.25 0.25 0 0 1 22.25 10L22.75 10A0.25 0.25 0 0 0 23 9.75L23 8.25A0.25 0.25 0 0 1 23.25 8L23.75 8A0.25 0.25 0 0 0 24 7.75L24 7.25A0.25 0.25 0 0 1 24.25 7L24.75 7A0.25 0.25 0 0 0 25 6.75L25 3.25A0.25 0.25 0 0 0 24.75 3L23.25 3A0.25 0.25 0 0 1 23 2.75L23 2.25A0.25 0.25 0 0 1 23.25 2L23.75 2A0.25 0.25 0 0 0 24 1.75L24 0.25A0.25 0.25 0 0 0 23.75 0L22.25 0A0.25 0.25 0 0 0 22 0.25L22 0.75A0.25 0.25 0 0 0 22.25 1L22.75 1A0.25 0.25 0 0 1 23 1.25L23 1.75A0.25 0.25 0 0 1 22.75 2L22.25 2A0.25 0.25 0 0 0 22 2.25L22 2.75A0.25 0.25 0 0 0 22.25 3L22.75 3A0.25 0.25 0 0 1 23 3.25L23 3.75A0.25 0.25 0 0 0 23.25 4L23.75 4A0.25 0.25 0 0 1 24 4.25L24 4.75A0.25 0.25 0 0 1 23.75 5L21.25 5A0.25 0.25 0 0 1 21 4.75L21 3.25A0.25 0.25 0 0 0 20.75 3L20.25 3A0.25 0.25 0 0 1 20 2.75L20 1.25A0.25 0.25 0 0 1 20.25 1L20.75 1A0.25 0.25 0 0 0 21 0.75L21 0.25A0.25 0.25 0 0 0 20.75 0L20.25 0A0.25 0.25 0 0 0 20 0.25L20 0.75A0.25 0.25 0 0 1 19.75 1L19.25 1A0.25 0.25 0 0 1 19 0.75L19 0.25A0.25 0.25 0 0 0 18.75 0L18.25 0A0.25 0.25 0 0 0 18 0.25L18 0.75A0.25 0.25 0 0 0 18.25 1L18.75 1A0.25 0.25 0 0 1 19 1.25L19 2.75A0.25 0.25 0 0 1 18.75 3L18.25 3A0.25 0.25 0 0 0 18 3.25L18 3.75A0.25 0.25 0 0 0 18.25 4L19.75 4A0.25 0.25 0 0 1 20 4.25L20 4.75A0.25 0.25 0 0 1 19.75 5L18.25 5A0.25 0.25 0 0 0 18 5.25L18 6.75A0.25 0.25 0 0 1 17.75 7L17.25 7A0.25 0.25 0 0 1 17 6.75L17 6.25A0.25 0.25 0 0 0 16.75 6L16.25 6A0.25 0.25 0 0 0 16 6.25L16 7.75A0.25 0.25 0 0 0 16.25 8L17.75 8A0.25 0.25 0 0 0 18 7.75L18 7.25A0.25 0.25 0 0 1 18.25 7L18.75 7A0.25 0.25 0 0 0 19 6.75L19 6.25A0.25 0.25 0 0 1 19.25 6L19.75 6A0.25 0.25 0 0 1 20 6.25L20 7.75A0.25 0.25 0 0 1 19.75 8L19.25 8A0.25 0.25 0 0 0 19 8.25L19 9.75A0.25 0.25 0 0 1 18.75 10L18.25 10A0.25 0.25 0 0 1 18 9.75L18 9.25A0.25 0.25 0 0 0 17.75 9L17.25 9A0.25 0.25 0 0 0 17 9.25L17 9.75A0.25 0.25 0 0 1 16.75 10L16.25 10A0.25 0.25 0 0 0 16 10.25L16 12.75A0.25 0.25 0 0 1 15.75 13L15.25 13A0.25 0.25 0 0 1 15 12.75L15 11.25A0.25 0.25 0 0 0 14.75 11L12.25 11A0.25 0.25 0 0 0 12 11.25L12 12.75A0.25 0.25 0 0 0 12.25 13L13.75 13A0.25 0.25 0 0 1 14 13.25L14 14.75A0.25 0.25 0 0 1 13.75 15L13.25 15A0.25 0.25 0 0 0 13 15.25L13 15.75A0.25 0.25 0 0 0 13.25 16L13.75 16A0.25 0.25 0 0 1 14 16.25L14 17.75A0.25 0.25 0 0 1 13.75 18L13.25 18A0.25 0.25 0 0 0 13 18.25L13 18.75A0.25 0.25 0 0 1 12.75 19L12.25 19A0.25 0.25 0 0 1 12 18.75L12 17.25A0.25 0.25 0 0 0 11.75 17L11.25 17A0.25 0.25 0 0 0 11 17.25L11 18.75A0.25 0.25 0 0 1 10.75 19L8.25 19A0.25 0.25 0 0 1 8 18.75L8 18.25A0.25 0.25 0 0 1 8.25 18L9.75 18A0.25 0.25 0 0 0 10 17.75L10 17.25A0.25 0.25 0 0 0 9.75 17L8.25 17A0.25 0.25 0 0 0 8 17.25L8 17.75A0.25 0.25 0 0 1 7.75 18L6.25 18A0.25 0.25 0 0 1 6 17.75L6 17.25A0.25 0.25 0 0 1 6.25 17L6.75 17A0.25 0.25 0 0 0 7 16.75L7 16.25A0.25 0.25 0 0 0 6.75 16L6.25 16A0.25 0.25 0 0 1 6 15.75L6 15.25A0.25 0.25 0 0 1 6.25 15L6.75 15A0.25 0.25 0 0 0 7 14.75L7 14.25A0.25 0.25 0 0 1 7.25 14L7.75 14A0.25 0.25 0 0 0 8 13.75L8 13.25A0.25 0.25 0 0 1 8.25 13L8.75 13A0.25 0.25 0 0 1 9 13.25L9 13.75A0.25 0.25 0 0 0 9.25 14L9.75 14A0.25 0.25 0 0 1 10 14.25L10 14.75A0.25 0.25 0 0 1 9.75 15L9.25 15A0.25 0.25 0 0 0 9 15.25L9 15.75A0.25 0.25 0 0 0 9.25 16L9.75 16A0.25 0.25 0 0 0 10 15.75L10 15.25A0.25 0.25 0 0 1 10.25 15L10.75 15A0.25 0.25 0 0 1 11 15.25L11 15.75A0.25 0.25 0 0 0 11.25 16L11.75 16A0.25 0.25 0 0 0 12 15.75L12 14.25A0.25 0.25 0 0 0 11.75 14L10.25 14A0.25 0.25 0 0 1 10 13.75L10 12.25A0.25 0.25 0 0 1 10.25 12L10.75 12A0.25 0.25 0 0 0 11 11.75L11 11.25A0.25 0.25 0 0 0 10.75 11L10.25 11A0.25 0.25 0 0 1 10 10.75L10 10.25A0.25 0.25 0 0 1 10.25 10L10.75 10A0.25 0.25 0 0 0 11 9.75L11 9.25A0.25 0.25 0 0 1 11.25 9L11.75 9A0.25 0.25 0 0 1 12 9.25L12 9.75A0.25 0.25 0 0 0 12.25 10L12.75 10A0.25 0.25 0 0 0 13 9.75L13 9.25A0.25 0.25 0 0 1 13.25 9L13.75 9A0.25 0.25 0 0 1 14 9.25L14 9.75A0.25 0.25 0 0 0 14.25 10L14.75 10A0.25 0.25 0 0 0 15 9.75L15 6.25A0.25 0.25 0 0 0 14.75 6L14.25 6A0.25 0.25 0 0 0 14 6.25L14 7.75A0.25 0.25 0 0 1 13.75 8L13.25 8A0.25 0.25 0 0 1 13 7.75L13 6.25A0.25 0.25 0 0 0 12.75 6L12.25 6A0.25 0.25 0 0 0 12 6.25L12 7.75A0.25 0.25 0 0 1 11.75 8L11.25 8A0.25 0.25 0 0 1 11 7.75L11 5.25A0.25 0.25 0 0 1 11.25 5L12.75 5A0.25 0.25 0 0 0 13 4.75L13 3.25A0.25 0.25 0 0 1 13.25 3L13.75 3A0.25 0.25 0 0 1 14 3.25L14 4.75A0.25 0.25 0 0 0 14.25 5L16.75 5A0.25 0.25 0 0 0 17 4.75L17 4.25A0.25 0.25 0 0 0 16.75 4L16.25 4A0.25 0.25 0 0 1 16 3.75L16 3.25A0.25 0.25 0 0 0 15.75 3L14.25 3A0.25 0.25 0 0 1 14 2.75L14 1.25A0.25 0.25 0 0 0 13.75 1L12.25 1A0.25 0.25 0 0 1 12 0.75L12 0.25A0.25 0.25 0 0 0 11.75 0L8.25 0A0.25 0.25 0 0 0 8 0.25ZM16 0.25L16 1.75A0.25 0.25 0 0 0 16.25 2L16.75 2A0.25 0.25 0 0 0 17 1.75L17 0.25A0.25 0.25 0 0 0 16.75 0L16.25 0A0.25 0.25 0 0 0 16 0.25ZM11 2.25L11 2.75A0.25 0.25 0 0 0 11.25 3L12.75 3A0.25 0.25 0 0 0 13 2.75L13 2.25A0.25 0.25 0 0 0 12.75 2L11.25 2A0.25 0.25 0 0 0 11 2.25ZM20 5.25L20 5.75A0.25 0.25 0 0 0 20.25 6L20.75 6A0.25 0.25 0 0 1 21 6.25L21 6.75A0.25 0.25 0 0 0 21.25 7L21.75 7A0.25 0.25 0 0 1 22 7.25L22 7.75A0.25 0.25 0 0 0 22.25 8L22.75 8A0.25 0.25 0 0 0 23 7.75L23 7.25A0.25 0.25 0 0 1 23.25 7L23.75 7A0.25 0.25 0 0 0 24 6.75L24 6.25A0.25 0.25 0 0 0 23.75 6L23.25 6A0.25 0.25 0 0 0 23 6.25L23 6.75A0.25 0.25 0 0 1 22.75 7L22.25 7A0.25 0.25 0 0 1 22 6.75L22 6.25A0.25 0.25 0 0 0 21.75 6L21.25 6A0.25 0.25 0 0 1 21 5.75L21 5.25A0.25 0.25 0 0 0 20.75 5L20.25 5A0.25 0.25 0 0 0 20 5.25ZM25 8.25L25 9.75A0.25 0.25 0 0 0 25.25 10L26.75 10A0.25 0.25 0 0 0 27 9.75L27 9.25A0.25 0.25 0 0 0 26.75 9L26.25 9A0.25 0.25 0 0 1 26 8.75L26 8.25A0.25 0.25 0 0 0 25.75 8L25.25 8A0.25 0.25 0 0 0 25 8.25ZM8 9.25L8 9.75A0.25 0.25 0 0 1 7.75 10L7.25 10A0.25 0.25 0 0 0 7 10.25L7 10.75A0.25 0.25 0 0 1 6.75 11L6.25 11A0.25 0.25 0 0 0 6 11.25L6 11.75A0.25 0.25 0 0 1 5.75 12L4.25 12A0.25 0.25 0 0 0 4 12.25L4 12.75A0.25 0.25 0 0 1 3.75 13L3.25 13A0.25 0.25 0 0 0 3 13.25L3 13.75A0.25 0.25 0 0 0 3.25 14L4.75 14A0.25 0.25 0 0 0 5 13.75L5 13.25A0.25 0.25 0 0 1 5.25 13L5.75 13A0.25 0.25 0 0 1 6 13.25L6 13.75A0.25 0.25 0 0 0 6.25 14L6.75 14A0.25 0.25 0 0 0 7 13.75L7 13.25A0.25 0.25 0 0 1 7.25 13L7.75 13A0.25 0.25 0 0 0 8 12.75L8 12.25A0.25 0.25 0 0 0 7.75 12L7.25 12A0.25 0.25 0 0 1 7 11.75L7 11.25A0.25 0.25 0 0 1 7.25 11L8.75 11A0.25 0.25 0 0 1 9 11.25L9 11.75A0.25 0.25 0 0 0 9.25 12L9.75 12A0.25 0.25 0 0 0 10 11.75L10 11.25A0.25 0.25 0 0 0 9.75 11L9.25 11A0.25 0.25 0 0 1 9 10.75L9 10.25A0.25 0.25 0 0 1 9.25 10L9.75 10A0.25 0.25 0 0 0 10 9.75L10 9.25A0.25 0.25 0 0 0 9.75 9L8.25 9A0.25 0.25 0 0 0 8 9.25ZM17 10.25L17 10.75A0.25 0.25 0 0 0 17.25 11L17.75 11A0.25 0.25 0 0 0 18 10.75L18 10.25A0.25 0.25 0 0 0 17.75 10L17.25 10A0.25 0.25 0 0 0 17 10.25ZM29 10.25L29 13.75A0.25 0.25 0 0 1 28.75 14L28.25 14A0.25 0.25 0 0 1 28 13.75L28 12.25A0.25 0.25 0 0 0 27.75 12L27.25 12A0.25 0.25 0 0 0 27 12.25L27 14.75A0.25 0.25 0 0 1 26.75 15L26.25 15A0.25 0.25 0 0 0 26 15.25L26 15.75A0.25 0.25 0 0 1 25.75 16L25.25 16A0.25 0.25 0 0 0 25 16.25L25 18.75A0.25 0.25 0 0 1 24.75 19L24.25 19A0.25 0.25 0 0 1 24 18.75L24 18.25A0.25 0.25 0 0 0 23.75 18L23.25 18A0.25 0.25 0 0 1 23 17.75L23 17.25A0.25 0.25 0 0 1 23.25 17L23.75 17A0.25 0.25 0 0 0 24 16.75L24 16.25A0.25 0.25 0 0 0 23.75 16L22.25 16A0.25 0.25 0 0 0 22 16.25L22 17.75A0.25 0.25 0 0 1 21.75 18L21.25 18A0.25 0.25 0 0 0 21 18.25L21 18.75A0.25 0.25 0 0 0 21.25 19L21.75 19A0.25 0.25 0 0 1 22 19.25L22 19.75A0.25 0.25 0 0 0 22.25 20L22.75 20A0.25 0.25 0 0 1 23 20.25L23 20.75A0.25 0.25 0 0 0 23.25 21L23.75 21A0.25 0.25 0 0 0 24 20.75L24 20.25A0.25 0.25 0 0 1 24.25 20L24.75 20A0.25 0.25 0 0 1 25 20.25L25 21.75A0.25 0.25 0 0 0 25.25 22L25.75 22A0.25 0.25 0 0 1 26 22.25L26 22.75A0.25 0.25 0 0 0 26.25 23L26.75 23A0.25 0.25 0 0 0 27 22.75L27 21.25A0.25 0.25 0 0 0 26.75 21L26.25 21A0.25 0.25 0 0 1 26 20.75L26 20.25A0.25 0.25 0 0 1 26.25 20L26.75 20A0.25 0.25 0 0 0 27 19.75L27 19.25A0.25 0.25 0 0 1 27.25 19L27.75 19A0.25 0.25 0 0 0 28 18.75L28 18.25A0.25 0.25 0 0 1 28.25 18L28.75 18A0.25 0.25 0 0 0 29 17.75L29 17.25A0.25 0.25 0 0 1 29.25 17L29.75 17A0.25 0.25 0 0 0 30 16.75L30 15.25A0.25 0.25 0 0 1 30.25 15L30.75 15A0.25 0.25 0 0 0 31 14.75L31 14.25A0.25 0.25 0 0 0 30.75 14L30.25 14A0.25 0.25 0 0 1 30 13.75L30 12.25A0.25 0.25 0 0 1 30.25 12L30.75 12A0.25 0.25 0 0 0 31 11.75L31 11.25A0.25 0.25 0 0 0 30.75 11L30.25 11A0.25 0.25 0 0 1 30 10.75L30 10.25A0.25 0.25 0 0 0 29.75 10L29.25 10A0.25 0.25 0 0 0 29 10.25ZM6 12.25L6 12.75A0.25 0.25 0 0 0 6.25 13L6.75 13A0.25 0.25 0 0 0 7 12.75L7 12.25A0.25 0.25 0 0 0 6.75 12L6.25 12A0.25 0.25 0 0 0 6 12.25ZM16 13.25L16 13.75A0.25 0.25 0 0 0 16.25 14L16.75 14A0.25 0.25 0 0 1 17 14.25L17 14.75A0.25 0.25 0 0 1 16.75 15L14.25 15A0.25 0.25 0 0 0 14 15.25L14 15.75A0.25 0.25 0 0 0 14.25 16L15.75 16A0.25 0.25 0 0 1 16 16.25L16 18.75A0.25 0.25 0 0 0 16.25 19L17.75 19A0.25 0.25 0 0 1 18 19.25L18 19.75A0.25 0.25 0 0 1 17.75 20L17.25 20A0.25 0.25 0 0 0 17 20.25L17 22.75A0.25 0.25 0 0 1 16.75 23L16.25 23A0.25 0.25 0 0 0 16 23.25L16 23.75A0.25 0.25 0 0 0 16.25 24L16.75 24A0.25 0.25 0 0 1 17 24.25L17 24.75A0.25 0.25 0 0 1 16.75 25L15.25 25A0.25 0.25 0 0 1 15 24.75L15 24.25A0.25 0.25 0 0 0 14.75 24L14.25 24A0.25 0.25 0 0 1 14 23.75L14 23.25A0.25 0.25 0 0 1 14.25 23L14.75 23A0.25 0.25 0 0 0 15 22.75L15 21.25A0.25 0.25 0 0 1 15.25 21L15.75 21A0.25 0.25 0 0 0 16 20.75L16 20.25A0.25 0.25 0 0 0 15.75 20L15.25 20A0.25 0.25 0 0 1 15 19.75L15 18.25A0.25 0.25 0 0 0 14.75 18L14.25 18A0.25 0.25 0 0 0 14 18.25L14 18.75A0.25 0.25 0 0 1 13.75 19L13.25 19A0.25 0.25 0 0 0 13 19.25L13 20.75A0.25 0.25 0 0 1 12.75 21L12.25 21A0.25 0.25 0 0 1 12 20.75L12 19.25A0.25 0.25 0 0 0 11.75 19L11.25 19A0.25 0.25 0 0 0 11 19.25L11 19.75A0.25 0.25 0 0 1 10.75 20L7.25 20A0.25 0.25 0 0 1 7 19.75L7 19.25A0.25 0.25 0 0 0 6.75 19L6.25 19A0.25 0.25 0 0 1 6 18.75L6 18.25A0.25 0.25 0 0 0 5.75 18L4.25 18A0.25 0.25 0 0 1 4 17.75L4 17.25A0.25 0.25 0 0 1 4.25 17L5.75 17A0.25 0.25 0 0 0 6 16.75L6 16.25A0.25 0.25 0 0 0 5.75 16L5.25 16A0.25 0.25 0 0 1 5 15.75L5 15.25A0.25 0.25 0 0 0 4.75 15L4.25 15A0.25 0.25 0 0 0 4 15.25L4 15.75A0.25 0.25 0 0 1 3.75 16L3.25 16A0.25 0.25 0 0 0 3 16.25L3 16.75A0.25 0.25 0 0 1 2.75 17L2.25 17A0.25 0.25 0 0 1 2 16.75L2 14.25A0.25 0.25 0 0 0 1.75 14L1.25 14A0.25 0.25 0 0 0 1 14.25L1 16.75A0.25 0.25 0 0 0 1.25 17L1.75 17A0.25 0.25 0 0 1 2 17.25L2 18.75A0.25 0.25 0 0 1 1.75 19L1.25 19A0.25 0.25 0 0 0 1 19.25L1 20.75A0.25 0.25 0 0 0 1.25 21L2.75 21A0.25 0.25 0 0 0 3 20.75L3 20.25A0.25 0.25 0 0 0 2.75 20L2.25 20A0.25 0.25 0 0 1 2 19.75L2 19.25A0.25 0.25 0 0 1 2.25 19L5.75 19A0.25 0.25 0 0 1 6 19.25L6 19.75A0.25 0.25 0 0 1 5.75 20L5.25 20A0.25 0.25 0 0 0 5 20.25L5 20.75A0.25 0.25 0 0 1 4.75 21L4.25 21A0.25 0.25 0 0 0 4 21.25L4 21.75A0.25 0.25 0 0 1 3.75 22L3.25 22A0.25 0.25 0 0 0 3 22.25L3 22.75A0.25 0.25 0 0 0 3.25 23L3.75 23A0.25 0.25 0 0 0 4 22.75L4 22.25A0.25 0.25 0 0 1 4.25 22L4.75 22A0.25 0.25 0 0 0 5 21.75L5 21.25A0.25 0.25 0 0 1 5.25 21L5.75 21A0.25 0.25 0 0 1 6 21.25L6 21.75A0.25 0.25 0 0 0 6.25 22L6.75 22A0.25 0.25 0 0 1 7 22.25L7 22.75A0.25 0.25 0 0 0 7.25 23L7.75 23A0.25 0.25 0 0 1 8 23.25L8 23.75A0.25 0.25 0 0 0 8.25 24L8.75 24A0.25 0.25 0 0 0 9 23.75L9 21.25A0.25 0.25 0 0 1 9.25 21L10.75 21A0.25 0.25 0 0 1 11 21.25L11 22.75A0.25 0.25 0 0 0 11.25 23L11.75 23A0.25 0.25 0 0 1 12 23.25L12 26.75A0.25 0.25 0 0 0 12.25 27L12.75 27A0.25 0.25 0 0 0 13 26.75L13 25.25A0.25 0.25 0 0 1 13.25 25L13.75 25A0.25 0.25 0 0 1 14 25.25L14 27.75A0.25 0.25 0 0 0 14.25 28L14.75 28A0.25 0.25 0 0 0 15 27.75L15 27.25A0.25 0.25 0 0 1 15.25 27L16.75 27A0.25 0.25 0 0 1 17 27.25L17 27.75A0.25 0.25 0 0 0 17.25 28L17.75 28A0.25 0.25 0 0 1 18 28.25L18 28.75A0.25 0.25 0 0 0 18.25 29L21.75 29A0.25 0.25 0 0 0 22 28.75L22 28.25A0.25 0.25 0 0 0 21.75 28L20.25 28A0.25 0.25 0 0 1 20 27.75L20 27.25A0.25 0.25 0 0 1 20.25 27L21.75 27A0.25 0.25 0 0 0 22 26.75L22 26.25A0.25 0.25 0 0 1 22.25 26L23.75 26A0.25 0.25 0 0 0 24 25.75L24 25.25A0.25 0.25 0 0 0 23.75 25L23.25 25A0.25 0.25 0 0 1 23 24.75L23 24.25A0.25 0.25 0 0 1 23.25 24L23.75 24A0.25 0.25 0 0 0 24 23.75L24 23.25A0.25 0.25 0 0 0 23.75 23L22.25 23A0.25 0.25 0 0 1 22 22.75L22 22.25A0.25 0.25 0 0 0 21.75 22L21.25 22A0.25 0.25 0 0 1 21 21.75L21 20.25A0.25 0.25 0 0 0 20.75 20L19.25 20A0.25 0.25 0 0 1 19 19.75L19 19.25A0.25 0.25 0 0 0 18.75 19L18.25 19A0.25 0.25 0 0 1 18 18.75L18 17.25A0.25 0.25 0 0 1 18.25 17L19.75 17A0.25 0.25 0 0 0 20 16.75L20 16.25A0.25 0.25 0 0 0 19.75 16L18.25 16A0.25 0.25 0 0 1 18 15.75L18 14.25A0.25 0.25 0 0 0 17.75 14L17.25 14A0.25 0.25 0 0 1 17 13.75L17 13.25A0.25 0.25 0 0 0 16.75 13L16.25 13A0.25 0.25 0 0 0 16 13.25ZM28 15.25L28 15.75A0.25 0.25 0 0 1 27.75 16L26.25 16A0.25 0.25 0 0 0 26 16.25L26 18.75A0.25 0.25 0 0 0 26.25 19L26.75 19A0.25 0.25 0 0 0 27 18.75L27 18.25A0.25 0.25 0 0 1 27.25 18L27.75 18A0.25 0.25 0 0 0 28 17.75L28 16.25A0.25 0.25 0 0 1 28.25 16L28.75 16A0.25 0.25 0 0 0 29 15.75L29 15.25A0.25 0.25 0 0 0 28.75 15L28.25 15A0.25 0.25 0 0 0 28 15.25ZM17 16.25L17 16.75A0.25 0.25 0 0 0 17.25 17L17.75 17A0.25 0.25 0 0 0 18 16.75L18 16.25A0.25 0.25 0 0 0 17.75 16L17.25 16A0.25 0.25 0 0 0 17 16.25ZM22 18.25L22 18.75A0.25 0.25 0 0 0 22.25 19L22.75 19A0.25 0.25 0 0 1 23 19.25L23 19.75A0.25 0.25 0 0 0 23.25 20L23.75 20A0.25 0.25 0 0 0 24 19.75L24 19.25A0.25 0.25 0 0 0 23.75 19L23.25 19A0.25 0.25 0 0 1 23 18.75L23 18.25A0.25 0.25 0 0 0 22.75 18L22.25 18A0.25 0.25 0 0 0 22 18.25ZM6 20.25L6 20.75A0.25 0.25 0 0 0 6.25 21L6.75 21A0.25 0.25 0 0 1 7 21.25L7 21.75A0.25 0.25 0 0 0 7.25 22L7.75 22A0.25 0.25 0 0 0 8 21.75L8 21.25A0.25 0.25 0 0 0 7.75 21L7.25 21A0.25 0.25 0 0 1 7 20.75L7 20.25A0.25 0.25 0 0 0 6.75 20L6.25 20A0.25 0.25 0 0 0 6 20.25ZM32 20.25L32 20.75A0.25 0.25 0 0 0 32.25 21L32.75 21A0.25 0.25 0 0 0 33 20.75L33 20.25A0.25 0.25 0 0 0 32.75 20L32.25 20A0.25 0.25 0 0 0 32 20.25ZM13 21.25L13 21.75A0.25 0.25 0 0 1 12.75 22L12.25 22A0.25 0.25 0 0 0 12 22.25L12 22.75A0.25 0.25 0 0 0 12.25 23L12.75 23A0.25 0.25 0 0 0 13 22.75L13 22.25A0.25 0.25 0 0 1 13.25 22L13.75 22A0.25 0.25 0 0 0 14 21.75L14 21.25A0.25 0.25 0 0 0 13.75 21L13.25 21A0.25 0.25 0 0 0 13 21.25ZM18 21.25L18 22.75A0.25 0.25 0 0 1 17.75 23L17.25 23A0.25 0.25 0 0 0 17 23.25L17 23.75A0.25 0.25 0 0 0 17.25 24L17.75 24A0.25 0.25 0 0 1 18 24.25L18 24.75A0.25 0.25 0 0 1 17.75 25L17.25 25A0.25 0.25 0 0 0 17 25.25L17 26.75A0.25 0.25 0 0 0 17.25 27L18.75 27A0.25 0.25 0 0 0 19 26.75L19 26.25A0.25 0.25 0 0 1 19.25 26L19.75 26A0.25 0.25 0 0 0 20 25.75L20 25.25A0.25 0.25 0 0 0 19.75 25L19.25 25A0.25 0.25 0 0 1 19 24.75L19 24.25A0.25 0.25 0 0 1 19.25 24L19.75 24A0.25 0.25 0 0 0 20 23.75L20 23.25A0.25 0.25 0 0 1 20.25 23L20.75 23A0.25 0.25 0 0 1 21 23.25L21 23.75A0.25 0.25 0 0 0 21.25 24L21.75 24A0.25 0.25 0 0 0 22 23.75L22 23.25A0.25 0.25 0 0 0 21.75 23L21.25 23A0.25 0.25 0 0 1 21 22.75L21 22.25A0.25 0.25 0 0 0 20.75 22L20.25 22A0.25 0.25 0 0 0 20 22.25L20 22.75A0.25 0.25 0 0 1 19.75 23L19.25 23A0.25 0.25 0 0 1 19 22.75L19 21.25A0.25 0.25 0 0 0 18.75 21L18.25 21A0.25 0.25 0 0 0 18 21.25ZM29 21.25L29 21.75A0.25 0.25 0 0 0 29.25 22L29.75 22A0.25 0.25 0 0 0 30 21.75L30 21.25A0.25 0.25 0 0 0 29.75 21L29.25 21A0.25 0.25 0 0 0 29 21.25ZM1 22.25L1 22.75A0.25 0.25 0 0 0 1.25 23L1.75 23A0.25 0.25 0 0 0 2 22.75L2 22.25A0.25 0.25 0 0 0 1.75 22L1.25 22A0.25 0.25 0 0 0 1 22.25ZM31 22.25L31 22.75A0.25 0.25 0 0 0 31.25 23L32.75 23A0.25 0.25 0 0 0 33 22.75L33 22.25A0.25 0.25 0 0 0 32.75 22L31.25 22A0.25 0.25 0 0 0 31 22.25ZM9 25.25L9 25.75A0.25 0.25 0 0 0 9.25 26L9.75 26A0.25 0.25 0 0 1 10 26.25L10 26.75A0.25 0.25 0 0 0 10.25 27L10.75 27A0.25 0.25 0 0 0 11 26.75L11 25.25A0.25 0.25 0 0 0 10.75 25L9.25 25A0.25 0.25 0 0 0 9 25.25ZM18 25.25L18 25.75A0.25 0.25 0 0 0 18.25 26L18.75 26A0.25 0.25 0 0 0 19 25.75L19 25.25A0.25 0.25 0 0 0 18.75 25L18.25 25A0.25 0.25 0 0 0 18 25.25ZM21 25.25L21 25.75A0.25 0.25 0 0 0 21.25 26L21.75 26A0.25 0.25 0 0 0 22 25.75L22 25.25A0.25 0.25 0 0 0 21.75 25L21.25 25A0.25 0.25 0 0 0 21 25.25ZM25 25.25L25 27.75A0.25 0.25 0 0 0 25.25 28L27.75 28A0.25 0.25 0 0 0 28 27.75L28 25.25A0.25 0.25 0 0 0 27.75 25L25.25 25A0.25 0.25 0 0 0 25 25.25ZM29 25.25L29 26.75A0.25 0.25 0 0 0 29.25 27L29.75 27A0.25 0.25 0 0 0 30 26.75L30 25.25A0.25 0.25 0 0 0 29.75 25L29.25 25A0.25 0.25 0 0 0 29 25.25ZM26 26.25L26 26.75A0.25 0.25 0 0 0 26.25 27L26.75 27A0.25 0.25 0 0 0 27 26.75L27 26.25A0.25 0.25 0 0 0 26.75 26L26.25 26A0.25 0.25 0 0 0 26 26.25ZM23 28.25L23 28.75A0.25 0.25 0 0 0 23.25 29L23.75 29A0.25 0.25 0 0 0 24 28.75L24 28.25A0.25 0.25 0 0 0 23.75 28L23.25 28A0.25 0.25 0 0 0 23 28.25ZM31 28.25L31 28.75A0.25 0.25 0 0 0 31.25 29L32.75 29A0.25 0.25 0 0 0 33 28.75L33 28.25A0.25 0.25 0 0 0 32.75 28L31.25 28A0.25 0.25 0 0 0 31 28.25ZM10 29.25L10 29.75A0.25 0.25 0 0 1 9.75 30L8.25 30A0.25 0.25 0 0 0 8 30.25L8 30.75A0.25 0.25 0 0 0 8.25 31L8.75 31A0.25 0.25 0 0 1 9 31.25L9 32.75A0.25 0.25 0 0 0 9.25 33L9.75 33A0.25 0.25 0 0 0 10 32.75L10 32.25A0.25 0.25 0 0 1 10.25 32L10.75 32A0.25 0.25 0 0 1 11 32.25L11 32.75A0.25 0.25 0 0 0 11.25 33L11.75 33A0.25 0.25 0 0 0 12 32.75L12 32.25A0.25 0.25 0 0 1 12.25 32L12.75 32A0.25 0.25 0 0 0 13 31.75L13 31.25A0.25 0.25 0 0 0 12.75 31L12.25 31A0.25 0.25 0 0 1 12 30.75L12 30.25A0.25 0.25 0 0 0 11.75 30L11.25 30A0.25 0.25 0 0 1 11 29.75L11 29.25A0.25 0.25 0 0 0 10.75 29L10.25 29A0.25 0.25 0 0 0 10 29.25ZM26 29.25L26 29.75A0.25 0.25 0 0 1 25.75 30L25.25 30A0.25 0.25 0 0 0 25 30.25L25 30.75A0.25 0.25 0 0 0 25.25 31L26.75 31A0.25 0.25 0 0 1 27 31.25L27 31.75A0.25 0.25 0 0 0 27.25 32L27.75 32A0.25 0.25 0 0 0 28 31.75L28 31.25A0.25 0.25 0 0 0 27.75 31L27.25 31A0.25 0.25 0 0 1 27 30.75L27 29.25A0.25 0.25 0 0 0 26.75 29L26.25 29A0.25 0.25 0 0 0 26 29.25ZM10 30.25L10 30.75A0.25 0.25 0 0 0 10.25 31L10.75 31A0.25 0.25 0 0 0 11 30.75L11 30.25A0.25 0.25 0 0 0 10.75 30L10.25 30A0.25 0.25 0 0 0 10 30.25ZM17 30.25L17 30.75A0.25 0.25 0 0 0 17.25 31L17.75 31A0.25 0.25 0 0 0 18 30.75L18 30.25A0.25 0.25 0 0 0 17.75 30L17.25 30A0.25 0.25 0 0 0 17 30.25ZM30 31.25L30 31.75A0.25 0.25 0 0 0 30.25 32L30.75 32A0.25 0.25 0 0 0 31 31.75L31 31.25A0.25 0.25 0 0 0 30.75 31L30.25 31A0.25 0.25 0 0 0 30 31.25ZM0 0.25L0 6.75A0.25 0.25 0 0 0 0.25 7L6.75 7A0.25 0.25 0 0 0 7 6.75L7 0.25A0.25 0.25 0 0 0 6.75 0L0.25 0A0.25 0.25 0 0 0 0 0.25ZM1 1.25L1 5.75A0.25 0.25 0 0 0 1.25 6L5.75 6A0.25 0.25 0 0 0 6 5.75L6 1.25A0.25 0.25 0 0 0 5.75 1L1.25 1A0.25 0.25 0 0 0 1 1.25ZM2 2.25L2 4.75A0.25 0.25 0 0 0 2.25 5L4.75 5A0.25 0.25 0 0 0 5 4.75L5 2.25A0.25 0.25 0 0 0 4.75 2L2.25 2A0.25 0.25 0 0 0 2 2.25ZM26 0.25L26 6.75A0.25 0.25 0 0 0 26.25 7L32.75 7A0.25 0.25 0 0 0 33 6.75L33 0.25A0.25 0.25 0 0 0 32.75 0L26.25 0A0.25 0.25 0 0 0 26 0.25ZM27 1.25L27 5.75A0.25 0.25 0 0 0 27.25 6L31.75 6A0.25 0.25 0 0 0 32 5.75L32 1.25A0.25 0.25 0 0 0 31.75 1L27.25 1A0.25 0.25 0 0 0 27 1.25ZM28 2.25L28 4.75A0.25 0.25 0 0 0 28.25 5L30.75 5A0.25 0.25 0 0 0 31 4.75L31 2.25A0.25 0.25 0 0 0 30.75 2L28.25 2A0.25 0.25 0 0 0 28 2.25ZM0 26.25L0 32.75A0.25 0.25 0 0 0 0.25 33L6.75 33A0.25 0.25 0 0 0 7 32.75L7 26.25A0.25 0.25 0 0 0 6.75 26L0.25 26A0.25 0.25 0 0 0 0 26.25ZM1 27.25L1 31.75A0.25 0.25 0 0 0 1.25 32L5.75 32A0.25 0.25 0 0 0 6 31.75L6 27.25A0.25 0.25 0 0 0 5.75 27L1.25 27A0.25 0.25 0 0 0 1 27.25ZM2 28.25L2 30.75A0.25 0.25 0 0 0 2.25 31L4.75 31A0.25 0.25 0 0 0 5 30.75L5 28.25A0.25 0.25 0 0 0 4.75 28L2.25 28A0.25 0.25 0 0 0 2 28.25Z" fill="#000000"/></g></g></svg>
