<?xml version="1.0" encoding="UTF-8"?>
<svg xmlns="http://www.w3.org/2000/svg" version="1.1" width="500" height="500" viewBox="0 0 500 500"><rect x="0" y="0" width="500" height="500" fill="#8a2be2"/><g transform="scale(15.152)"><g transform="translate(0,0)"><path fill-rule="evenodd" d="M8 0.25L8 2.75A0.25 0.25 0 0 0 8.25 3L8.75 3A0.25 0.25 0 0 1 9 3.25L9 4.75A0.25 0.25 0 0 1 8.75 5L8.25 5A0.25 0.25 0 0 0 8 5.25L8 8.75A0.25 0.25 0 0 0 8.25 9L8.75 9A0.25 0.25 0 0 0 9 8.75L9 6.25A0.25 0.25 0 0 1 9.25 6L9.75 6A0.25 0.25 0 0 1 10 6.25L10 9.75A0.25 0.25 0 0 1 9.75 10L8.25 10A0.25 0.25 0 0 0 8 10.25L8 12.75A0.25 0.25 0 0 0 8.25 13L8.75 13A0.25 0.25 0 0 1 9 13.25L9 16.75A0.25 0.25 0 0 0 9.25 17L11.75 17A0.25 0.25 0 0 1 12 17.25L12 17.75A0.25 0.25 0 0 1 11.75 18L9.25 18A0.25 0.25 0 0 0 9 18.25L9 18.75A0.25 0.25 0 0 1 8.75 19L8.25 19A0.25 0.25 0 0 1 8 18.75L8 18.25A0.25 0.25 0 0 0 7.75 18L6.25 18A0.25 0.25 0 0 1 6 17.75L6 17.25A0.25 0.25 0 0 1 6.25 17L7.75 17A0.25 0.25 0 0 0 8 16.75L8 16.25A0.25 0.25 0 0 0 7.75 16L6.25 16A0.25 0.25 0 0 1 6 15.75L6 15.25A0.25 0.25 0 0 1 6.25 15L6.75 15A0.25 0.25 0 0 0 7 14.75L7 14.25A0.25 0.25 0 0 0 6.75 14L5.25 14A0.25 0.25 0 0 1 5 13.75L5 13.25A0.25 0.25 0 0 1 5.25 13L6.75 13A0.25 0.25 0 0 0 7 12.75L7 12.25A0.25 0.25 0 0 0 6.75 12L5.25 12A0.25 0.25 0 0 1 5 11.75L5 11.25A0.25 0.25 0 0 0 4.75 11L4.25 11A0.25 0.25 0 0 1 4 10.75L4 10.25A0.25 0.25 0 0 1 4.25 10L5.75 10A0.25 0.25 0 0 1 6 10.25L6 10.75A0.25 0.25 0 0 0 6.25 11L6.75 11A0.25 0.25 0 0 0 7 10.75L7 10.25A0.25 0.25 0 0 0 6.75 10L6.25 10A0.25 0.25 0 0 1 6 9.75L6 9.25A0.25 0.25 0 0 1 6.25 9L6.75 9A0.25 0.25 0 0 0 7 8.75L7 8.25A0.25 0.25 0 0 0 6.75 8L6.25 8A0.25 0.25 0 0 0 6 8.25L6 8.75A0.25 0.25 0 0 1 5.75 9L5.25 9A0.25 0.25 0 0 1 5 8.75L5 8.25A0.25 0.25 0 0 0 4.75 8L2.25 8A0.25 0.25 0 0 0 2 8.25L2 8.75A0.25 0.25 0 0 0 2.25 9L3.75 9A0.25 0.25 0 0 1 4 9.25L4 9.75A0.25 0.25 0 0 1 3.75 10L2.25 10A0.25 0.25 0 0 0 2 10.25L2 10.75A0.25 0.25 0 0 1 1.75 11L0.25 11A0.25 0.25 0 0 0 0 11.25L0 14.75A0.25 0.25 0 0 0 0.25 15L0.75 15A0.25 0.25 0 0 0 1 14.75L1 13.25A0.25 0.25 0 0 1 1.25 13L1.75 13A0.25 0.25 0 0 1 2 13.25L2 14.75A0.25 0.25 0 0 0 2.25 15L2.75 15A0.25 0.25 0 0 1 3 15.25L3 15.75A0.25 0.25 0 0 1 2.75 16L1.25 16A0.25 0.25 0 0 0 1 16.25L1 17.75A0.25 0.25 0 0 0 1.25 18L1.75 18A0.25 0.25 0 0 1 2 18.25L2 18.75A0.25 0.25 0 0 1 1.75 19L1.25 19A0.25 0.25 0 0 0 1 19.25L1 20.75A0.25 0.25 0 0 1 0.75 21L0.25 21A0.25 0.25 0 0 0 0 21.25L0 24.75A0.25 0.25 0 0 0 0.25 25L0.75 25A0.25 0.25 0 0 0 1 24.75L1 22.25A0.25 0.25 0 0 1 1.25 22L1.75 22A0.25 0.25 0 0 1 2 22.25L2 23.75A0.25 0.25 0 0 0 2.25 24L2.75 24A0.25 0.25 0 0 1 3 24.25L3 24.75A0.25 0.25 0 0 0 3.25 25L3.75 25A0.25 0.25 0 0 0 4 24.75L4 24.25A0.25 0.25 0 0 1 4.25 24L5.75 24A0.25 0.25 0 0 1 6 24.25L6 24.75A0.25 0.25 0 0 0 6.25 25L7.75 25A0.25 0.25 0 0 1 8 25.25L8 25.75A0.25 0.25 0 0 0 8.25 26L8.75 26A0.25 0.25 0 0 1 9 26.25L9 27.75A0.25 0.25 0 0 1 8.75 28L8.25 28A0.25 0.25 0 0 0 8 28.25L8 30.75A0.25 0.25 0 0 0 8.25 31L8.75 31A0.25 0.25 0 0 1 9 31.25L9 31.75A0.25 0.25 0 0 0 9.25 32L9.75 32A0.25 0.25 0 0 1 10 32.25L10 32.75A0.25 0.25 0 0 0 10.25 33L10.75 33A0.25 0.25 0 0 0 11 32.75L11 32.25A0.25 0.25 0 0 1 11.25 32L11.75 32A0.25 0.25 0 0 0 12 31.75L12 31.25A0.25 0.25 0 0 0 11.75 31L11.25 31A0.25 0.25 0 0 1 11 30.75L11 30.25A0.25 0.25 0 0 0 10.75 30L10.25 30A0.25 0.25 0 0 0 10 30.25L10 30.75A0.25 0.25 0 0 1 9.75 31L9.25 31A0.25 0.25 0 0 1 9 30.75L9 28.25A0.25 0.25 0 0 1 9.25 28L11.75 28A0.25 0.25 0 0 1 12 28.25L12 28.75A0.25 0.25 0 0 0 12.25 29L14.75 29A0.25 0.25 0 0 0 15 28.75L15 28.25A0.25 0.25 0 0 0 14.75 28L12.25 28A0.25 0.25 0 0 1 12 27.75L12 26.25A0.25 0.25 0 0 1 12.25 26L12.75 26A0.25 0.25 0 0 1 13 26.25L13 26.75A0.25 0.25 0 0 0 13.25 27L15.75 27A0.25 0.25 0 0 0 16 26.75L16 26.25A0.25 0.25 0 0 1 16.25 26L16.75 26A0.25 0.25 0 0 1 17 26.25L17 26.75A0.25 0.25 0 0 0 17.25 27L17.75 27A0.25 0.25 0 0 1 18 27.25L18 27.75A0.25 0.25 0 0 1 17.75 28L16.25 28A0.25 0.25 0 0 0 16 28.25L16 29.75A0.25 0.25 0 0 1 15.75 30L15.25 30A0.25 0.25 0 0 0 15 30.25L15 31.75A0.25 0.25 0 0 0 15.25 32L15.75 32A0.25 0.25 0 0 0 16 31.75L16 31.25A0.25 0.25 0 0 1 16.25 31L16.75 31A0.25 0.25 0 0 0 17 30.75L17 29.25A0.25 0.25 0 0 1 17.25 29L17.75 29A0.25 0.25 0 0 1 18 29.25L18 30.75A0.25 0.25 0 0 0 18.25 31L18.75 31A0.25 0.25 0 0 1 19 31.25L19 32.75A0.25 0.25 0 0 0 19.25 33L19.75 33A0.25 0.25 0 0 0 20 32.75L20 32.25A0.25 0.25 0 0 1 20.25 32L23.75 32A0.25 0.25 0 0 1 24 32.25L24 32.75A0.25 0.25 0 0 0 24.25 33L24.75 33A0.25 0.25 0 0 0 25 32.75L25 32.25A0.25 0.25 0 0 1 25.25 32L25.75 32A0.25 0.25 0 0 1 26 32.25L26 32.75A0.25 0.25 0 0 0 26.25 33L26.75 33A0.25 0.25 0 0 0 27 32.75L27 32.25A0.25 0.25 0 0 0 26.75 32L26.25 32A0.25 0.25 0 0 1 26 31.75L26 31.25A0.25 0.25 0 0 1 26.25 31L26.75 31A0.25 0.25 0 0 0 27 30.75L27 30.25A0.25 0.25 0 0 1 27.25 30L28.75 30A0.25 0.25 0 0 1 29 30.25L29 30.75A0.25 0.25 0 0 1 28.75 31L28.25 31A0.25 0.25 0 0 0 28 31.25L28 32.75A0.25 0.25 0 0 0 28.25 33L31.75 33A0.25 0.25 0 0 0 32 32.75L32 32.25A0.25 0.25 0 0 0 31.75 32L31.25 32A0.25 0.25 0 0 1 31 31.75L31 30.25A0.25 0.25 0 0 1 31.25 30L31.75 30A0.25 0.25 0 0 0 32 29.75L32 26.25A0.25 0.25 0 0 1 32.25 26L32.75 26A0.25 0.25 0 0 0 33 25.75L33 25.25A0.25 0.25 0 0 0 32.75 25L32.25 25A0.25 0.25 0 0 1 32 24.75L32 24.25A0.25 0.25 0 0 0 31.75 24L31.25 24A0.25 0.25 0 0 1 31 23.75L31 23.25A0.25 0.25 0 0 1 31.25 23L31.75 23A0.25 0.25 0 0 0 32 22.75L32 22.25A0.25 0.25 0 0 0 31.75 22L31.25 22A0.25 0.25 0 0 1 31 21.75L31 21.25A0.25 0.25 0 0 0 30.75 21L30.25 21A0.25 0.25 0 0 0 30 21.25L30 21.75A0.25 0.25 0 0 1 29.75 22L29.25 22A0.25 0.25 0 0 0 29 22.25L29 22.75A0.25 0.25 0 0 0 29.25 23L29.75 23A0.25 0.25 0 0 1 30 23.25L30 23.75A0.25 0.25 0 0 1 29.75 24L27.25 24A0.25 0.25 0 0 1 27 23.75L27 23.25A0.25 0.25 0 0 1 27.25 23L27.75 23A0.25 0.25 0 0 0 28 22.75L28 22.25A0.25 0.25 0 0 0 27.75 22L26.25 22A0.25 0.25 0 0 1 26 21.75L26 21.25A0.25 0.25 0 0 0 25.75 21L25.25 21A0.25 0.25 0 0 1 25 20.75L25 20.25A0.25 0.25 0 0 1 25.25 20L25.75 20A0.25 0.25 0 0 0 26 19.75L26 19.25A0.25 0.25 0 0 0 25.75 19L25.25 19A0.25 0.25 0 0 1 25 18.75L25 18.25A0.25 0.25 0 0 1 25.25 18L26.75 18A0.25 0.25 0 0 1 27 18.25L27 19.75A0.25 0.25 0 0 0 27.25 20L30.75 20A0.25 0.25 0 0 0 31 19.75L31 19.25A0.25 0.25 0 0 0 30.75 19L28.25 19A0.25 0.25 0 0 1 28 18.75L28 17.25A0.25 0.25 0 0 1 28.25 17L28.75 17A0.25 0.25 0 0 0 29 16.75L29 16.25A0.25 0.25 0 0 1 29.25 16L29.75 16A0.25 0.25 0 0 1 30 16.25L30 16.75A0.25 0.25 0 0 0 30.25 17L30.75 17A0.25 0.25 0 0 0 31 16.75L31 16.25A0.25 0.25 0 0 0 30.75 16L30.25 16A0.25 0.25 0 0 1 30 15.75L30 15.25A0.25 0.25 0 0 0 29.75 15L29.25 15A0.25 0.25 0 0 1 29 14.75L29 14.25A0.25 0.25 0 0 1 29.25 14L29.75 14A0.25 0.25 0 0 0 30 13.75L30 12.25A0.25 0.25 0 0 1 30.25 12L30.75 12A0.25 0.25 0 0 1 31 12.25L31 12.75A0.25 0.25 0 0 0 31.25 13L32.75 13A0.25 0.25 0 0 0 33 12.75L33 12.25A0.25 0.25 0 0 0 32.75 12L31.25 12A0.25 0.25 0 0 1 31 11.75L31 11.25A0.25 0.25 0 0 0 30.75 11L30.25 11A0.25 0.25 0 0 1 30 10.75L30 10.25A0.25 0.25 0 0 1 30.25 10L32.75 10A0.25 0.25 0 0 0 33 9.75L33 8.25A0.25 0.25 0 0 0 32.75 8L30.25 8A0.25 0.25 0 0 0 30 8.25L30 9.75A0.25 0.25 0 0 1 29.75 10L29.25 10A0.25 0.25 0 0 0 29 10.25L29 10.75A0.25 0.25 0 0 1 28.75 11L28.25 11A0.25 0.25 0 0 1 28 10.75L28 10.25A0.25 0.25 0 0 0 27.75 10L27.25 10A0.25 0.25 0 0 1 27 9.75L27 9.25A0.25 0.25 0 0 1 27.25 9L27.75 9A0.25 0.25 0 0 0 28 8.75L28 8.25A0.25 0.25 0 0 0 27.75 8L25.25 8A0.25 0.25 0 0 1 25 7.75L25 6.25A0.25 0.25 0 0 0 24.75 6L24.25 6A0.25 0.25 0 0 0 24 6.25L24 7.75A0.25 0.25 0 0 0 24.25 8L24.75 8A0.25 0.25 0 0 1 25 8.25L25 8.75A0.25 0.25 0 0 1 24.75 9L22.25 9A0.25 0.25 0 0 0 22 9.25L22 10.75A0.25 0.25 0 0 0 22.25 11L22.75 11A0.25 0.25 0 0 1 23 11.25L23 11.75A0.25 0.25 0 0 1 22.75 12L21.25 12A0.25 0.25 0 0 1 21 11.75L21 11.25A0.25 0.25 0 0 0 20.75 11L20.25 11A0.25 0.25 0 0 1 20 10.75L20 10.25A0.25 0.25 0 0 1 20.25 10L20.75 10A0.25 0.25 0 0 0 21 9.75L21 8.25A0.25 0.25 0 0 1 21.25 8L22.75 8A0.25 0.25 0 0 0 23 7.75L23 6.25A0.25 0.25 0 0 0 22.75 6L22.25 6A0.25 0.25 0 0 0 22 6.25L22 6.75A0.25 0.25 0 0 1 21.75 7L21.25 7A0.25 0.25 0 0 1 21 6.75L21 6.25A0.25 0.25 0 0 0 20.75 6L20.25 6A0.25 0.25 0 0 0 20 6.25L20 6.75A0.25 0.25 0 0 0 20.25 7L20.75 7A0.25 0.25 0 0 1 21 7.25L21 7.75A0.25 0.25 0 0 1 20.75 8L20.25 8A0.25 0.25 0 0 0 20 8.25L20 8.75A0.25 0.25 0 0 1 19.75 9L18.25 9A0.25 0.25 0 0 1 18 8.75L18 8.25A0.25 0.25 0 0 1 18.25 8L18.75 8A0.25 0.25 0 0 0 19 7.75L19 4.25A0.25 0.25 0 0 0 18.75 4L18.25 4A0.25 0.25 0 0 1 18 3.75L18 3.25A0.25 0.25 0 0 1 18.25 3L19.75 3A0.25 0.25 0 0 1 20 3.25L20 3.75A0.25 0.25 0 0 0 20.25 4L20.75 4A0.25 0.25 0 0 1 21 4.25L21 4.75A0.25 0.25 0 0 0 21.25 5L22.75 5A0.25 0.25 0 0 0 23 4.75L23 4.25A0.25 0.25 0 0 0 22.75 4L21.25 4A0.25 0.25 0 0 1 21 3.75L21 3.25A0.25 0.25 0 0 1 21.25 3L22.75 3A0.25 0.25 0 0 0 23 2.75L23 1.25A0.25 0.25 0 0 1 23.25 1L23.75 1A0.25 0.25 0 0 1 24 1.25L24 1.75A0.25 0.25 0 0 0 24.25 2L24.75 2A0.25 0.25 0 0 0 25 1.75L25 1.25A0.25 0.25 0 0 0 24.75 1L24.25 1A0.25 0.25 0 0 1 24 0.75L24 0.25A0.25 0.25 0 0 0 23.75 0L23.25 0A0.25 0.25 0 0 0 23 0.25L23 0.75A0.25 0.25 0 0 1 22.75 1L22.25 1A0.25 0.25 0 0 1 22 0.75L22 0.25A0.25 0.25 0 0 0 21.75 0L21.25 0A0.25 0.25 0 0 0 21 0.25L21 1.75A0.25 0.25 0 0 1 20.75 2L19.25 2A0.25 0.25 0 0 1 19 1.75L19 0.25A0.25 0.25 0 0 0 18.75 0L18.25 0A0.25 0.25 0 0 0 18 0.25L18 1.75A0.25 0.25 0 0 1 17.75 2L17.25 2A0.25 0.25 0 0 1 17 1.75L17 1.25A0.25 0.25 0 0 0 16.75 1L16.25 1A0.25 0.25 0 0 1 16 0.75L16 0.25A0.25 0.25 0 0 0 15.75 0L14.25 0A0.25 0.25 0 0 0 14 0.25L14 2.75A0.25 0.25 0 0 1 13.75 3L12.25 3A0.25 0.25 0 0 0 12 3.25L12 3.75A0.25 0.25 0 0 1 11.75 4L10.25 4A0.25 0.25 0 0 1 10 3.75L10 2.25A0.25 0.25 0 0 0 9.75 2L9.25 2A0.25 0.25 0 0 1 9 1.75L9 0.25A0.25 0.25 0 0 0 8.75 0L8.25 0A0.25 0.25 0 0 0 8 0.25ZM11 0.25L11 0.75A0.25 0.25 0 0 0 11.25 1L11.75 1A0.25 0.25 0 0 0 12 0.75L12 0.25A0.25 0.25 0 0 0 11.75 0L11.25 0A0.25 0.25 0 0 0 11 0.25ZM15 1.25L15 1.75A0.25 0.25 0 0 0 15.25 2L15.75 2A0.25 0.25 0 0 0 16 1.75L16 1.25A0.25 0.25 0 0 0 15.75 1L15.25 1A0.25 0.25 0 0 0 15 1.25ZM14 3.25L14 3.75A0.25 0.25 0 0 0 14.25 4L14.75 4A0.25 0.25 0 0 0 15 3.75L15 3.25A0.25 0.25 0 0 0 14.75 3L14.25 3A0.25 0.25 0 0 0 14 3.25ZM12 4.25L12 5.75A0.25 0.25 0 0 1 11.75 6L11.25 6A0.25 0.25 0 0 0 11 6.25L11 9.75A0.25 0.25 0 0 1 10.75 10L10.25 10A0.25 0.25 0 0 0 10 10.25L10 11.75A0.25 0.25 0 0 1 9.75 12L9.25 12A0.25 0.25 0 0 0 9 12.25L9 12.75A0.25 0.25 0 0 0 9.25 13L9.75 13A0.25 0.25 0 0 1 10 13.25L10 15.75A0.25 0.25 0 0 0 10.25 16L10.75 16A0.25 0.25 0 0 0 11 15.75L11 14.25A0.25 0.25 0 0 1 11.25 14L12.75 14A0.25 0.25 0 0 1 13 14.25L13 14.75A0.25 0.25 0 0 1 12.75 15L12.25 15A0.25 0.25 0 0 0 12 15.25L12 16.75A0.25 0.25 0 0 0 12.25 17L14.75 17A0.25 0.25 0 0 0 15 16.75L15 14.25A0.25 0.25 0 0 1 15.25 14L15.75 14A0.25 0.25 0 0 0 16 13.75L16 13.25A0.25 0.25 0 0 1 16.25 13L16.75 13A0.25 0.25 0 0 1 17 13.25L17 14.75A0.25 0.25 0 0 1 16.75 15L16.25 15A0.25 0.25 0 0 0 16 15.25L16 15.75A0.25 0.25 0 0 0 16.25 16L16.75 16A0.25 0.25 0 0 0 17 15.75L17 15.25A0.25 0.25 0 0 1 17.25 15L17.75 15A0.25 0.25 0 0 1 18 15.25L18 16.75A0.25 0.25 0 0 1 17.75 17L16.25 17A0.25 0.25 0 0 0 16 17.25L16 17.75A0.25 0.25 0 0 1 15.75 18L15.25 18A0.25 0.25 0 0 0 15 18.25L15 18.75A0.25 0.25 0 0 0 15.25 19L15.75 19A0.25 0.25 0 0 0 16 18.75L16 18.25A0.25 0.25 0 0 1 16.25 18L19.75 18A0.25 0.25 0 0 1 20 18.25L20 18.75A0.25 0.25 0 0 1 19.75 19L19.25 19A0.25 0.25 0 0 0 19 19.25L19 19.75A0.25 0.25 0 0 1 18.75 20L18.25 20A0.25 0.25 0 0 0 18 20.25L18 20.75A0.25 0.25 0 0 1 17.75 21L17.25 21A0.25 0.25 0 0 1 17 20.75L17 20.25A0.25 0.25 0 0 0 16.75 20L16.25 20A0.25 0.25 0 0 0 16 20.25L16 20.75A0.25 0.25 0 0 1 15.75 21L15.25 21A0.25 0.25 0 0 1 15 20.75L15 20.25A0.25 0.25 0 0 0 14.75 20L14.25 20A0.25 0.25 0 0 1 14 19.75L14 19.25A0.25 0.25 0 0 0 13.75 19L13.25 19A0.25 0.25 0 0 1 13 18.75L13 18.25A0.25 0.25 0 0 0 12.75 18L12.25 18A0.25 0.25 0 0 0 12 18.25L12 19.75A0.25 0.25 0 0 1 11.75 20L11.25 20A0.25 0.25 0 0 1 11 19.75L11 19.25A0.25 0.25 0 0 0 10.75 19L10.25 19A0.25 0.25 0 0 0 10 19.25L10 19.75A0.25 0.25 0 0 1 9.75 20L8.25 20A0.25 0.25 0 0 1 8 19.75L8 19.25A0.25 0.25 0 0 0 7.75 19L5.25 19A0.25 0.25 0 0 0 5 19.25L5 19.75A0.25 0.25 0 0 0 5.25 20L6.75 20A0.25 0.25 0 0 1 7 20.25L7 20.75A0.25 0.25 0 0 1 6.75 21L6.25 21A0.25 0.25 0 0 0 6 21.25L6 21.75A0.25 0.25 0 0 1 5.75 22L5.25 22A0.25 0.25 0 0 1 5 21.75L5 21.25A0.25 0.25 0 0 0 4.75 21L2.25 21A0.25 0.25 0 0 0 2 21.25L2 21.75A0.25 0.25 0 0 0 2.25 22L3.75 22A0.25 0.25 0 0 1 4 22.25L4 22.75A0.25 0.25 0 0 1 3.75 23L3.25 23A0.25 0.25 0 0 0 3 23.25L3 23.75A0.25 0.25 0 0 0 3.25 24L3.75 24A0.25 0.25 0 0 0 4 23.75L4 23.25A0.25 0.25 0 0 1 4.25 23L5.75 23A0.25 0.25 0 0 1 6 23.25L6 23.75A0.25 0.25 0 0 0 6.25 24L6.75 24A0.25 0.25 0 0 0 7 23.75L7 23.25A0.25 0.25 0 0 0 6.75 23L6.25 23A0.25 0.25 0 0 1 6 22.75L6 22.25A0.25 0.25 0 0 1 6.25 22L6.75 22A0.25 0.25 0 0 0 7 21.75L7 21.25A0.25 0.25 0 0 1 7.25 21L7.75 21A0.25 0.25 0 0 1 8 21.25L8 21.75A0.25 0.25 0 0 0 8.25 22L8.75 22A0.25 0.25 0 0 0 9 21.75L9 21.25A0.25 0.25 0 0 1 9.25 21L10.75 21A0.25 0.25 0 0 1 11 21.25L11 21.75A0.25 0.25 0 0 1 10.75 22L10.25 22A0.25 0.25 0 0 0 10 22.25L10 23.75A0.25 0.25 0 0 1 9.75 24L9.25 24A0.25 0.25 0 0 1 9 23.75L9 23.25A0.25 0.25 0 0 0 8.75 23L8.25 23A0.25 0.25 0 0 0 8 23.25L8 24.75A0.25 0.25 0 0 0 8.25 25L8.75 25A0.25 0.25 0 0 1 9 25.25L9 25.75A0.25 0.25 0 0 0 9.25 26L10.75 26A0.25 0.25 0 0 0 11 25.75L11 25.25A0.25 0.25 0 0 1 11.25 25L11.75 25A0.25 0.25 0 0 0 12 24.75L12 24.25A0.25 0.25 0 0 1 12.25 24L13.75 24A0.25 0.25 0 0 1 14 24.25L14 24.75A0.25 0.25 0 0 0 14.25 25L14.75 25A0.25 0.25 0 0 1 15 25.25L15 25.75A0.25 0.25 0 0 0 15.25 26L15.75 26A0.25 0.25 0 0 0 16 25.75L16 25.25A0.25 0.25 0 0 1 16.25 25L16.75 25A0.25 0.25 0 0 1 17 25.25L17 25.75A0.25 0.25 0 0 0 17.25 26L17.75 26A0.25 0.25 0 0 1 18 26.25L18 26.75A0.25 0.25 0 0 0 18.25 27L18.75 27A0.25 0.25 0 0 1 19 27.25L19 27.75A0.25 0.25 0 0 1 18.75 28L18.25 28A0.25 0.25 0 0 0 18 28.25L18 28.75A0.25 0.25 0 0 0 18.25 29L18.75 29A0.25 0.25 0 0 1 19 29.25L19 29.75A0.25 0.25 0 0 0 19.25 30L19.75 30A0.25 0.25 0 0 1 20 30.25L20 30.75A0.25 0.25 0 0 0 20.25 31L20.75 31A0.25 0.25 0 0 0 21 30.75L21 29.25A0.25 0.25 0 0 0 20.75 29L20.25 29A0.25 0.25 0 0 1 20 28.75L20 26.25A0.25 0.25 0 0 1 20.25 26L20.75 26A0.25 0.25 0 0 0 21 25.75L21 24.25A0.25 0.25 0 0 0 20.75 24L20.25 24A0.25 0.25 0 0 0 20 24.25L20 24.75A0.25 0.25 0 0 1 19.75 25L19.25 25A0.25 0.25 0 0 1 19 24.75L19 23.25A0.25 0.25 0 0 1 19.25 23L20.75 23A0.25 0.25 0 0 0 21 22.75L21 21.25A0.25 0.25 0 0 1 21.25 21L22.75 21A0.25 0.25 0 0 1 23 21.25L23 21.75A0.25 0.25 0 0 1 22.75 22L22.25 22A0.25 0.25 0 0 0 22 22.25L22 22.75A0.25 0.25 0 0 0 22.25 23L22.75 23A0.25 0.25 0 0 0 23 22.75L23 22.25A0.25 0.25 0 0 1 23.25 22L24.75 22A0.25 0.25 0 0 0 25 21.75L25 21.25A0.25 0.25 0 0 0 24.75 21L24.25 21A0.25 0.25 0 0 1 24 20.75L24 18.25A0.25 0.25 0 0 1 24.25 18L24.75 18A0.25 0.25 0 0 0 25 17.75L25 17.25A0.25 0.25 0 0 1 25.25 17L27.75 17A0.25 0.25 0 0 0 28 16.75L28 15.25A0.25 0.25 0 0 0 27.75 15L27.25 15A0.25 0.25 0 0 1 27 14.75L27 14.25A0.25 0.25 0 0 1 27.25 14L27.75 14A0.25 0.25 0 0 0 28 13.75L28 13.25A0.25 0.25 0 0 1 28.25 13L28.75 13A0.25 0.25 0 0 0 29 12.75L29 12.25A0.25 0.25 0 0 1 29.25 12L29.75 12A0.25 0.25 0 0 0 30 11.75L30 11.25A0.25 0.25 0 0 0 29.75 11L29.25 11A0.25 0.25 0 0 0 29 11.25L29 11.75A0.25 0.25 0 0 1 28.75 12L28.25 12A0.25 0.25 0 0 0 28 12.25L28 12.75A0.25 0.25 0 0 1 27.75 13L27.25 13A0.25 0.25 0 0 1 27 12.75L27 12.25A0.25 0.25 0 0 0 26.75 12L23.25 12A0.25 0.25 0 0 0 23 12.25L23 12.75A0.25 0.25 0 0 1 22.75 13L21.25 13A0.25 0.25 0 0 1 21 12.75L21 12.25A0.25 0.25 0 0 0 20.75 12L20.25 12A0.25 0.25 0 0 0 20 12.25L20 12.75A0.25 0.25 0 0 0 20.25 13L20.75 13A0.25 0.25 0 0 1 21 13.25L21 14.75A0.25 0.25 0 0 0 21.25 15L21.75 15A0.25 0.25 0 0 0 22 14.75L22 14.25A0.25 0.25 0 0 1 22.25 14L22.75 14A0.25 0.25 0 0 1 23 14.25L23 16.75A0.25 0.25 0 0 1 22.75 17L22.25 17A0.25 0.25 0 0 1 22 16.75L22 16.25A0.25 0.25 0 0 0 21.75 16L20.25 16A0.25 0.25 0 0 1 20 15.75L20 15.25A0.25 0.25 0 0 0 19.75 15L18.25 15A0.25 0.25 0 0 1 18 14.75L18 13.25A0.25 0.25 0 0 1 18.25 13L18.75 13A0.25 0.25 0 0 0 19 12.75L19 12.25A0.25 0.25 0 0 0 18.75 12L18.25 12A0.25 0.25 0 0 1 18 11.75L18 11.25A0.25 0.25 0 0 1 18.25 11L18.75 11A0.25 0.25 0 0 0 19 10.75L19 10.25A0.25 0.25 0 0 0 18.75 10L18.25 10A0.25 0.25 0 0 1 18 9.75L18 9.25A0.25 0.25 0 0 0 17.75 9L17.25 9A0.25 0.25 0 0 1 17 8.75L17 8.25A0.25 0.25 0 0 0 16.75 8L16.25 8A0.25 0.25 0 0 1 16 7.75L16 6.25A0.25 0.25 0 0 1 16.25 6L16.75 6A0.25 0.25 0 0 1 17 6.25L17 6.75A0.25 0.25 0 0 0 17.25 7L17.75 7A0.25 0.25 0 0 0 18 6.75L18 6.25A0.25 0.25 0 0 0 17.75 6L17.25 6A0.25 0.25 0 0 1 17 5.75L17 5.25A0.25 0.25 0 0 1 17.25 5L17.75 5A0.25 0.25 0 0 0 18 4.75L18 4.25A0.25 0.25 0 0 0 17.75 4L17.25 4A0.25 0.25 0 0 0 17 4.25L17 4.75A0.25 0.25 0 0 1 16.75 5L13.25 5A0.25 0.25 0 0 1 13 4.75L13 4.25A0.25 0.25 0 0 0 12.75 4L12.25 4A0.25 0.25 0 0 0 12 4.25ZM24 4.25L24 4.75A0.25 0.25 0 0 0 24.25 5L24.75 5A0.25 0.25 0 0 0 25 4.75L25 4.25A0.25 0.25 0 0 0 24.75 4L24.25 4A0.25 0.25 0 0 0 24 4.25ZM12 6.25L12 6.75A0.25 0.25 0 0 0 12.25 7L12.75 7A0.25 0.25 0 0 0 13 6.75L13 6.25A0.25 0.25 0 0 0 12.75 6L12.25 6A0.25 0.25 0 0 0 12 6.25ZM14 6.25L14 6.75A0.25 0.25 0 0 0 14.25 7L14.75 7A0.25 0.25 0 0 0 15 6.75L15 6.25A0.25 0.25 0 0 0 14.75 6L14.25 6A0.25 0.25 0 0 0 14 6.25ZM13 8.25L13 10.75A0.25 0.25 0 0 1 12.75 11L12.25 11A0.25 0.25 0 0 1 12 10.75L12 10.25A0.25 0.25 0 0 0 11.75 10L11.25 10A0.25 0.25 0 0 0 11 10.25L11 10.75A0.25 0.25 0 0 0 11.25 11L11.75 11A0.25 0.25 0 0 1 12 11.25L12 11.75A0.25 0.25 0 0 1 11.75 12L11.25 12A0.25 0.25 0 0 0 11 12.25L11 12.75A0.25 0.25 0 0 0 11.25 13L12.75 13A0.25 0.25 0 0 1 13 13.25L13 13.75A0.25 0.25 0 0 0 13.25 14L14.75 14A0.25 0.25 0 0 0 15 13.75L15 13.25A0.25 0.25 0 0 1 15.25 13L15.75 13A0.25 0.25 0 0 0 16 12.75L16 12.25A0.25 0.25 0 0 0 15.75 12L15.25 12A0.25 0.25 0 0 1 15 11.75L15 10.25A0.25 0.25 0 0 0 14.75 10L14.25 10A0.25 0.25 0 0 1 14 9.75L14 8.25A0.25 0.25 0 0 0 13.75 8L13.25 8A0.25 0.25 0 0 0 13 8.25ZM15 8.25L15 8.75A0.25 0.25 0 0 0 15.25 9L15.75 9A0.25 0.25 0 0 1 16 9.25L16 9.75A0.25 0.25 0 0 0 16.25 10L16.75 10A0.25 0.25 0 0 1 17 10.25L17 10.75A0.25 0.25 0 0 0 17.25 11L17.75 11A0.25 0.25 0 0 0 18 10.75L18 10.25A0.25 0.25 0 0 0 17.75 10L17.25 10A0.25 0.25 0 0 1 17 9.75L17 9.25A0.25 0.25 0 0 0 16.75 9L16.25 9A0.25 0.25 0 0 1 16 8.75L16 8.25A0.25 0.25 0 0 0 15.75 8L15.25 8A0.25 0.25 0 0 0 15 8.25ZM0 9.25L0 9.75A0.25 0.25 0 0 0 0.25 10L0.75 10A0.25 0.25 0 0 0 1 9.75L1 9.25A0.25 0.25 0 0 0 0.75 9L0.25 9A0.25 0.25 0 0 0 0 9.25ZM25 9.25L25 9.75A0.25 0.25 0 0 1 24.75 10L23.25 10A0.25 0.25 0 0 0 23 10.25L23 10.75A0.25 0.25 0 0 0 23.25 11L24.75 11A0.25 0.25 0 0 0 25 10.75L25 10.25A0.25 0.25 0 0 1 25.25 10L25.75 10A0.25 0.25 0 0 1 26 10.25L26 10.75A0.25 0.25 0 0 0 26.25 11L26.75 11A0.25 0.25 0 0 0 27 10.75L27 10.25A0.25 0.25 0 0 0 26.75 10L26.25 10A0.25 0.25 0 0 1 26 9.75L26 9.25A0.25 0.25 0 0 0 25.75 9L25.25 9A0.25 0.25 0 0 0 25 9.25ZM2 11.25L2 12.75A0.25 0.25 0 0 0 2.25 13L2.75 13A0.25 0.25 0 0 1 3 13.25L3 13.75A0.25 0.25 0 0 0 3.25 14L3.75 14A0.25 0.25 0 0 1 4 14.25L4 15.75A0.25 0.25 0 0 1 3.75 16L3.25 16A0.25 0.25 0 0 0 3 16.25L3 16.75A0.25 0.25 0 0 1 2.75 17L2.25 17A0.25 0.25 0 0 0 2 17.25L2 17.75A0.25 0.25 0 0 0 2.25 18L2.75 18A0.25 0.25 0 0 0 3 17.75L3 17.25A0.25 0.25 0 0 1 3.25 17L4.75 17A0.25 0.25 0 0 0 5 16.75L5 14.25A0.25 0.25 0 0 0 4.75 14L4.25 14A0.25 0.25 0 0 1 4 13.75L4 13.25A0.25 0.25 0 0 1 4.25 13L4.75 13A0.25 0.25 0 0 0 5 12.75L5 12.25A0.25 0.25 0 0 0 4.75 12L3.25 12A0.25 0.25 0 0 1 3 11.75L3 11.25A0.25 0.25 0 0 0 2.75 11L2.25 11A0.25 0.25 0 0 0 2 11.25ZM13 11.25L13 11.75A0.25 0.25 0 0 0 13.25 12L13.75 12A0.25 0.25 0 0 0 14 11.75L14 11.25A0.25 0.25 0 0 0 13.75 11L13.25 11A0.25 0.25 0 0 0 13 11.25ZM23 13.25L23 13.75A0.25 0.25 0 0 0 23.25 14L24.75 14A0.25 0.25 0 0 1 25 14.25L25 14.75A0.25 0.25 0 0 0 25.25 15L25.75 15A0.25 0.25 0 0 1 26 15.25L26 15.75A0.25 0.25 0 0 0 26.25 16L26.75 16A0.25 0.25 0 0 0 27 15.75L27 15.25A0.25 0.25 0 0 0 26.75 15L26.25 15A0.25 0.25 0 0 1 26 14.75L26 14.25A0.25 0.25 0 0 1 26.25 14L26.75 14A0.25 0.25 0 0 0 27 13.75L27 13.25A0.25 0.25 0 0 0 26.75 13L23.25 13A0.25 0.25 0 0 0 23 13.25ZM31 14.25L31 14.75A0.25 0.25 0 0 0 31.25 15L31.75 15A0.25 0.25 0 0 1 32 15.25L32 16.75A0.25 0.25 0 0 0 32.25 17L32.75 17A0.25 0.25 0 0 0 33 16.75L33 15.25A0.25 0.25 0 0 0 32.75 15L32.25 15A0.25 0.25 0 0 1 32 14.75L32 14.25A0.25 0.25 0 0 0 31.75 14L31.25 14A0.25 0.25 0 0 0 31 14.25ZM19 16.25L19 16.75A0.25 0.25 0 0 0 19.25 17L19.75 17A0.25 0.25 0 0 1 20 17.25L20 17.75A0.25 0.25 0 0 0 20.25 18L20.75 18A0.25 0.25 0 0 1 21 18.25L21 18.75A0.25 0.25 0 0 1 20.75 19L20.25 19A0.25 0.25 0 0 0 20 19.25L20 20.75A0.25 0.25 0 0 0 20.25 21L20.75 21A0.25 0.25 0 0 0 21 20.75L21 20.25A0.25 0.25 0 0 1 21.25 20L22.75 20A0.25 0.25 0 0 0 23 19.75L23 18.25A0.25 0.25 0 0 0 22.75 18L22.25 18A0.25 0.25 0 0 1 22 17.75L22 17.25A0.25 0.25 0 0 0 21.75 17L20.25 17A0.25 0.25 0 0 1 20 16.75L20 16.25A0.25 0.25 0 0 0 19.75 16L19.25 16A0.25 0.25 0 0 0 19 16.25ZM24 16.25L24 16.75A0.25 0.25 0 0 0 24.25 17L24.75 17A0.25 0.25 0 0 0 25 16.75L25 16.25A0.25 0.25 0 0 0 24.75 16L24.25 16A0.25 0.25 0 0 0 24 16.25ZM2 19.25L2 19.75A0.25 0.25 0 0 0 2.25 20L3.75 20A0.25 0.25 0 0 0 4 19.75L4 19.25A0.25 0.25 0 0 0 3.75 19L2.25 19A0.25 0.25 0 0 0 2 19.25ZM12 20.25L12 21.75A0.25 0.25 0 0 0 12.25 22L13.75 22A0.25 0.25 0 0 1 14 22.25L14 23.75A0.25 0.25 0 0 0 14.25 24L14.75 24A0.25 0.25 0 0 1 15 24.25L15 24.75A0.25 0.25 0 0 0 15.25 25L15.75 25A0.25 0.25 0 0 0 16 24.75L16 24.25A0.25 0.25 0 0 0 15.75 24L15.25 24A0.25 0.25 0 0 1 15 23.75L15 21.25A0.25 0.25 0 0 0 14.75 21L13.25 21A0.25 0.25 0 0 1 13 20.75L13 20.25A0.25 0.25 0 0 0 12.75 20L12.25 20A0.25 0.25 0 0 0 12 20.25ZM32 20.25L32 20.75A0.25 0.25 0 0 0 32.25 21L32.75 21A0.25 0.25 0 0 0 33 20.75L33 20.25A0.25 0.25 0 0 0 32.75 20L32.25 20A0.25 0.25 0 0 0 32 20.25ZM16 21.25L16 22.75A0.25 0.25 0 0 0 16.25 23L16.75 23A0.25 0.25 0 0 1 17 23.25L17 24.75A0.25 0.25 0 0 0 17.25 25L17.75 25A0.25 0.25 0 0 1 18 25.25L18 25.75A0.25 0.25 0 0 0 18.25 26L18.75 26A0.25 0.25 0 0 0 19 25.75L19 25.25A0.25 0.25 0 0 0 18.75 25L18.25 25A0.25 0.25 0 0 1 18 24.75L18 23.25A0.25 0.25 0 0 0 17.75 23L17.25 23A0.25 0.25 0 0 1 17 22.75L17 21.25A0.25 0.25 0 0 0 16.75 21L16.25 21A0.25 0.25 0 0 0 16 21.25ZM30 22.25L30 22.75A0.25 0.25 0 0 0 30.25 23L30.75 23A0.25 0.25 0 0 0 31 22.75L31 22.25A0.25 0.25 0 0 0 30.75 22L30.25 22A0.25 0.25 0 0 0 30 22.25ZM11 23.25L11 23.75A0.25 0.25 0 0 1 10.75 24L10.25 24A0.25 0.25 0 0 0 10 24.25L10 24.75A0.25 0.25 0 0 0 10.25 25L10.75 25A0.25 0.25 0 0 0 11 24.75L11 24.25A0.25 0.25 0 0 1 11.25 24L11.75 24A0.25 0.25 0 0 0 12 23.75L12 23.25A0.25 0.25 0 0 0 11.75 23L11.25 23A0.25 0.25 0 0 0 11 23.25ZM24 23.25L24 23.75A0.25 0.25 0 0 0 24.25 24L25.75 24A0.25 0.25 0 0 0 26 23.75L26 23.25A0.25 0.25 0 0 0 25.75 23L24.25 23A0.25 0.25 0 0 0 24 23.25ZM30 24.25L30 24.75A0.25 0.25 0 0 0 30.25 25L30.75 25A0.25 0.25 0 0 0 31 24.75L31 24.25A0.25 0.25 0 0 0 30.75 24L30.25 24A0.25 0.25 0 0 0 30 24.25ZM22 25.25L22 26.75A0.25 0.25 0 0 0 22.25 27L22.75 27A0.25 0.25 0 0 1 23 27.25L23 27.75A0.25 0.25 0 0 1 22.75 28L22.25 28A0.25 0.25 0 0 0 22 28.25L22 28.75A0.25 0.25 0 0 0 22.25 29L23.75 29A0.25 0.25 0 0 1 24 29.25L24 29.75A0.25 0.25 0 0 1 23.75 30L23.25 30A0.25 0.25 0 0 0 23 30.25L23 30.75A0.25 0.25 0 0 0 23.25 31L23.75 31A0.25 0.25 0 0 1 24 31.25L24 31.75A0.25 0.25 0 0 0 24.25 32L24.75 32A0.25 0.25 0 0 0 25 31.75L25 31.25A0.25 0.25 0 0 1 25.25 31L25.75 31A0.25 0.25 0 0 0 26 30.75L26 30.25A0.25 0.25 0 0 1 26.25 30L26.75 30A0.25 0.25 0 0 0 27 29.75L27 29.25A0.25 0.25 0 0 0 26.75 29L24.25 29A0.25 0.25 0 0 1 24 28.75L24 27.25A0.25 0.25 0 0 0 23.75 27L23.25 27A0.25 0.25 0 0 1 23 26.75L23 25.25A0.25 0.25 0 0 0 22.75 25L22.25 25A0.25 0.25 0 0 0 22 25.25ZM25 25.25L25 27.75A0.25 0.25 0 0 0 25.25 28L27.75 28A0.25 0.25 0 0 0 28 27.75L28 25.25A0.25 0.25 0 0 0 27.75 25L25.25 25A0.25 0.25 0 0 0 25 25.25ZM26 26.25L26 26.75A0.25 0.25 0 0 0 26.25 27L26.75 27A0.25 0.25 0 0 0 27 26.75L27 26.25A0.25 0.25 0 0 0 26.75 26L26.25 26A0.25 0.25 0 0 0 26 26.25ZM29 26.25L29 27.75A0.25 0.25 0 0 0 29.25 28L29.75 28A0.25 0.25 0 0 1 30 28.25L30 28.75A0.25 0.25 0 0 1 29.75 29L29.25 29A0.25 0.25 0 0 0 29 29.25L29 29.75A0.25 0.25 0 0 0 29.25 30L29.75 30A0.25 0.25 0 0 0 30 29.75L30 29.25A0.25 0.25 0 0 1 30.25 29L30.75 29A0.25 0.25 0 0 0 31 28.75L31 28.25A0.25 0.25 0 0 0 30.75 28L30.25 28A0.25 0.25 0 0 1 30 27.75L30 26.25A0.25 0.25 0 0 0 29.75 26L29.25 26A0.25 0.25 0 0 0 29 26.25ZM24 30.25L24 30.75A0.25 0.25 0 0 0 24.25 31L24.75 31A0.25 0.25 0 0 0 25 30.75L25 30.25A0.25 0.25 0 0 0 24.75 30L24.25 30A0.25 0.25 0 0 0 24 30.25ZM13 31.25L13 31.75A0.25 0.25 0 0 0 13.25 32L13.75 32A0.25 0.25 0 0 0 14 31.75L14 31.25A0.25 0.25 0 0 0 13.75 31L13.25 31A0.25 0.25 0 0 0 13 31.25ZM29 31.25L29 31.75A0.25 0.25 0 0 0 29.25 32L29.75 32A0.25 0.25 0 0 0 30 31.75L30 31.25A0.25 0.25 0 0 0 29.75 31L29.25 31A0.25 0.25 0 0 0 29 31.25ZM0 0.25L0 6.75A0.25 0.25 0 0 0 0.25 7L6.75 7A0.25 0.25 0 0 0 7 6.75L7 0.25A0.25 0.25 0 0 0 6.75 0L0.25 0A0.25 0.25 0 0 0 0 0.25ZM1 1.25L1 5.75A0.25 0.25 0 0 0 1.25 6L5.75 6A0.25 0.25 0 0 0 6 5.75L6 1.25A0.25 0.25 0 0 0 5.75 1L1.25 1A0.25 0.25 0 0 0 1 1.25ZM2 2.25L2 4.75A0.25 0.25 0 0 0 2.25 5L4.75 5A0.25 0.25 0 0 0 5 4.75L5 2.25A0.25 0.25 0 0 0 4.75 2L2.25 2A0.25 0.25 0 0 0 2 2.25ZM26 0.25L26 6.75A0.25 0.25 0 0 0 26.25 7L32.75 7A0.25 0.25 0 0 0 33 6.75L33 0.25A0.25 0.25 0 0 0 32.75 0L26.25 0A0.25 0.25 0 0 0 26 0.25ZM27 1.25L27 5.75A0.25 0.25 0 0 0 27.25 6L31.75 6A0.25 0.25 0 0 0 32 5.75L32 1.25A0.25 0.25 0 0 0 31.75 1L27.25 1A0.25 0.25 0 0 0 27 1.25ZM28 2.25L28 4.75A0.25 0.25 0 0 0 28.25 5L30.75 5A0.25 0.25 0 0 0 31 4.75L31 2.25A0.25 0.25 0 0 0 30.75 2L28.25 2A0.25 0.25 0 0 0 28 2.25ZM0 26.25L0 32.75A0.25 0.25 0 0 0 0.25 33L6.75 33A0.25 0.25 0 0 0 7 32.75L7 26.25A0.25 0.25 0 0 0 6.75 26L0.25 26A0.25 0.25 0 0 0 0 26.25ZM1 27.25L1 31.75A0.25 0.25 0 0 0 1.25 32L5.75 32A0.25 0.25 0 0 0 6 31.75L6 27.25A0.25 0.25 0 0 0 5.75 27L1.25 27A0.25 0.25 0 0 0 1 27.25ZM2 28.25L2 30.75A0.25 0.25 0 0 0 2.25 31L4.75 31A0.25 0.25 0 0 0 5 30.75L5 28.25A0.25 0.25 0 0 0 4.75 28L2.25 28A0.25 0.25 0 0 0 2 28.25Z" fill="#000000"/></g></g></svg>
