<?xml version="1.0" encoding="UTF-8"?>
<svg xmlns="http://www.w3.org/2000/svg" version="1.1" width="500" height="500" viewBox="0 0 500 500"><rect x="0" y="0" width="500" height="500" fill="#8a2be2"/><g transform="scale(15.152)"><g transform="translate(0,0)"><path fill-rule="evenodd" d="M11 0.25L11 0.75A0.25 0.25 0 0 0 11.25 1L11.75 1A0.25 0.25 0 0 0 12 0.75L12 0.25A0.25 0.25 0 0 0 11.75 0L11.25 0A0.25 0.25 0 0 0 11 0.25ZM13 0.25L13 1.75A0.25 0.25 0 0 1 12.75 2L10.25 2A0.25 0.25 0 0 1 10 1.75L10 1.25A0.25 0.25 0 0 0 9.75 1L8.25 1A0.25 0.25 0 0 0 8 1.25L8 1.75A0.25 0.25 0 0 0 8.25 2L9.75 2A0.25 0.25 0 0 1 10 2.25L10 2.75A0.25 0.25 0 0 1 9.75 3L9.25 3A0.25 0.25 0 0 0 9 3.25L9 4.75A0.25 0.25 0 0 1 8.75 5L8.25 5A0.25 0.25 0 0 0 8 5.25L8 7.75A0.25 0.25 0 0 1 7.75 8L4.25 8A0.25 0.25 0 0 0 4 8.25L4 8.75A0.25 0.25 0 0 1 3.75 9L1.25 9A0.25 0.25 0 0 0 1 9.25L1 9.75A0.25 0.25 0 0 0 1.25 10L1.75 10A0.25 0.25 0 0 1 2 10.25L2 10.75A0.25 0.25 0 0 1 1.75 11L1.25 11A0.25 0.25 0 0 0 1 11.25L1 11.75A0.25 0.25 0 0 1 0.75 12L0.25 12A0.25 0.25 0 0 0 0 12.25L0 13.75A0.25 0.25 0 0 0 0.25 14L0.75 14A0.25 0.25 0 0 0 1 13.75L1 13.25A0.25 0.25 0 0 1 1.25 13L1.75 13A0.25 0.25 0 0 1 2 13.25L2 13.75A0.25 0.25 0 0 0 2.25 14L2.75 14A0.25 0.25 0 0 1 3 14.25L3 14.75A0.25 0.25 0 0 1 2.75 15L2.25 15A0.25 0.25 0 0 0 2 15.25L2 16.75A0.25 0.25 0 0 1 1.75 17L1.25 17A0.25 0.25 0 0 1 1 16.75L1 16.25A0.25 0.25 0 0 0 0.75 16L0.25 16A0.25 0.25 0 0 0 0 16.25L0 21.75A0.25 0.25 0 0 0 0.25 22L0.75 22A0.25 0.25 0 0 0 1 21.75L1 21.25A0.25 0.25 0 0 1 1.25 21L2.75 21A0.25 0.25 0 0 0 3 20.75L3 20.25A0.25 0.25 0 0 0 2.75 20L2.25 20A0.25 0.25 0 0 1 2 19.75L2 19.25A0.25 0.25 0 0 1 2.25 19L2.75 19A0.25 0.25 0 0 0 3 18.75L3 18.25A0.25 0.25 0 0 0 2.75 18L2.25 18A0.25 0.25 0 0 1 2 17.75L2 17.25A0.25 0.25 0 0 1 2.25 17L3.75 17A0.25 0.25 0 0 0 4 16.75L4 16.25A0.25 0.25 0 0 0 3.75 16L3.25 16A0.25 0.25 0 0 1 3 15.75L3 15.25A0.25 0.25 0 0 1 3.25 15L3.75 15A0.25 0.25 0 0 0 4 14.75L4 14.25A0.25 0.25 0 0 1 4.25 14L4.75 14A0.25 0.25 0 0 1 5 14.25L5 15.75A0.25 0.25 0 0 0 5.25 16L5.75 16A0.25 0.25 0 0 1 6 16.25L6 16.75A0.25 0.25 0 0 0 6.25 17L6.75 17A0.25 0.25 0 0 1 7 17.25L7 17.75A0.25 0.25 0 0 1 6.75 18L4.25 18A0.25 0.25 0 0 0 4 18.25L4 18.75A0.25 0.25 0 0 0 4.25 19L4.75 19A0.25 0.25 0 0 1 5 19.25L5 19.75A0.25 0.25 0 0 0 5.25 20L5.75 20A0.25 0.25 0 0 1 6 20.25L6 20.75A0.25 0.25 0 0 0 6.25 21L7.75 21A0.25 0.25 0 0 1 8 21.25L8 23.75A0.25 0.25 0 0 1 7.75 24L6.25 24A0.25 0.25 0 0 0 6 24.25L6 24.75A0.25 0.25 0 0 0 6.25 25L7.75 25A0.25 0.25 0 0 1 8 25.25L8 28.75A0.25 0.25 0 0 0 8.25 29L8.75 29A0.25 0.25 0 0 1 9 29.25L9 29.75A0.25 0.25 0 0 0 9.25 30L10.75 30A0.25 0.25 0 0 1 11 30.25L11 31.75A0.25 0.25 0 0 1 10.75 32L10.25 32A0.25 0.25 0 0 1 10 31.75L10 31.25A0.25 0.25 0 0 0 9.75 31L9.25 31A0.25 0.25 0 0 0 9 31.25L9 32.75A0.25 0.25 0 0 0 9.25 33L11.75 33A0.25 0.25 0 0 0 12 32.75L12 30.25A0.25 0.25 0 0 1 12.25 30L14.75 30A0.25 0.25 0 0 1 15 30.25L15 30.75A0.25 0.25 0 0 0 15.25 31L16.75 31A0.25 0.25 0 0 1 17 31.25L17 31.75A0.25 0.25 0 0 0 17.25 32L19.75 32A0.25 0.25 0 0 1 20 32.25L20 32.75A0.25 0.25 0 0 0 20.25 33L21.75 33A0.25 0.25 0 0 0 22 32.75L22 30.25A0.25 0.25 0 0 1 22.25 30L22.75 30A0.25 0.25 0 0 1 23 30.25L23 30.75A0.25 0.25 0 0 0 23.25 31L23.75 31A0.25 0.25 0 0 1 24 31.25L24 32.75A0.25 0.25 0 0 0 24.25 33L25.75 33A0.25 0.25 0 0 0 26 32.75L26 32.25A0.25 0.25 0 0 0 25.75 32L25.25 32A0.25 0.25 0 0 1 25 31.75L25 31.25A0.25 0.25 0 0 0 24.75 31L24.25 31A0.25 0.25 0 0 1 24 30.75L24 30.25A0.25 0.25 0 0 1 24.25 30L25.75 30A0.25 0.25 0 0 1 26 30.25L26 30.75A0.25 0.25 0 0 0 26.25 31L26.75 31A0.25 0.25 0 0 0 27 30.75L27 29.25A0.25 0.25 0 0 1 27.25 29L27.75 29A0.25 0.25 0 0 1 28 29.25L28 30.75A0.25 0.25 0 0 0 28.25 31L28.75 31A0.25 0.25 0 0 1 29 31.25L29 31.75A0.25 0.25 0 0 1 28.75 32L27.25 32A0.25 0.25 0 0 0 27 32.25L27 32.75A0.25 0.25 0 0 0 27.25 33L30.75 33A0.25 0.25 0 0 0 31 32.75L31 32.25A0.25 0.25 0 0 0 30.75 32L30.25 32A0.25 0.25 0 0 1 30 31.75L30 31.25A0.25 0.25 0 0 0 29.75 31L29.25 31A0.25 0.25 0 0 1 29 30.75L29 29.25A0.25 0.25 0 0 1 29.25 29L29.75 29A0.25 0.25 0 0 1 30 29.25L30 29.75A0.25 0.25 0 0 0 30.25 30L30.75 30A0.25 0.25 0 0 0 31 29.75L31 29.25A0.25 0.25 0 0 0 30.75 29L30.25 29A0.25 0.25 0 0 1 30 28.75L30 26.25A0.25 0.25 0 0 1 30.25 26L30.75 26A0.25 0.25 0 0 1 31 26.25L31 27.75A0.25 0.25 0 0 0 31.25 28L31.75 28A0.25 0.25 0 0 1 32 28.25L32 29.75A0.25 0.25 0 0 0 32.25 30L32.75 30A0.25 0.25 0 0 0 33 29.75L33 28.25A0.25 0.25 0 0 0 32.75 28L32.25 28A0.25 0.25 0 0 1 32 27.75L32 26.25A0.25 0.25 0 0 0 31.75 26L31.25 26A0.25 0.25 0 0 1 31 25.75L31 25.25A0.25 0.25 0 0 0 30.75 25L30.25 25A0.25 0.25 0 0 1 30 24.75L30 23.25A0.25 0.25 0 0 1 30.25 23L31.75 23A0.25 0.25 0 0 0 32 22.75L32 22.25A0.25 0.25 0 0 1 32.25 22L32.75 22A0.25 0.25 0 0 0 33 21.75L33 19.25A0.25 0.25 0 0 0 32.75 19L32.25 19A0.25 0.25 0 0 0 32 19.25L32 19.75A0.25 0.25 0 0 1 31.75 20L31.25 20A0.25 0.25 0 0 0 31 20.25L31 20.75A0.25 0.25 0 0 1 30.75 21L29.25 21A0.25 0.25 0 0 0 29 21.25L29 21.75A0.25 0.25 0 0 1 28.75 22L28.25 22A0.25 0.25 0 0 1 28 21.75L28 20.25A0.25 0.25 0 0 1 28.25 20L28.75 20A0.25 0.25 0 0 0 29 19.75L29 19.25A0.25 0.25 0 0 1 29.25 19L30.75 19A0.25 0.25 0 0 0 31 18.75L31 18.25A0.25 0.25 0 0 1 31.25 18L32.75 18A0.25 0.25 0 0 0 33 17.75L33 17.25A0.25 0.25 0 0 0 32.75 17L32.25 17A0.25 0.25 0 0 1 32 16.75L32 16.25A0.25 0.25 0 0 1 32.25 16L32.75 16A0.25 0.25 0 0 0 33 15.75L33 15.25A0.25 0.25 0 0 0 32.75 15L32.25 15A0.25 0.25 0 0 1 32 14.75L32 14.25A0.25 0.25 0 0 1 32.25 14L32.75 14A0.25 0.25 0 0 0 33 13.75L33 13.25A0.25 0.25 0 0 0 32.75 13L31.25 13A0.25 0.25 0 0 0 31 13.25L31 13.75A0.25 0.25 0 0 1 30.75 14L30.25 14A0.25 0.25 0 0 1 30 13.75L30 11.25A0.25 0.25 0 0 1 30.25 11L30.75 11A0.25 0.25 0 0 0 31 10.75L31 9.25A0.25 0.25 0 0 1 31.25 9L31.75 9A0.25 0.25 0 0 0 32 8.75L32 8.25A0.25 0.25 0 0 0 31.75 8L31.25 8A0.25 0.25 0 0 0 31 8.25L31 8.75A0.25 0.25 0 0 1 30.75 9L30.25 9A0.25 0.25 0 0 0 30 9.25L30 9.75A0.25 0.25 0 0 1 29.75 10L28.25 10A0.25 0.25 0 0 1 28 9.75L28 8.25A0.25 0.25 0 0 0 27.75 8L26.25 8A0.25 0.25 0 0 0 26 8.25L26 8.75A0.25 0.25 0 0 1 25.75 9L22.25 9A0.25 0.25 0 0 1 22 8.75L22 8.25A0.25 0.25 0 0 1 22.25 8L23.75 8A0.25 0.25 0 0 0 24 7.75L24 7.25A0.25 0.25 0 0 1 24.25 7L24.75 7A0.25 0.25 0 0 0 25 6.75L25 6.25A0.25 0.25 0 0 0 24.75 6L24.25 6A0.25 0.25 0 0 0 24 6.25L24 6.75A0.25 0.25 0 0 1 23.75 7L23.25 7A0.25 0.25 0 0 1 23 6.75L23 6.25A0.25 0.25 0 0 0 22.75 6L22.25 6A0.25 0.25 0 0 0 22 6.25L22 6.75A0.25 0.25 0 0 1 21.75 7L21.25 7A0.25 0.25 0 0 1 21 6.75L21 5.25A0.25 0.25 0 0 1 21.25 5L22.75 5A0.25 0.25 0 0 0 23 4.75L23 4.25A0.25 0.25 0 0 1 23.25 4L23.75 4A0.25 0.25 0 0 1 24 4.25L24 4.75A0.25 0.25 0 0 0 24.25 5L24.75 5A0.25 0.25 0 0 0 25 4.75L25 1.25A0.25 0.25 0 0 0 24.75 1L24.25 1A0.25 0.25 0 0 1 24 0.75L24 0.25A0.25 0.25 0 0 0 23.75 0L23.25 0A0.25 0.25 0 0 0 23 0.25L23 0.75A0.25 0.25 0 0 0 23.25 1L23.75 1A0.25 0.25 0 0 1 24 1.25L24 1.75A0.25 0.25 0 0 1 23.75 2L21.25 2A0.25 0.25 0 0 1 21 1.75L21 0.25A0.25 0.25 0 0 0 20.75 0L18.25 0A0.25 0.25 0 0 0 18 0.25L18 0.75A0.25 0.25 0 0 0 18.25 1L18.75 1A0.25 0.25 0 0 1 19 1.25L19 2.75A0.25 0.25 0 0 1 18.75 3L17.25 3A0.25 0.25 0 0 0 17 3.25L17 4.75A0.25 0.25 0 0 0 17.25 5L18.75 5A0.25 0.25 0 0 1 19 5.25L19 5.75A0.25 0.25 0 0 1 18.75 6L18.25 6A0.25 0.25 0 0 0 18 6.25L18 6.75A0.25 0.25 0 0 1 17.75 7L17.25 7A0.25 0.25 0 0 1 17 6.75L17 6.25A0.25 0.25 0 0 0 16.75 6L16.25 6A0.25 0.25 0 0 1 16 5.75L16 2.25A0.25 0.25 0 0 1 16.25 2L16.75 2A0.25 0.25 0 0 0 17 1.75L17 1.25A0.25 0.25 0 0 0 16.75 1L15.25 1A0.25 0.25 0 0 0 15 1.25L15 4.75A0.25 0.25 0 0 1 14.75 5L14.25 5A0.25 0.25 0 0 1 14 4.75L14 4.25A0.25 0.25 0 0 0 13.75 4L13.25 4A0.25 0.25 0 0 1 13 3.75L13 3.25A0.25 0.25 0 0 1 13.25 3L13.75 3A0.25 0.25 0 0 0 14 2.75L14 0.25A0.25 0.25 0 0 0 13.75 0L13.25 0A0.25 0.25 0 0 0 13 0.25ZM19 3.25L19 3.75A0.25 0.25 0 0 0 19.25 4L19.75 4A0.25 0.25 0 0 0 20 3.75L20 3.25A0.25 0.25 0 0 0 19.75 3L19.25 3A0.25 0.25 0 0 0 19 3.25ZM21 3.25L21 3.75A0.25 0.25 0 0 0 21.25 4L21.75 4A0.25 0.25 0 0 0 22 3.75L22 3.25A0.25 0.25 0 0 0 21.75 3L21.25 3A0.25 0.25 0 0 0 21 3.25ZM11 4.25L11 4.75A0.25 0.25 0 0 0 11.25 5L12.75 5A0.25 0.25 0 0 0 13 4.75L13 4.25A0.25 0.25 0 0 0 12.75 4L11.25 4A0.25 0.25 0 0 0 11 4.25ZM9 6.25L9 7.75A0.25 0.25 0 0 1 8.75 8L8.25 8A0.25 0.25 0 0 0 8 8.25L8 8.75A0.25 0.25 0 0 0 8.25 9L8.75 9A0.25 0.25 0 0 0 9 8.75L9 8.25A0.25 0.25 0 0 1 9.25 8L9.75 8A0.25 0.25 0 0 1 10 8.25L10 9.75A0.25 0.25 0 0 0 10.25 10L10.75 10A0.25 0.25 0 0 1 11 10.25L11 11.75A0.25 0.25 0 0 0 11.25 12L11.75 12A0.25 0.25 0 0 0 12 11.75L12 11.25A0.25 0.25 0 0 1 12.25 11L13.75 11A0.25 0.25 0 0 0 14 10.75L14 10.25A0.25 0.25 0 0 1 14.25 10L14.75 10A0.25 0.25 0 0 1 15 10.25L15 10.75A0.25 0.25 0 0 0 15.25 11L15.75 11A0.25 0.25 0 0 1 16 11.25L16 11.75A0.25 0.25 0 0 1 15.75 12L13.25 12A0.25 0.25 0 0 0 13 12.25L13 13.75A0.25 0.25 0 0 1 12.75 14L11.25 14A0.25 0.25 0 0 0 11 14.25L11 14.75A0.25 0.25 0 0 0 11.25 15L11.75 15A0.25 0.25 0 0 1 12 15.25L12 15.75A0.25 0.25 0 0 1 11.75 16L11.25 16A0.25 0.25 0 0 0 11 16.25L11 16.75A0.25 0.25 0 0 1 10.75 17L10.25 17A0.25 0.25 0 0 1 10 16.75L10 16.25A0.25 0.25 0 0 0 9.75 16L8.25 16A0.25 0.25 0 0 0 8 16.25L8 16.75A0.25 0.25 0 0 0 8.25 17L8.75 17A0.25 0.25 0 0 1 9 17.25L9 17.75A0.25 0.25 0 0 1 8.75 18L7.25 18A0.25 0.25 0 0 0 7 18.25L7 18.75A0.25 0.25 0 0 1 6.75 19L6.25 19A0.25 0.25 0 0 0 6 19.25L6 19.75A0.25 0.25 0 0 0 6.25 20L7.75 20A0.25 0.25 0 0 1 8 20.25L8 20.75A0.25 0.25 0 0 0 8.25 21L8.75 21A0.25 0.25 0 0 0 9 20.75L9 20.25A0.25 0.25 0 0 0 8.75 20L8.25 20A0.25 0.25 0 0 1 8 19.75L8 19.25A0.25 0.25 0 0 1 8.25 19L9.75 19A0.25 0.25 0 0 1 10 19.25L10 19.75A0.25 0.25 0 0 0 10.25 20L10.75 20A0.25 0.25 0 0 1 11 20.25L11 20.75A0.25 0.25 0 0 1 10.75 21L10.25 21A0.25 0.25 0 0 0 10 21.25L10 21.75A0.25 0.25 0 0 0 10.25 22L11.75 22A0.25 0.25 0 0 1 12 22.25L12 22.75A0.25 0.25 0 0 1 11.75 23L9.25 23A0.25 0.25 0 0 0 9 23.25L9 24.75A0.25 0.25 0 0 0 9.25 25L9.75 25A0.25 0.25 0 0 1 10 25.25L10 25.75A0.25 0.25 0 0 0 10.25 26L10.75 26A0.25 0.25 0 0 0 11 25.75L11 25.25A0.25 0.25 0 0 0 10.75 25L10.25 25A0.25 0.25 0 0 1 10 24.75L10 24.25A0.25 0.25 0 0 1 10.25 24L11.75 24A0.25 0.25 0 0 1 12 24.25L12 26.75A0.25 0.25 0 0 0 12.25 27L12.75 27A0.25 0.25 0 0 1 13 27.25L13 27.75A0.25 0.25 0 0 0 13.25 28L13.75 28A0.25 0.25 0 0 1 14 28.25L14 28.75A0.25 0.25 0 0 0 14.25 29L14.75 29A0.25 0.25 0 0 0 15 28.75L15 28.25A0.25 0.25 0 0 0 14.75 28L14.25 28A0.25 0.25 0 0 1 14 27.75L14 26.25A0.25 0.25 0 0 1 14.25 26L14.75 26A0.25 0.25 0 0 1 15 26.25L15 26.75A0.25 0.25 0 0 0 15.25 27L15.75 27A0.25 0.25 0 0 0 16 26.75L16 24.25A0.25 0.25 0 0 0 15.75 24L15.25 24A0.25 0.25 0 0 0 15 24.25L15 24.75A0.25 0.25 0 0 1 14.75 25L14.25 25A0.25 0.25 0 0 0 14 25.25L14 25.75A0.25 0.25 0 0 1 13.75 26L13.25 26A0.25 0.25 0 0 1 13 25.75L13 24.25A0.25 0.25 0 0 1 13.25 24L13.75 24A0.25 0.25 0 0 0 14 23.75L14 23.25A0.25 0.25 0 0 1 14.25 23L15.75 23A0.25 0.25 0 0 0 16 22.75L16 22.25A0.25 0.25 0 0 1 16.25 22L16.75 22A0.25 0.25 0 0 1 17 22.25L17 22.75A0.25 0.25 0 0 0 17.25 23L17.75 23A0.25 0.25 0 0 1 18 23.25L18 26.75A0.25 0.25 0 0 1 17.75 27L17.25 27A0.25 0.25 0 0 0 17 27.25L17 27.75A0.25 0.25 0 0 1 16.75 28L16.25 28A0.25 0.25 0 0 0 16 28.25L16 28.75A0.25 0.25 0 0 0 16.25 29L16.75 29A0.25 0.25 0 0 1 17 29.25L17 29.75A0.25 0.25 0 0 0 17.25 30L17.75 30A0.25 0.25 0 0 1 18 30.25L18 30.75A0.25 0.25 0 0 0 18.25 31L18.75 31A0.25 0.25 0 0 0 19 30.75L19 27.25A0.25 0.25 0 0 1 19.25 27L20.75 27A0.25 0.25 0 0 0 21 26.75L21 26.25A0.25 0.25 0 0 1 21.25 26L21.75 26A0.25 0.25 0 0 0 22 25.75L22 24.25A0.25 0.25 0 0 0 21.75 24L21.25 24A0.25 0.25 0 0 0 21 24.25L21 24.75A0.25 0.25 0 0 1 20.75 25L19.25 25A0.25 0.25 0 0 1 19 24.75L19 24.25A0.25 0.25 0 0 1 19.25 24L19.75 24A0.25 0.25 0 0 0 20 23.75L20 23.25A0.25 0.25 0 0 1 20.25 23L20.75 23A0.25 0.25 0 0 0 21 22.75L21 22.25A0.25 0.25 0 0 1 21.25 22L21.75 22A0.25 0.25 0 0 1 22 22.25L22 22.75A0.25 0.25 0 0 0 22.25 23L22.75 23A0.25 0.25 0 0 1 23 23.25L23 23.75A0.25 0.25 0 0 0 23.25 24L23.75 24A0.25 0.25 0 0 0 24 23.75L24 23.25A0.25 0.25 0 0 1 24.25 23L24.75 23A0.25 0.25 0 0 1 25 23.25L25 23.75A0.25 0.25 0 0 0 25.25 24L25.75 24A0.25 0.25 0 0 0 26 23.75L26 23.25A0.25 0.25 0 0 0 25.75 23L25.25 23A0.25 0.25 0 0 1 25 22.75L25 22.25A0.25 0.25 0 0 1 25.25 22L25.75 22A0.25 0.25 0 0 0 26 21.75L26 21.25A0.25 0.25 0 0 0 25.75 21L24.25 21A0.25 0.25 0 0 1 24 20.75L24 20.25A0.25 0.25 0 0 1 24.25 20L24.75 20A0.25 0.25 0 0 0 25 19.75L25 19.25A0.25 0.25 0 0 1 25.25 19L25.75 19A0.25 0.25 0 0 1 26 19.25L26 19.75A0.25 0.25 0 0 0 26.25 20L27.75 20A0.25 0.25 0 0 0 28 19.75L28 19.25A0.25 0.25 0 0 0 27.75 19L27.25 19A0.25 0.25 0 0 1 27 18.75L27 18.25A0.25 0.25 0 0 1 27.25 18L30.75 18A0.25 0.25 0 0 0 31 17.75L31 17.25A0.25 0.25 0 0 0 30.75 17L30.25 17A0.25 0.25 0 0 1 30 16.75L30 15.25A0.25 0.25 0 0 0 29.75 15L29.25 15A0.25 0.25 0 0 1 29 14.75L29 14.25A0.25 0.25 0 0 0 28.75 14L28.25 14A0.25 0.25 0 0 0 28 14.25L28 14.75A0.25 0.25 0 0 1 27.75 15L27.25 15A0.25 0.25 0 0 1 27 14.75L27 13.25A0.25 0.25 0 0 1 27.25 13L28.75 13A0.25 0.25 0 0 0 29 12.75L29 11.25A0.25 0.25 0 0 0 28.75 11L28.25 11A0.25 0.25 0 0 0 28 11.25L28 11.75A0.25 0.25 0 0 1 27.75 12L27.25 12A0.25 0.25 0 0 0 27 12.25L27 12.75A0.25 0.25 0 0 1 26.75 13L25.25 13A0.25 0.25 0 0 1 25 12.75L25 11.25A0.25 0.25 0 0 1 25.25 11L26.75 11A0.25 0.25 0 0 0 27 10.75L27 9.25A0.25 0.25 0 0 0 26.75 9L26.25 9A0.25 0.25 0 0 0 26 9.25L26 9.75A0.25 0.25 0 0 1 25.75 10L25.25 10A0.25 0.25 0 0 0 25 10.25L25 10.75A0.25 0.25 0 0 1 24.75 11L23.25 11A0.25 0.25 0 0 1 23 10.75L23 10.25A0.25 0.25 0 0 0 22.75 10L21.25 10A0.25 0.25 0 0 1 21 9.75L21 9.25A0.25 0.25 0 0 0 20.75 9L20.25 9A0.25 0.25 0 0 1 20 8.75L20 6.25A0.25 0.25 0 0 0 19.75 6L19.25 6A0.25 0.25 0 0 0 19 6.25L19 6.75A0.25 0.25 0 0 1 18.75 7L18.25 7A0.25 0.25 0 0 0 18 7.25L18 8.75A0.25 0.25 0 0 1 17.75 9L16.25 9A0.25 0.25 0 0 1 16 8.75L16 8.25A0.25 0.25 0 0 1 16.25 8L16.75 8A0.25 0.25 0 0 0 17 7.75L17 7.25A0.25 0.25 0 0 0 16.75 7L16.25 7A0.25 0.25 0 0 1 16 6.75L16 6.25A0.25 0.25 0 0 0 15.75 6L15.25 6A0.25 0.25 0 0 0 15 6.25L15 8.75A0.25 0.25 0 0 1 14.75 9L14.25 9A0.25 0.25 0 0 1 14 8.75L14 8.25A0.25 0.25 0 0 0 13.75 8L12.25 8A0.25 0.25 0 0 1 12 7.75L12 6.25A0.25 0.25 0 0 0 11.75 6L11.25 6A0.25 0.25 0 0 0 11 6.25L11 7.75A0.25 0.25 0 0 1 10.75 8L10.25 8A0.25 0.25 0 0 1 10 7.75L10 6.25A0.25 0.25 0 0 0 9.75 6L9.25 6A0.25 0.25 0 0 0 9 6.25ZM13 6.25L13 6.75A0.25 0.25 0 0 0 13.25 7L13.75 7A0.25 0.25 0 0 0 14 6.75L14 6.25A0.25 0.25 0 0 0 13.75 6L13.25 6A0.25 0.25 0 0 0 13 6.25ZM6 9.25L6 9.75A0.25 0.25 0 0 0 6.25 10L6.75 10A0.25 0.25 0 0 1 7 10.25L7 10.75A0.25 0.25 0 0 1 6.75 11L6.25 11A0.25 0.25 0 0 0 6 11.25L6 11.75A0.25 0.25 0 0 0 6.25 12L7.75 12A0.25 0.25 0 0 0 8 11.75L8 10.25A0.25 0.25 0 0 0 7.75 10L7.25 10A0.25 0.25 0 0 1 7 9.75L7 9.25A0.25 0.25 0 0 0 6.75 9L6.25 9A0.25 0.25 0 0 0 6 9.25ZM11 9.25L11 9.75A0.25 0.25 0 0 0 11.25 10L12.75 10A0.25 0.25 0 0 0 13 9.75L13 9.25A0.25 0.25 0 0 0 12.75 9L11.25 9A0.25 0.25 0 0 0 11 9.25ZM15 9.25L15 9.75A0.25 0.25 0 0 0 15.25 10L15.75 10A0.25 0.25 0 0 0 16 9.75L16 9.25A0.25 0.25 0 0 0 15.75 9L15.25 9A0.25 0.25 0 0 0 15 9.25ZM19 9.25L19 9.75A0.25 0.25 0 0 1 18.75 10L18.25 10A0.25 0.25 0 0 0 18 10.25L18 10.75A0.25 0.25 0 0 0 18.25 11L18.75 11A0.25 0.25 0 0 1 19 11.25L19 11.75A0.25 0.25 0 0 0 19.25 12L19.75 12A0.25 0.25 0 0 1 20 12.25L20 12.75A0.25 0.25 0 0 1 19.75 13L19.25 13A0.25 0.25 0 0 0 19 13.25L19 13.75A0.25 0.25 0 0 0 19.25 14L21.75 14A0.25 0.25 0 0 0 22 13.75L22 13.25A0.25 0.25 0 0 1 22.25 13L22.75 13A0.25 0.25 0 0 1 23 13.25L23 15.75A0.25 0.25 0 0 1 22.75 16L22.25 16A0.25 0.25 0 0 1 22 15.75L22 15.25A0.25 0.25 0 0 0 21.75 15L21.25 15A0.25 0.25 0 0 0 21 15.25L21 15.75A0.25 0.25 0 0 1 20.75 16L20.25 16A0.25 0.25 0 0 0 20 16.25L20 16.75A0.25 0.25 0 0 1 19.75 17L19.25 17A0.25 0.25 0 0 0 19 17.25L19 17.75A0.25 0.25 0 0 1 18.75 18L18.25 18A0.25 0.25 0 0 0 18 18.25L18 18.75A0.25 0.25 0 0 1 17.75 19L17.25 19A0.25 0.25 0 0 0 17 19.25L17 19.75A0.25 0.25 0 0 1 16.75 20L16.25 20A0.25 0.25 0 0 1 16 19.75L16 19.25A0.25 0.25 0 0 0 15.75 19L15.25 19A0.25 0.25 0 0 0 15 19.25L15 19.75A0.25 0.25 0 0 0 15.25 20L15.75 20A0.25 0.25 0 0 1 16 20.25L16 20.75A0.25 0.25 0 0 1 15.75 21L14.25 21A0.25 0.25 0 0 0 14 21.25L14 21.75A0.25 0.25 0 0 0 14.25 22L15.75 22A0.25 0.25 0 0 0 16 21.75L16 21.25A0.25 0.25 0 0 1 16.25 21L17.75 21A0.25 0.25 0 0 1 18 21.25L18 21.75A0.25 0.25 0 0 0 18.25 22L18.75 22A0.25 0.25 0 0 1 19 22.25L19 22.75A0.25 0.25 0 0 0 19.25 23L19.75 23A0.25 0.25 0 0 0 20 22.75L20 22.25A0.25 0.25 0 0 1 20.25 22L20.75 22A0.25 0.25 0 0 0 21 21.75L21 21.25A0.25 0.25 0 0 1 21.25 21L21.75 21A0.25 0.25 0 0 1 22 21.25L22 21.75A0.25 0.25 0 0 0 22.25 22L22.75 22A0.25 0.25 0 0 0 23 21.75L23 21.25A0.25 0.25 0 0 0 22.75 21L22.25 21A0.25 0.25 0 0 1 22 20.75L22 20.25A0.25 0.25 0 0 1 22.25 20L23.75 20A0.25 0.25 0 0 0 24 19.75L24 18.25A0.25 0.25 0 0 0 23.75 18L21.25 18A0.25 0.25 0 0 0 21 18.25L21 18.75A0.25 0.25 0 0 1 20.75 19L20.25 19A0.25 0.25 0 0 1 20 18.75L20 17.25A0.25 0.25 0 0 1 20.25 17L22.75 17A0.25 0.25 0 0 0 23 16.75L23 16.25A0.25 0.25 0 0 1 23.25 16L23.75 16A0.25 0.25 0 0 1 24 16.25L24 16.75A0.25 0.25 0 0 0 24.25 17L28.75 17A0.25 0.25 0 0 0 29 16.75L29 16.25A0.25 0.25 0 0 0 28.75 16L25.25 16A0.25 0.25 0 0 1 25 15.75L25 15.25A0.25 0.25 0 0 1 25.25 15L25.75 15A0.25 0.25 0 0 0 26 14.75L26 14.25A0.25 0.25 0 0 0 25.75 14L25.25 14A0.25 0.25 0 0 1 25 13.75L25 13.25A0.25 0.25 0 0 0 24.75 13L23.25 13A0.25 0.25 0 0 1 23 12.75L23 11.25A0.25 0.25 0 0 0 22.75 11L22.25 11A0.25 0.25 0 0 0 22 11.25L22 12.75A0.25 0.25 0 0 1 21.75 13L21.25 13A0.25 0.25 0 0 1 21 12.75L21 12.25A0.25 0.25 0 0 0 20.75 12L20.25 12A0.25 0.25 0 0 1 20 11.75L20 11.25A0.25 0.25 0 0 0 19.75 11L19.25 11A0.25 0.25 0 0 1 19 10.75L19 10.25A0.25 0.25 0 0 1 19.25 10L19.75 10A0.25 0.25 0 0 0 20 9.75L20 9.25A0.25 0.25 0 0 0 19.75 9L19.25 9A0.25 0.25 0 0 0 19 9.25ZM4 10.25L4 10.75A0.25 0.25 0 0 0 4.25 11L4.75 11A0.25 0.25 0 0 0 5 10.75L5 10.25A0.25 0.25 0 0 0 4.75 10L4.25 10A0.25 0.25 0 0 0 4 10.25ZM2 11.25L2 11.75A0.25 0.25 0 0 0 2.25 12L2.75 12A0.25 0.25 0 0 1 3 12.25L3 13.75A0.25 0.25 0 0 0 3.25 14L3.75 14A0.25 0.25 0 0 0 4 13.75L4 12.25A0.25 0.25 0 0 0 3.75 12L3.25 12A0.25 0.25 0 0 1 3 11.75L3 11.25A0.25 0.25 0 0 0 2.75 11L2.25 11A0.25 0.25 0 0 0 2 11.25ZM9 12.25L9 12.75A0.25 0.25 0 0 1 8.75 13L8.25 13A0.25 0.25 0 0 0 8 13.25L8 13.75A0.25 0.25 0 0 1 7.75 14L7.25 14A0.25 0.25 0 0 1 7 13.75L7 13.25A0.25 0.25 0 0 0 6.75 13L5.25 13A0.25 0.25 0 0 0 5 13.25L5 13.75A0.25 0.25 0 0 0 5.25 14L6.75 14A0.25 0.25 0 0 1 7 14.25L7 14.75A0.25 0.25 0 0 1 6.75 15L6.25 15A0.25 0.25 0 0 0 6 15.25L6 15.75A0.25 0.25 0 0 0 6.25 16L6.75 16A0.25 0.25 0 0 0 7 15.75L7 15.25A0.25 0.25 0 0 1 7.25 15L8.75 15A0.25 0.25 0 0 0 9 14.75L9 14.25A0.25 0.25 0 0 1 9.25 14L9.75 14A0.25 0.25 0 0 0 10 13.75L10 12.25A0.25 0.25 0 0 0 9.75 12L9.25 12A0.25 0.25 0 0 0 9 12.25ZM17 12.25L17 12.75A0.25 0.25 0 0 0 17.25 13L17.75 13A0.25 0.25 0 0 0 18 12.75L18 12.25A0.25 0.25 0 0 0 17.75 12L17.25 12A0.25 0.25 0 0 0 17 12.25ZM15 13.25L15 13.75A0.25 0.25 0 0 0 15.25 14L15.75 14A0.25 0.25 0 0 1 16 14.25L16 14.75A0.25 0.25 0 0 0 16.25 15L17.75 15A0.25 0.25 0 0 1 18 15.25L18 15.75A0.25 0.25 0 0 1 17.75 16L16.25 16A0.25 0.25 0 0 0 16 16.25L16 16.75A0.25 0.25 0 0 0 16.25 17L17.75 17A0.25 0.25 0 0 0 18 16.75L18 16.25A0.25 0.25 0 0 1 18.25 16L18.75 16A0.25 0.25 0 0 0 19 15.75L19 15.25A0.25 0.25 0 0 0 18.75 15L18.25 15A0.25 0.25 0 0 1 18 14.75L18 14.25A0.25 0.25 0 0 0 17.75 14L16.25 14A0.25 0.25 0 0 1 16 13.75L16 13.25A0.25 0.25 0 0 0 15.75 13L15.25 13A0.25 0.25 0 0 0 15 13.25ZM24 14.25L24 14.75A0.25 0.25 0 0 0 24.25 15L24.75 15A0.25 0.25 0 0 0 25 14.75L25 14.25A0.25 0.25 0 0 0 24.75 14L24.25 14A0.25 0.25 0 0 0 24 14.25ZM31 15.25L31 15.75A0.25 0.25 0 0 0 31.25 16L31.75 16A0.25 0.25 0 0 0 32 15.75L32 15.25A0.25 0.25 0 0 0 31.75 15L31.25 15A0.25 0.25 0 0 0 31 15.25ZM13 16.25L13 16.75A0.25 0.25 0 0 1 12.75 17L12.25 17A0.25 0.25 0 0 0 12 17.25L12 20.75A0.25 0.25 0 0 0 12.25 21L12.75 21A0.25 0.25 0 0 0 13 20.75L13 20.25A0.25 0.25 0 0 1 13.25 20L13.75 20A0.25 0.25 0 0 0 14 19.75L14 19.25A0.25 0.25 0 0 0 13.75 19L13.25 19A0.25 0.25 0 0 1 13 18.75L13 17.25A0.25 0.25 0 0 1 13.25 17L14.75 17A0.25 0.25 0 0 0 15 16.75L15 16.25A0.25 0.25 0 0 0 14.75 16L13.25 16A0.25 0.25 0 0 0 13 16.25ZM10 18.25L10 18.75A0.25 0.25 0 0 0 10.25 19L10.75 19A0.25 0.25 0 0 0 11 18.75L11 18.25A0.25 0.25 0 0 0 10.75 18L10.25 18A0.25 0.25 0 0 0 10 18.25ZM18 19.25L18 20.75A0.25 0.25 0 0 0 18.25 21L18.75 21A0.25 0.25 0 0 1 19 21.25L19 21.75A0.25 0.25 0 0 0 19.25 22L19.75 22A0.25 0.25 0 0 0 20 21.75L20 21.25A0.25 0.25 0 0 0 19.75 21L19.25 21A0.25 0.25 0 0 1 19 20.75L19 20.25A0.25 0.25 0 0 1 19.25 20L19.75 20A0.25 0.25 0 0 0 20 19.75L20 19.25A0.25 0.25 0 0 0 19.75 19L18.25 19A0.25 0.25 0 0 0 18 19.25ZM2 22.25L2 22.75A0.25 0.25 0 0 0 2.25 23L2.75 23A0.25 0.25 0 0 1 3 23.25L3 23.75A0.25 0.25 0 0 0 3.25 24L3.75 24A0.25 0.25 0 0 0 4 23.75L4 23.25A0.25 0.25 0 0 1 4.25 23L6.75 23A0.25 0.25 0 0 0 7 22.75L7 22.25A0.25 0.25 0 0 0 6.75 22L2.25 22A0.25 0.25 0 0 0 2 22.25ZM27 22.25L27 22.75A0.25 0.25 0 0 0 27.25 23L27.75 23A0.25 0.25 0 0 0 28 22.75L28 22.25A0.25 0.25 0 0 0 27.75 22L27.25 22A0.25 0.25 0 0 0 27 22.25ZM0 24.25L0 24.75A0.25 0.25 0 0 0 0.25 25L1.75 25A0.25 0.25 0 0 0 2 24.75L2 24.25A0.25 0.25 0 0 0 1.75 24L0.25 24A0.25 0.25 0 0 0 0 24.25ZM32 24.25L32 24.75A0.25 0.25 0 0 0 32.25 25L32.75 25A0.25 0.25 0 0 0 33 24.75L33 24.25A0.25 0.25 0 0 0 32.75 24L32.25 24A0.25 0.25 0 0 0 32 24.25ZM25 25.25L25 27.75A0.25 0.25 0 0 0 25.25 28L27.75 28A0.25 0.25 0 0 0 28 27.75L28 25.25A0.25 0.25 0 0 0 27.75 25L25.25 25A0.25 0.25 0 0 0 25 25.25ZM29 25.25L29 25.75A0.25 0.25 0 0 0 29.25 26L29.75 26A0.25 0.25 0 0 0 30 25.75L30 25.25A0.25 0.25 0 0 0 29.75 25L29.25 25A0.25 0.25 0 0 0 29 25.25ZM23 26.25L23 26.75A0.25 0.25 0 0 1 22.75 27L22.25 27A0.25 0.25 0 0 0 22 27.25L22 27.75A0.25 0.25 0 0 1 21.75 28L20.25 28A0.25 0.25 0 0 0 20 28.25L20 28.75A0.25 0.25 0 0 0 20.25 29L20.75 29A0.25 0.25 0 0 1 21 29.25L21 29.75A0.25 0.25 0 0 1 20.75 30L20.25 30A0.25 0.25 0 0 0 20 30.25L20 31.75A0.25 0.25 0 0 0 20.25 32L20.75 32A0.25 0.25 0 0 0 21 31.75L21 30.25A0.25 0.25 0 0 1 21.25 30L21.75 30A0.25 0.25 0 0 0 22 29.75L22 29.25A0.25 0.25 0 0 1 22.25 29L22.75 29A0.25 0.25 0 0 1 23 29.25L23 29.75A0.25 0.25 0 0 0 23.25 30L23.75 30A0.25 0.25 0 0 0 24 29.75L24 28.25A0.25 0.25 0 0 0 23.75 28L23.25 28A0.25 0.25 0 0 1 23 27.75L23 27.25A0.25 0.25 0 0 1 23.25 27L23.75 27A0.25 0.25 0 0 0 24 26.75L24 26.25A0.25 0.25 0 0 0 23.75 26L23.25 26A0.25 0.25 0 0 0 23 26.25ZM26 26.25L26 26.75A0.25 0.25 0 0 0 26.25 27L26.75 27A0.25 0.25 0 0 0 27 26.75L27 26.25A0.25 0.25 0 0 0 26.75 26L26.25 26A0.25 0.25 0 0 0 26 26.25ZM9 27.25L9 27.75A0.25 0.25 0 0 0 9.25 28L9.75 28A0.25 0.25 0 0 1 10 28.25L10 28.75A0.25 0.25 0 0 0 10.25 29L10.75 29A0.25 0.25 0 0 0 11 28.75L11 27.25A0.25 0.25 0 0 0 10.75 27L9.25 27A0.25 0.25 0 0 0 9 27.25ZM13 31.25L13 32.75A0.25 0.25 0 0 0 13.25 33L14.75 33A0.25 0.25 0 0 0 15 32.75L15 32.25A0.25 0.25 0 0 0 14.75 32L14.25 32A0.25 0.25 0 0 1 14 31.75L14 31.25A0.25 0.25 0 0 0 13.75 31L13.25 31A0.25 0.25 0 0 0 13 31.25ZM32 32.25L32 32.75A0.25 0.25 0 0 0 32.25 33L32.75 33A0.25 0.25 0 0 0 33 32.75L33 32.25A0.25 0.25 0 0 0 32.75 32L32.25 32A0.25 0.25 0 0 0 32 32.25ZM0 0.25L0 6.75A0.25 0.25 0 0 0 0.25 7L6.75 7A0.25 0.25 0 0 0 7 6.75L7 0.25A0.25 0.25 0 0 0 6.75 0L0.25 0A0.25 0.25 0 0 0 0 0.25ZM1 1.25L1 5.75A0.25 0.25 0 0 0 1.25 6L5.75 6A0.25 0.25 0 0 0 6 5.75L6 1.25A0.25 0.25 0 0 0 5.75 1L1.25 1A0.25 0.25 0 0 0 1 1.25ZM2 2.25L2 4.75A0.25 0.25 0 0 0 2.25 5L4.75 5A0.25 0.25 0 0 0 5 4.75L5 2.25A0.25 0.25 0 0 0 4.75 2L2.25 2A0.25 0.25 0 0 0 2 2.25ZM26 0.25L26 6.75A0.25 0.25 0 0 0 26.25 7L32.75 7A0.25 0.25 0 0 0 33 6.75L33 0.25A0.25 0.25 0 0 0 32.75 0L26.25 0A0.25 0.25 0 0 0 26 0.25ZM27 1.25L27 5.75A0.25 0.25 0 0 0 27.25 6L31.75 6A0.25 0.25 0 0 0 32 5.75L32 1.25A0.25 0.25 0 0 0 31.75 1L27.25 1A0.25 0.25 0 0 0 27 1.25ZM28 2.25L28 4.75A0.25 0.25 0 0 0 28.25 5L30.75 5A0.25 0.25 0 0 0 31 4.75L31 2.25A0.25 0.25 0 0 0 30.75 2L28.25 2A0.25 0.25 0 0 0 28 2.25ZM0 26.25L0 32.75A0.25 0.25 0 0 0 0.25 33L6.75 33A0.25 0.25 0 0 0 7 32.75L7 26.25A0.25 0.25 0 0 0 6.75 26L0.25 26A0.25 0.25 0 0 0 0 26.25ZM1 27.25L1 31.75A0.25 0.25 0 0 0 1.25 32L5.75 32A0.25 0.25 0 0 0 6 31.75L6 27.25A0.25 0.25 0 0 0 5.75 27L1.25 27A0.25 0.25 0 0 0 1 27.25ZM2 28.25L2 30.75A0.25 0.25 0 0 0 2.25 31L4.75 31A0.25 0.25 0 0 0 5 30.75L5 28.25A0.25 0.25 0 0 0 4.75 28L2.25 28A0.25 0.25 0 0 0 2 28.25Z" fill="#000000"/></g></g></svg>
