<?xml version="1.0" encoding="UTF-8"?>
<svg xmlns="http://www.w3.org/2000/svg" version="1.1" width="500" height="500" viewBox="0 0 500 500"><rect x="0" y="0" width="500" height="500" fill="#8a2be2"/><g transform="scale(10.204)"><g transform="translate(0,0)"><path fill-rule="evenodd" d="M10 0.25L10 1.75A0.25 0.25 0 0 1 9.75 2L9.25 2A0.25 0.25 0 0 1 9 1.75L9 1.25A0.25 0.25 0 0 0 8.75 1L8.25 1A0.25 0.25 0 0 0 8 1.25L8 1.75A0.25 0.25 0 0 0 8.25 2L8.75 2A0.25 0.25 0 0 1 9 2.25L9 2.75A0.25 0.25 0 0 0 9.25 3L9.75 3A0.25 0.25 0 0 1 10 3.25L10 3.75A0.25 0.25 0 0 1 9.75 4L9.25 4A0.25 0.25 0 0 0 9 4.25L9 4.75A0.25 0.25 0 0 1 8.75 5L8.25 5A0.25 0.25 0 0 0 8 5.25L8 7.75A0.25 0.25 0 0 1 7.75 8L4.25 8A0.25 0.25 0 0 0 4 8.25L4 8.75A0.25 0.25 0 0 1 3.75 9L1.25 9A0.25 0.25 0 0 0 1 9.25L1 10.75A0.25 0.25 0 0 0 1.25 11L1.75 11A0.25 0.25 0 0 1 2 11.25L2 11.75A0.25 0.25 0 0 0 2.25 12L4.75 12A0.25 0.25 0 0 0 5 11.75L5 11.25A0.25 0.25 0 0 1 5.25 11L6.75 11A0.25 0.25 0 0 1 7 11.25L7 11.75A0.25 0.25 0 0 1 6.75 12L6.25 12A0.25 0.25 0 0 0 6 12.25L6 12.75A0.25 0.25 0 0 1 5.75 13L4.25 13A0.25 0.25 0 0 0 4 13.25L4 14.75A0.25 0.25 0 0 1 3.75 15L2.25 15A0.25 0.25 0 0 0 2 15.25L2 15.75A0.25 0.25 0 0 0 2.25 16L2.75 16A0.25 0.25 0 0 1 3 16.25L3 17.75A0.25 0.25 0 0 1 2.75 18L1.25 18A0.25 0.25 0 0 0 1 18.25L1 18.75A0.25 0.25 0 0 1 0.75 19L0.25 19A0.25 0.25 0 0 0 0 19.25L0 19.75A0.25 0.25 0 0 0 0.25 20L0.75 20A0.25 0.25 0 0 0 1 19.75L1 19.25A0.25 0.25 0 0 1 1.25 19L2.75 19A0.25 0.25 0 0 1 3 19.25L3 19.75A0.25 0.25 0 0 1 2.75 20L2.25 20A0.25 0.25 0 0 0 2 20.25L2 20.75A0.25 0.25 0 0 0 2.25 21L2.75 21A0.25 0.25 0 0 1 3 21.25L3 21.75A0.25 0.25 0 0 1 2.75 22L2.25 22A0.25 0.25 0 0 0 2 22.25L2 22.75A0.25 0.25 0 0 0 2.25 23L2.75 23A0.25 0.25 0 0 1 3 23.25L3 23.75A0.25 0.25 0 0 1 2.75 24L2.25 24A0.25 0.25 0 0 0 2 24.25L2 24.75A0.25 0.25 0 0 1 1.75 25L1.25 25A0.25 0.25 0 0 1 1 24.75L1 22.25A0.25 0.25 0 0 0 0.75 22L0.25 22A0.25 0.25 0 0 0 0 22.25L0 24.75A0.25 0.25 0 0 0 0.25 25L0.75 25A0.25 0.25 0 0 1 1 25.25L1 25.75A0.25 0.25 0 0 1 0.75 26L0.25 26A0.25 0.25 0 0 0 0 26.25L0 26.75A0.25 0.25 0 0 0 0.25 27L2.75 27A0.25 0.25 0 0 0 3 26.75L3 26.25A0.25 0.25 0 0 0 2.75 26L2.25 26A0.25 0.25 0 0 1 2 25.75L2 25.25A0.25 0.25 0 0 1 2.25 25L2.75 25A0.25 0.25 0 0 0 3 24.75L3 24.25A0.25 0.25 0 0 1 3.25 24L3.75 24A0.25 0.25 0 0 1 4 24.25L4 26.75A0.25 0.25 0 0 0 4.25 27L4.75 27A0.25 0.25 0 0 1 5 27.25L5 28.75A0.25 0.25 0 0 0 5.25 29L6.75 29A0.25 0.25 0 0 1 7 29.25L7 29.75A0.25 0.25 0 0 1 6.75 30L6.25 30A0.25 0.25 0 0 0 6 30.25L6 30.75A0.25 0.25 0 0 1 5.75 31L5.25 31A0.25 0.25 0 0 1 5 30.75L5 30.25A0.25 0.25 0 0 0 4.75 30L4.25 30A0.25 0.25 0 0 1 4 29.75L4 28.25A0.25 0.25 0 0 0 3.75 28L3.25 28A0.25 0.25 0 0 0 3 28.25L3 28.75A0.25 0.25 0 0 1 2.75 29L2.25 29A0.25 0.25 0 0 1 2 28.75L2 28.25A0.25 0.25 0 0 0 1.75 28L1.25 28A0.25 0.25 0 0 0 1 28.25L1 29.75A0.25 0.25 0 0 0 1.25 30L3.75 30A0.25 0.25 0 0 1 4 30.25L4 30.75A0.25 0.25 0 0 0 4.25 31L4.75 31A0.25 0.25 0 0 1 5 31.25L5 31.75A0.25 0.25 0 0 1 4.75 32L4.25 32A0.25 0.25 0 0 0 4 32.25L4 32.75A0.25 0.25 0 0 1 3.75 33L3.25 33A0.25 0.25 0 0 0 3 33.25L3 33.75A0.25 0.25 0 0 0 3.25 34L3.75 34A0.25 0.25 0 0 1 4 34.25L4 35.75A0.25 0.25 0 0 0 4.25 36L4.75 36A0.25 0.25 0 0 0 5 35.75L5 35.25A0.25 0.25 0 0 1 5.25 35L7.75 35A0.25 0.25 0 0 1 8 35.25L8 36.75A0.25 0.25 0 0 0 8.25 37L8.75 37A0.25 0.25 0 0 0 9 36.75L9 36.25A0.25 0.25 0 0 1 9.25 36L9.75 36A0.25 0.25 0 0 1 10 36.25L10 36.75A0.25 0.25 0 0 0 10.25 37L11.75 37A0.25 0.25 0 0 1 12 37.25L12 37.75A0.25 0.25 0 0 0 12.25 38L12.75 38A0.25 0.25 0 0 1 13 38.25L13 38.75A0.25 0.25 0 0 1 12.75 39L12.25 39A0.25 0.25 0 0 0 12 39.25L12 39.75A0.25 0.25 0 0 1 11.75 40L11.25 40A0.25 0.25 0 0 1 11 39.75L11 38.25A0.25 0.25 0 0 0 10.75 38L5.25 38A0.25 0.25 0 0 1 5 37.75L5 37.25A0.25 0.25 0 0 0 4.75 37L4.25 37A0.25 0.25 0 0 0 4 37.25L4 37.75A0.25 0.25 0 0 0 4.25 38L4.75 38A0.25 0.25 0 0 1 5 38.25L5 38.75A0.25 0.25 0 0 0 5.25 39L7.75 39A0.25 0.25 0 0 1 8 39.25L8 44.75A0.25 0.25 0 0 0 8.25 45L8.75 45A0.25 0.25 0 0 1 9 45.25L9 48.75A0.25 0.25 0 0 0 9.25 49L9.75 49A0.25 0.25 0 0 0 10 48.75L10 47.25A0.25 0.25 0 0 1 10.25 47L10.75 47A0.25 0.25 0 0 0 11 46.75L11 46.25A0.25 0.25 0 0 1 11.25 46L12.75 46A0.25 0.25 0 0 0 13 45.75L13 44.25A0.25 0.25 0 0 0 12.75 44L11.25 44A0.25 0.25 0 0 1 11 43.75L11 43.25A0.25 0.25 0 0 1 11.25 43L13.75 43A0.25 0.25 0 0 1 14 43.25L14 43.75A0.25 0.25 0 0 0 14.25 44L14.75 44A0.25 0.25 0 0 0 15 43.75L15 40.25A0.25 0.25 0 0 0 14.75 40L13.25 40A0.25 0.25 0 0 1 13 39.75L13 39.25A0.25 0.25 0 0 1 13.25 39L13.75 39A0.25 0.25 0 0 0 14 38.75L14 37.25A0.25 0.25 0 0 0 13.75 37L13.25 37A0.25 0.25 0 0 1 13 36.75L13 36.25A0.25 0.25 0 0 0 12.75 36L10.25 36A0.25 0.25 0 0 1 10 35.75L10 34.25A0.25 0.25 0 0 1 10.25 34L11.75 34A0.25 0.25 0 0 1 12 34.25L12 34.75A0.25 0.25 0 0 0 12.25 35L13.75 35A0.25 0.25 0 0 1 14 35.25L14 35.75A0.25 0.25 0 0 0 14.25 36L15.75 36A0.25 0.25 0 0 0 16 35.75L16 34.25A0.25 0.25 0 0 1 16.25 34L20.75 34A0.25 0.25 0 0 1 21 34.25L21 34.75A0.25 0.25 0 0 1 20.75 35L19.25 35A0.25 0.25 0 0 0 19 35.25L19 35.75A0.25 0.25 0 0 0 19.25 36L21.75 36A0.25 0.25 0 0 1 22 36.25L22 36.75A0.25 0.25 0 0 1 21.75 37L17.25 37A0.25 0.25 0 0 0 17 37.25L17 37.75A0.25 0.25 0 0 1 16.75 38L16.25 38A0.25 0.25 0 0 0 16 38.25L16 39.75A0.25 0.25 0 0 0 16.25 40L16.75 40A0.25 0.25 0 0 0 17 39.75L17 38.25A0.25 0.25 0 0 1 17.25 38L17.75 38A0.25 0.25 0 0 1 18 38.25L18 40.75A0.25 0.25 0 0 0 18.25 41L18.75 41A0.25 0.25 0 0 1 19 41.25L19 41.75A0.25 0.25 0 0 1 18.75 42L18.25 42A0.25 0.25 0 0 0 18 42.25L18 42.75A0.25 0.25 0 0 1 17.75 43L17.25 43A0.25 0.25 0 0 0 17 43.25L17 43.75A0.25 0.25 0 0 1 16.75 44L16.25 44A0.25 0.25 0 0 0 16 44.25L16 45.75A0.25 0.25 0 0 1 15.75 46L15.25 46A0.25 0.25 0 0 0 15 46.25L15 48.75A0.25 0.25 0 0 0 15.25 49L15.75 49A0.25 0.25 0 0 0 16 48.75L16 48.25A0.25 0.25 0 0 1 16.25 48L16.75 48A0.25 0.25 0 0 1 17 48.25L17 48.75A0.25 0.25 0 0 0 17.25 49L18.75 49A0.25 0.25 0 0 0 19 48.75L19 46.25A0.25 0.25 0 0 1 19.25 46L19.75 46A0.25 0.25 0 0 1 20 46.25L20 48.75A0.25 0.25 0 0 0 20.25 49L21.75 49A0.25 0.25 0 0 0 22 48.75L22 48.25A0.25 0.25 0 0 1 22.25 48L22.75 48A0.25 0.25 0 0 1 23 48.25L23 48.75A0.25 0.25 0 0 0 23.25 49L23.75 49A0.25 0.25 0 0 0 24 48.75L24 48.25A0.25 0.25 0 0 1 24.25 48L24.75 48A0.25 0.25 0 0 1 25 48.25L25 48.75A0.25 0.25 0 0 0 25.25 49L25.75 49A0.25 0.25 0 0 0 26 48.75L26 48.25A0.25 0.25 0 0 1 26.25 48L26.75 48A0.25 0.25 0 0 0 27 47.75L27 47.25A0.25 0.25 0 0 1 27.25 47L28.75 47A0.25 0.25 0 0 0 29 46.75L29 46.25A0.25 0.25 0 0 0 28.75 46L28.25 46A0.25 0.25 0 0 1 28 45.75L28 45.25A0.25 0.25 0 0 0 27.75 45L27.25 45A0.25 0.25 0 0 1 27 44.75L27 42.25A0.25 0.25 0 0 1 27.25 42L27.75 42A0.25 0.25 0 0 1 28 42.25L28 42.75A0.25 0.25 0 0 0 28.25 43L28.75 43A0.25 0.25 0 0 1 29 43.25L29 44.75A0.25 0.25 0 0 0 29.25 45L30.75 45A0.25 0.25 0 0 1 31 45.25L31 45.75A0.25 0.25 0 0 0 31.25 46L33.75 46A0.25 0.25 0 0 0 34 45.75L34 44.25A0.25 0.25 0 0 0 33.75 44L33.25 44A0.25 0.25 0 0 1 33 43.75L33 43.25A0.25 0.25 0 0 0 32.75 43L32.25 43A0.25 0.25 0 0 1 32 42.75L32 41.25A0.25 0.25 0 0 1 32.25 41L33.75 41A0.25 0.25 0 0 0 34 40.75L34 40.25A0.25 0.25 0 0 1 34.25 40L34.75 40A0.25 0.25 0 0 0 35 39.75L35 39.25A0.25 0.25 0 0 1 35.25 39L35.75 39A0.25 0.25 0 0 1 36 39.25L36 40.75A0.25 0.25 0 0 0 36.25 41L36.75 41A0.25 0.25 0 0 1 37 41.25L37 41.75A0.25 0.25 0 0 1 36.75 42L36.25 42A0.25 0.25 0 0 0 36 42.25L36 43.75A0.25 0.25 0 0 1 35.75 44L35.25 44A0.25 0.25 0 0 0 35 44.25L35 45.75A0.25 0.25 0 0 0 35.25 46L36.75 46A0.25 0.25 0 0 1 37 46.25L37 46.75A0.25 0.25 0 0 1 36.75 47L36.25 47A0.25 0.25 0 0 0 36 47.25L36 48.75A0.25 0.25 0 0 0 36.25 49L36.75 49A0.25 0.25 0 0 0 37 48.75L37 47.25A0.25 0.25 0 0 1 37.25 47L37.75 47A0.25 0.25 0 0 1 38 47.25L38 48.75A0.25 0.25 0 0 0 38.25 49L41.75 49A0.25 0.25 0 0 0 42 48.75L42 46.25A0.25 0.25 0 0 1 42.25 46L42.75 46A0.25 0.25 0 0 1 43 46.25L43 48.75A0.25 0.25 0 0 0 43.25 49L48.75 49A0.25 0.25 0 0 0 49 48.75L49 48.25A0.25 0.25 0 0 0 48.75 48L48.25 48A0.25 0.25 0 0 1 48 47.75L48 47.25A0.25 0.25 0 0 0 47.75 47L47.25 47A0.25 0.25 0 0 1 47 46.75L47 46.25A0.25 0.25 0 0 0 46.75 46L46.25 46A0.25 0.25 0 0 1 46 45.75L46 45.25A0.25 0.25 0 0 1 46.25 45L46.75 45A0.25 0.25 0 0 0 47 44.75L47 44.25A0.25 0.25 0 0 1 47.25 44L48.75 44A0.25 0.25 0 0 0 49 43.75L49 43.25A0.25 0.25 0 0 0 48.75 43L46.25 43A0.25 0.25 0 0 0 46 43.25L46 44.75A0.25 0.25 0 0 1 45.75 45L45.25 45A0.25 0.25 0 0 1 45 44.75L45 42.25A0.25 0.25 0 0 1 45.25 42L46.75 42A0.25 0.25 0 0 0 47 41.75L47 41.25A0.25 0.25 0 0 0 46.75 41L46.25 41A0.25 0.25 0 0 1 46 40.75L46 40.25A0.25 0.25 0 0 1 46.25 40L47.75 40A0.25 0.25 0 0 1 48 40.25L48 40.75A0.25 0.25 0 0 0 48.25 41L48.75 41A0.25 0.25 0 0 0 49 40.75L49 40.25A0.25 0.25 0 0 0 48.75 40L48.25 40A0.25 0.25 0 0 1 48 39.75L48 39.25A0.25 0.25 0 0 0 47.75 39L47.25 39A0.25 0.25 0 0 1 47 38.75L47 38.25A0.25 0.25 0 0 0 46.75 38L46.25 38A0.25 0.25 0 0 0 46 38.25L46 38.75A0.25 0.25 0 0 1 45.75 39L45.25 39A0.25 0.25 0 0 1 45 38.75L45 37.25A0.25 0.25 0 0 1 45.25 37L47.75 37A0.25 0.25 0 0 0 48 36.75L48 35.25A0.25 0.25 0 0 0 47.75 35L46.25 35A0.25 0.25 0 0 1 46 34.75L46 33.25A0.25 0.25 0 0 1 46.25 33L48.75 33A0.25 0.25 0 0 0 49 32.75L49 31.25A0.25 0.25 0 0 0 48.75 31L46.25 31A0.25 0.25 0 0 1 46 30.75L46 30.25A0.25 0.25 0 0 1 46.25 30L48.75 30A0.25 0.25 0 0 0 49 29.75L49 29.25A0.25 0.25 0 0 0 48.75 29L47.25 29A0.25 0.25 0 0 1 47 28.75L47 28.25A0.25 0.25 0 0 1 47.25 28L47.75 28A0.25 0.25 0 0 0 48 27.75L48 26.25A0.25 0.25 0 0 1 48.25 26L48.75 26A0.25 0.25 0 0 0 49 25.75L49 23.25A0.25 0.25 0 0 0 48.75 23L46.25 23A0.25 0.25 0 0 1 46 22.75L46 22.25A0.25 0.25 0 0 0 45.75 22L45.25 22A0.25 0.25 0 0 1 45 21.75L45 19.25A0.25 0.25 0 0 1 45.25 19L45.75 19A0.25 0.25 0 0 1 46 19.25L46 20.75A0.25 0.25 0 0 0 46.25 21L47.75 21A0.25 0.25 0 0 1 48 21.25L48 21.75A0.25 0.25 0 0 0 48.25 22L48.75 22A0.25 0.25 0 0 0 49 21.75L49 19.25A0.25 0.25 0 0 0 48.75 19L48.25 19A0.25 0.25 0 0 0 48 19.25L48 19.75A0.25 0.25 0 0 1 47.75 20L47.25 20A0.25 0.25 0 0 1 47 19.75L47 19.25A0.25 0.25 0 0 0 46.75 19L46.25 19A0.25 0.25 0 0 1 46 18.75L46 18.25A0.25 0.25 0 0 1 46.25 18L47.75 18A0.25 0.25 0 0 0 48 17.75L48 17.25A0.25 0.25 0 0 1 48.25 17L48.75 17A0.25 0.25 0 0 0 49 16.75L49 16.25A0.25 0.25 0 0 0 48.75 16L47.25 16A0.25 0.25 0 0 0 47 16.25L47 16.75A0.25 0.25 0 0 1 46.75 17L46.25 17A0.25 0.25 0 0 0 46 17.25L46 17.75A0.25 0.25 0 0 1 45.75 18L45.25 18A0.25 0.25 0 0 0 45 18.25L45 18.75A0.25 0.25 0 0 1 44.75 19L44.25 19A0.25 0.25 0 0 1 44 18.75L44 18.25A0.25 0.25 0 0 0 43.75 18L43.25 18A0.25 0.25 0 0 1 43 17.75L43 16.25A0.25 0.25 0 0 0 42.75 16L42.25 16A0.25 0.25 0 0 1 42 15.75L42 15.25A0.25 0.25 0 0 1 42.25 15L43.75 15A0.25 0.25 0 0 1 44 15.25L44 16.75A0.25 0.25 0 0 0 44.25 17L44.75 17A0.25 0.25 0 0 0 45 16.75L45 15.25A0.25 0.25 0 0 1 45.25 15L45.75 15A0.25 0.25 0 0 0 46 14.75L46 14.25A0.25 0.25 0 0 1 46.25 14L47.75 14A0.25 0.25 0 0 0 48 13.75L48 13.25A0.25 0.25 0 0 1 48.25 13L48.75 13A0.25 0.25 0 0 0 49 12.75L49 12.25A0.25 0.25 0 0 0 48.75 12L47.25 12A0.25 0.25 0 0 1 47 11.75L47 11.25A0.25 0.25 0 0 1 47.25 11L47.75 11A0.25 0.25 0 0 0 48 10.75L48 10.25A0.25 0.25 0 0 0 47.75 10L47.25 10A0.25 0.25 0 0 0 47 10.25L47 10.75A0.25 0.25 0 0 1 46.75 11L45.25 11A0.25 0.25 0 0 1 45 10.75L45 10.25A0.25 0.25 0 0 0 44.75 10L43.25 10A0.25 0.25 0 0 1 43 9.75L43 9.25A0.25 0.25 0 0 1 43.25 9L43.75 9A0.25 0.25 0 0 0 44 8.75L44 8.25A0.25 0.25 0 0 0 43.75 8L42.25 8A0.25 0.25 0 0 0 42 8.25L42 8.75A0.25 0.25 0 0 1 41.75 9L41.25 9A0.25 0.25 0 0 1 41 8.75L41 8.25A0.25 0.25 0 0 0 40.75 8L38.25 8A0.25 0.25 0 0 0 38 8.25L38 8.75A0.25 0.25 0 0 1 37.75 9L37.25 9A0.25 0.25 0 0 1 37 8.75L37 8.25A0.25 0.25 0 0 0 36.75 8L36.25 8A0.25 0.25 0 0 0 36 8.25L36 8.75A0.25 0.25 0 0 1 35.75 9L35.25 9A0.25 0.25 0 0 0 35 9.25L35 10.75A0.25 0.25 0 0 1 34.75 11L33.25 11A0.25 0.25 0 0 1 33 10.75L33 10.25A0.25 0.25 0 0 1 33.25 10L33.75 10A0.25 0.25 0 0 0 34 9.75L34 7.25A0.25 0.25 0 0 1 34.25 7L34.75 7A0.25 0.25 0 0 0 35 6.75L35 5.25A0.25 0.25 0 0 1 35.25 5L35.75 5A0.25 0.25 0 0 1 36 5.25L36 6.75A0.25 0.25 0 0 0 36.25 7L36.75 7A0.25 0.25 0 0 0 37 6.75L37 6.25A0.25 0.25 0 0 1 37.25 6L37.75 6A0.25 0.25 0 0 1 38 6.25L38 6.75A0.25 0.25 0 0 0 38.25 7L38.75 7A0.25 0.25 0 0 0 39 6.75L39 5.25A0.25 0.25 0 0 0 38.75 5L36.25 5A0.25 0.25 0 0 1 36 4.75L36 4.25A0.25 0.25 0 0 0 35.75 4L35.25 4A0.25 0.25 0 0 1 35 3.75L35 3.25A0.25 0.25 0 0 1 35.25 3L36.75 3A0.25 0.25 0 0 0 37 2.75L37 2.25A0.25 0.25 0 0 1 37.25 2L38.75 2A0.25 0.25 0 0 1 39 2.25L39 3.75A0.25 0.25 0 0 0 39.25 4L39.75 4A0.25 0.25 0 0 0 40 3.75L40 3.25A0.25 0.25 0 0 1 40.25 3L40.75 3A0.25 0.25 0 0 0 41 2.75L41 0.25A0.25 0.25 0 0 0 40.75 0L40.25 0A0.25 0.25 0 0 0 40 0.25L40 0.75A0.25 0.25 0 0 1 39.75 1L38.25 1A0.25 0.25 0 0 1 38 0.75L38 0.25A0.25 0.25 0 0 0 37.75 0L36.25 0A0.25 0.25 0 0 0 36 0.25L36 0.75A0.25 0.25 0 0 0 36.25 1L36.75 1A0.25 0.25 0 0 1 37 1.25L37 1.75A0.25 0.25 0 0 1 36.75 2L35.25 2A0.25 0.25 0 0 1 35 1.75L35 1.25A0.25 0.25 0 0 0 34.75 1L33.25 1A0.25 0.25 0 0 1 33 0.75L33 0.25A0.25 0.25 0 0 0 32.75 0L32.25 0A0.25 0.25 0 0 0 32 0.25L32 0.75A0.25 0.25 0 0 1 31.75 1L31.25 1A0.25 0.25 0 0 1 31 0.75L31 0.25A0.25 0.25 0 0 0 30.75 0L30.25 0A0.25 0.25 0 0 0 30 0.25L30 0.75A0.25 0.25 0 0 1 29.75 1L29.25 1A0.25 0.25 0 0 1 29 0.75L29 0.25A0.25 0.25 0 0 0 28.75 0L26.25 0A0.25 0.25 0 0 0 26 0.25L26 0.75A0.25 0.25 0 0 1 25.75 1L25.25 1A0.25 0.25 0 0 1 25 0.75L25 0.25A0.25 0.25 0 0 0 24.75 0L24.25 0A0.25 0.25 0 0 0 24 0.25L24 3.75A0.25 0.25 0 0 1 23.75 4L21.25 4A0.25 0.25 0 0 1 21 3.75L21 3.25A0.25 0.25 0 0 0 20.75 3L19.25 3A0.25 0.25 0 0 0 19 3.25L19 3.75A0.25 0.25 0 0 1 18.75 4L18.25 4A0.25 0.25 0 0 1 18 3.75L18 1.25A0.25 0.25 0 0 1 18.25 1L19.75 1A0.25 0.25 0 0 0 20 0.75L20 0.25A0.25 0.25 0 0 0 19.75 0L15.25 0A0.25 0.25 0 0 0 15 0.25L15 0.75A0.25 0.25 0 0 1 14.75 1L14.25 1A0.25 0.25 0 0 1 14 0.75L14 0.25A0.25 0.25 0 0 0 13.75 0L12.25 0A0.25 0.25 0 0 0 12 0.25L12 0.75A0.25 0.25 0 0 1 11.75 1L11.25 1A0.25 0.25 0 0 1 11 0.75L11 0.25A0.25 0.25 0 0 0 10.75 0L10.25 0A0.25 0.25 0 0 0 10 0.25ZM12 1.25L12 1.75A0.25 0.25 0 0 1 11.75 2L11.25 2A0.25 0.25 0 0 0 11 2.25L11 2.75A0.25 0.25 0 0 0 11.25 3L12.75 3A0.25 0.25 0 0 1 13 3.25L13 4.75A0.25 0.25 0 0 1 12.75 5L12.25 5A0.25 0.25 0 0 1 12 4.75L12 4.25A0.25 0.25 0 0 0 11.75 4L11.25 4A0.25 0.25 0 0 0 11 4.25L11 4.75A0.25 0.25 0 0 1 10.75 5L9.25 5A0.25 0.25 0 0 0 9 5.25L9 6.75A0.25 0.25 0 0 0 9.25 7L9.75 7A0.25 0.25 0 0 1 10 7.25L10 7.75A0.25 0.25 0 0 1 9.75 8L8.25 8A0.25 0.25 0 0 0 8 8.25L8 8.75A0.25 0.25 0 0 0 8.25 9L8.75 9A0.25 0.25 0 0 1 9 9.25L9 9.75A0.25 0.25 0 0 1 8.75 10L7.25 10A0.25 0.25 0 0 1 7 9.75L7 9.25A0.25 0.25 0 0 0 6.75 9L5.25 9A0.25 0.25 0 0 0 5 9.25L5 9.75A0.25 0.25 0 0 0 5.25 10L6.75 10A0.25 0.25 0 0 1 7 10.25L7 10.75A0.25 0.25 0 0 0 7.25 11L8.75 11A0.25 0.25 0 0 1 9 11.25L9 11.75A0.25 0.25 0 0 1 8.75 12L7.25 12A0.25 0.25 0 0 0 7 12.25L7 12.75A0.25 0.25 0 0 1 6.75 13L6.25 13A0.25 0.25 0 0 0 6 13.25L6 13.75A0.25 0.25 0 0 1 5.75 14L5.25 14A0.25 0.25 0 0 0 5 14.25L5 14.75A0.25 0.25 0 0 0 5.25 15L5.75 15A0.25 0.25 0 0 1 6 15.25L6 15.75A0.25 0.25 0 0 1 5.75 16L5.25 16A0.25 0.25 0 0 0 5 16.25L5 16.75A0.25 0.25 0 0 1 4.75 17L4.25 17A0.25 0.25 0 0 0 4 17.25L4 18.75A0.25 0.25 0 0 0 4.25 19L4.75 19A0.25 0.25 0 0 1 5 19.25L5 20.75A0.25 0.25 0 0 1 4.75 21L4.25 21A0.25 0.25 0 0 1 4 20.75L4 20.25A0.25 0.25 0 0 0 3.75 20L3.25 20A0.25 0.25 0 0 0 3 20.25L3 20.75A0.25 0.25 0 0 0 3.25 21L3.75 21A0.25 0.25 0 0 1 4 21.25L4 21.75A0.25 0.25 0 0 1 3.75 22L3.25 22A0.25 0.25 0 0 0 3 22.25L3 22.75A0.25 0.25 0 0 0 3.25 23L3.75 23A0.25 0.25 0 0 0 4 22.75L4 22.25A0.25 0.25 0 0 1 4.25 22L4.75 22A0.25 0.25 0 0 0 5 21.75L5 21.25A0.25 0.25 0 0 1 5.25 21L5.75 21A0.25 0.25 0 0 1 6 21.25L6 21.75A0.25 0.25 0 0 0 6.25 22L6.75 22A0.25 0.25 0 0 0 7 21.75L7 21.25A0.25 0.25 0 0 0 6.75 21L6.25 21A0.25 0.25 0 0 1 6 20.75L6 20.25A0.25 0.25 0 0 1 6.25 20L6.75 20A0.25 0.25 0 0 0 7 19.75L7 19.25A0.25 0.25 0 0 1 7.25 19L9.75 19A0.25 0.25 0 0 1 10 19.25L10 19.75A0.25 0.25 0 0 1 9.75 20L9.25 20A0.25 0.25 0 0 0 9 20.25L9 20.75A0.25 0.25 0 0 0 9.25 21L10.75 21A0.25 0.25 0 0 0 11 20.75L11 20.25A0.25 0.25 0 0 1 11.25 20L11.75 20A0.25 0.25 0 0 1 12 20.25L12 20.75A0.25 0.25 0 0 0 12.25 21L12.75 21A0.25 0.25 0 0 1 13 21.25L13 21.75A0.25 0.25 0 0 1 12.75 22L11.25 22A0.25 0.25 0 0 0 11 22.25L11 22.75A0.25 0.25 0 0 1 10.75 23L10.25 23A0.25 0.25 0 0 0 10 23.25L10 23.75A0.25 0.25 0 0 1 9.75 24L9.25 24A0.25 0.25 0 0 0 9 24.25L9 27.75A0.25 0.25 0 0 1 8.75 28L8.25 28A0.25 0.25 0 0 1 8 27.75L8 27.25A0.25 0.25 0 0 0 7.75 27L6.25 27A0.25 0.25 0 0 0 6 27.25L6 27.75A0.25 0.25 0 0 0 6.25 28L7.75 28A0.25 0.25 0 0 1 8 28.25L8 30.75A0.25 0.25 0 0 1 7.75 31L6.25 31A0.25 0.25 0 0 0 6 31.25L6 31.75A0.25 0.25 0 0 1 5.75 32L5.25 32A0.25 0.25 0 0 0 5 32.25L5 33.75A0.25 0.25 0 0 0 5.25 34L7.75 34A0.25 0.25 0 0 0 8 33.75L8 33.25A0.25 0.25 0 0 1 8.25 33L8.75 33A0.25 0.25 0 0 1 9 33.25L9 33.75A0.25 0.25 0 0 0 9.25 34L9.75 34A0.25 0.25 0 0 0 10 33.75L10 33.25A0.25 0.25 0 0 1 10.25 33L10.75 33A0.25 0.25 0 0 0 11 32.75L11 32.25A0.25 0.25 0 0 1 11.25 32L11.75 32A0.25 0.25 0 0 1 12 32.25L12 32.75A0.25 0.25 0 0 0 12.25 33L13.75 33A0.25 0.25 0 0 1 14 33.25L14 33.75A0.25 0.25 0 0 0 14.25 34L15.75 34A0.25 0.25 0 0 0 16 33.75L16 33.25A0.25 0.25 0 0 1 16.25 33L16.75 33A0.25 0.25 0 0 0 17 32.75L17 32.25A0.25 0.25 0 0 0 16.75 32L16.25 32A0.25 0.25 0 0 1 16 31.75L16 31.25A0.25 0.25 0 0 1 16.25 31L18.75 31A0.25 0.25 0 0 1 19 31.25L19 31.75A0.25 0.25 0 0 0 19.25 32L19.75 32A0.25 0.25 0 0 1 20 32.25L20 32.75A0.25 0.25 0 0 0 20.25 33L21.75 33A0.25 0.25 0 0 1 22 33.25L22 34.75A0.25 0.25 0 0 0 22.25 35L22.75 35A0.25 0.25 0 0 1 23 35.25L23 36.75A0.25 0.25 0 0 0 23.25 37L23.75 37A0.25 0.25 0 0 1 24 37.25L24 38.75A0.25 0.25 0 0 1 23.75 39L23.25 39A0.25 0.25 0 0 0 23 39.25L23 39.75A0.25 0.25 0 0 0 23.25 40L23.75 40A0.25 0.25 0 0 0 24 39.75L24 39.25A0.25 0.25 0 0 1 24.25 39L24.75 39A0.25 0.25 0 0 1 25 39.25L25 39.75A0.25 0.25 0 0 0 25.25 40L26.75 40A0.25 0.25 0 0 1 27 40.25L27 40.75A0.25 0.25 0 0 0 27.25 41L27.75 41A0.25 0.25 0 0 0 28 40.75L28 40.25A0.25 0.25 0 0 1 28.25 40L28.75 40A0.25 0.25 0 0 0 29 39.75L29 39.25A0.25 0.25 0 0 1 29.25 39L30.75 39A0.25 0.25 0 0 0 31 38.75L31 38.25A0.25 0.25 0 0 0 30.75 38L29.25 38A0.25 0.25 0 0 1 29 37.75L29 37.25A0.25 0.25 0 0 1 29.25 37L29.75 37A0.25 0.25 0 0 0 30 36.75L30 36.25A0.25 0.25 0 0 1 30.25 36L30.75 36A0.25 0.25 0 0 0 31 35.75L31 35.25A0.25 0.25 0 0 0 30.75 35L30.25 35A0.25 0.25 0 0 1 30 34.75L30 34.25A0.25 0.25 0 0 1 30.25 34L30.75 34A0.25 0.25 0 0 0 31 33.75L31 33.25A0.25 0.25 0 0 1 31.25 33L31.75 33A0.25 0.25 0 0 1 32 33.25L32 33.75A0.25 0.25 0 0 0 32.25 34L32.75 34A0.25 0.25 0 0 1 33 34.25L33 35.75A0.25 0.25 0 0 0 33.25 36L33.75 36A0.25 0.25 0 0 0 34 35.75L34 35.25A0.25 0.25 0 0 1 34.25 35L34.75 35A0.25 0.25 0 0 1 35 35.25L35 36.75A0.25 0.25 0 0 1 34.75 37L33.25 37A0.25 0.25 0 0 0 33 37.25L33 37.75A0.25 0.25 0 0 1 32.75 38L32.25 38A0.25 0.25 0 0 0 32 38.25L32 39.75A0.25 0.25 0 0 1 31.75 40L30.25 40A0.25 0.25 0 0 0 30 40.25L30 40.75A0.25 0.25 0 0 0 30.25 41L31.75 41A0.25 0.25 0 0 0 32 40.75L32 40.25A0.25 0.25 0 0 1 32.25 40L32.75 40A0.25 0.25 0 0 0 33 39.75L33 39.25A0.25 0.25 0 0 1 33.25 39L34.75 39A0.25 0.25 0 0 0 35 38.75L35 38.25A0.25 0.25 0 0 1 35.25 38L35.75 38A0.25 0.25 0 0 1 36 38.25L36 38.75A0.25 0.25 0 0 0 36.25 39L36.75 39A0.25 0.25 0 0 1 37 39.25L37 40.75A0.25 0.25 0 0 0 37.25 41L37.75 41A0.25 0.25 0 0 0 38 40.75L38 40.25A0.25 0.25 0 0 1 38.25 40L38.75 40A0.25 0.25 0 0 1 39 40.25L39 41.75A0.25 0.25 0 0 1 38.75 42L38.25 42A0.25 0.25 0 0 0 38 42.25L38 43.75A0.25 0.25 0 0 1 37.75 44L37.25 44A0.25 0.25 0 0 0 37 44.25L37 45.75A0.25 0.25 0 0 0 37.25 46L37.75 46A0.25 0.25 0 0 0 38 45.75L38 44.25A0.25 0.25 0 0 1 38.25 44L38.75 44A0.25 0.25 0 0 1 39 44.25L39 46.75A0.25 0.25 0 0 0 39.25 47L39.75 47A0.25 0.25 0 0 1 40 47.25L40 47.75A0.25 0.25 0 0 0 40.25 48L40.75 48A0.25 0.25 0 0 0 41 47.75L41 45.25A0.25 0.25 0 0 0 40.75 45L40.25 45A0.25 0.25 0 0 1 40 44.75L40 44.25A0.25 0.25 0 0 0 39.75 44L39.25 44A0.25 0.25 0 0 1 39 43.75L39 42.25A0.25 0.25 0 0 1 39.25 42L39.75 42A0.25 0.25 0 0 0 40 41.75L40 40.25A0.25 0.25 0 0 1 40.25 40L41.75 40A0.25 0.25 0 0 0 42 39.75L42 39.25A0.25 0.25 0 0 1 42.25 39L42.75 39A0.25 0.25 0 0 1 43 39.25L43 39.75A0.25 0.25 0 0 0 43.25 40L44.75 40A0.25 0.25 0 0 0 45 39.75L45 39.25A0.25 0.25 0 0 0 44.75 39L43.25 39A0.25 0.25 0 0 1 43 38.75L43 38.25A0.25 0.25 0 0 1 43.25 38L43.75 38A0.25 0.25 0 0 0 44 37.75L44 37.25A0.25 0.25 0 0 1 44.25 37L44.75 37A0.25 0.25 0 0 0 45 36.75L45 35.25A0.25 0.25 0 0 0 44.75 35L44.25 35A0.25 0.25 0 0 1 44 34.75L44 34.25A0.25 0.25 0 0 0 43.75 34L43.25 34A0.25 0.25 0 0 1 43 33.75L43 33.25A0.25 0.25 0 0 1 43.25 33L45.75 33A0.25 0.25 0 0 0 46 32.75L46 31.25A0.25 0.25 0 0 0 45.75 31L45.25 31A0.25 0.25 0 0 0 45 31.25L45 31.75A0.25 0.25 0 0 1 44.75 32L42.25 32A0.25 0.25 0 0 1 42 31.75L42 31.25A0.25 0.25 0 0 1 42.25 31L43.75 31A0.25 0.25 0 0 0 44 30.75L44 30.25A0.25 0.25 0 0 1 44.25 30L44.75 30A0.25 0.25 0 0 0 45 29.75L45 29.25A0.25 0.25 0 0 0 44.75 29L42.25 29A0.25 0.25 0 0 1 42 28.75L42 28.25A0.25 0.25 0 0 0 41.75 28L40.25 28A0.25 0.25 0 0 1 40 27.75L40 26.25A0.25 0.25 0 0 0 39.75 26L39.25 26A0.25 0.25 0 0 0 39 26.25L39 27.75A0.25 0.25 0 0 1 38.75 28L38.25 28A0.25 0.25 0 0 0 38 28.25L38 28.75A0.25 0.25 0 0 1 37.75 29L37.25 29A0.25 0.25 0 0 0 37 29.25L37 30.75A0.25 0.25 0 0 1 36.75 31L36.25 31A0.25 0.25 0 0 1 36 30.75L36 29.25A0.25 0.25 0 0 0 35.75 29L35.25 29A0.25 0.25 0 0 1 35 28.75L35 28.25A0.25 0.25 0 0 1 35.25 28L35.75 28A0.25 0.25 0 0 0 36 27.75L36 27.25A0.25 0.25 0 0 1 36.25 27L36.75 27A0.25 0.25 0 0 0 37 26.75L37 25.25A0.25 0.25 0 0 0 36.75 25L36.25 25A0.25 0.25 0 0 1 36 24.75L36 23.25A0.25 0.25 0 0 0 35.75 23L35.25 23A0.25 0.25 0 0 1 35 22.75L35 22.25A0.25 0.25 0 0 1 35.25 22L35.75 22A0.25 0.25 0 0 0 36 21.75L36 21.25A0.25 0.25 0 0 0 35.75 21L34.25 21A0.25 0.25 0 0 1 34 20.75L34 20.25A0.25 0.25 0 0 0 33.75 20L33.25 20A0.25 0.25 0 0 1 33 19.75L33 17.25A0.25 0.25 0 0 1 33.25 17L33.75 17A0.25 0.25 0 0 0 34 16.75L34 16.25A0.25 0.25 0 0 1 34.25 16L34.75 16A0.25 0.25 0 0 1 35 16.25L35 16.75A0.25 0.25 0 0 0 35.25 17L35.75 17A0.25 0.25 0 0 1 36 17.25L36 17.75A0.25 0.25 0 0 1 35.75 18L35.25 18A0.25 0.25 0 0 0 35 18.25L35 18.75A0.25 0.25 0 0 0 35.25 19L39.75 19A0.25 0.25 0 0 0 40 18.75L40 18.25A0.25 0.25 0 0 1 40.25 18L40.75 18A0.25 0.25 0 0 1 41 18.25L41 19.75A0.25 0.25 0 0 1 40.75 20L37.25 20A0.25 0.25 0 0 0 37 20.25L37 23.75A0.25 0.25 0 0 0 37.25 24L38.75 24A0.25 0.25 0 0 1 39 24.25L39 24.75A0.25 0.25 0 0 0 39.25 25L39.75 25A0.25 0.25 0 0 0 40 24.75L40 24.25A0.25 0.25 0 0 0 39.75 24L39.25 24A0.25 0.25 0 0 1 39 23.75L39 23.25A0.25 0.25 0 0 1 39.25 23L39.75 23A0.25 0.25 0 0 0 40 22.75L40 22.25A0.25 0.25 0 0 1 40.25 22L41.75 22A0.25 0.25 0 0 0 42 21.75L42 21.25A0.25 0.25 0 0 1 42.25 21L43.75 21A0.25 0.25 0 0 0 44 20.75L44 19.25A0.25 0.25 0 0 0 43.75 19L43.25 19A0.25 0.25 0 0 1 43 18.75L43 18.25A0.25 0.25 0 0 0 42.75 18L42.25 18A0.25 0.25 0 0 1 42 17.75L42 17.25A0.25 0.25 0 0 0 41.75 17L41.25 17A0.25 0.25 0 0 1 41 16.75L41 16.25A0.25 0.25 0 0 0 40.75 16L40.25 16A0.25 0.25 0 0 1 40 15.75L40 15.25A0.25 0.25 0 0 0 39.75 15L39.25 15A0.25 0.25 0 0 1 39 14.75L39 14.25A0.25 0.25 0 0 0 38.75 14L38.25 14A0.25 0.25 0 0 1 38 13.75L38 13.25A0.25 0.25 0 0 1 38.25 13L39.75 13A0.25 0.25 0 0 1 40 13.25L40 13.75A0.25 0.25 0 0 0 40.25 14L40.75 14A0.25 0.25 0 0 1 41 14.25L41 14.75A0.25 0.25 0 0 0 41.25 15L41.75 15A0.25 0.25 0 0 0 42 14.75L42 13.25A0.25 0.25 0 0 0 41.75 13L40.25 13A0.25 0.25 0 0 1 40 12.75L40 12.25A0.25 0.25 0 0 0 39.75 12L38.25 12A0.25 0.25 0 0 0 38 12.25L38 12.75A0.25 0.25 0 0 1 37.75 13L36.25 13A0.25 0.25 0 0 1 36 12.75L36 11.25A0.25 0.25 0 0 1 36.25 11L36.75 11A0.25 0.25 0 0 0 37 10.75L37 10.25A0.25 0.25 0 0 0 36.75 10L36.25 10A0.25 0.25 0 0 0 36 10.25L36 10.75A0.25 0.25 0 0 1 35.75 11L35.25 11A0.25 0.25 0 0 0 35 11.25L35 11.75A0.25 0.25 0 0 1 34.75 12L34.25 12A0.25 0.25 0 0 0 34 12.25L34 12.75A0.25 0.25 0 0 1 33.75 13L33.25 13A0.25 0.25 0 0 1 33 12.75L33 11.25A0.25 0.25 0 0 0 32.75 11L32.25 11A0.25 0.25 0 0 1 32 10.75L32 10.25A0.25 0.25 0 0 1 32.25 10L32.75 10A0.25 0.25 0 0 0 33 9.75L33 9.25A0.25 0.25 0 0 0 32.75 9L32.25 9A0.25 0.25 0 0 1 32 8.75L32 6.25A0.25 0.25 0 0 1 32.25 6L32.75 6A0.25 0.25 0 0 1 33 6.25L33 6.75A0.25 0.25 0 0 0 33.25 7L33.75 7A0.25 0.25 0 0 0 34 6.75L34 5.25A0.25 0.25 0 0 1 34.25 5L34.75 5A0.25 0.25 0 0 0 35 4.75L35 4.25A0.25 0.25 0 0 0 34.75 4L34.25 4A0.25 0.25 0 0 1 34 3.75L34 3.25A0.25 0.25 0 0 0 33.75 3L33.25 3A0.25 0.25 0 0 1 33 2.75L33 2.25A0.25 0.25 0 0 0 32.75 2L32.25 2A0.25 0.25 0 0 0 32 2.25L32 2.75A0.25 0.25 0 0 1 31.75 3L31.25 3A0.25 0.25 0 0 0 31 3.25L31 3.75A0.25 0.25 0 0 1 30.75 4L30.25 4A0.25 0.25 0 0 1 30 3.75L30 2.25A0.25 0.25 0 0 1 30.25 2L30.75 2A0.25 0.25 0 0 0 31 1.75L31 1.25A0.25 0.25 0 0 0 30.75 1L30.25 1A0.25 0.25 0 0 0 30 1.25L30 1.75A0.25 0.25 0 0 1 29.75 2L29.25 2A0.25 0.25 0 0 1 29 1.75L29 1.25A0.25 0.25 0 0 0 28.75 1L26.25 1A0.25 0.25 0 0 0 26 1.25L26 1.75A0.25 0.25 0 0 1 25.75 2L25.25 2A0.25 0.25 0 0 0 25 2.25L25 3.75A0.25 0.25 0 0 0 25.25 4L25.75 4A0.25 0.25 0 0 0 26 3.75L26 3.25A0.25 0.25 0 0 1 26.25 3L26.75 3A0.25 0.25 0 0 0 27 2.75L27 2.25A0.25 0.25 0 0 1 27.25 2L28.75 2A0.25 0.25 0 0 1 29 2.25L29 4.75A0.25 0.25 0 0 0 29.25 5L29.75 5A0.25 0.25 0 0 1 30 5.25L30 5.75A0.25 0.25 0 0 1 29.75 6L29.25 6A0.25 0.25 0 0 0 29 6.25L29 6.75A0.25 0.25 0 0 1 28.75 7L28.25 7A0.25 0.25 0 0 1 28 6.75L28 6.25A0.25 0.25 0 0 0 27.75 6L27.25 6A0.25 0.25 0 0 0 27 6.25L27 6.75A0.25 0.25 0 0 0 27.25 7L27.75 7A0.25 0.25 0 0 1 28 7.25L28 7.75A0.25 0.25 0 0 1 27.75 8L27.25 8A0.25 0.25 0 0 0 27 8.25L27 8.75A0.25 0.25 0 0 1 26.75 9L26.25 9A0.25 0.25 0 0 0 26 9.25L26 10.75A0.25 0.25 0 0 1 25.75 11L25.25 11A0.25 0.25 0 0 1 25 10.75L25 9.25A0.25 0.25 0 0 0 24.75 9L22.25 9A0.25 0.25 0 0 0 22 9.25L22 11.75A0.25 0.25 0 0 0 22.25 12L22.75 12A0.25 0.25 0 0 1 23 12.25L23 12.75A0.25 0.25 0 0 1 22.75 13L22.25 13A0.25 0.25 0 0 0 22 13.25L22 13.75A0.25 0.25 0 0 0 22.25 14L22.75 14A0.25 0.25 0 0 1 23 14.25L23 15.75A0.25 0.25 0 0 1 22.75 16L22.25 16A0.25 0.25 0 0 1 22 15.75L22 15.25A0.25 0.25 0 0 0 21.75 15L21.25 15A0.25 0.25 0 0 1 21 14.75L21 8.25A0.25 0.25 0 0 0 20.75 8L20.25 8A0.25 0.25 0 0 1 20 7.75L20 6.25A0.25 0.25 0 0 1 20.25 6L20.75 6A0.25 0.25 0 0 1 21 6.25L21 6.75A0.25 0.25 0 0 0 21.25 7L21.75 7A0.25 0.25 0 0 0 22 6.75L22 6.25A0.25 0.25 0 0 0 21.75 6L21.25 6A0.25 0.25 0 0 1 21 5.75L21 4.25A0.25 0.25 0 0 0 20.75 4L20.25 4A0.25 0.25 0 0 0 20 4.25L20 4.75A0.25 0.25 0 0 1 19.75 5L17.25 5A0.25 0.25 0 0 1 17 4.75L17 4.25A0.25 0.25 0 0 0 16.75 4L16.25 4A0.25 0.25 0 0 0 16 4.25L16 5.75A0.25 0.25 0 0 1 15.75 6L15.25 6A0.25 0.25 0 0 0 15 6.25L15 6.75A0.25 0.25 0 0 0 15.25 7L15.75 7A0.25 0.25 0 0 1 16 7.25L16 7.75A0.25 0.25 0 0 1 15.75 8L15.25 8A0.25 0.25 0 0 0 15 8.25L15 8.75A0.25 0.25 0 0 1 14.75 9L13.25 9A0.25 0.25 0 0 1 13 8.75L13 8.25A0.25 0.25 0 0 1 13.25 8L13.75 8A0.25 0.25 0 0 0 14 7.75L14 3.25A0.25 0.25 0 0 0 13.75 3L13.25 3A0.25 0.25 0 0 1 13 2.75L13 1.25A0.25 0.25 0 0 0 12.75 1L12.25 1A0.25 0.25 0 0 0 12 1.25ZM15 1.25L15 2.75A0.25 0.25 0 0 0 15.25 3L15.75 3A0.25 0.25 0 0 0 16 2.75L16 2.25A0.25 0.25 0 0 1 16.25 2L16.75 2A0.25 0.25 0 0 0 17 1.75L17 1.25A0.25 0.25 0 0 0 16.75 1L15.25 1A0.25 0.25 0 0 0 15 1.25ZM21 1.25L21 1.75A0.25 0.25 0 0 0 21.25 2L21.75 2A0.25 0.25 0 0 1 22 2.25L22 2.75A0.25 0.25 0 0 0 22.25 3L22.75 3A0.25 0.25 0 0 0 23 2.75L23 2.25A0.25 0.25 0 0 0 22.75 2L22.25 2A0.25 0.25 0 0 1 22 1.75L22 1.25A0.25 0.25 0 0 0 21.75 1L21.25 1A0.25 0.25 0 0 0 21 1.25ZM32 3.25L32 3.75A0.25 0.25 0 0 1 31.75 4L31.25 4A0.25 0.25 0 0 0 31 4.25L31 4.75A0.25 0.25 0 0 0 31.25 5L31.75 5A0.25 0.25 0 0 0 32 4.75L32 4.25A0.25 0.25 0 0 1 32.25 4L32.75 4A0.25 0.25 0 0 1 33 4.25L33 4.75A0.25 0.25 0 0 0 33.25 5L33.75 5A0.25 0.25 0 0 0 34 4.75L34 4.25A0.25 0.25 0 0 0 33.75 4L33.25 4A0.25 0.25 0 0 1 33 3.75L33 3.25A0.25 0.25 0 0 0 32.75 3L32.25 3A0.25 0.25 0 0 0 32 3.25ZM11 5.25L11 5.75A0.25 0.25 0 0 1 10.75 6L10.25 6A0.25 0.25 0 0 0 10 6.25L10 6.75A0.25 0.25 0 0 0 10.25 7L10.75 7A0.25 0.25 0 0 1 11 7.25L11 7.75A0.25 0.25 0 0 0 11.25 8L11.75 8A0.25 0.25 0 0 0 12 7.75L12 7.25A0.25 0.25 0 0 1 12.25 7L12.75 7A0.25 0.25 0 0 0 13 6.75L13 6.25A0.25 0.25 0 0 0 12.75 6L12.25 6A0.25 0.25 0 0 1 12 5.75L12 5.25A0.25 0.25 0 0 0 11.75 5L11.25 5A0.25 0.25 0 0 0 11 5.25ZM23 5.25L23 7.75A0.25 0.25 0 0 0 23.25 8L25.75 8A0.25 0.25 0 0 0 26 7.75L26 5.25A0.25 0.25 0 0 0 25.75 5L23.25 5A0.25 0.25 0 0 0 23 5.25ZM11 6.25L11 6.75A0.25 0.25 0 0 0 11.25 7L11.75 7A0.25 0.25 0 0 0 12 6.75L12 6.25A0.25 0.25 0 0 0 11.75 6L11.25 6A0.25 0.25 0 0 0 11 6.25ZM16 6.25L16 6.75A0.25 0.25 0 0 0 16.25 7L16.75 7A0.25 0.25 0 0 0 17 6.75L17 6.25A0.25 0.25 0 0 0 16.75 6L16.25 6A0.25 0.25 0 0 0 16 6.25ZM18 6.25L18 6.75A0.25 0.25 0 0 0 18.25 7L18.75 7A0.25 0.25 0 0 0 19 6.75L19 6.25A0.25 0.25 0 0 0 18.75 6L18.25 6A0.25 0.25 0 0 0 18 6.25ZM24 6.25L24 6.75A0.25 0.25 0 0 0 24.25 7L24.75 7A0.25 0.25 0 0 0 25 6.75L25 6.25A0.25 0.25 0 0 0 24.75 6L24.25 6A0.25 0.25 0 0 0 24 6.25ZM30 6.25L30 6.75A0.25 0.25 0 0 1 29.75 7L29.25 7A0.25 0.25 0 0 0 29 7.25L29 8.75A0.25 0.25 0 0 1 28.75 9L28.25 9A0.25 0.25 0 0 0 28 9.25L28 10.75A0.25 0.25 0 0 1 27.75 11L26.25 11A0.25 0.25 0 0 0 26 11.25L26 12.75A0.25 0.25 0 0 1 25.75 13L23.25 13A0.25 0.25 0 0 0 23 13.25L23 13.75A0.25 0.25 0 0 0 23.25 14L23.75 14A0.25 0.25 0 0 1 24 14.25L24 14.75A0.25 0.25 0 0 0 24.25 15L26.75 15A0.25 0.25 0 0 0 27 14.75L27 14.25A0.25 0.25 0 0 0 26.75 14L26.25 14A0.25 0.25 0 0 1 26 13.75L26 13.25A0.25 0.25 0 0 1 26.25 13L27.75 13A0.25 0.25 0 0 1 28 13.25L28 13.75A0.25 0.25 0 0 0 28.25 14L28.75 14A0.25 0.25 0 0 1 29 14.25L29 14.75A0.25 0.25 0 0 0 29.25 15L29.75 15A0.25 0.25 0 0 0 30 14.75L30 14.25A0.25 0.25 0 0 1 30.25 14L30.75 14A0.25 0.25 0 0 1 31 14.25L31 14.75A0.25 0.25 0 0 0 31.25 15L32.75 15A0.25 0.25 0 0 0 33 14.75L33 14.25A0.25 0.25 0 0 0 32.75 14L31.25 14A0.25 0.25 0 0 1 31 13.75L31 13.25A0.25 0.25 0 0 1 31.25 13L31.75 13A0.25 0.25 0 0 0 32 12.75L32 12.25A0.25 0.25 0 0 0 31.75 12L30.25 12A0.25 0.25 0 0 1 30 11.75L30 11.25A0.25 0.25 0 0 1 30.25 11L30.75 11A0.25 0.25 0 0 0 31 10.75L31 9.25A0.25 0.25 0 0 0 30.75 9L30.25 9A0.25 0.25 0 0 1 30 8.75L30 7.25A0.25 0.25 0 0 1 30.25 7L30.75 7A0.25 0.25 0 0 0 31 6.75L31 6.25A0.25 0.25 0 0 0 30.75 6L30.25 6A0.25 0.25 0 0 0 30 6.25ZM40 6.25L40 6.75A0.25 0.25 0 0 0 40.25 7L40.75 7A0.25 0.25 0 0 0 41 6.75L41 6.25A0.25 0.25 0 0 0 40.75 6L40.25 6A0.25 0.25 0 0 0 40 6.25ZM16 8.25L16 8.75A0.25 0.25 0 0 1 15.75 9L15.25 9A0.25 0.25 0 0 0 15 9.25L15 9.75A0.25 0.25 0 0 1 14.75 10L14.25 10A0.25 0.25 0 0 0 14 10.25L14 11.75A0.25 0.25 0 0 1 13.75 12L13.25 12A0.25 0.25 0 0 0 13 12.25L13 13.75A0.25 0.25 0 0 0 13.25 14L13.75 14A0.25 0.25 0 0 1 14 14.25L14 14.75A0.25 0.25 0 0 1 13.75 15L13.25 15A0.25 0.25 0 0 0 13 15.25L13 16.75A0.25 0.25 0 0 1 12.75 17L12.25 17A0.25 0.25 0 0 0 12 17.25L12 17.75A0.25 0.25 0 0 1 11.75 18L11.25 18A0.25 0.25 0 0 1 11 17.75L11 17.25A0.25 0.25 0 0 0 10.75 17L10.25 17A0.25 0.25 0 0 1 10 16.75L10 15.25A0.25 0.25 0 0 0 9.75 15L8.25 15A0.25 0.25 0 0 1 8 14.75L8 13.25A0.25 0.25 0 0 0 7.75 13L7.25 13A0.25 0.25 0 0 0 7 13.25L7 13.75A0.25 0.25 0 0 1 6.75 14L6.25 14A0.25 0.25 0 0 0 6 14.25L6 14.75A0.25 0.25 0 0 0 6.25 15L7.75 15A0.25 0.25 0 0 1 8 15.25L8 16.75A0.25 0.25 0 0 0 8.25 17L8.75 17A0.25 0.25 0 0 1 9 17.25L9 17.75A0.25 0.25 0 0 0 9.25 18L9.75 18A0.25 0.25 0 0 1 10 18.25L10 18.75A0.25 0.25 0 0 0 10.25 19L11.75 19A0.25 0.25 0 0 1 12 19.25L12 19.75A0.25 0.25 0 0 0 12.25 20L16.75 20A0.25 0.25 0 0 1 17 20.25L17 21.75A0.25 0.25 0 0 1 16.75 22L16.25 22A0.25 0.25 0 0 0 16 22.25L16 22.75A0.25 0.25 0 0 1 15.75 23L15.25 23A0.25 0.25 0 0 0 15 23.25L15 24.75A0.25 0.25 0 0 0 15.25 25L17.75 25A0.25 0.25 0 0 0 18 24.75L18 24.25A0.25 0.25 0 0 1 18.25 24L18.75 24A0.25 0.25 0 0 1 19 24.25L19 26.75A0.25 0.25 0 0 1 18.75 27L18.25 27A0.25 0.25 0 0 1 18 26.75L18 26.25A0.25 0.25 0 0 0 17.75 26L17.25 26A0.25 0.25 0 0 0 17 26.25L17 26.75A0.25 0.25 0 0 0 17.25 27L17.75 27A0.25 0.25 0 0 1 18 27.25L18 28.75A0.25 0.25 0 0 1 17.75 29L17.25 29A0.25 0.25 0 0 1 17 28.75L17 28.25A0.25 0.25 0 0 0 16.75 28L16.25 28A0.25 0.25 0 0 1 16 27.75L16 26.25A0.25 0.25 0 0 0 15.75 26L15.25 26A0.25 0.25 0 0 0 15 26.25L15 27.75A0.25 0.25 0 0 1 14.75 28L14.25 28A0.25 0.25 0 0 0 14 28.25L14 28.75A0.25 0.25 0 0 1 13.75 29L13.25 29A0.25 0.25 0 0 0 13 29.25L13 29.75A0.25 0.25 0 0 1 12.75 30L12.25 30A0.25 0.25 0 0 0 12 30.25L12 31.75A0.25 0.25 0 0 0 12.25 32L12.75 32A0.25 0.25 0 0 0 13 31.75L13 30.25A0.25 0.25 0 0 1 13.25 30L13.75 30A0.25 0.25 0 0 0 14 29.75L14 29.25A0.25 0.25 0 0 1 14.25 29L16.75 29A0.25 0.25 0 0 1 17 29.25L17 29.75A0.25 0.25 0 0 0 17.25 30L18.75 30A0.25 0.25 0 0 1 19 30.25L19 30.75A0.25 0.25 0 0 0 19.25 31L20.75 31A0.25 0.25 0 0 1 21 31.25L21 31.75A0.25 0.25 0 0 0 21.25 32L21.75 32A0.25 0.25 0 0 1 22 32.25L22 32.75A0.25 0.25 0 0 0 22.25 33L23.75 33A0.25 0.25 0 0 0 24 32.75L24 31.25A0.25 0.25 0 0 0 23.75 31L23.25 31A0.25 0.25 0 0 1 23 30.75L23 30.25A0.25 0.25 0 0 1 23.25 30L24.75 30A0.25 0.25 0 0 1 25 30.25L25 31.75A0.25 0.25 0 0 0 25.25 32L25.75 32A0.25 0.25 0 0 1 26 32.25L26 32.75A0.25 0.25 0 0 0 26.25 33L26.75 33A0.25 0.25 0 0 1 27 33.25L27 33.75A0.25 0.25 0 0 1 26.75 34L26.25 34A0.25 0.25 0 0 0 26 34.25L26 35.75A0.25 0.25 0 0 1 25.75 36L25.25 36A0.25 0.25 0 0 1 25 35.75L25 35.25A0.25 0.25 0 0 0 24.75 35L24.25 35A0.25 0.25 0 0 1 24 34.75L24 34.25A0.25 0.25 0 0 0 23.75 34L23.25 34A0.25 0.25 0 0 0 23 34.25L23 34.75A0.25 0.25 0 0 0 23.25 35L23.75 35A0.25 0.25 0 0 1 24 35.25L24 35.75A0.25 0.25 0 0 0 24.25 36L24.75 36A0.25 0.25 0 0 1 25 36.25L25 36.75A0.25 0.25 0 0 0 25.25 37L26.75 37A0.25 0.25 0 0 0 27 36.75L27 36.25A0.25 0.25 0 0 1 27.25 36L27.75 36A0.25 0.25 0 0 0 28 35.75L28 35.25A0.25 0.25 0 0 1 28.25 35L28.75 35A0.25 0.25 0 0 1 29 35.25L29 35.75A0.25 0.25 0 0 0 29.25 36L29.75 36A0.25 0.25 0 0 0 30 35.75L30 35.25A0.25 0.25 0 0 0 29.75 35L29.25 35A0.25 0.25 0 0 1 29 34.75L29 34.25A0.25 0.25 0 0 0 28.75 34L28.25 34A0.25 0.25 0 0 1 28 33.75L28 33.25A0.25 0.25 0 0 1 28.25 33L28.75 33A0.25 0.25 0 0 0 29 32.75L29 32.25A0.25 0.25 0 0 1 29.25 32L29.75 32A0.25 0.25 0 0 0 30 31.75L30 31.25A0.25 0.25 0 0 1 30.25 31L31.75 31A0.25 0.25 0 0 0 32 30.75L32 30.25A0.25 0.25 0 0 1 32.25 30L33.75 30A0.25 0.25 0 0 0 34 29.75L34 28.25A0.25 0.25 0 0 0 33.75 28L33.25 28A0.25 0.25 0 0 1 33 27.75L33 27.25A0.25 0.25 0 0 1 33.25 27L34.75 27A0.25 0.25 0 0 0 35 26.75L35 26.25A0.25 0.25 0 0 1 35.25 26L35.75 26A0.25 0.25 0 0 0 36 25.75L36 25.25A0.25 0.25 0 0 0 35.75 25L35.25 25A0.25 0.25 0 0 0 35 25.25L35 25.75A0.25 0.25 0 0 1 34.75 26L34.25 26A0.25 0.25 0 0 1 34 25.75L34 24.25A0.25 0.25 0 0 1 34.25 24L34.75 24A0.25 0.25 0 0 0 35 23.75L35 23.25A0.25 0.25 0 0 0 34.75 23L34.25 23A0.25 0.25 0 0 1 34 22.75L34 22.25A0.25 0.25 0 0 0 33.75 22L31.25 22A0.25 0.25 0 0 1 31 21.75L31 21.25A0.25 0.25 0 0 1 31.25 21L31.75 21A0.25 0.25 0 0 0 32 20.75L32 18.25A0.25 0.25 0 0 0 31.75 18L31.25 18A0.25 0.25 0 0 0 31 18.25L31 18.75A0.25 0.25 0 0 1 30.75 19L30.25 19A0.25 0.25 0 0 0 30 19.25L30 19.75A0.25 0.25 0 0 0 30.25 20L30.75 20A0.25 0.25 0 0 1 31 20.25L31 20.75A0.25 0.25 0 0 1 30.75 21L30.25 21A0.25 0.25 0 0 0 30 21.25L30 21.75A0.25 0.25 0 0 0 30.25 22L30.75 22A0.25 0.25 0 0 1 31 22.25L31 23.75A0.25 0.25 0 0 1 30.75 24L29.25 24A0.25 0.25 0 0 0 29 24.25L29 25.75A0.25 0.25 0 0 1 28.75 26L28.25 26A0.25 0.25 0 0 1 28 25.75L28 23.25A0.25 0.25 0 0 0 27.75 23L27.25 23A0.25 0.25 0 0 1 27 22.75L27 22.25A0.25 0.25 0 0 1 27.25 22L28.75 22A0.25 0.25 0 0 0 29 21.75L29 19.25A0.25 0.25 0 0 0 28.75 19L28.25 19A0.25 0.25 0 0 1 28 18.75L28 18.25A0.25 0.25 0 0 0 27.75 18L27.25 18A0.25 0.25 0 0 0 27 18.25L27 18.75A0.25 0.25 0 0 0 27.25 19L27.75 19A0.25 0.25 0 0 1 28 19.25L28 20.75A0.25 0.25 0 0 1 27.75 21L27.25 21A0.25 0.25 0 0 0 27 21.25L27 21.75A0.25 0.25 0 0 1 26.75 22L26.25 22A0.25 0.25 0 0 1 26 21.75L26 21.25A0.25 0.25 0 0 0 25.75 21L25.25 21A0.25 0.25 0 0 0 25 21.25L25 21.75A0.25 0.25 0 0 1 24.75 22L22.25 22A0.25 0.25 0 0 1 22 21.75L22 21.25A0.25 0.25 0 0 1 22.25 21L23.75 21A0.25 0.25 0 0 0 24 20.75L24 20.25A0.25 0.25 0 0 0 23.75 20L23.25 20A0.25 0.25 0 0 1 23 19.75L23 17.25A0.25 0.25 0 0 1 23.25 17L24.75 17A0.25 0.25 0 0 0 25 16.75L25 16.25A0.25 0.25 0 0 0 24.75 16L23.25 16A0.25 0.25 0 0 0 23 16.25L23 16.75A0.25 0.25 0 0 1 22.75 17L22.25 17A0.25 0.25 0 0 1 22 16.75L22 16.25A0.25 0.25 0 0 0 21.75 16L20.25 16A0.25 0.25 0 0 0 20 16.25L20 16.75A0.25 0.25 0 0 1 19.75 17L18.25 17A0.25 0.25 0 0 1 18 16.75L18 14.25A0.25 0.25 0 0 1 18.25 14L19.75 14A0.25 0.25 0 0 0 20 13.75L20 12.25A0.25 0.25 0 0 0 19.75 12L19.25 12A0.25 0.25 0 0 1 19 11.75L19 11.25A0.25 0.25 0 0 1 19.25 11L19.75 11A0.25 0.25 0 0 0 20 10.75L20 10.25A0.25 0.25 0 0 0 19.75 10L17.25 10A0.25 0.25 0 0 0 17 10.25L17 11.75A0.25 0.25 0 0 1 16.75 12L15.25 12A0.25 0.25 0 0 1 15 11.75L15 11.25A0.25 0.25 0 0 1 15.25 11L15.75 11A0.25 0.25 0 0 0 16 10.75L16 9.25A0.25 0.25 0 0 1 16.25 9L16.75 9A0.25 0.25 0 0 0 17 8.75L17 8.25A0.25 0.25 0 0 0 16.75 8L16.25 8A0.25 0.25 0 0 0 16 8.25ZM18 8.25L18 8.75A0.25 0.25 0 0 0 18.25 9L19.75 9A0.25 0.25 0 0 0 20 8.75L20 8.25A0.25 0.25 0 0 0 19.75 8L18.25 8A0.25 0.25 0 0 0 18 8.25ZM47 8.25L47 8.75A0.25 0.25 0 0 0 47.25 9L47.75 9A0.25 0.25 0 0 0 48 8.75L48 8.25A0.25 0.25 0 0 0 47.75 8L47.25 8A0.25 0.25 0 0 0 47 8.25ZM12 9.25L12 9.75A0.25 0.25 0 0 1 11.75 10L11.25 10A0.25 0.25 0 0 0 11 10.25L11 10.75A0.25 0.25 0 0 1 10.75 11L10.25 11A0.25 0.25 0 0 1 10 10.75L10 10.25A0.25 0.25 0 0 0 9.75 10L9.25 10A0.25 0.25 0 0 0 9 10.25L9 10.75A0.25 0.25 0 0 0 9.25 11L9.75 11A0.25 0.25 0 0 1 10 11.25L10 11.75A0.25 0.25 0 0 0 10.25 12L10.75 12A0.25 0.25 0 0 0 11 11.75L11 11.25A0.25 0.25 0 0 1 11.25 11L12.75 11A0.25 0.25 0 0 0 13 10.75L13 9.25A0.25 0.25 0 0 0 12.75 9L12.25 9A0.25 0.25 0 0 0 12 9.25ZM29 9.25L29 9.75A0.25 0.25 0 0 0 29.25 10L29.75 10A0.25 0.25 0 0 0 30 9.75L30 9.25A0.25 0.25 0 0 0 29.75 9L29.25 9A0.25 0.25 0 0 0 29 9.25ZM39 9.25L39 9.75A0.25 0.25 0 0 0 39.25 10L39.75 10A0.25 0.25 0 0 1 40 10.25L40 10.75A0.25 0.25 0 0 0 40.25 11L40.75 11A0.25 0.25 0 0 0 41 10.75L41 9.25A0.25 0.25 0 0 0 40.75 9L39.25 9A0.25 0.25 0 0 0 39 9.25ZM2 10.25L2 10.75A0.25 0.25 0 0 0 2.25 11L2.75 11A0.25 0.25 0 0 0 3 10.75L3 10.25A0.25 0.25 0 0 0 2.75 10L2.25 10A0.25 0.25 0 0 0 2 10.25ZM23 10.25L23 11.75A0.25 0.25 0 0 0 23.25 12L24.75 12A0.25 0.25 0 0 0 25 11.75L25 11.25A0.25 0.25 0 0 0 24.75 11L24.25 11A0.25 0.25 0 0 1 24 10.75L24 10.25A0.25 0.25 0 0 0 23.75 10L23.25 10A0.25 0.25 0 0 0 23 10.25ZM28 11.25L28 11.75A0.25 0.25 0 0 0 28.25 12L28.75 12A0.25 0.25 0 0 1 29 12.25L29 13.75A0.25 0.25 0 0 0 29.25 14L29.75 14A0.25 0.25 0 0 0 30 13.75L30 12.25A0.25 0.25 0 0 0 29.75 12L29.25 12A0.25 0.25 0 0 1 29 11.75L29 11.25A0.25 0.25 0 0 0 28.75 11L28.25 11A0.25 0.25 0 0 0 28 11.25ZM42 11.25L42 11.75A0.25 0.25 0 0 0 42.25 12L42.75 12A0.25 0.25 0 0 1 43 12.25L43 13.75A0.25 0.25 0 0 0 43.25 14L44.75 14A0.25 0.25 0 0 0 45 13.75L45 13.25A0.25 0.25 0 0 0 44.75 13L44.25 13A0.25 0.25 0 0 1 44 12.75L44 11.25A0.25 0.25 0 0 0 43.75 11L42.25 11A0.25 0.25 0 0 0 42 11.25ZM14 12.25L14 12.75A0.25 0.25 0 0 0 14.25 13L14.75 13A0.25 0.25 0 0 0 15 12.75L15 12.25A0.25 0.25 0 0 0 14.75 12L14.25 12A0.25 0.25 0 0 0 14 12.25ZM18 12.25L18 12.75A0.25 0.25 0 0 1 17.75 13L17.25 13A0.25 0.25 0 0 0 17 13.25L17 13.75A0.25 0.25 0 0 0 17.25 14L17.75 14A0.25 0.25 0 0 0 18 13.75L18 13.25A0.25 0.25 0 0 1 18.25 13L18.75 13A0.25 0.25 0 0 0 19 12.75L19 12.25A0.25 0.25 0 0 0 18.75 12L18.25 12A0.25 0.25 0 0 0 18 12.25ZM0 13.25L0 14.75A0.25 0.25 0 0 0 0.25 15L0.75 15A0.25 0.25 0 0 0 1 14.75L1 13.25A0.25 0.25 0 0 0 0.75 13L0.25 13A0.25 0.25 0 0 0 0 13.25ZM2 13.25L2 13.75A0.25 0.25 0 0 0 2.25 14L2.75 14A0.25 0.25 0 0 0 3 13.75L3 13.25A0.25 0.25 0 0 0 2.75 13L2.25 13A0.25 0.25 0 0 0 2 13.25ZM9 13.25L9 13.75A0.25 0.25 0 0 0 9.25 14L10.75 14A0.25 0.25 0 0 1 11 14.25L11 14.75A0.25 0.25 0 0 0 11.25 15L11.75 15A0.25 0.25 0 0 0 12 14.75L12 14.25A0.25 0.25 0 0 0 11.75 14L11.25 14A0.25 0.25 0 0 1 11 13.75L11 13.25A0.25 0.25 0 0 0 10.75 13L9.25 13A0.25 0.25 0 0 0 9 13.25ZM15 14.25L15 15.75A0.25 0.25 0 0 1 14.75 16L14.25 16A0.25 0.25 0 0 0 14 16.25L14 17.75A0.25 0.25 0 0 1 13.75 18L12.25 18A0.25 0.25 0 0 0 12 18.25L12 18.75A0.25 0.25 0 0 0 12.25 19L13.75 19A0.25 0.25 0 0 0 14 18.75L14 18.25A0.25 0.25 0 0 1 14.25 18L15.75 18A0.25 0.25 0 0 0 16 17.75L16 17.25A0.25 0.25 0 0 1 16.25 17L16.75 17A0.25 0.25 0 0 0 17 16.75L17 15.25A0.25 0.25 0 0 0 16.75 15L16.25 15A0.25 0.25 0 0 1 16 14.75L16 14.25A0.25 0.25 0 0 0 15.75 14L15.25 14A0.25 0.25 0 0 0 15 14.25ZM35 14.25L35 14.75A0.25 0.25 0 0 0 35.25 15L35.75 15A0.25 0.25 0 0 1 36 15.25L36 16.75A0.25 0.25 0 0 0 36.25 17L37.75 17A0.25 0.25 0 0 0 38 16.75L38 16.25A0.25 0.25 0 0 1 38.25 16L38.75 16A0.25 0.25 0 0 1 39 16.25L39 16.75A0.25 0.25 0 0 0 39.25 17L39.75 17A0.25 0.25 0 0 0 40 16.75L40 16.25A0.25 0.25 0 0 0 39.75 16L39.25 16A0.25 0.25 0 0 1 39 15.75L39 15.25A0.25 0.25 0 0 0 38.75 15L36.25 15A0.25 0.25 0 0 1 36 14.75L36 14.25A0.25 0.25 0 0 0 35.75 14L35.25 14A0.25 0.25 0 0 0 35 14.25ZM0 16.25L0 16.75A0.25 0.25 0 0 0 0.25 17L0.75 17A0.25 0.25 0 0 0 1 16.75L1 16.25A0.25 0.25 0 0 0 0.75 16L0.25 16A0.25 0.25 0 0 0 0 16.25ZM6 16.25L6 16.75A0.25 0.25 0 0 1 5.75 17L5.25 17A0.25 0.25 0 0 0 5 17.25L5 17.75A0.25 0.25 0 0 0 5.25 18L5.75 18A0.25 0.25 0 0 1 6 18.25L6 18.75A0.25 0.25 0 0 0 6.25 19L6.75 19A0.25 0.25 0 0 0 7 18.75L7 18.25A0.25 0.25 0 0 0 6.75 18L6.25 18A0.25 0.25 0 0 1 6 17.75L6 17.25A0.25 0.25 0 0 1 6.25 17L6.75 17A0.25 0.25 0 0 0 7 16.75L7 16.25A0.25 0.25 0 0 0 6.75 16L6.25 16A0.25 0.25 0 0 0 6 16.25ZM15 16.25L15 16.75A0.25 0.25 0 0 0 15.25 17L15.75 17A0.25 0.25 0 0 0 16 16.75L16 16.25A0.25 0.25 0 0 0 15.75 16L15.25 16A0.25 0.25 0 0 0 15 16.25ZM27 16.25L27 16.75A0.25 0.25 0 0 0 27.25 17L28.75 17A0.25 0.25 0 0 1 29 17.25L29 17.75A0.25 0.25 0 0 0 29.25 18L29.75 18A0.25 0.25 0 0 0 30 17.75L30 17.25A0.25 0.25 0 0 1 30.25 17L32.75 17A0.25 0.25 0 0 0 33 16.75L33 16.25A0.25 0.25 0 0 0 32.75 16L30.25 16A0.25 0.25 0 0 0 30 16.25L30 16.75A0.25 0.25 0 0 1 29.75 17L29.25 17A0.25 0.25 0 0 1 29 16.75L29 16.25A0.25 0.25 0 0 0 28.75 16L27.25 16A0.25 0.25 0 0 0 27 16.25ZM21 17.25L21 17.75A0.25 0.25 0 0 1 20.75 18L20.25 18A0.25 0.25 0 0 0 20 18.25L20 18.75A0.25 0.25 0 0 1 19.75 19L18.25 19A0.25 0.25 0 0 0 18 19.25L18 21.75A0.25 0.25 0 0 1 17.75 22L17.25 22A0.25 0.25 0 0 0 17 22.25L17 22.75A0.25 0.25 0 0 0 17.25 23L17.75 23A0.25 0.25 0 0 0 18 22.75L18 22.25A0.25 0.25 0 0 1 18.25 22L18.75 22A0.25 0.25 0 0 0 19 21.75L19 20.25A0.25 0.25 0 0 1 19.25 20L19.75 20A0.25 0.25 0 0 0 20 19.75L20 19.25A0.25 0.25 0 0 1 20.25 19L20.75 19A0.25 0.25 0 0 0 21 18.75L21 18.25A0.25 0.25 0 0 1 21.25 18L21.75 18A0.25 0.25 0 0 0 22 17.75L22 17.25A0.25 0.25 0 0 0 21.75 17L21.25 17A0.25 0.25 0 0 0 21 17.25ZM25 18.25L25 19.75A0.25 0.25 0 0 0 25.25 20L25.75 20A0.25 0.25 0 0 0 26 19.75L26 18.25A0.25 0.25 0 0 0 25.75 18L25.25 18A0.25 0.25 0 0 0 25 18.25ZM42 19.25L42 19.75A0.25 0.25 0 0 0 42.25 20L42.75 20A0.25 0.25 0 0 0 43 19.75L43 19.25A0.25 0.25 0 0 0 42.75 19L42.25 19A0.25 0.25 0 0 0 42 19.25ZM21 20.25L21 20.75A0.25 0.25 0 0 0 21.25 21L21.75 21A0.25 0.25 0 0 0 22 20.75L22 20.25A0.25 0.25 0 0 0 21.75 20L21.25 20A0.25 0.25 0 0 0 21 20.25ZM14 21.25L14 21.75A0.25 0.25 0 0 0 14.25 22L14.75 22A0.25 0.25 0 0 0 15 21.75L15 21.25A0.25 0.25 0 0 0 14.75 21L14.25 21A0.25 0.25 0 0 0 14 21.25ZM38 21.25L38 22.75A0.25 0.25 0 0 0 38.25 23L38.75 23A0.25 0.25 0 0 0 39 22.75L39 22.25A0.25 0.25 0 0 1 39.25 22L39.75 22A0.25 0.25 0 0 0 40 21.75L40 21.25A0.25 0.25 0 0 0 39.75 21L38.25 21A0.25 0.25 0 0 0 38 21.25ZM20 22.25L20 22.75A0.25 0.25 0 0 1 19.75 23L19.25 23A0.25 0.25 0 0 0 19 23.25L19 23.75A0.25 0.25 0 0 0 19.25 24L19.75 24A0.25 0.25 0 0 1 20 24.25L20 24.75A0.25 0.25 0 0 0 20.25 25L21.75 25A0.25 0.25 0 0 0 22 24.75L22 24.25A0.25 0.25 0 0 0 21.75 24L20.25 24A0.25 0.25 0 0 1 20 23.75L20 23.25A0.25 0.25 0 0 1 20.25 23L20.75 23A0.25 0.25 0 0 0 21 22.75L21 22.25A0.25 0.25 0 0 0 20.75 22L20.25 22A0.25 0.25 0 0 0 20 22.25ZM5 23.25L5 25.75A0.25 0.25 0 0 0 5.25 26L7.75 26A0.25 0.25 0 0 0 8 25.75L8 23.25A0.25 0.25 0 0 0 7.75 23L5.25 23A0.25 0.25 0 0 0 5 23.25ZM12 23.25L12 23.75A0.25 0.25 0 0 1 11.75 24L10.25 24A0.25 0.25 0 0 0 10 24.25L10 24.75A0.25 0.25 0 0 0 10.25 25L11.75 25A0.25 0.25 0 0 0 12 24.75L12 24.25A0.25 0.25 0 0 1 12.25 24L12.75 24A0.25 0.25 0 0 1 13 24.25L13 25.75A0.25 0.25 0 0 1 12.75 26L12.25 26A0.25 0.25 0 0 0 12 26.25L12 27.75A0.25 0.25 0 0 1 11.75 28L11.25 28A0.25 0.25 0 0 1 11 27.75L11 27.25A0.25 0.25 0 0 0 10.75 27L10.25 27A0.25 0.25 0 0 0 10 27.25L10 27.75A0.25 0.25 0 0 1 9.75 28L9.25 28A0.25 0.25 0 0 0 9 28.25L9 28.75A0.25 0.25 0 0 0 9.25 29L9.75 29A0.25 0.25 0 0 1 10 29.25L10 30.75A0.25 0.25 0 0 1 9.75 31L9.25 31A0.25 0.25 0 0 0 9 31.25L9 31.75A0.25 0.25 0 0 0 9.25 32L9.75 32A0.25 0.25 0 0 0 10 31.75L10 31.25A0.25 0.25 0 0 1 10.25 31L10.75 31A0.25 0.25 0 0 0 11 30.75L11 29.25A0.25 0.25 0 0 1 11.25 29L11.75 29A0.25 0.25 0 0 0 12 28.75L12 28.25A0.25 0.25 0 0 1 12.25 28L12.75 28A0.25 0.25 0 0 0 13 27.75L13 27.25A0.25 0.25 0 0 1 13.25 27L13.75 27A0.25 0.25 0 0 0 14 26.75L14 23.25A0.25 0.25 0 0 0 13.75 23L12.25 23A0.25 0.25 0 0 0 12 23.25ZM23 23.25L23 25.75A0.25 0.25 0 0 0 23.25 26L25.75 26A0.25 0.25 0 0 0 26 25.75L26 23.25A0.25 0.25 0 0 0 25.75 23L23.25 23A0.25 0.25 0 0 0 23 23.25ZM32 23.25L32 23.75A0.25 0.25 0 0 0 32.25 24L33.75 24A0.25 0.25 0 0 0 34 23.75L34 23.25A0.25 0.25 0 0 0 33.75 23L32.25 23A0.25 0.25 0 0 0 32 23.25ZM41 23.25L41 25.75A0.25 0.25 0 0 0 41.25 26L43.75 26A0.25 0.25 0 0 0 44 25.75L44 23.25A0.25 0.25 0 0 0 43.75 23L41.25 23A0.25 0.25 0 0 0 41 23.25ZM6 24.25L6 24.75A0.25 0.25 0 0 0 6.25 25L6.75 25A0.25 0.25 0 0 0 7 24.75L7 24.25A0.25 0.25 0 0 0 6.75 24L6.25 24A0.25 0.25 0 0 0 6 24.25ZM24 24.25L24 24.75A0.25 0.25 0 0 0 24.25 25L24.75 25A0.25 0.25 0 0 0 25 24.75L25 24.25A0.25 0.25 0 0 0 24.75 24L24.25 24A0.25 0.25 0 0 0 24 24.25ZM42 24.25L42 24.75A0.25 0.25 0 0 0 42.25 25L42.75 25A0.25 0.25 0 0 0 43 24.75L43 24.25A0.25 0.25 0 0 0 42.75 24L42.25 24A0.25 0.25 0 0 0 42 24.25ZM31 25.25L31 26.75A0.25 0.25 0 0 1 30.75 27L29.25 27A0.25 0.25 0 0 0 29 27.25L29 27.75A0.25 0.25 0 0 0 29.25 28L30.75 28A0.25 0.25 0 0 0 31 27.75L31 27.25A0.25 0.25 0 0 1 31.25 27L32.75 27A0.25 0.25 0 0 0 33 26.75L33 26.25A0.25 0.25 0 0 0 32.75 26L32.25 26A0.25 0.25 0 0 1 32 25.75L32 25.25A0.25 0.25 0 0 0 31.75 25L31.25 25A0.25 0.25 0 0 0 31 25.25ZM45 25.25L45 25.75A0.25 0.25 0 0 0 45.25 26L45.75 26A0.25 0.25 0 0 1 46 26.25L46 26.75A0.25 0.25 0 0 1 45.75 27L45.25 27A0.25 0.25 0 0 0 45 27.25L45 27.75A0.25 0.25 0 0 0 45.25 28L45.75 28A0.25 0.25 0 0 0 46 27.75L46 27.25A0.25 0.25 0 0 1 46.25 27L46.75 27A0.25 0.25 0 0 0 47 26.75L47 26.25A0.25 0.25 0 0 1 47.25 26L47.75 26A0.25 0.25 0 0 0 48 25.75L48 25.25A0.25 0.25 0 0 0 47.75 25L45.25 25A0.25 0.25 0 0 0 45 25.25ZM20 26.25L20 26.75A0.25 0.25 0 0 1 19.75 27L19.25 27A0.25 0.25 0 0 0 19 27.25L19 27.75A0.25 0.25 0 0 0 19.25 28L19.75 28A0.25 0.25 0 0 0 20 27.75L20 27.25A0.25 0.25 0 0 1 20.25 27L21.75 27A0.25 0.25 0 0 0 22 26.75L22 26.25A0.25 0.25 0 0 0 21.75 26L20.25 26A0.25 0.25 0 0 0 20 26.25ZM27 26.25L27 27.75A0.25 0.25 0 0 0 27.25 28L27.75 28A0.25 0.25 0 0 0 28 27.75L28 26.25A0.25 0.25 0 0 0 27.75 26L27.25 26A0.25 0.25 0 0 0 27 26.25ZM23 27.25L23 27.75A0.25 0.25 0 0 0 23.25 28L23.75 28A0.25 0.25 0 0 0 24 27.75L24 27.25A0.25 0.25 0 0 0 23.75 27L23.25 27A0.25 0.25 0 0 0 23 27.25ZM25 27.25L25 27.75A0.25 0.25 0 0 0 25.25 28L25.75 28A0.25 0.25 0 0 0 26 27.75L26 27.25A0.25 0.25 0 0 0 25.75 27L25.25 27A0.25 0.25 0 0 0 25 27.25ZM43 27.25L43 27.75A0.25 0.25 0 0 0 43.25 28L43.75 28A0.25 0.25 0 0 0 44 27.75L44 27.25A0.25 0.25 0 0 0 43.75 27L43.25 27A0.25 0.25 0 0 0 43 27.25ZM10 28.25L10 28.75A0.25 0.25 0 0 0 10.25 29L10.75 29A0.25 0.25 0 0 0 11 28.75L11 28.25A0.25 0.25 0 0 0 10.75 28L10.25 28A0.25 0.25 0 0 0 10 28.25ZM21 28.25L21 28.75A0.25 0.25 0 0 1 20.75 29L20.25 29A0.25 0.25 0 0 0 20 29.25L20 29.75A0.25 0.25 0 0 0 20.25 30L20.75 30A0.25 0.25 0 0 1 21 30.25L21 30.75A0.25 0.25 0 0 0 21.25 31L21.75 31A0.25 0.25 0 0 1 22 31.25L22 31.75A0.25 0.25 0 0 0 22.25 32L22.75 32A0.25 0.25 0 0 0 23 31.75L23 31.25A0.25 0.25 0 0 0 22.75 31L22.25 31A0.25 0.25 0 0 1 22 30.75L22 30.25A0.25 0.25 0 0 1 22.25 30L22.75 30A0.25 0.25 0 0 0 23 29.75L23 29.25A0.25 0.25 0 0 0 22.75 29L22.25 29A0.25 0.25 0 0 1 22 28.75L22 28.25A0.25 0.25 0 0 0 21.75 28L21.25 28A0.25 0.25 0 0 0 21 28.25ZM21 29.25L21 29.75A0.25 0.25 0 0 0 21.25 30L21.75 30A0.25 0.25 0 0 0 22 29.75L22 29.25A0.25 0.25 0 0 0 21.75 29L21.25 29A0.25 0.25 0 0 0 21 29.25ZM25 29.25L25 29.75A0.25 0.25 0 0 0 25.25 30L25.75 30A0.25 0.25 0 0 1 26 30.25L26 31.75A0.25 0.25 0 0 0 26.25 32L28.75 32A0.25 0.25 0 0 0 29 31.75L29 31.25A0.25 0.25 0 0 1 29.25 31L29.75 31A0.25 0.25 0 0 0 30 30.75L30 29.25A0.25 0.25 0 0 0 29.75 29L29.25 29A0.25 0.25 0 0 0 29 29.25L29 30.75A0.25 0.25 0 0 1 28.75 31L28.25 31A0.25 0.25 0 0 1 28 30.75L28 29.25A0.25 0.25 0 0 0 27.75 29L25.25 29A0.25 0.25 0 0 0 25 29.25ZM38 29.25L38 30.75A0.25 0.25 0 0 1 37.75 31L37.25 31A0.25 0.25 0 0 0 37 31.25L37 33.75A0.25 0.25 0 0 1 36.75 34L36.25 34A0.25 0.25 0 0 0 36 34.25L36 36.75A0.25 0.25 0 0 0 36.25 37L36.75 37A0.25 0.25 0 0 1 37 37.25L37 38.75A0.25 0.25 0 0 0 37.25 39L38.75 39A0.25 0.25 0 0 1 39 39.25L39 39.75A0.25 0.25 0 0 0 39.25 40L39.75 40A0.25 0.25 0 0 0 40 39.75L40 39.25A0.25 0.25 0 0 1 40.25 39L40.75 39A0.25 0.25 0 0 0 41 38.75L41 38.25A0.25 0.25 0 0 1 41.25 38L42.75 38A0.25 0.25 0 0 0 43 37.75L43 37.25A0.25 0.25 0 0 1 43.25 37L43.75 37A0.25 0.25 0 0 0 44 36.75L44 35.25A0.25 0.25 0 0 0 43.75 35L40.25 35A0.25 0.25 0 0 1 40 34.75L40 34.25A0.25 0.25 0 0 0 39.75 34L39.25 34A0.25 0.25 0 0 1 39 33.75L39 33.25A0.25 0.25 0 0 0 38.75 33L38.25 33A0.25 0.25 0 0 1 38 32.75L38 31.25A0.25 0.25 0 0 1 38.25 31L38.75 31A0.25 0.25 0 0 0 39 30.75L39 29.25A0.25 0.25 0 0 0 38.75 29L38.25 29A0.25 0.25 0 0 0 38 29.25ZM40 29.25L40 30.75A0.25 0.25 0 0 0 40.25 31L41.75 31A0.25 0.25 0 0 0 42 30.75L42 30.25A0.25 0.25 0 0 0 41.75 30L41.25 30A0.25 0.25 0 0 1 41 29.75L41 29.25A0.25 0.25 0 0 0 40.75 29L40.25 29A0.25 0.25 0 0 0 40 29.25ZM15 30.25L15 30.75A0.25 0.25 0 0 1 14.75 31L14.25 31A0.25 0.25 0 0 0 14 31.25L14 31.75A0.25 0.25 0 0 0 14.25 32L14.75 32A0.25 0.25 0 0 1 15 32.25L15 32.75A0.25 0.25 0 0 0 15.25 33L15.75 33A0.25 0.25 0 0 0 16 32.75L16 32.25A0.25 0.25 0 0 0 15.75 32L15.25 32A0.25 0.25 0 0 1 15 31.75L15 31.25A0.25 0.25 0 0 1 15.25 31L15.75 31A0.25 0.25 0 0 0 16 30.75L16 30.25A0.25 0.25 0 0 0 15.75 30L15.25 30A0.25 0.25 0 0 0 15 30.25ZM1 31.25L1 32.75A0.25 0.25 0 0 0 1.25 33L1.75 33A0.25 0.25 0 0 0 2 32.75L2 32.25A0.25 0.25 0 0 1 2.25 32L2.75 32A0.25 0.25 0 0 0 3 31.75L3 31.25A0.25 0.25 0 0 0 2.75 31L1.25 31A0.25 0.25 0 0 0 1 31.25ZM35 31.25L35 32.75A0.25 0.25 0 0 0 35.25 33L35.75 33A0.25 0.25 0 0 0 36 32.75L36 31.25A0.25 0.25 0 0 0 35.75 31L35.25 31A0.25 0.25 0 0 0 35 31.25ZM6 32.25L6 32.75A0.25 0.25 0 0 0 6.25 33L7.75 33A0.25 0.25 0 0 0 8 32.75L8 32.25A0.25 0.25 0 0 0 7.75 32L6.25 32A0.25 0.25 0 0 0 6 32.25ZM40 32.25L40 32.75A0.25 0.25 0 0 0 40.25 33L41.75 33A0.25 0.25 0 0 0 42 32.75L42 32.25A0.25 0.25 0 0 0 41.75 32L40.25 32A0.25 0.25 0 0 0 40 32.25ZM1 34.25L1 34.75A0.25 0.25 0 0 1 0.75 35L0.25 35A0.25 0.25 0 0 0 0 35.25L0 35.75A0.25 0.25 0 0 0 0.25 36L2.75 36A0.25 0.25 0 0 0 3 35.75L3 35.25A0.25 0.25 0 0 0 2.75 35L2.25 35A0.25 0.25 0 0 1 2 34.75L2 34.25A0.25 0.25 0 0 0 1.75 34L1.25 34A0.25 0.25 0 0 0 1 34.25ZM27 34.25L27 34.75A0.25 0.25 0 0 0 27.25 35L27.75 35A0.25 0.25 0 0 0 28 34.75L28 34.25A0.25 0.25 0 0 0 27.75 34L27.25 34A0.25 0.25 0 0 0 27 34.25ZM37 34.25L37 34.75A0.25 0.25 0 0 0 37.25 35L37.75 35A0.25 0.25 0 0 1 38 35.25L38 35.75A0.25 0.25 0 0 1 37.75 36L37.25 36A0.25 0.25 0 0 0 37 36.25L37 36.75A0.25 0.25 0 0 0 37.25 37L37.75 37A0.25 0.25 0 0 0 38 36.75L38 36.25A0.25 0.25 0 0 1 38.25 36L38.75 36A0.25 0.25 0 0 1 39 36.25L39 38.75A0.25 0.25 0 0 0 39.25 39L39.75 39A0.25 0.25 0 0 0 40 38.75L40 38.25A0.25 0.25 0 0 1 40.25 38L40.75 38A0.25 0.25 0 0 0 41 37.75L41 36.25A0.25 0.25 0 0 0 40.75 36L40.25 36A0.25 0.25 0 0 1 40 35.75L40 35.25A0.25 0.25 0 0 0 39.75 35L38.25 35A0.25 0.25 0 0 1 38 34.75L38 34.25A0.25 0.25 0 0 0 37.75 34L37.25 34A0.25 0.25 0 0 0 37 34.25ZM17 35.25L17 35.75A0.25 0.25 0 0 0 17.25 36L17.75 36A0.25 0.25 0 0 0 18 35.75L18 35.25A0.25 0.25 0 0 0 17.75 35L17.25 35A0.25 0.25 0 0 0 17 35.25ZM6 36.25L6 36.75A0.25 0.25 0 0 0 6.25 37L6.75 37A0.25 0.25 0 0 0 7 36.75L7 36.25A0.25 0.25 0 0 0 6.75 36L6.25 36A0.25 0.25 0 0 0 6 36.25ZM42 36.25L42 36.75A0.25 0.25 0 0 0 42.25 37L42.75 37A0.25 0.25 0 0 0 43 36.75L43 36.25A0.25 0.25 0 0 0 42.75 36L42.25 36A0.25 0.25 0 0 0 42 36.25ZM0 37.25L0 37.75A0.25 0.25 0 0 0 0.25 38L0.75 38A0.25 0.25 0 0 1 1 38.25L1 39.75A0.25 0.25 0 0 1 0.75 40L0.25 40A0.25 0.25 0 0 0 0 40.25L0 40.75A0.25 0.25 0 0 0 0.25 41L2.75 41A0.25 0.25 0 0 0 3 40.75L3 40.25A0.25 0.25 0 0 1 3.25 40L3.75 40A0.25 0.25 0 0 0 4 39.75L4 39.25A0.25 0.25 0 0 0 3.75 39L2.25 39A0.25 0.25 0 0 1 2 38.75L2 38.25A0.25 0.25 0 0 1 2.25 38L2.75 38A0.25 0.25 0 0 0 3 37.75L3 37.25A0.25 0.25 0 0 0 2.75 37L0.25 37A0.25 0.25 0 0 0 0 37.25ZM19 38.25L19 40.75A0.25 0.25 0 0 0 19.25 41L19.75 41A0.25 0.25 0 0 0 20 40.75L20 38.25A0.25 0.25 0 0 0 19.75 38L19.25 38A0.25 0.25 0 0 0 19 38.25ZM21 39.25L21 42.75A0.25 0.25 0 0 1 20.75 43L20.25 43A0.25 0.25 0 0 0 20 43.25L20 43.75A0.25 0.25 0 0 1 19.75 44L19.25 44A0.25 0.25 0 0 1 19 43.75L19 43.25A0.25 0.25 0 0 0 18.75 43L18.25 43A0.25 0.25 0 0 0 18 43.25L18 43.75A0.25 0.25 0 0 0 18.25 44L18.75 44A0.25 0.25 0 0 1 19 44.25L19 44.75A0.25 0.25 0 0 0 19.25 45L21.75 45A0.25 0.25 0 0 1 22 45.25L22 46.75A0.25 0.25 0 0 0 22.25 47L24.75 47A0.25 0.25 0 0 1 25 47.25L25 47.75A0.25 0.25 0 0 0 25.25 48L25.75 48A0.25 0.25 0 0 0 26 47.75L26 47.25A0.25 0.25 0 0 1 26.25 47L26.75 47A0.25 0.25 0 0 0 27 46.75L27 45.25A0.25 0.25 0 0 0 26.75 45L25.25 45A0.25 0.25 0 0 0 25 45.25L25 45.75A0.25 0.25 0 0 1 24.75 46L24.25 46A0.25 0.25 0 0 1 24 45.75L24 45.25A0.25 0.25 0 0 0 23.75 45L22.25 45A0.25 0.25 0 0 1 22 44.75L22 44.25A0.25 0.25 0 0 0 21.75 44L21.25 44A0.25 0.25 0 0 1 21 43.75L21 43.25A0.25 0.25 0 0 1 21.25 43L21.75 43A0.25 0.25 0 0 0 22 42.75L22 39.25A0.25 0.25 0 0 0 21.75 39L21.25 39A0.25 0.25 0 0 0 21 39.25ZM27 39.25L27 39.75A0.25 0.25 0 0 0 27.25 40L27.75 40A0.25 0.25 0 0 0 28 39.75L28 39.25A0.25 0.25 0 0 0 27.75 39L27.25 39A0.25 0.25 0 0 0 27 39.25ZM6 40.25L6 40.75A0.25 0.25 0 0 0 6.25 41L6.75 41A0.25 0.25 0 0 0 7 40.75L7 40.25A0.25 0.25 0 0 0 6.75 40L6.25 40A0.25 0.25 0 0 0 6 40.25ZM12 41.25L12 41.75A0.25 0.25 0 0 0 12.25 42L13.75 42A0.25 0.25 0 0 0 14 41.75L14 41.25A0.25 0.25 0 0 0 13.75 41L12.25 41A0.25 0.25 0 0 0 12 41.25ZM16 41.25L16 41.75A0.25 0.25 0 0 0 16.25 42L16.75 42A0.25 0.25 0 0 0 17 41.75L17 41.25A0.25 0.25 0 0 0 16.75 41L16.25 41A0.25 0.25 0 0 0 16 41.25ZM23 41.25L23 43.75A0.25 0.25 0 0 0 23.25 44L25.75 44A0.25 0.25 0 0 0 26 43.75L26 41.25A0.25 0.25 0 0 0 25.75 41L23.25 41A0.25 0.25 0 0 0 23 41.25ZM41 41.25L41 43.75A0.25 0.25 0 0 0 41.25 44L43.75 44A0.25 0.25 0 0 0 44 43.75L44 41.25A0.25 0.25 0 0 0 43.75 41L41.25 41A0.25 0.25 0 0 0 41 41.25ZM9 42.25L9 44.75A0.25 0.25 0 0 0 9.25 45L9.75 45A0.25 0.25 0 0 1 10 45.25L10 45.75A0.25 0.25 0 0 0 10.25 46L10.75 46A0.25 0.25 0 0 0 11 45.75L11 44.25A0.25 0.25 0 0 0 10.75 44L10.25 44A0.25 0.25 0 0 1 10 43.75L10 43.25A0.25 0.25 0 0 1 10.25 43L10.75 43A0.25 0.25 0 0 0 11 42.75L11 42.25A0.25 0.25 0 0 0 10.75 42L9.25 42A0.25 0.25 0 0 0 9 42.25ZM24 42.25L24 42.75A0.25 0.25 0 0 0 24.25 43L24.75 43A0.25 0.25 0 0 0 25 42.75L25 42.25A0.25 0.25 0 0 0 24.75 42L24.25 42A0.25 0.25 0 0 0 24 42.25ZM30 42.25L30 42.75A0.25 0.25 0 0 0 30.25 43L30.75 43A0.25 0.25 0 0 1 31 43.25L31 44.75A0.25 0.25 0 0 0 31.25 45L31.75 45A0.25 0.25 0 0 0 32 44.75L32 43.25A0.25 0.25 0 0 0 31.75 43L31.25 43A0.25 0.25 0 0 1 31 42.75L31 42.25A0.25 0.25 0 0 0 30.75 42L30.25 42A0.25 0.25 0 0 0 30 42.25ZM34 42.25L34 42.75A0.25 0.25 0 0 0 34.25 43L34.75 43A0.25 0.25 0 0 0 35 42.75L35 42.25A0.25 0.25 0 0 0 34.75 42L34.25 42A0.25 0.25 0 0 0 34 42.25ZM42 42.25L42 42.75A0.25 0.25 0 0 0 42.25 43L42.75 43A0.25 0.25 0 0 0 43 42.75L43 42.25A0.25 0.25 0 0 0 42.75 42L42.25 42A0.25 0.25 0 0 0 42 42.25ZM44 45.25L44 46.75A0.25 0.25 0 0 0 44.25 47L44.75 47A0.25 0.25 0 0 0 45 46.75L45 45.25A0.25 0.25 0 0 0 44.75 45L44.25 45A0.25 0.25 0 0 0 44 45.25ZM48 45.25L48 45.75A0.25 0.25 0 0 0 48.25 46L48.75 46A0.25 0.25 0 0 0 49 45.75L49 45.25A0.25 0.25 0 0 0 48.75 45L48.25 45A0.25 0.25 0 0 0 48 45.25ZM16 46.25L16 46.75A0.25 0.25 0 0 0 16.25 47L16.75 47A0.25 0.25 0 0 1 17 47.25L17 47.75A0.25 0.25 0 0 0 17.25 48L17.75 48A0.25 0.25 0 0 0 18 47.75L18 46.25A0.25 0.25 0 0 0 17.75 46L16.25 46A0.25 0.25 0 0 0 16 46.25ZM12 47.25L12 47.75A0.25 0.25 0 0 1 11.75 48L11.25 48A0.25 0.25 0 0 0 11 48.25L11 48.75A0.25 0.25 0 0 0 11.25 49L13.75 49A0.25 0.25 0 0 0 14 48.75L14 47.25A0.25 0.25 0 0 0 13.75 47L12.25 47A0.25 0.25 0 0 0 12 47.25ZM30 47.25L30 47.75A0.25 0.25 0 0 1 29.75 48L28.25 48A0.25 0.25 0 0 0 28 48.25L28 48.75A0.25 0.25 0 0 0 28.25 49L29.75 49A0.25 0.25 0 0 0 30 48.75L30 48.25A0.25 0.25 0 0 1 30.25 48L31.75 48A0.25 0.25 0 0 1 32 48.25L32 48.75A0.25 0.25 0 0 0 32.25 49L32.75 49A0.25 0.25 0 0 0 33 48.75L33 48.25A0.25 0.25 0 0 1 33.25 48L34.75 48A0.25 0.25 0 0 0 35 47.75L35 47.25A0.25 0.25 0 0 0 34.75 47L30.25 47A0.25 0.25 0 0 0 30 47.25ZM0 0.25L0 6.75A0.25 0.25 0 0 0 0.25 7L6.75 7A0.25 0.25 0 0 0 7 6.75L7 0.25A0.25 0.25 0 0 0 6.75 0L0.25 0A0.25 0.25 0 0 0 0 0.25ZM1 1.25L1 5.75A0.25 0.25 0 0 0 1.25 6L5.75 6A0.25 0.25 0 0 0 6 5.75L6 1.25A0.25 0.25 0 0 0 5.75 1L1.25 1A0.25 0.25 0 0 0 1 1.25ZM2 2.25L2 4.75A0.25 0.25 0 0 0 2.25 5L4.75 5A0.25 0.25 0 0 0 5 4.75L5 2.25A0.25 0.25 0 0 0 4.75 2L2.25 2A0.25 0.25 0 0 0 2 2.25ZM42 0.25L42 6.75A0.25 0.25 0 0 0 42.25 7L48.75 7A0.25 0.25 0 0 0 49 6.75L49 0.25A0.25 0.25 0 0 0 48.75 0L42.25 0A0.25 0.25 0 0 0 42 0.25ZM43 1.25L43 5.75A0.25 0.25 0 0 0 43.25 6L47.75 6A0.25 0.25 0 0 0 48 5.75L48 1.25A0.25 0.25 0 0 0 47.75 1L43.25 1A0.25 0.25 0 0 0 43 1.25ZM44 2.25L44 4.75A0.25 0.25 0 0 0 44.25 5L46.75 5A0.25 0.25 0 0 0 47 4.75L47 2.25A0.25 0.25 0 0 0 46.75 2L44.25 2A0.25 0.25 0 0 0 44 2.25ZM0 42.25L0 48.75A0.25 0.25 0 0 0 0.25 49L6.75 49A0.25 0.25 0 0 0 7 48.75L7 42.25A0.25 0.25 0 0 0 6.75 42L0.25 42A0.25 0.25 0 0 0 0 42.25ZM1 43.25L1 47.75A0.25 0.25 0 0 0 1.25 48L5.75 48A0.25 0.25 0 0 0 6 47.75L6 43.25A0.25 0.25 0 0 0 5.75 43L1.25 43A0.25 0.25 0 0 0 1 43.25ZM2 44.25L2 46.75A0.25 0.25 0 0 0 2.25 47L4.75 47A0.25 0.25 0 0 0 5 46.75L5 44.25A0.25 0.25 0 0 0 4.75 44L2.25 44A0.25 0.25 0 0 0 2 44.25Z" fill="#000000"/></g></g></svg>
