<?xml version="1.0" encoding="UTF-8"?>
<svg xmlns="http://www.w3.org/2000/svg" version="1.1" width="500" height="500" viewBox="0 0 500 500"><rect x="0" y="0" width="500" height="500" fill="#8a2be2"/><g transform="scale(15.152)"><g transform="translate(0,0)"><path fill-rule="evenodd" d="M9 0.25L9 0.75A0.25 0.25 0 0 1 8.75 1L8.25 1A0.25 0.25 0 0 0 8 1.25L8 6.75A0.25 0.25 0 0 0 8.25 7L8.75 7A0.25 0.25 0 0 1 9 7.25L9 7.75A0.25 0.25 0 0 1 8.75 8L5.25 8A0.25 0.25 0 0 0 5 8.25L5 8.75A0.25 0.25 0 0 1 4.75 9L3.25 9A0.25 0.25 0 0 1 3 8.75L3 8.25A0.25 0.25 0 0 0 2.75 8L2.25 8A0.25 0.25 0 0 0 2 8.25L2 8.75A0.25 0.25 0 0 0 2.25 9L2.75 9A0.25 0.25 0 0 1 3 9.25L3 10.75A0.25 0.25 0 0 0 3.25 11L3.75 11A0.25 0.25 0 0 0 4 10.75L4 10.25A0.25 0.25 0 0 1 4.25 10L5.75 10A0.25 0.25 0 0 1 6 10.25L6 10.75A0.25 0.25 0 0 1 5.75 11L5.25 11A0.25 0.25 0 0 0 5 11.25L5 13.75A0.25 0.25 0 0 0 5.25 14L5.75 14A0.25 0.25 0 0 1 6 14.25L6 14.75A0.25 0.25 0 0 1 5.75 15L5.25 15A0.25 0.25 0 0 0 5 15.25L5 16.75A0.25 0.25 0 0 1 4.75 17L4.25 17A0.25 0.25 0 0 0 4 17.25L4 19.75A0.25 0.25 0 0 1 3.75 20L3.25 20A0.25 0.25 0 0 1 3 19.75L3 18.25A0.25 0.25 0 0 0 2.75 18L2.25 18A0.25 0.25 0 0 1 2 17.75L2 17.25A0.25 0.25 0 0 1 2.25 17L2.75 17A0.25 0.25 0 0 0 3 16.75L3 16.25A0.25 0.25 0 0 1 3.25 16L3.75 16A0.25 0.25 0 0 0 4 15.75L4 14.25A0.25 0.25 0 0 0 3.75 14L3.25 14A0.25 0.25 0 0 0 3 14.25L3 15.75A0.25 0.25 0 0 1 2.75 16L2.25 16A0.25 0.25 0 0 1 2 15.75L2 14.25A0.25 0.25 0 0 0 1.75 14L1.25 14A0.25 0.25 0 0 1 1 13.75L1 11.25A0.25 0.25 0 0 1 1.25 11L1.75 11A0.25 0.25 0 0 0 2 10.75L2 10.25A0.25 0.25 0 0 0 1.75 10L1.25 10A0.25 0.25 0 0 1 1 9.75L1 9.25A0.25 0.25 0 0 0 0.75 9L0.25 9A0.25 0.25 0 0 0 0 9.25L0 9.75A0.25 0.25 0 0 0 0.25 10L0.75 10A0.25 0.25 0 0 1 1 10.25L1 10.75A0.25 0.25 0 0 1 0.75 11L0.25 11A0.25 0.25 0 0 0 0 11.25L0 15.75A0.25 0.25 0 0 0 0.25 16L1.75 16A0.25 0.25 0 0 1 2 16.25L2 16.75A0.25 0.25 0 0 1 1.75 17L0.25 17A0.25 0.25 0 0 0 0 17.25L0 17.75A0.25 0.25 0 0 0 0.25 18L0.75 18A0.25 0.25 0 0 1 1 18.25L1 18.75A0.25 0.25 0 0 0 1.25 19L1.75 19A0.25 0.25 0 0 1 2 19.25L2 19.75A0.25 0.25 0 0 1 1.75 20L0.25 20A0.25 0.25 0 0 0 0 20.25L0 20.75A0.25 0.25 0 0 0 0.25 21L1.75 21A0.25 0.25 0 0 1 2 21.25L2 21.75A0.25 0.25 0 0 1 1.75 22L0.25 22A0.25 0.25 0 0 0 0 22.25L0 22.75A0.25 0.25 0 0 0 0.25 23L1.75 23A0.25 0.25 0 0 0 2 22.75L2 22.25A0.25 0.25 0 0 1 2.25 22L3.75 22A0.25 0.25 0 0 1 4 22.25L4 23.75A0.25 0.25 0 0 1 3.75 24L3.25 24A0.25 0.25 0 0 0 3 24.25L3 24.75A0.25 0.25 0 0 0 3.25 25L7.75 25A0.25 0.25 0 0 1 8 25.25L8 27.75A0.25 0.25 0 0 0 8.25 28L8.75 28A0.25 0.25 0 0 1 9 28.25L9 29.75A0.25 0.25 0 0 1 8.75 30L8.25 30A0.25 0.25 0 0 0 8 30.25L8 30.75A0.25 0.25 0 0 0 8.25 31L8.75 31A0.25 0.25 0 0 0 9 30.75L9 30.25A0.25 0.25 0 0 1 9.25 30L9.75 30A0.25 0.25 0 0 0 10 29.75L10 29.25A0.25 0.25 0 0 1 10.25 29L10.75 29A0.25 0.25 0 0 0 11 28.75L11 28.25A0.25 0.25 0 0 1 11.25 28L11.75 28A0.25 0.25 0 0 0 12 27.75L12 27.25A0.25 0.25 0 0 1 12.25 27L15.75 27A0.25 0.25 0 0 1 16 27.25L16 27.75A0.25 0.25 0 0 1 15.75 28L13.25 28A0.25 0.25 0 0 0 13 28.25L13 28.75A0.25 0.25 0 0 0 13.25 29L14.75 29A0.25 0.25 0 0 1 15 29.25L15 29.75A0.25 0.25 0 0 1 14.75 30L11.25 30A0.25 0.25 0 0 0 11 30.25L11 30.75A0.25 0.25 0 0 1 10.75 31L10.25 31A0.25 0.25 0 0 0 10 31.25L10 31.75A0.25 0.25 0 0 0 10.25 32L12.75 32A0.25 0.25 0 0 1 13 32.25L13 32.75A0.25 0.25 0 0 0 13.25 33L17.75 33A0.25 0.25 0 0 0 18 32.75L18 32.25A0.25 0.25 0 0 1 18.25 32L18.75 32A0.25 0.25 0 0 1 19 32.25L19 32.75A0.25 0.25 0 0 0 19.25 33L20.75 33A0.25 0.25 0 0 0 21 32.75L21 31.25A0.25 0.25 0 0 1 21.25 31L21.75 31A0.25 0.25 0 0 1 22 31.25L22 32.75A0.25 0.25 0 0 0 22.25 33L24.75 33A0.25 0.25 0 0 0 25 32.75L25 31.25A0.25 0.25 0 0 1 25.25 31L25.75 31A0.25 0.25 0 0 0 26 30.75L26 30.25A0.25 0.25 0 0 0 25.75 30L24.25 30A0.25 0.25 0 0 1 24 29.75L24 29.25A0.25 0.25 0 0 1 24.25 29L27.75 29A0.25 0.25 0 0 1 28 29.25L28 30.75A0.25 0.25 0 0 1 27.75 31L27.25 31A0.25 0.25 0 0 0 27 31.25L27 31.75A0.25 0.25 0 0 1 26.75 32L26.25 32A0.25 0.25 0 0 0 26 32.25L26 32.75A0.25 0.25 0 0 0 26.25 33L26.75 33A0.25 0.25 0 0 0 27 32.75L27 32.25A0.25 0.25 0 0 1 27.25 32L28.75 32A0.25 0.25 0 0 0 29 31.75L29 27.25A0.25 0.25 0 0 1 29.25 27L29.75 27A0.25 0.25 0 0 0 30 26.75L30 25.25A0.25 0.25 0 0 1 30.25 25L30.75 25A0.25 0.25 0 0 1 31 25.25L31 25.75A0.25 0.25 0 0 0 31.25 26L31.75 26A0.25 0.25 0 0 1 32 26.25L32 26.75A0.25 0.25 0 0 1 31.75 27L31.25 27A0.25 0.25 0 0 0 31 27.25L31 27.75A0.25 0.25 0 0 0 31.25 28L31.75 28A0.25 0.25 0 0 1 32 28.25L32 28.75A0.25 0.25 0 0 1 31.75 29L31.25 29A0.25 0.25 0 0 0 31 29.25L31 29.75A0.25 0.25 0 0 1 30.75 30L30.25 30A0.25 0.25 0 0 0 30 30.25L30 30.75A0.25 0.25 0 0 0 30.25 31L32.75 31A0.25 0.25 0 0 0 33 30.75L33 30.25A0.25 0.25 0 0 0 32.75 30L32.25 30A0.25 0.25 0 0 1 32 29.75L32 29.25A0.25 0.25 0 0 1 32.25 29L32.75 29A0.25 0.25 0 0 0 33 28.75L33 28.25A0.25 0.25 0 0 0 32.75 28L32.25 28A0.25 0.25 0 0 1 32 27.75L32 27.25A0.25 0.25 0 0 1 32.25 27L32.75 27A0.25 0.25 0 0 0 33 26.75L33 22.25A0.25 0.25 0 0 0 32.75 22L32.25 22A0.25 0.25 0 0 0 32 22.25L32 22.75A0.25 0.25 0 0 1 31.75 23L31.25 23A0.25 0.25 0 0 0 31 23.25L31 23.75A0.25 0.25 0 0 1 30.75 24L30.25 24A0.25 0.25 0 0 1 30 23.75L30 23.25A0.25 0.25 0 0 0 29.75 23L29.25 23A0.25 0.25 0 0 0 29 23.25L29 23.75A0.25 0.25 0 0 1 28.75 24L27.25 24A0.25 0.25 0 0 1 27 23.75L27 23.25A0.25 0.25 0 0 0 26.75 23L26.25 23A0.25 0.25 0 0 0 26 23.25L26 23.75A0.25 0.25 0 0 1 25.75 24L25.25 24A0.25 0.25 0 0 1 25 23.75L25 22.25A0.25 0.25 0 0 1 25.25 22L25.75 22A0.25 0.25 0 0 0 26 21.75L26 21.25A0.25 0.25 0 0 1 26.25 21L26.75 21A0.25 0.25 0 0 1 27 21.25L27 21.75A0.25 0.25 0 0 0 27.25 22L27.75 22A0.25 0.25 0 0 0 28 21.75L28 21.25A0.25 0.25 0 0 1 28.25 21L28.75 21A0.25 0.25 0 0 1 29 21.25L29 21.75A0.25 0.25 0 0 0 29.25 22L29.75 22A0.25 0.25 0 0 0 30 21.75L30 18.25A0.25 0.25 0 0 1 30.25 18L30.75 18A0.25 0.25 0 0 1 31 18.25L31 20.75A0.25 0.25 0 0 0 31.25 21L31.75 21A0.25 0.25 0 0 0 32 20.75L32 19.25A0.25 0.25 0 0 1 32.25 19L32.75 19A0.25 0.25 0 0 0 33 18.75L33 18.25A0.25 0.25 0 0 0 32.75 18L31.25 18A0.25 0.25 0 0 1 31 17.75L31 17.25A0.25 0.25 0 0 1 31.25 17L31.75 17A0.25 0.25 0 0 0 32 16.75L32 16.25A0.25 0.25 0 0 1 32.25 16L32.75 16A0.25 0.25 0 0 0 33 15.75L33 14.25A0.25 0.25 0 0 0 32.75 14L32.25 14A0.25 0.25 0 0 0 32 14.25L32 15.75A0.25 0.25 0 0 1 31.75 16L31.25 16A0.25 0.25 0 0 1 31 15.75L31 15.25A0.25 0.25 0 0 0 30.75 15L30.25 15A0.25 0.25 0 0 1 30 14.75L30 14.25A0.25 0.25 0 0 1 30.25 14L30.75 14A0.25 0.25 0 0 0 31 13.75L31 12.25A0.25 0.25 0 0 0 30.75 12L30.25 12A0.25 0.25 0 0 1 30 11.75L30 11.25A0.25 0.25 0 0 1 30.25 11L32.75 11A0.25 0.25 0 0 0 33 10.75L33 9.25A0.25 0.25 0 0 0 32.75 9L32.25 9A0.25 0.25 0 0 1 32 8.75L32 8.25A0.25 0.25 0 0 0 31.75 8L27.25 8A0.25 0.25 0 0 0 27 8.25L27 8.75A0.25 0.25 0 0 1 26.75 9L26.25 9A0.25 0.25 0 0 1 26 8.75L26 8.25A0.25 0.25 0 0 0 25.75 8L25.25 8A0.25 0.25 0 0 0 25 8.25L25 8.75A0.25 0.25 0 0 0 25.25 9L25.75 9A0.25 0.25 0 0 1 26 9.25L26 10.75A0.25 0.25 0 0 1 25.75 11L25.25 11A0.25 0.25 0 0 0 25 11.25L25 15.75A0.25 0.25 0 0 1 24.75 16L23.25 16A0.25 0.25 0 0 1 23 15.75L23 15.25A0.25 0.25 0 0 1 23.25 15L23.75 15A0.25 0.25 0 0 0 24 14.75L24 13.25A0.25 0.25 0 0 0 23.75 13L23.25 13A0.25 0.25 0 0 0 23 13.25L23 14.75A0.25 0.25 0 0 1 22.75 15L22.25 15A0.25 0.25 0 0 0 22 15.25L22 15.75A0.25 0.25 0 0 0 22.25 16L22.75 16A0.25 0.25 0 0 1 23 16.25L23 16.75A0.25 0.25 0 0 0 23.25 17L23.75 17A0.25 0.25 0 0 1 24 17.25L24 17.75A0.25 0.25 0 0 1 23.75 18L22.25 18A0.25 0.25 0 0 1 22 17.75L22 17.25A0.25 0.25 0 0 0 21.75 17L21.25 17A0.25 0.25 0 0 1 21 16.75L21 15.25A0.25 0.25 0 0 0 20.75 15L20.25 15A0.25 0.25 0 0 1 20 14.75L20 13.25A0.25 0.25 0 0 1 20.25 13L20.75 13A0.25 0.25 0 0 1 21 13.25L21 13.75A0.25 0.25 0 0 0 21.25 14L21.75 14A0.25 0.25 0 0 0 22 13.75L22 11.25A0.25 0.25 0 0 0 21.75 11L21.25 11A0.25 0.25 0 0 1 21 10.75L21 10.25A0.25 0.25 0 0 1 21.25 10L22.75 10A0.25 0.25 0 0 1 23 10.25L23 10.75A0.25 0.25 0 0 0 23.25 11L23.75 11A0.25 0.25 0 0 0 24 10.75L24 8.25A0.25 0.25 0 0 0 23.75 8L22.25 8A0.25 0.25 0 0 0 22 8.25L22 8.75A0.25 0.25 0 0 1 21.75 9L21.25 9A0.25 0.25 0 0 1 21 8.75L21 6.25A0.25 0.25 0 0 0 20.75 6L20.25 6A0.25 0.25 0 0 1 20 5.75L20 5.25A0.25 0.25 0 0 1 20.25 5L21.75 5A0.25 0.25 0 0 0 22 4.75L22 3.25A0.25 0.25 0 0 1 22.25 3L23.75 3A0.25 0.25 0 0 1 24 3.25L24 3.75A0.25 0.25 0 0 1 23.75 4L23.25 4A0.25 0.25 0 0 0 23 4.25L23 4.75A0.25 0.25 0 0 0 23.25 5L23.75 5A0.25 0.25 0 0 1 24 5.25L24 6.75A0.25 0.25 0 0 0 24.25 7L24.75 7A0.25 0.25 0 0 0 25 6.75L25 3.25A0.25 0.25 0 0 0 24.75 3L24.25 3A0.25 0.25 0 0 1 24 2.75L24 2.25A0.25 0.25 0 0 0 23.75 2L23.25 2A0.25 0.25 0 0 1 23 1.75L23 0.25A0.25 0.25 0 0 0 22.75 0L18.25 0A0.25 0.25 0 0 0 18 0.25L18 0.75A0.25 0.25 0 0 1 17.75 1L17.25 1A0.25 0.25 0 0 1 17 0.75L17 0.25A0.25 0.25 0 0 0 16.75 0L15.25 0A0.25 0.25 0 0 0 15 0.25L15 0.75A0.25 0.25 0 0 1 14.75 1L14.25 1A0.25 0.25 0 0 1 14 0.75L14 0.25A0.25 0.25 0 0 0 13.75 0L13.25 0A0.25 0.25 0 0 0 13 0.25L13 0.75A0.25 0.25 0 0 1 12.75 1L12.25 1A0.25 0.25 0 0 0 12 1.25L12 1.75A0.25 0.25 0 0 1 11.75 2L11.25 2A0.25 0.25 0 0 0 11 2.25L11 2.75A0.25 0.25 0 0 0 11.25 3L11.75 3A0.25 0.25 0 0 1 12 3.25L12 3.75A0.25 0.25 0 0 0 12.25 4L12.75 4A0.25 0.25 0 0 1 13 4.25L13 4.75A0.25 0.25 0 0 1 12.75 5L12.25 5A0.25 0.25 0 0 0 12 5.25L12 7.75A0.25 0.25 0 0 0 12.25 8L12.75 8A0.25 0.25 0 0 1 13 8.25L13 9.75A0.25 0.25 0 0 0 13.25 10L17.75 10A0.25 0.25 0 0 1 18 10.25L18 10.75A0.25 0.25 0 0 1 17.75 11L17.25 11A0.25 0.25 0 0 0 17 11.25L17 12.75A0.25 0.25 0 0 1 16.75 13L16.25 13A0.25 0.25 0 0 0 16 13.25L16 13.75A0.25 0.25 0 0 0 16.25 14L16.75 14A0.25 0.25 0 0 1 17 14.25L17 14.75A0.25 0.25 0 0 1 16.75 15L15.25 15A0.25 0.25 0 0 1 15 14.75L15 12.25A0.25 0.25 0 0 1 15.25 12L15.75 12A0.25 0.25 0 0 0 16 11.75L16 11.25A0.25 0.25 0 0 0 15.75 11L14.25 11A0.25 0.25 0 0 0 14 11.25L14 12.75A0.25 0.25 0 0 1 13.75 13L12.25 13A0.25 0.25 0 0 0 12 13.25L12 13.75A0.25 0.25 0 0 0 12.25 14L12.75 14A0.25 0.25 0 0 1 13 14.25L13 14.75A0.25 0.25 0 0 1 12.75 15L12.25 15A0.25 0.25 0 0 0 12 15.25L12 15.75A0.25 0.25 0 0 0 12.25 16L12.75 16A0.25 0.25 0 0 1 13 16.25L13 17.75A0.25 0.25 0 0 0 13.25 18L14.75 18A0.25 0.25 0 0 0 15 17.75L15 17.25A0.25 0.25 0 0 1 15.25 17L15.75 17A0.25 0.25 0 0 0 16 16.75L16 16.25A0.25 0.25 0 0 1 16.25 16L19.75 16A0.25 0.25 0 0 1 20 16.25L20 19.75A0.25 0.25 0 0 1 19.75 20L19.25 20A0.25 0.25 0 0 1 19 19.75L19 17.25A0.25 0.25 0 0 0 18.75 17L18.25 17A0.25 0.25 0 0 0 18 17.25L18 17.75A0.25 0.25 0 0 1 17.75 18L17.25 18A0.25 0.25 0 0 0 17 18.25L17 18.75A0.25 0.25 0 0 1 16.75 19L16.25 19A0.25 0.25 0 0 0 16 19.25L16 19.75A0.25 0.25 0 0 1 15.75 20L15.25 20A0.25 0.25 0 0 1 15 19.75L15 19.25A0.25 0.25 0 0 0 14.75 19L11.25 19A0.25 0.25 0 0 1 11 18.75L11 18.25A0.25 0.25 0 0 0 10.75 18L10.25 18A0.25 0.25 0 0 0 10 18.25L10 18.75A0.25 0.25 0 0 1 9.75 19L9.25 19A0.25 0.25 0 0 1 9 18.75L9 18.25A0.25 0.25 0 0 0 8.75 18L8.25 18A0.25 0.25 0 0 1 8 17.75L8 16.25A0.25 0.25 0 0 1 8.25 16L8.75 16A0.25 0.25 0 0 1 9 16.25L9 16.75A0.25 0.25 0 0 0 9.25 17L9.75 17A0.25 0.25 0 0 0 10 16.75L10 16.25A0.25 0.25 0 0 0 9.75 16L9.25 16A0.25 0.25 0 0 1 9 15.75L9 15.25A0.25 0.25 0 0 1 9.25 15L10.75 15A0.25 0.25 0 0 0 11 14.75L11 12.25A0.25 0.25 0 0 0 10.75 12L10.25 12A0.25 0.25 0 0 1 10 11.75L10 11.25A0.25 0.25 0 0 1 10.25 11L11.75 11A0.25 0.25 0 0 1 12 11.25L12 11.75A0.25 0.25 0 0 0 12.25 12L12.75 12A0.25 0.25 0 0 0 13 11.75L13 11.25A0.25 0.25 0 0 0 12.75 11L12.25 11A0.25 0.25 0 0 1 12 10.75L12 9.25A0.25 0.25 0 0 0 11.75 9L10.25 9A0.25 0.25 0 0 1 10 8.75L10 8.25A0.25 0.25 0 0 1 10.25 8L10.75 8A0.25 0.25 0 0 0 11 7.75L11 4.25A0.25 0.25 0 0 0 10.75 4L10.25 4A0.25 0.25 0 0 1 10 3.75L10 1.25A0.25 0.25 0 0 1 10.25 1L10.75 1A0.25 0.25 0 0 0 11 0.75L11 0.25A0.25 0.25 0 0 0 10.75 0L9.25 0A0.25 0.25 0 0 0 9 0.25ZM13 1.25L13 1.75A0.25 0.25 0 0 1 12.75 2L12.25 2A0.25 0.25 0 0 0 12 2.25L12 2.75A0.25 0.25 0 0 0 12.25 3L12.75 3A0.25 0.25 0 0 1 13 3.25L13 3.75A0.25 0.25 0 0 0 13.25 4L13.75 4A0.25 0.25 0 0 1 14 4.25L14 4.75A0.25 0.25 0 0 0 14.25 5L14.75 5A0.25 0.25 0 0 0 15 4.75L15 4.25A0.25 0.25 0 0 1 15.25 4L15.75 4A0.25 0.25 0 0 0 16 3.75L16 3.25A0.25 0.25 0 0 1 16.25 3L18.75 3A0.25 0.25 0 0 1 19 3.25L19 3.75A0.25 0.25 0 0 1 18.75 4L18.25 4A0.25 0.25 0 0 0 18 4.25L18 4.75A0.25 0.25 0 0 1 17.75 5L17.25 5A0.25 0.25 0 0 0 17 5.25L17 6.75A0.25 0.25 0 0 1 16.75 7L16.25 7A0.25 0.25 0 0 1 16 6.75L16 6.25A0.25 0.25 0 0 0 15.75 6L15.25 6A0.25 0.25 0 0 0 15 6.25L15 7.75A0.25 0.25 0 0 1 14.75 8L14.25 8A0.25 0.25 0 0 1 14 7.75L14 6.25A0.25 0.25 0 0 0 13.75 6L13.25 6A0.25 0.25 0 0 0 13 6.25L13 7.75A0.25 0.25 0 0 0 13.25 8L13.75 8A0.25 0.25 0 0 1 14 8.25L14 8.75A0.25 0.25 0 0 0 14.25 9L17.75 9A0.25 0.25 0 0 0 18 8.75L18 8.25A0.25 0.25 0 0 1 18.25 8L18.75 8A0.25 0.25 0 0 1 19 8.25L19 8.75A0.25 0.25 0 0 0 19.25 9L19.75 9A0.25 0.25 0 0 1 20 9.25L20 9.75A0.25 0.25 0 0 1 19.75 10L19.25 10A0.25 0.25 0 0 0 19 10.25L19 12.75A0.25 0.25 0 0 1 18.75 13L17.25 13A0.25 0.25 0 0 0 17 13.25L17 13.75A0.25 0.25 0 0 0 17.25 14L18.75 14A0.25 0.25 0 0 0 19 13.75L19 13.25A0.25 0.25 0 0 1 19.25 13L19.75 13A0.25 0.25 0 0 0 20 12.75L20 10.25A0.25 0.25 0 0 1 20.25 10L20.75 10A0.25 0.25 0 0 0 21 9.75L21 9.25A0.25 0.25 0 0 0 20.75 9L20.25 9A0.25 0.25 0 0 1 20 8.75L20 8.25A0.25 0.25 0 0 0 19.75 8L19.25 8A0.25 0.25 0 0 1 19 7.75L19 7.25A0.25 0.25 0 0 1 19.25 7L19.75 7A0.25 0.25 0 0 0 20 6.75L20 6.25A0.25 0.25 0 0 0 19.75 6L19.25 6A0.25 0.25 0 0 0 19 6.25L19 6.75A0.25 0.25 0 0 1 18.75 7L18.25 7A0.25 0.25 0 0 1 18 6.75L18 5.25A0.25 0.25 0 0 1 18.25 5L19.75 5A0.25 0.25 0 0 0 20 4.75L20 4.25A0.25 0.25 0 0 1 20.25 4L20.75 4A0.25 0.25 0 0 0 21 3.75L21 1.25A0.25 0.25 0 0 0 20.75 1L19.25 1A0.25 0.25 0 0 0 19 1.25L19 1.75A0.25 0.25 0 0 1 18.75 2L16.25 2A0.25 0.25 0 0 0 16 2.25L16 2.75A0.25 0.25 0 0 1 15.75 3L14.25 3A0.25 0.25 0 0 1 14 2.75L14 1.25A0.25 0.25 0 0 0 13.75 1L13.25 1A0.25 0.25 0 0 0 13 1.25ZM9 6.25L9 6.75A0.25 0.25 0 0 0 9.25 7L9.75 7A0.25 0.25 0 0 0 10 6.75L10 6.25A0.25 0.25 0 0 0 9.75 6L9.25 6A0.25 0.25 0 0 0 9 6.25ZM22 6.25L22 6.75A0.25 0.25 0 0 0 22.25 7L22.75 7A0.25 0.25 0 0 0 23 6.75L23 6.25A0.25 0.25 0 0 0 22.75 6L22.25 6A0.25 0.25 0 0 0 22 6.25ZM6 9.25L6 9.75A0.25 0.25 0 0 0 6.25 10L7.75 10A0.25 0.25 0 0 1 8 10.25L8 10.75A0.25 0.25 0 0 1 7.75 11L6.25 11A0.25 0.25 0 0 0 6 11.25L6 11.75A0.25 0.25 0 0 0 6.25 12L7.75 12A0.25 0.25 0 0 0 8 11.75L8 11.25A0.25 0.25 0 0 1 8.25 11L9.75 11A0.25 0.25 0 0 0 10 10.75L10 10.25A0.25 0.25 0 0 0 9.75 10L9.25 10A0.25 0.25 0 0 1 9 9.75L9 9.25A0.25 0.25 0 0 0 8.75 9L6.25 9A0.25 0.25 0 0 0 6 9.25ZM28 9.25L28 9.75A0.25 0.25 0 0 0 28.25 10L29.75 10A0.25 0.25 0 0 0 30 9.75L30 9.25A0.25 0.25 0 0 0 29.75 9L28.25 9A0.25 0.25 0 0 0 28 9.25ZM26 11.25L26 11.75A0.25 0.25 0 0 0 26.25 12L27.75 12A0.25 0.25 0 0 0 28 11.75L28 11.25A0.25 0.25 0 0 0 27.75 11L26.25 11A0.25 0.25 0 0 0 26 11.25ZM2 12.25L2 12.75A0.25 0.25 0 0 0 2.25 13L2.75 13A0.25 0.25 0 0 0 3 12.75L3 12.25A0.25 0.25 0 0 0 2.75 12L2.25 12A0.25 0.25 0 0 0 2 12.25ZM9 12.25L9 13.75A0.25 0.25 0 0 0 9.25 14L9.75 14A0.25 0.25 0 0 0 10 13.75L10 12.25A0.25 0.25 0 0 0 9.75 12L9.25 12A0.25 0.25 0 0 0 9 12.25ZM6 13.25L6 13.75A0.25 0.25 0 0 0 6.25 14L6.75 14A0.25 0.25 0 0 0 7 13.75L7 13.25A0.25 0.25 0 0 0 6.75 13L6.25 13A0.25 0.25 0 0 0 6 13.25ZM26 14.25L26 15.75A0.25 0.25 0 0 0 26.25 16L26.75 16A0.25 0.25 0 0 1 27 16.25L27 18.75A0.25 0.25 0 0 1 26.75 19L26.25 19A0.25 0.25 0 0 0 26 19.25L26 19.75A0.25 0.25 0 0 0 26.25 20L26.75 20A0.25 0.25 0 0 0 27 19.75L27 19.25A0.25 0.25 0 0 1 27.25 19L27.75 19A0.25 0.25 0 0 1 28 19.25L28 19.75A0.25 0.25 0 0 0 28.25 20L28.75 20A0.25 0.25 0 0 0 29 19.75L29 18.25A0.25 0.25 0 0 1 29.25 18L29.75 18A0.25 0.25 0 0 0 30 17.75L30 17.25A0.25 0.25 0 0 0 29.75 17L29.25 17A0.25 0.25 0 0 1 29 16.75L29 16.25A0.25 0.25 0 0 0 28.75 16L27.25 16A0.25 0.25 0 0 1 27 15.75L27 14.25A0.25 0.25 0 0 0 26.75 14L26.25 14A0.25 0.25 0 0 0 26 14.25ZM28 14.25L28 14.75A0.25 0.25 0 0 0 28.25 15L28.75 15A0.25 0.25 0 0 0 29 14.75L29 14.25A0.25 0.25 0 0 0 28.75 14L28.25 14A0.25 0.25 0 0 0 28 14.25ZM6 15.25L6 15.75A0.25 0.25 0 0 0 6.25 16L7.75 16A0.25 0.25 0 0 0 8 15.75L8 15.25A0.25 0.25 0 0 0 7.75 15L6.25 15A0.25 0.25 0 0 0 6 15.25ZM13 15.25L13 15.75A0.25 0.25 0 0 0 13.25 16L14.75 16A0.25 0.25 0 0 0 15 15.75L15 15.25A0.25 0.25 0 0 0 14.75 15L13.25 15A0.25 0.25 0 0 0 13 15.25ZM5 17.25L5 17.75A0.25 0.25 0 0 0 5.25 18L6.75 18A0.25 0.25 0 0 0 7 17.75L7 17.25A0.25 0.25 0 0 0 6.75 17L5.25 17A0.25 0.25 0 0 0 5 17.25ZM5 19.25L5 19.75A0.25 0.25 0 0 1 4.75 20L4.25 20A0.25 0.25 0 0 0 4 20.25L4 21.75A0.25 0.25 0 0 0 4.25 22L4.75 22A0.25 0.25 0 0 0 5 21.75L5 21.25A0.25 0.25 0 0 1 5.25 21L5.75 21A0.25 0.25 0 0 1 6 21.25L6 21.75A0.25 0.25 0 0 0 6.25 22L6.75 22A0.25 0.25 0 0 1 7 22.25L7 22.75A0.25 0.25 0 0 1 6.75 23L6.25 23A0.25 0.25 0 0 0 6 23.25L6 23.75A0.25 0.25 0 0 0 6.25 24L6.75 24A0.25 0.25 0 0 0 7 23.75L7 23.25A0.25 0.25 0 0 1 7.25 23L7.75 23A0.25 0.25 0 0 1 8 23.25L8 23.75A0.25 0.25 0 0 0 8.25 24L8.75 24A0.25 0.25 0 0 1 9 24.25L9 24.75A0.25 0.25 0 0 0 9.25 25L9.75 25A0.25 0.25 0 0 0 10 24.75L10 23.25A0.25 0.25 0 0 1 10.25 23L10.75 23A0.25 0.25 0 0 1 11 23.25L11 25.75A0.25 0.25 0 0 1 10.75 26L9.25 26A0.25 0.25 0 0 0 9 26.25L9 27.75A0.25 0.25 0 0 0 9.25 28L9.75 28A0.25 0.25 0 0 0 10 27.75L10 27.25A0.25 0.25 0 0 1 10.25 27L11.75 27A0.25 0.25 0 0 0 12 26.75L12 25.25A0.25 0.25 0 0 1 12.25 25L12.75 25A0.25 0.25 0 0 1 13 25.25L13 25.75A0.25 0.25 0 0 0 13.25 26L14.75 26A0.25 0.25 0 0 0 15 25.75L15 25.25A0.25 0.25 0 0 0 14.75 25L13.25 25A0.25 0.25 0 0 1 13 24.75L13 24.25A0.25 0.25 0 0 1 13.25 24L15.75 24A0.25 0.25 0 0 0 16 23.75L16 23.25A0.25 0.25 0 0 0 15.75 23L15.25 23A0.25 0.25 0 0 1 15 22.75L15 22.25A0.25 0.25 0 0 0 14.75 22L14.25 22A0.25 0.25 0 0 1 14 21.75L14 21.25A0.25 0.25 0 0 1 14.25 21L14.75 21A0.25 0.25 0 0 0 15 20.75L15 20.25A0.25 0.25 0 0 0 14.75 20L14.25 20A0.25 0.25 0 0 0 14 20.25L14 20.75A0.25 0.25 0 0 1 13.75 21L13.25 21A0.25 0.25 0 0 1 13 20.75L13 20.25A0.25 0.25 0 0 0 12.75 20L12.25 20A0.25 0.25 0 0 0 12 20.25L12 20.75A0.25 0.25 0 0 1 11.75 21L11.25 21A0.25 0.25 0 0 1 11 20.75L11 19.25A0.25 0.25 0 0 0 10.75 19L10.25 19A0.25 0.25 0 0 0 10 19.25L10 19.75A0.25 0.25 0 0 1 9.75 20L9.25 20A0.25 0.25 0 0 0 9 20.25L9 20.75A0.25 0.25 0 0 0 9.25 21L10.75 21A0.25 0.25 0 0 1 11 21.25L11 21.75A0.25 0.25 0 0 1 10.75 22L8.25 22A0.25 0.25 0 0 1 8 21.75L8 20.25A0.25 0.25 0 0 0 7.75 20L7.25 20A0.25 0.25 0 0 1 7 19.75L7 19.25A0.25 0.25 0 0 0 6.75 19L5.25 19A0.25 0.25 0 0 0 5 19.25ZM17 19.25L17 19.75A0.25 0.25 0 0 1 16.75 20L16.25 20A0.25 0.25 0 0 0 16 20.25L16 21.75A0.25 0.25 0 0 0 16.25 22L18.75 22A0.25 0.25 0 0 1 19 22.25L19 22.75A0.25 0.25 0 0 1 18.75 23L18.25 23A0.25 0.25 0 0 0 18 23.25L18 23.75A0.25 0.25 0 0 0 18.25 24L18.75 24A0.25 0.25 0 0 0 19 23.75L19 23.25A0.25 0.25 0 0 1 19.25 23L19.75 23A0.25 0.25 0 0 1 20 23.25L20 23.75A0.25 0.25 0 0 0 20.25 24L21.75 24A0.25 0.25 0 0 1 22 24.25L22 24.75A0.25 0.25 0 0 1 21.75 25L20.25 25A0.25 0.25 0 0 0 20 25.25L20 28.75A0.25 0.25 0 0 1 19.75 29L19.25 29A0.25 0.25 0 0 0 19 29.25L19 31.75A0.25 0.25 0 0 0 19.25 32L19.75 32A0.25 0.25 0 0 0 20 31.75L20 31.25A0.25 0.25 0 0 1 20.25 31L20.75 31A0.25 0.25 0 0 0 21 30.75L21 30.25A0.25 0.25 0 0 1 21.25 30L21.75 30A0.25 0.25 0 0 1 22 30.25L22 30.75A0.25 0.25 0 0 0 22.25 31L23.75 31A0.25 0.25 0 0 0 24 30.75L24 30.25A0.25 0.25 0 0 0 23.75 30L22.25 30A0.25 0.25 0 0 1 22 29.75L22 29.25A0.25 0.25 0 0 0 21.75 29L21.25 29A0.25 0.25 0 0 1 21 28.75L21 28.25A0.25 0.25 0 0 1 21.25 28L21.75 28A0.25 0.25 0 0 0 22 27.75L22 27.25A0.25 0.25 0 0 0 21.75 27L21.25 27A0.25 0.25 0 0 1 21 26.75L21 26.25A0.25 0.25 0 0 1 21.25 26L21.75 26A0.25 0.25 0 0 0 22 25.75L22 25.25A0.25 0.25 0 0 1 22.25 25L23.75 25A0.25 0.25 0 0 0 24 24.75L24 24.25A0.25 0.25 0 0 0 23.75 24L22.25 24A0.25 0.25 0 0 1 22 23.75L22 23.25A0.25 0.25 0 0 1 22.25 23L23.75 23A0.25 0.25 0 0 0 24 22.75L24 21.25A0.25 0.25 0 0 0 23.75 21L23.25 21A0.25 0.25 0 0 0 23 21.25L23 21.75A0.25 0.25 0 0 1 22.75 22L22.25 22A0.25 0.25 0 0 1 22 21.75L22 19.25A0.25 0.25 0 0 0 21.75 19L21.25 19A0.25 0.25 0 0 0 21 19.25L21 19.75A0.25 0.25 0 0 1 20.75 20L20.25 20A0.25 0.25 0 0 0 20 20.25L20 20.75A0.25 0.25 0 0 1 19.75 21L19.25 21A0.25 0.25 0 0 1 19 20.75L19 20.25A0.25 0.25 0 0 0 18.75 20L18.25 20A0.25 0.25 0 0 1 18 19.75L18 19.25A0.25 0.25 0 0 0 17.75 19L17.25 19A0.25 0.25 0 0 0 17 19.25ZM23 19.25L23 19.75A0.25 0.25 0 0 0 23.25 20L24.75 20A0.25 0.25 0 0 0 25 19.75L25 19.25A0.25 0.25 0 0 0 24.75 19L23.25 19A0.25 0.25 0 0 0 23 19.25ZM6 20.25L6 20.75A0.25 0.25 0 0 0 6.25 21L6.75 21A0.25 0.25 0 0 0 7 20.75L7 20.25A0.25 0.25 0 0 0 6.75 20L6.25 20A0.25 0.25 0 0 0 6 20.25ZM17 20.25L17 20.75A0.25 0.25 0 0 0 17.25 21L17.75 21A0.25 0.25 0 0 0 18 20.75L18 20.25A0.25 0.25 0 0 0 17.75 20L17.25 20A0.25 0.25 0 0 0 17 20.25ZM20 21.25L20 22.75A0.25 0.25 0 0 0 20.25 23L21.75 23A0.25 0.25 0 0 0 22 22.75L22 22.25A0.25 0.25 0 0 0 21.75 22L21.25 22A0.25 0.25 0 0 1 21 21.75L21 21.25A0.25 0.25 0 0 0 20.75 21L20.25 21A0.25 0.25 0 0 0 20 21.25ZM13 22.25L13 22.75A0.25 0.25 0 0 0 13.25 23L13.75 23A0.25 0.25 0 0 0 14 22.75L14 22.25A0.25 0.25 0 0 0 13.75 22L13.25 22A0.25 0.25 0 0 0 13 22.25ZM0 24.25L0 24.75A0.25 0.25 0 0 0 0.25 25L1.75 25A0.25 0.25 0 0 0 2 24.75L2 24.25A0.25 0.25 0 0 0 1.75 24L0.25 24A0.25 0.25 0 0 0 0 24.25ZM16 25.25L16 26.75A0.25 0.25 0 0 0 16.25 27L16.75 27A0.25 0.25 0 0 1 17 27.25L17 28.75A0.25 0.25 0 0 1 16.75 29L16.25 29A0.25 0.25 0 0 0 16 29.25L16 29.75A0.25 0.25 0 0 0 16.25 30L17.75 30A0.25 0.25 0 0 0 18 29.75L18 27.25A0.25 0.25 0 0 1 18.25 27L18.75 27A0.25 0.25 0 0 0 19 26.75L19 26.25A0.25 0.25 0 0 0 18.75 26L17.25 26A0.25 0.25 0 0 1 17 25.75L17 25.25A0.25 0.25 0 0 0 16.75 25L16.25 25A0.25 0.25 0 0 0 16 25.25ZM25 25.25L25 27.75A0.25 0.25 0 0 0 25.25 28L27.75 28A0.25 0.25 0 0 0 28 27.75L28 25.25A0.25 0.25 0 0 0 27.75 25L25.25 25A0.25 0.25 0 0 0 25 25.25ZM23 26.25L23 27.75A0.25 0.25 0 0 0 23.25 28L23.75 28A0.25 0.25 0 0 0 24 27.75L24 26.25A0.25 0.25 0 0 0 23.75 26L23.25 26A0.25 0.25 0 0 0 23 26.25ZM26 26.25L26 26.75A0.25 0.25 0 0 0 26.25 27L26.75 27A0.25 0.25 0 0 0 27 26.75L27 26.25A0.25 0.25 0 0 0 26.75 26L26.25 26A0.25 0.25 0 0 0 26 26.25ZM14 31.25L14 31.75A0.25 0.25 0 0 0 14.25 32L14.75 32A0.25 0.25 0 0 0 15 31.75L15 31.25A0.25 0.25 0 0 0 14.75 31L14.25 31A0.25 0.25 0 0 0 14 31.25ZM16 31.25L16 31.75A0.25 0.25 0 0 0 16.25 32L17.75 32A0.25 0.25 0 0 0 18 31.75L18 31.25A0.25 0.25 0 0 0 17.75 31L16.25 31A0.25 0.25 0 0 0 16 31.25ZM30 32.25L30 32.75A0.25 0.25 0 0 0 30.25 33L30.75 33A0.25 0.25 0 0 0 31 32.75L31 32.25A0.25 0.25 0 0 0 30.75 32L30.25 32A0.25 0.25 0 0 0 30 32.25ZM32 32.25L32 32.75A0.25 0.25 0 0 0 32.25 33L32.75 33A0.25 0.25 0 0 0 33 32.75L33 32.25A0.25 0.25 0 0 0 32.75 32L32.25 32A0.25 0.25 0 0 0 32 32.25ZM0 0.25L0 6.75A0.25 0.25 0 0 0 0.25 7L6.75 7A0.25 0.25 0 0 0 7 6.75L7 0.25A0.25 0.25 0 0 0 6.75 0L0.25 0A0.25 0.25 0 0 0 0 0.25ZM1 1.25L1 5.75A0.25 0.25 0 0 0 1.25 6L5.75 6A0.25 0.25 0 0 0 6 5.75L6 1.25A0.25 0.25 0 0 0 5.75 1L1.25 1A0.25 0.25 0 0 0 1 1.25ZM2 2.25L2 4.75A0.25 0.25 0 0 0 2.25 5L4.75 5A0.25 0.25 0 0 0 5 4.75L5 2.25A0.25 0.25 0 0 0 4.75 2L2.25 2A0.25 0.25 0 0 0 2 2.25ZM26 0.25L26 6.75A0.25 0.25 0 0 0 26.25 7L32.75 7A0.25 0.25 0 0 0 33 6.75L33 0.25A0.25 0.25 0 0 0 32.75 0L26.25 0A0.25 0.25 0 0 0 26 0.25ZM27 1.25L27 5.75A0.25 0.25 0 0 0 27.25 6L31.75 6A0.25 0.25 0 0 0 32 5.75L32 1.25A0.25 0.25 0 0 0 31.75 1L27.25 1A0.25 0.25 0 0 0 27 1.25ZM28 2.25L28 4.75A0.25 0.25 0 0 0 28.25 5L30.75 5A0.25 0.25 0 0 0 31 4.75L31 2.25A0.25 0.25 0 0 0 30.75 2L28.25 2A0.25 0.25 0 0 0 28 2.25ZM0 26.25L0 32.75A0.25 0.25 0 0 0 0.25 33L6.75 33A0.25 0.25 0 0 0 7 32.75L7 26.25A0.25 0.25 0 0 0 6.75 26L0.25 26A0.25 0.25 0 0 0 0 26.25ZM1 27.25L1 31.75A0.25 0.25 0 0 0 1.25 32L5.75 32A0.25 0.25 0 0 0 6 31.75L6 27.25A0.25 0.25 0 0 0 5.75 27L1.25 27A0.25 0.25 0 0 0 1 27.25ZM2 28.25L2 30.75A0.25 0.25 0 0 0 2.25 31L4.75 31A0.25 0.25 0 0 0 5 30.75L5 28.25A0.25 0.25 0 0 0 4.75 28L2.25 28A0.25 0.25 0 0 0 2 28.25Z" fill="#000000"/></g></g></svg>
