<?xml version="1.0" encoding="UTF-8"?>
<svg xmlns="http://www.w3.org/2000/svg" version="1.1" width="500" height="500" viewBox="0 0 500 500"><rect x="0" y="0" width="500" height="500" fill="#8a2be2"/><g transform="scale(15.152)"><g transform="translate(0,0)"><path fill-rule="evenodd" d="M9 0.25L9 0.75A0.25 0.25 0 0 0 9.25 1L10.75 1A0.25 0.25 0 0 0 11 0.75L11 0.25A0.25 0.25 0 0 0 10.75 0L9.25 0A0.25 0.25 0 0 0 9 0.25ZM13 0.25L13 3.75A0.25 0.25 0 0 1 12.75 4L12.25 4A0.25 0.25 0 0 0 12 4.25L12 6.75A0.25 0.25 0 0 1 11.75 7L11.25 7A0.25 0.25 0 0 1 11 6.75L11 6.25A0.25 0.25 0 0 0 10.75 6L10.25 6A0.25 0.25 0 0 1 10 5.75L10 5.25A0.25 0.25 0 0 0 9.75 5L9.25 5A0.25 0.25 0 0 0 9 5.25L9 5.75A0.25 0.25 0 0 1 8.75 6L8.25 6A0.25 0.25 0 0 0 8 6.25L8 6.75A0.25 0.25 0 0 0 8.25 7L8.75 7A0.25 0.25 0 0 1 9 7.25L9 7.75A0.25 0.25 0 0 0 9.25 8L9.75 8A0.25 0.25 0 0 1 10 8.25L10 8.75A0.25 0.25 0 0 1 9.75 9L8.25 9A0.25 0.25 0 0 1 8 8.75L8 8.25A0.25 0.25 0 0 0 7.75 8L6.25 8A0.25 0.25 0 0 0 6 8.25L6 8.75A0.25 0.25 0 0 1 5.75 9L5.25 9A0.25 0.25 0 0 1 5 8.75L5 8.25A0.25 0.25 0 0 0 4.75 8L3.25 8A0.25 0.25 0 0 0 3 8.25L3 8.75A0.25 0.25 0 0 1 2.75 9L2.25 9A0.25 0.25 0 0 0 2 9.25L2 9.75A0.25 0.25 0 0 1 1.75 10L1.25 10A0.25 0.25 0 0 1 1 9.75L1 9.25A0.25 0.25 0 0 0 0.75 9L0.25 9A0.25 0.25 0 0 0 0 9.25L0 10.75A0.25 0.25 0 0 0 0.25 11L1.75 11A0.25 0.25 0 0 0 2 10.75L2 10.25A0.25 0.25 0 0 1 2.25 10L2.75 10A0.25 0.25 0 0 1 3 10.25L3 10.75A0.25 0.25 0 0 0 3.25 11L3.75 11A0.25 0.25 0 0 1 4 11.25L4 12.75A0.25 0.25 0 0 1 3.75 13L3.25 13A0.25 0.25 0 0 1 3 12.75L3 12.25A0.25 0.25 0 0 0 2.75 12L0.25 12A0.25 0.25 0 0 0 0 12.25L0 12.75A0.25 0.25 0 0 0 0.25 13L0.75 13A0.25 0.25 0 0 1 1 13.25L1 13.75A0.25 0.25 0 0 0 1.25 14L1.75 14A0.25 0.25 0 0 0 2 13.75L2 13.25A0.25 0.25 0 0 1 2.25 13L2.75 13A0.25 0.25 0 0 1 3 13.25L3 13.75A0.25 0.25 0 0 0 3.25 14L3.75 14A0.25 0.25 0 0 1 4 14.25L4 14.75A0.25 0.25 0 0 0 4.25 15L4.75 15A0.25 0.25 0 0 1 5 15.25L5 15.75A0.25 0.25 0 0 1 4.75 16L2.25 16A0.25 0.25 0 0 1 2 15.75L2 15.25A0.25 0.25 0 0 0 1.75 15L1.25 15A0.25 0.25 0 0 0 1 15.25L1 15.75A0.25 0.25 0 0 0 1.25 16L1.75 16A0.25 0.25 0 0 1 2 16.25L2 16.75A0.25 0.25 0 0 1 1.75 17L0.25 17A0.25 0.25 0 0 0 0 17.25L0 18.75A0.25 0.25 0 0 0 0.25 19L0.75 19A0.25 0.25 0 0 0 1 18.75L1 18.25A0.25 0.25 0 0 1 1.25 18L1.75 18A0.25 0.25 0 0 0 2 17.75L2 17.25A0.25 0.25 0 0 1 2.25 17L2.75 17A0.25 0.25 0 0 1 3 17.25L3 17.75A0.25 0.25 0 0 0 3.25 18L3.75 18A0.25 0.25 0 0 0 4 17.75L4 17.25A0.25 0.25 0 0 1 4.25 17L4.75 17A0.25 0.25 0 0 0 5 16.75L5 16.25A0.25 0.25 0 0 1 5.25 16L5.75 16A0.25 0.25 0 0 1 6 16.25L6 16.75A0.25 0.25 0 0 0 6.25 17L6.75 17A0.25 0.25 0 0 0 7 16.75L7 16.25A0.25 0.25 0 0 1 7.25 16L7.75 16A0.25 0.25 0 0 1 8 16.25L8 17.75A0.25 0.25 0 0 1 7.75 18L5.25 18A0.25 0.25 0 0 0 5 18.25L5 18.75A0.25 0.25 0 0 1 4.75 19L4.25 19A0.25 0.25 0 0 0 4 19.25L4 21.75A0.25 0.25 0 0 1 3.75 22L2.25 22A0.25 0.25 0 0 0 2 22.25L2 22.75A0.25 0.25 0 0 0 2.25 23L3.75 23A0.25 0.25 0 0 0 4 22.75L4 22.25A0.25 0.25 0 0 1 4.25 22L4.75 22A0.25 0.25 0 0 1 5 22.25L5 22.75A0.25 0.25 0 0 0 5.25 23L6.75 23A0.25 0.25 0 0 0 7 22.75L7 22.25A0.25 0.25 0 0 1 7.25 22L7.75 22A0.25 0.25 0 0 1 8 22.25L8 22.75A0.25 0.25 0 0 0 8.25 23L8.75 23A0.25 0.25 0 0 1 9 23.25L9 23.75A0.25 0.25 0 0 1 8.75 24L3.25 24A0.25 0.25 0 0 0 3 24.25L3 24.75A0.25 0.25 0 0 0 3.25 25L7.75 25A0.25 0.25 0 0 1 8 25.25L8 26.75A0.25 0.25 0 0 0 8.25 27L8.75 27A0.25 0.25 0 0 1 9 27.25L9 27.75A0.25 0.25 0 0 1 8.75 28L8.25 28A0.25 0.25 0 0 0 8 28.25L8 29.75A0.25 0.25 0 0 0 8.25 30L9.75 30A0.25 0.25 0 0 0 10 29.75L10 29.25A0.25 0.25 0 0 1 10.25 29L10.75 29A0.25 0.25 0 0 1 11 29.25L11 29.75A0.25 0.25 0 0 0 11.25 30L11.75 30A0.25 0.25 0 0 0 12 29.75L12 29.25A0.25 0.25 0 0 1 12.25 29L13.75 29A0.25 0.25 0 0 1 14 29.25L14 29.75A0.25 0.25 0 0 1 13.75 30L13.25 30A0.25 0.25 0 0 0 13 30.25L13 30.75A0.25 0.25 0 0 0 13.25 31L13.75 31A0.25 0.25 0 0 1 14 31.25L14 31.75A0.25 0.25 0 0 1 13.75 32L13.25 32A0.25 0.25 0 0 0 13 32.25L13 32.75A0.25 0.25 0 0 0 13.25 33L13.75 33A0.25 0.25 0 0 0 14 32.75L14 32.25A0.25 0.25 0 0 1 14.25 32L15.75 32A0.25 0.25 0 0 1 16 32.25L16 32.75A0.25 0.25 0 0 0 16.25 33L16.75 33A0.25 0.25 0 0 0 17 32.75L17 31.25A0.25 0.25 0 0 1 17.25 31L18.75 31A0.25 0.25 0 0 0 19 30.75L19 30.25A0.25 0.25 0 0 0 18.75 30L18.25 30A0.25 0.25 0 0 1 18 29.75L18 29.25A0.25 0.25 0 0 0 17.75 29L16.25 29A0.25 0.25 0 0 0 16 29.25L16 29.75A0.25 0.25 0 0 1 15.75 30L15.25 30A0.25 0.25 0 0 1 15 29.75L15 27.25A0.25 0.25 0 0 1 15.25 27L15.75 27A0.25 0.25 0 0 1 16 27.25L16 27.75A0.25 0.25 0 0 0 16.25 28L18.75 28A0.25 0.25 0 0 1 19 28.25L19 28.75A0.25 0.25 0 0 0 19.25 29L19.75 29A0.25 0.25 0 0 1 20 29.25L20 29.75A0.25 0.25 0 0 0 20.25 30L20.75 30A0.25 0.25 0 0 1 21 30.25L21 30.75A0.25 0.25 0 0 1 20.75 31L20.25 31A0.25 0.25 0 0 0 20 31.25L20 31.75A0.25 0.25 0 0 0 20.25 32L20.75 32A0.25 0.25 0 0 0 21 31.75L21 31.25A0.25 0.25 0 0 1 21.25 31L21.75 31A0.25 0.25 0 0 1 22 31.25L22 32.75A0.25 0.25 0 0 0 22.25 33L22.75 33A0.25 0.25 0 0 0 23 32.75L23 32.25A0.25 0.25 0 0 1 23.25 32L23.75 32A0.25 0.25 0 0 1 24 32.25L24 32.75A0.25 0.25 0 0 0 24.25 33L24.75 33A0.25 0.25 0 0 0 25 32.75L25 32.25A0.25 0.25 0 0 0 24.75 32L24.25 32A0.25 0.25 0 0 1 24 31.75L24 30.25A0.25 0.25 0 0 1 24.25 30L24.75 30A0.25 0.25 0 0 1 25 30.25L25 30.75A0.25 0.25 0 0 0 25.25 31L25.75 31A0.25 0.25 0 0 1 26 31.25L26 31.75A0.25 0.25 0 0 0 26.25 32L28.75 32A0.25 0.25 0 0 1 29 32.25L29 32.75A0.25 0.25 0 0 0 29.25 33L30.75 33A0.25 0.25 0 0 0 31 32.75L31 32.25A0.25 0.25 0 0 1 31.25 32L32.75 32A0.25 0.25 0 0 0 33 31.75L33 30.25A0.25 0.25 0 0 0 32.75 30L32.25 30A0.25 0.25 0 0 1 32 29.75L32 29.25A0.25 0.25 0 0 1 32.25 29L32.75 29A0.25 0.25 0 0 0 33 28.75L33 27.25A0.25 0.25 0 0 0 32.75 27L30.25 27A0.25 0.25 0 0 1 30 26.75L30 26.25A0.25 0.25 0 0 0 29.75 26L29.25 26A0.25 0.25 0 0 1 29 25.75L29 25.25A0.25 0.25 0 0 1 29.25 25L30.75 25A0.25 0.25 0 0 0 31 24.75L31 23.25A0.25 0.25 0 0 1 31.25 23L32.75 23A0.25 0.25 0 0 0 33 22.75L33 21.25A0.25 0.25 0 0 0 32.75 21L32.25 21A0.25 0.25 0 0 1 32 20.75L32 20.25A0.25 0.25 0 0 1 32.25 20L32.75 20A0.25 0.25 0 0 0 33 19.75L33 18.25A0.25 0.25 0 0 0 32.75 18L31.25 18A0.25 0.25 0 0 0 31 18.25L31 18.75A0.25 0.25 0 0 1 30.75 19L30.25 19A0.25 0.25 0 0 1 30 18.75L30 17.25A0.25 0.25 0 0 1 30.25 17L30.75 17A0.25 0.25 0 0 0 31 16.75L31 16.25A0.25 0.25 0 0 0 30.75 16L30.25 16A0.25 0.25 0 0 1 30 15.75L30 15.25A0.25 0.25 0 0 0 29.75 15L29.25 15A0.25 0.25 0 0 0 29 15.25L29 15.75A0.25 0.25 0 0 1 28.75 16L28.25 16A0.25 0.25 0 0 1 28 15.75L28 14.25A0.25 0.25 0 0 1 28.25 14L29.75 14A0.25 0.25 0 0 0 30 13.75L30 13.25A0.25 0.25 0 0 1 30.25 13L30.75 13A0.25 0.25 0 0 1 31 13.25L31 13.75A0.25 0.25 0 0 0 31.25 14L32.75 14A0.25 0.25 0 0 0 33 13.75L33 13.25A0.25 0.25 0 0 0 32.75 13L31.25 13A0.25 0.25 0 0 1 31 12.75L31 10.25A0.25 0.25 0 0 1 31.25 10L31.75 10A0.25 0.25 0 0 1 32 10.25L32 10.75A0.25 0.25 0 0 0 32.25 11L32.75 11A0.25 0.25 0 0 0 33 10.75L33 10.25A0.25 0.25 0 0 0 32.75 10L32.25 10A0.25 0.25 0 0 1 32 9.75L32 9.25A0.25 0.25 0 0 0 31.75 9L31.25 9A0.25 0.25 0 0 1 31 8.75L31 8.25A0.25 0.25 0 0 0 30.75 8L29.25 8A0.25 0.25 0 0 0 29 8.25L29 8.75A0.25 0.25 0 0 1 28.75 9L27.25 9A0.25 0.25 0 0 0 27 9.25L27 10.75A0.25 0.25 0 0 1 26.75 11L26.25 11A0.25 0.25 0 0 1 26 10.75L26 10.25A0.25 0.25 0 0 0 25.75 10L25.25 10A0.25 0.25 0 0 1 25 9.75L25 9.25A0.25 0.25 0 0 0 24.75 9L23.25 9A0.25 0.25 0 0 1 23 8.75L23 8.25A0.25 0.25 0 0 0 22.75 8L22.25 8A0.25 0.25 0 0 0 22 8.25L22 8.75A0.25 0.25 0 0 1 21.75 9L21.25 9A0.25 0.25 0 0 1 21 8.75L21 8.25A0.25 0.25 0 0 0 20.75 8L20.25 8A0.25 0.25 0 0 0 20 8.25L20 8.75A0.25 0.25 0 0 0 20.25 9L20.75 9A0.25 0.25 0 0 1 21 9.25L21 9.75A0.25 0.25 0 0 1 20.75 10L20.25 10A0.25 0.25 0 0 0 20 10.25L20 10.75A0.25 0.25 0 0 0 20.25 11L20.75 11A0.25 0.25 0 0 1 21 11.25L21 13.75A0.25 0.25 0 0 1 20.75 14L20.25 14A0.25 0.25 0 0 1 20 13.75L20 12.25A0.25 0.25 0 0 0 19.75 12L19.25 12A0.25 0.25 0 0 0 19 12.25L19 12.75A0.25 0.25 0 0 1 18.75 13L18.25 13A0.25 0.25 0 0 0 18 13.25L18 14.75A0.25 0.25 0 0 1 17.75 15L17.25 15A0.25 0.25 0 0 1 17 14.75L17 14.25A0.25 0.25 0 0 0 16.75 14L15.25 14A0.25 0.25 0 0 0 15 14.25L15 14.75A0.25 0.25 0 0 1 14.75 15L14.25 15A0.25 0.25 0 0 1 14 14.75L14 14.25A0.25 0.25 0 0 0 13.75 14L13.25 14A0.25 0.25 0 0 1 13 13.75L13 11.25A0.25 0.25 0 0 0 12.75 11L12.25 11A0.25 0.25 0 0 1 12 10.75L12 7.25A0.25 0.25 0 0 1 12.25 7L12.75 7A0.25 0.25 0 0 0 13 6.75L13 6.25A0.25 0.25 0 0 1 13.25 6L13.75 6A0.25 0.25 0 0 1 14 6.25L14 6.75A0.25 0.25 0 0 0 14.25 7L14.75 7A0.25 0.25 0 0 1 15 7.25L15 7.75A0.25 0.25 0 0 1 14.75 8L14.25 8A0.25 0.25 0 0 0 14 8.25L14 8.75A0.25 0.25 0 0 1 13.75 9L13.25 9A0.25 0.25 0 0 0 13 9.25L13 9.75A0.25 0.25 0 0 0 13.25 10L14.75 10A0.25 0.25 0 0 1 15 10.25L15 10.75A0.25 0.25 0 0 1 14.75 11L14.25 11A0.25 0.25 0 0 0 14 11.25L14 12.75A0.25 0.25 0 0 0 14.25 13L15.75 13A0.25 0.25 0 0 0 16 12.75L16 12.25A0.25 0.25 0 0 0 15.75 12L15.25 12A0.25 0.25 0 0 1 15 11.75L15 11.25A0.25 0.25 0 0 1 15.25 11L15.75 11A0.25 0.25 0 0 0 16 10.75L16 9.25A0.25 0.25 0 0 1 16.25 9L16.75 9A0.25 0.25 0 0 0 17 8.75L17 6.25A0.25 0.25 0 0 1 17.25 6L17.75 6A0.25 0.25 0 0 1 18 6.25L18 7.75A0.25 0.25 0 0 0 18.25 8L18.75 8A0.25 0.25 0 0 0 19 7.75L19 6.25A0.25 0.25 0 0 0 18.75 6L18.25 6A0.25 0.25 0 0 1 18 5.75L18 5.25A0.25 0.25 0 0 0 17.75 5L14.25 5A0.25 0.25 0 0 1 14 4.75L14 4.25A0.25 0.25 0 0 1 14.25 4L14.75 4A0.25 0.25 0 0 0 15 3.75L15 3.25A0.25 0.25 0 0 1 15.25 3L15.75 3A0.25 0.25 0 0 1 16 3.25L16 3.75A0.25 0.25 0 0 0 16.25 4L17.75 4A0.25 0.25 0 0 0 18 3.75L18 3.25A0.25 0.25 0 0 0 17.75 3L16.25 3A0.25 0.25 0 0 1 16 2.75L16 2.25A0.25 0.25 0 0 1 16.25 2L16.75 2A0.25 0.25 0 0 0 17 1.75L17 0.25A0.25 0.25 0 0 0 16.75 0L15.25 0A0.25 0.25 0 0 0 15 0.25L15 0.75A0.25 0.25 0 0 1 14.75 1L14.25 1A0.25 0.25 0 0 1 14 0.75L14 0.25A0.25 0.25 0 0 0 13.75 0L13.25 0A0.25 0.25 0 0 0 13 0.25ZM18 0.25L18 1.75A0.25 0.25 0 0 0 18.25 2L19.75 2A0.25 0.25 0 0 1 20 2.25L20 2.75A0.25 0.25 0 0 0 20.25 3L20.75 3A0.25 0.25 0 0 1 21 3.25L21 3.75A0.25 0.25 0 0 1 20.75 4L20.25 4A0.25 0.25 0 0 0 20 4.25L20 4.75A0.25 0.25 0 0 0 20.25 5L20.75 5A0.25 0.25 0 0 1 21 5.25L21 5.75A0.25 0.25 0 0 1 20.75 6L20.25 6A0.25 0.25 0 0 0 20 6.25L20 6.75A0.25 0.25 0 0 0 20.25 7L20.75 7A0.25 0.25 0 0 0 21 6.75L21 6.25A0.25 0.25 0 0 1 21.25 6L21.75 6A0.25 0.25 0 0 1 22 6.25L22 6.75A0.25 0.25 0 0 0 22.25 7L22.75 7A0.25 0.25 0 0 0 23 6.75L23 6.25A0.25 0.25 0 0 1 23.25 6L23.75 6A0.25 0.25 0 0 1 24 6.25L24 7.75A0.25 0.25 0 0 0 24.25 8L24.75 8A0.25 0.25 0 0 0 25 7.75L25 6.25A0.25 0.25 0 0 0 24.75 6L24.25 6A0.25 0.25 0 0 1 24 5.75L24 5.25A0.25 0.25 0 0 1 24.25 5L24.75 5A0.25 0.25 0 0 0 25 4.75L25 4.25A0.25 0.25 0 0 0 24.75 4L23.25 4A0.25 0.25 0 0 1 23 3.75L23 0.25A0.25 0.25 0 0 0 22.75 0L18.25 0A0.25 0.25 0 0 0 18 0.25ZM24 1.25L24 1.75A0.25 0.25 0 0 0 24.25 2L24.75 2A0.25 0.25 0 0 0 25 1.75L25 1.25A0.25 0.25 0 0 0 24.75 1L24.25 1A0.25 0.25 0 0 0 24 1.25ZM8 2.25L8 3.75A0.25 0.25 0 0 0 8.25 4L10.75 4A0.25 0.25 0 0 0 11 3.75L11 2.25A0.25 0.25 0 0 0 10.75 2L8.25 2A0.25 0.25 0 0 0 8 2.25ZM22 5.25L22 5.75A0.25 0.25 0 0 0 22.25 6L22.75 6A0.25 0.25 0 0 0 23 5.75L23 5.25A0.25 0.25 0 0 0 22.75 5L22.25 5A0.25 0.25 0 0 0 22 5.25ZM9 6.25L9 6.75A0.25 0.25 0 0 0 9.25 7L9.75 7A0.25 0.25 0 0 1 10 7.25L10 7.75A0.25 0.25 0 0 0 10.25 8L10.75 8A0.25 0.25 0 0 0 11 7.75L11 7.25A0.25 0.25 0 0 0 10.75 7L10.25 7A0.25 0.25 0 0 1 10 6.75L10 6.25A0.25 0.25 0 0 0 9.75 6L9.25 6A0.25 0.25 0 0 0 9 6.25ZM15 6.25L15 6.75A0.25 0.25 0 0 0 15.25 7L15.75 7A0.25 0.25 0 0 0 16 6.75L16 6.25A0.25 0.25 0 0 0 15.75 6L15.25 6A0.25 0.25 0 0 0 15 6.25ZM4 9.25L4 9.75A0.25 0.25 0 0 0 4.25 10L4.75 10A0.25 0.25 0 0 1 5 10.25L5 12.75A0.25 0.25 0 0 1 4.75 13L4.25 13A0.25 0.25 0 0 0 4 13.25L4 13.75A0.25 0.25 0 0 0 4.25 14L4.75 14A0.25 0.25 0 0 1 5 14.25L5 14.75A0.25 0.25 0 0 0 5.25 15L5.75 15A0.25 0.25 0 0 1 6 15.25L6 15.75A0.25 0.25 0 0 0 6.25 16L6.75 16A0.25 0.25 0 0 0 7 15.75L7 15.25A0.25 0.25 0 0 0 6.75 15L6.25 15A0.25 0.25 0 0 1 6 14.75L6 14.25A0.25 0.25 0 0 1 6.25 14L6.75 14A0.25 0.25 0 0 0 7 13.75L7 13.25A0.25 0.25 0 0 0 6.75 13L6.25 13A0.25 0.25 0 0 1 6 12.75L6 12.25A0.25 0.25 0 0 1 6.25 12L7.75 12A0.25 0.25 0 0 0 8 11.75L8 11.25A0.25 0.25 0 0 1 8.25 11L9.75 11A0.25 0.25 0 0 1 10 11.25L10 11.75A0.25 0.25 0 0 1 9.75 12L9.25 12A0.25 0.25 0 0 0 9 12.25L9 13.75A0.25 0.25 0 0 0 9.25 14L10.75 14A0.25 0.25 0 0 1 11 14.25L11 15.75A0.25 0.25 0 0 0 11.25 16L11.75 16A0.25 0.25 0 0 1 12 16.25L12 16.75A0.25 0.25 0 0 0 12.25 17L12.75 17A0.25 0.25 0 0 1 13 17.25L13 17.75A0.25 0.25 0 0 1 12.75 18L9.25 18A0.25 0.25 0 0 0 9 18.25L9 18.75A0.25 0.25 0 0 1 8.75 19L8.25 19A0.25 0.25 0 0 0 8 19.25L8 19.75A0.25 0.25 0 0 0 8.25 20L8.75 20A0.25 0.25 0 0 0 9 19.75L9 19.25A0.25 0.25 0 0 1 9.25 19L9.75 19A0.25 0.25 0 0 1 10 19.25L10 19.75A0.25 0.25 0 0 0 10.25 20L10.75 20A0.25 0.25 0 0 1 11 20.25L11 20.75A0.25 0.25 0 0 1 10.75 21L10.25 21A0.25 0.25 0 0 0 10 21.25L10 21.75A0.25 0.25 0 0 1 9.75 22L9.25 22A0.25 0.25 0 0 1 9 21.75L9 21.25A0.25 0.25 0 0 0 8.75 21L8.25 21A0.25 0.25 0 0 0 8 21.25L8 21.75A0.25 0.25 0 0 0 8.25 22L8.75 22A0.25 0.25 0 0 1 9 22.25L9 22.75A0.25 0.25 0 0 0 9.25 23L9.75 23A0.25 0.25 0 0 1 10 23.25L10 23.75A0.25 0.25 0 0 1 9.75 24L9.25 24A0.25 0.25 0 0 0 9 24.25L9 24.75A0.25 0.25 0 0 0 9.25 25L9.75 25A0.25 0.25 0 0 0 10 24.75L10 24.25A0.25 0.25 0 0 1 10.25 24L10.75 24A0.25 0.25 0 0 1 11 24.25L11 25.75A0.25 0.25 0 0 1 10.75 26L9.25 26A0.25 0.25 0 0 0 9 26.25L9 26.75A0.25 0.25 0 0 0 9.25 27L9.75 27A0.25 0.25 0 0 1 10 27.25L10 27.75A0.25 0.25 0 0 0 10.25 28L13.75 28A0.25 0.25 0 0 0 14 27.75L14 26.25A0.25 0.25 0 0 1 14.25 26L17.75 26A0.25 0.25 0 0 0 18 25.75L18 24.25A0.25 0.25 0 0 1 18.25 24L19.75 24A0.25 0.25 0 0 1 20 24.25L20 26.75A0.25 0.25 0 0 0 20.25 27L20.75 27A0.25 0.25 0 0 1 21 27.25L21 27.75A0.25 0.25 0 0 0 21.25 28L21.75 28A0.25 0.25 0 0 1 22 28.25L22 28.75A0.25 0.25 0 0 1 21.75 29L21.25 29A0.25 0.25 0 0 0 21 29.25L21 29.75A0.25 0.25 0 0 0 21.25 30L21.75 30A0.25 0.25 0 0 1 22 30.25L22 30.75A0.25 0.25 0 0 0 22.25 31L22.75 31A0.25 0.25 0 0 0 23 30.75L23 28.25A0.25 0.25 0 0 1 23.25 28L23.75 28A0.25 0.25 0 0 0 24 27.75L24 27.25A0.25 0.25 0 0 0 23.75 27L21.25 27A0.25 0.25 0 0 1 21 26.75L21 26.25A0.25 0.25 0 0 1 21.25 26L22.75 26A0.25 0.25 0 0 0 23 25.75L23 25.25A0.25 0.25 0 0 1 23.25 25L23.75 25A0.25 0.25 0 0 0 24 24.75L24 24.25A0.25 0.25 0 0 1 24.25 24L25.75 24A0.25 0.25 0 0 0 26 23.75L26 23.25A0.25 0.25 0 0 1 26.25 23L26.75 23A0.25 0.25 0 0 1 27 23.25L27 23.75A0.25 0.25 0 0 0 27.25 24L27.75 24A0.25 0.25 0 0 0 28 23.75L28 23.25A0.25 0.25 0 0 1 28.25 23L28.75 23A0.25 0.25 0 0 1 29 23.25L29 23.75A0.25 0.25 0 0 0 29.25 24L29.75 24A0.25 0.25 0 0 0 30 23.75L30 23.25A0.25 0.25 0 0 0 29.75 23L29.25 23A0.25 0.25 0 0 1 29 22.75L29 22.25A0.25 0.25 0 0 1 29.25 22L30.75 22A0.25 0.25 0 0 0 31 21.75L31 20.25A0.25 0.25 0 0 1 31.25 20L31.75 20A0.25 0.25 0 0 0 32 19.75L32 19.25A0.25 0.25 0 0 0 31.75 19L31.25 19A0.25 0.25 0 0 0 31 19.25L31 19.75A0.25 0.25 0 0 1 30.75 20L29.25 20A0.25 0.25 0 0 1 29 19.75L29 18.25A0.25 0.25 0 0 0 28.75 18L28.25 18A0.25 0.25 0 0 1 28 17.75L28 16.25A0.25 0.25 0 0 0 27.75 16L27.25 16A0.25 0.25 0 0 1 27 15.75L27 13.25A0.25 0.25 0 0 0 26.75 13L25.25 13A0.25 0.25 0 0 1 25 12.75L25 12.25A0.25 0.25 0 0 1 25.25 12L25.75 12A0.25 0.25 0 0 0 26 11.75L26 11.25A0.25 0.25 0 0 0 25.75 11L25.25 11A0.25 0.25 0 0 1 25 10.75L25 10.25A0.25 0.25 0 0 0 24.75 10L24.25 10A0.25 0.25 0 0 0 24 10.25L24 10.75A0.25 0.25 0 0 1 23.75 11L23.25 11A0.25 0.25 0 0 0 23 11.25L23 11.75A0.25 0.25 0 0 1 22.75 12L22.25 12A0.25 0.25 0 0 0 22 12.25L22 13.75A0.25 0.25 0 0 1 21.75 14L21.25 14A0.25 0.25 0 0 0 21 14.25L21 14.75A0.25 0.25 0 0 1 20.75 15L20.25 15A0.25 0.25 0 0 0 20 15.25L20 15.75A0.25 0.25 0 0 1 19.75 16L19.25 16A0.25 0.25 0 0 1 19 15.75L19 15.25A0.25 0.25 0 0 0 18.75 15L18.25 15A0.25 0.25 0 0 0 18 15.25L18 15.75A0.25 0.25 0 0 1 17.75 16L17.25 16A0.25 0.25 0 0 0 17 16.25L17 17.75A0.25 0.25 0 0 1 16.75 18L16.25 18A0.25 0.25 0 0 1 16 17.75L16 15.25A0.25 0.25 0 0 0 15.75 15L15.25 15A0.25 0.25 0 0 0 15 15.25L15 17.75A0.25 0.25 0 0 1 14.75 18L14.25 18A0.25 0.25 0 0 1 14 17.75L14 15.25A0.25 0.25 0 0 0 13.75 15L13.25 15A0.25 0.25 0 0 1 13 14.75L13 14.25A0.25 0.25 0 0 0 12.75 14L11.25 14A0.25 0.25 0 0 1 11 13.75L11 12.25A0.25 0.25 0 0 1 11.25 12L11.75 12A0.25 0.25 0 0 0 12 11.75L12 11.25A0.25 0.25 0 0 0 11.75 11L10.25 11A0.25 0.25 0 0 1 10 10.75L10 10.25A0.25 0.25 0 0 1 10.25 10L10.75 10A0.25 0.25 0 0 0 11 9.75L11 9.25A0.25 0.25 0 0 0 10.75 9L10.25 9A0.25 0.25 0 0 0 10 9.25L10 9.75A0.25 0.25 0 0 1 9.75 10L8.25 10A0.25 0.25 0 0 1 8 9.75L8 9.25A0.25 0.25 0 0 0 7.75 9L6.25 9A0.25 0.25 0 0 0 6 9.25L6 9.75A0.25 0.25 0 0 1 5.75 10L5.25 10A0.25 0.25 0 0 1 5 9.75L5 9.25A0.25 0.25 0 0 0 4.75 9L4.25 9A0.25 0.25 0 0 0 4 9.25ZM22 9.25L22 9.75A0.25 0.25 0 0 1 21.75 10L21.25 10A0.25 0.25 0 0 0 21 10.25L21 10.75A0.25 0.25 0 0 0 21.25 11L21.75 11A0.25 0.25 0 0 0 22 10.75L22 10.25A0.25 0.25 0 0 1 22.25 10L22.75 10A0.25 0.25 0 0 0 23 9.75L23 9.25A0.25 0.25 0 0 0 22.75 9L22.25 9A0.25 0.25 0 0 0 22 9.25ZM29 9.25L29 9.75A0.25 0.25 0 0 1 28.75 10L28.25 10A0.25 0.25 0 0 0 28 10.25L28 10.75A0.25 0.25 0 0 1 27.75 11L27.25 11A0.25 0.25 0 0 0 27 11.25L27 11.75A0.25 0.25 0 0 0 27.25 12L29.75 12A0.25 0.25 0 0 0 30 11.75L30 10.25A0.25 0.25 0 0 1 30.25 10L30.75 10A0.25 0.25 0 0 0 31 9.75L31 9.25A0.25 0.25 0 0 0 30.75 9L29.25 9A0.25 0.25 0 0 0 29 9.25ZM6 10.25L6 10.75A0.25 0.25 0 0 0 6.25 11L6.75 11A0.25 0.25 0 0 0 7 10.75L7 10.25A0.25 0.25 0 0 0 6.75 10L6.25 10A0.25 0.25 0 0 0 6 10.25ZM17 10.25L17 11.75A0.25 0.25 0 0 0 17.25 12L17.75 12A0.25 0.25 0 0 0 18 11.75L18 11.25A0.25 0.25 0 0 1 18.25 11L18.75 11A0.25 0.25 0 0 0 19 10.75L19 10.25A0.25 0.25 0 0 0 18.75 10L17.25 10A0.25 0.25 0 0 0 17 10.25ZM24 11.25L24 11.75A0.25 0.25 0 0 1 23.75 12L23.25 12A0.25 0.25 0 0 0 23 12.25L23 13.75A0.25 0.25 0 0 0 23.25 14L23.75 14A0.25 0.25 0 0 1 24 14.25L24 14.75A0.25 0.25 0 0 1 23.75 15L23.25 15A0.25 0.25 0 0 0 23 15.25L23 15.75A0.25 0.25 0 0 1 22.75 16L22.25 16A0.25 0.25 0 0 0 22 16.25L22 17.75A0.25 0.25 0 0 1 21.75 18L21.25 18A0.25 0.25 0 0 1 21 17.75L21 16.25A0.25 0.25 0 0 0 20.75 16L20.25 16A0.25 0.25 0 0 0 20 16.25L20 18.75A0.25 0.25 0 0 1 19.75 19L19.25 19A0.25 0.25 0 0 1 19 18.75L19 18.25A0.25 0.25 0 0 0 18.75 18L18.25 18A0.25 0.25 0 0 0 18 18.25L18 19.75A0.25 0.25 0 0 0 18.25 20L18.75 20A0.25 0.25 0 0 1 19 20.25L19 21.75A0.25 0.25 0 0 0 19.25 22L19.75 22A0.25 0.25 0 0 1 20 22.25L20 22.75A0.25 0.25 0 0 0 20.25 23L20.75 23A0.25 0.25 0 0 0 21 22.75L21 20.25A0.25 0.25 0 0 0 20.75 20L20.25 20A0.25 0.25 0 0 1 20 19.75L20 19.25A0.25 0.25 0 0 1 20.25 19L21.75 19A0.25 0.25 0 0 0 22 18.75L22 18.25A0.25 0.25 0 0 1 22.25 18L22.75 18A0.25 0.25 0 0 1 23 18.25L23 18.75A0.25 0.25 0 0 0 23.25 19L23.75 19A0.25 0.25 0 0 1 24 19.25L24 20.75A0.25 0.25 0 0 0 24.25 21L24.75 21A0.25 0.25 0 0 1 25 21.25L25 21.75A0.25 0.25 0 0 1 24.75 22L24.25 22A0.25 0.25 0 0 0 24 22.25L24 22.75A0.25 0.25 0 0 0 24.25 23L25.75 23A0.25 0.25 0 0 0 26 22.75L26 22.25A0.25 0.25 0 0 1 26.25 22L28.75 22A0.25 0.25 0 0 0 29 21.75L29 20.25A0.25 0.25 0 0 0 28.75 20L27.25 20A0.25 0.25 0 0 1 27 19.75L27 16.25A0.25 0.25 0 0 0 26.75 16L26.25 16A0.25 0.25 0 0 1 26 15.75L26 14.25A0.25 0.25 0 0 0 25.75 14L25.25 14A0.25 0.25 0 0 1 25 13.75L25 13.25A0.25 0.25 0 0 0 24.75 13L24.25 13A0.25 0.25 0 0 1 24 12.75L24 12.25A0.25 0.25 0 0 1 24.25 12L24.75 12A0.25 0.25 0 0 0 25 11.75L25 11.25A0.25 0.25 0 0 0 24.75 11L24.25 11A0.25 0.25 0 0 0 24 11.25ZM9 15.25L9 15.75A0.25 0.25 0 0 0 9.25 16L9.75 16A0.25 0.25 0 0 0 10 15.75L10 15.25A0.25 0.25 0 0 0 9.75 15L9.25 15A0.25 0.25 0 0 0 9 15.25ZM25 16.25L25 16.75A0.25 0.25 0 0 1 24.75 17L24.25 17A0.25 0.25 0 0 0 24 17.25L24 17.75A0.25 0.25 0 0 0 24.25 18L24.75 18A0.25 0.25 0 0 0 25 17.75L25 17.25A0.25 0.25 0 0 1 25.25 17L25.75 17A0.25 0.25 0 0 0 26 16.75L26 16.25A0.25 0.25 0 0 0 25.75 16L25.25 16A0.25 0.25 0 0 0 25 16.25ZM13 18.25L13 19.75A0.25 0.25 0 0 1 12.75 20L12.25 20A0.25 0.25 0 0 1 12 19.75L12 19.25A0.25 0.25 0 0 0 11.75 19L11.25 19A0.25 0.25 0 0 0 11 19.25L11 19.75A0.25 0.25 0 0 0 11.25 20L11.75 20A0.25 0.25 0 0 1 12 20.25L12 20.75A0.25 0.25 0 0 1 11.75 21L11.25 21A0.25 0.25 0 0 0 11 21.25L11 23.75A0.25 0.25 0 0 0 11.25 24L11.75 24A0.25 0.25 0 0 1 12 24.25L12 24.75A0.25 0.25 0 0 0 12.25 25L12.75 25A0.25 0.25 0 0 1 13 25.25L13 25.75A0.25 0.25 0 0 1 12.75 26L12.25 26A0.25 0.25 0 0 0 12 26.25L12 26.75A0.25 0.25 0 0 0 12.25 27L12.75 27A0.25 0.25 0 0 0 13 26.75L13 26.25A0.25 0.25 0 0 1 13.25 26L13.75 26A0.25 0.25 0 0 0 14 25.75L14 24.25A0.25 0.25 0 0 0 13.75 24L13.25 24A0.25 0.25 0 0 1 13 23.75L13 22.25A0.25 0.25 0 0 1 13.25 22L13.75 22A0.25 0.25 0 0 1 14 22.25L14 22.75A0.25 0.25 0 0 0 14.25 23L14.75 23A0.25 0.25 0 0 0 15 22.75L15 22.25A0.25 0.25 0 0 0 14.75 22L14.25 22A0.25 0.25 0 0 1 14 21.75L14 21.25A0.25 0.25 0 0 0 13.75 21L13.25 21A0.25 0.25 0 0 1 13 20.75L13 20.25A0.25 0.25 0 0 1 13.25 20L14.75 20A0.25 0.25 0 0 1 15 20.25L15 20.75A0.25 0.25 0 0 0 15.25 21L16.75 21A0.25 0.25 0 0 1 17 21.25L17 21.75A0.25 0.25 0 0 0 17.25 22L17.75 22A0.25 0.25 0 0 0 18 21.75L18 21.25A0.25 0.25 0 0 0 17.75 21L17.25 21A0.25 0.25 0 0 1 17 20.75L17 19.25A0.25 0.25 0 0 0 16.75 19L16.25 19A0.25 0.25 0 0 0 16 19.25L16 19.75A0.25 0.25 0 0 1 15.75 20L15.25 20A0.25 0.25 0 0 1 15 19.75L15 19.25A0.25 0.25 0 0 0 14.75 19L14.25 19A0.25 0.25 0 0 1 14 18.75L14 18.25A0.25 0.25 0 0 0 13.75 18L13.25 18A0.25 0.25 0 0 0 13 18.25ZM5 19.25L5 21.75A0.25 0.25 0 0 0 5.25 22L6.75 22A0.25 0.25 0 0 0 7 21.75L7 21.25A0.25 0.25 0 0 0 6.75 21L6.25 21A0.25 0.25 0 0 1 6 20.75L6 20.25A0.25 0.25 0 0 1 6.25 20L6.75 20A0.25 0.25 0 0 0 7 19.75L7 19.25A0.25 0.25 0 0 0 6.75 19L5.25 19A0.25 0.25 0 0 0 5 19.25ZM25 19.25L25 19.75A0.25 0.25 0 0 0 25.25 20L25.75 20A0.25 0.25 0 0 1 26 20.25L26 20.75A0.25 0.25 0 0 0 26.25 21L26.75 21A0.25 0.25 0 0 0 27 20.75L27 20.25A0.25 0.25 0 0 0 26.75 20L26.25 20A0.25 0.25 0 0 1 26 19.75L26 19.25A0.25 0.25 0 0 0 25.75 19L25.25 19A0.25 0.25 0 0 0 25 19.25ZM0 20.25L0 24.75A0.25 0.25 0 0 0 0.25 25L1.75 25A0.25 0.25 0 0 0 2 24.75L2 24.25A0.25 0.25 0 0 0 1.75 24L1.25 24A0.25 0.25 0 0 1 1 23.75L1 21.25A0.25 0.25 0 0 1 1.25 21L1.75 21A0.25 0.25 0 0 0 2 20.75L2 20.25A0.25 0.25 0 0 0 1.75 20L0.25 20A0.25 0.25 0 0 0 0 20.25ZM22 20.25L22 20.75A0.25 0.25 0 0 0 22.25 21L22.75 21A0.25 0.25 0 0 0 23 20.75L23 20.25A0.25 0.25 0 0 0 22.75 20L22.25 20A0.25 0.25 0 0 0 22 20.25ZM16 23.25L16 24.75A0.25 0.25 0 0 0 16.25 25L16.75 25A0.25 0.25 0 0 0 17 24.75L17 24.25A0.25 0.25 0 0 1 17.25 24L17.75 24A0.25 0.25 0 0 0 18 23.75L18 23.25A0.25 0.25 0 0 0 17.75 23L16.25 23A0.25 0.25 0 0 0 16 23.25ZM22 23.25L22 23.75A0.25 0.25 0 0 1 21.75 24L21.25 24A0.25 0.25 0 0 0 21 24.25L21 24.75A0.25 0.25 0 0 0 21.25 25L21.75 25A0.25 0.25 0 0 0 22 24.75L22 24.25A0.25 0.25 0 0 1 22.25 24L22.75 24A0.25 0.25 0 0 0 23 23.75L23 23.25A0.25 0.25 0 0 0 22.75 23L22.25 23A0.25 0.25 0 0 0 22 23.25ZM32 24.25L32 24.75A0.25 0.25 0 0 0 32.25 25L32.75 25A0.25 0.25 0 0 0 33 24.75L33 24.25A0.25 0.25 0 0 0 32.75 24L32.25 24A0.25 0.25 0 0 0 32 24.25ZM25 25.25L25 27.75A0.25 0.25 0 0 0 25.25 28L27.75 28A0.25 0.25 0 0 0 28 27.75L28 25.25A0.25 0.25 0 0 0 27.75 25L25.25 25A0.25 0.25 0 0 0 25 25.25ZM26 26.25L26 26.75A0.25 0.25 0 0 0 26.25 27L26.75 27A0.25 0.25 0 0 0 27 26.75L27 26.25A0.25 0.25 0 0 0 26.75 26L26.25 26A0.25 0.25 0 0 0 26 26.25ZM29 27.25L29 28.75A0.25 0.25 0 0 1 28.75 29L25.25 29A0.25 0.25 0 0 0 25 29.25L25 29.75A0.25 0.25 0 0 0 25.25 30L25.75 30A0.25 0.25 0 0 1 26 30.25L26 30.75A0.25 0.25 0 0 0 26.25 31L27.75 31A0.25 0.25 0 0 0 28 30.75L28 30.25A0.25 0.25 0 0 1 28.25 30L28.75 30A0.25 0.25 0 0 1 29 30.25L29 31.75A0.25 0.25 0 0 0 29.25 32L29.75 32A0.25 0.25 0 0 0 30 31.75L30 30.25A0.25 0.25 0 0 0 29.75 30L29.25 30A0.25 0.25 0 0 1 29 29.75L29 29.25A0.25 0.25 0 0 1 29.25 29L30.75 29A0.25 0.25 0 0 0 31 28.75L31 28.25A0.25 0.25 0 0 0 30.75 28L30.25 28A0.25 0.25 0 0 1 30 27.75L30 27.25A0.25 0.25 0 0 0 29.75 27L29.25 27A0.25 0.25 0 0 0 29 27.25ZM10 31.25L10 31.75A0.25 0.25 0 0 0 10.25 32L10.75 32A0.25 0.25 0 0 1 11 32.25L11 32.75A0.25 0.25 0 0 0 11.25 33L11.75 33A0.25 0.25 0 0 0 12 32.75L12 31.25A0.25 0.25 0 0 0 11.75 31L10.25 31A0.25 0.25 0 0 0 10 31.25ZM0 0.25L0 6.75A0.25 0.25 0 0 0 0.25 7L6.75 7A0.25 0.25 0 0 0 7 6.75L7 0.25A0.25 0.25 0 0 0 6.75 0L0.25 0A0.25 0.25 0 0 0 0 0.25ZM1 1.25L1 5.75A0.25 0.25 0 0 0 1.25 6L5.75 6A0.25 0.25 0 0 0 6 5.75L6 1.25A0.25 0.25 0 0 0 5.75 1L1.25 1A0.25 0.25 0 0 0 1 1.25ZM2 2.25L2 4.75A0.25 0.25 0 0 0 2.25 5L4.75 5A0.25 0.25 0 0 0 5 4.75L5 2.25A0.25 0.25 0 0 0 4.75 2L2.25 2A0.25 0.25 0 0 0 2 2.25ZM26 0.25L26 6.75A0.25 0.25 0 0 0 26.25 7L32.75 7A0.25 0.25 0 0 0 33 6.75L33 0.25A0.25 0.25 0 0 0 32.75 0L26.25 0A0.25 0.25 0 0 0 26 0.25ZM27 1.25L27 5.75A0.25 0.25 0 0 0 27.25 6L31.75 6A0.25 0.25 0 0 0 32 5.75L32 1.25A0.25 0.25 0 0 0 31.75 1L27.25 1A0.25 0.25 0 0 0 27 1.25ZM28 2.25L28 4.75A0.25 0.25 0 0 0 28.25 5L30.75 5A0.25 0.25 0 0 0 31 4.75L31 2.25A0.25 0.25 0 0 0 30.75 2L28.25 2A0.25 0.25 0 0 0 28 2.25ZM0 26.25L0 32.75A0.25 0.25 0 0 0 0.25 33L6.75 33A0.25 0.25 0 0 0 7 32.75L7 26.25A0.25 0.25 0 0 0 6.75 26L0.25 26A0.25 0.25 0 0 0 0 26.25ZM1 27.25L1 31.75A0.25 0.25 0 0 0 1.25 32L5.75 32A0.25 0.25 0 0 0 6 31.75L6 27.25A0.25 0.25 0 0 0 5.75 27L1.25 27A0.25 0.25 0 0 0 1 27.25ZM2 28.25L2 30.75A0.25 0.25 0 0 0 2.25 31L4.75 31A0.25 0.25 0 0 0 5 30.75L5 28.25A0.25 0.25 0 0 0 4.75 28L2.25 28A0.25 0.25 0 0 0 2 28.25Z" fill="#000000"/></g></g></svg>
