<?xml version="1.0" encoding="UTF-8"?>
<svg xmlns="http://www.w3.org/2000/svg" version="1.1" width="500" height="500" viewBox="0 0 500 500"><rect x="0" y="0" width="500" height="500" fill="#8a2be2"/><g transform="scale(15.152)"><g transform="translate(0,0)"><path fill-rule="evenodd" d="M9 0.25L9 1.75A0.25 0.25 0 0 1 8.75 2L8.25 2A0.25 0.25 0 0 0 8 2.25L8 3.75A0.25 0.25 0 0 0 8.25 4L8.75 4A0.25 0.25 0 0 1 9 4.25L9 5.75A0.25 0.25 0 0 1 8.75 6L8.25 6A0.25 0.25 0 0 0 8 6.25L8 6.75A0.25 0.25 0 0 0 8.25 7L8.75 7A0.25 0.25 0 0 0 9 6.75L9 6.25A0.25 0.25 0 0 1 9.25 6L9.75 6A0.25 0.25 0 0 1 10 6.25L10 7.75A0.25 0.25 0 0 0 10.25 8L10.75 8A0.25 0.25 0 0 1 11 8.25L11 10.75A0.25 0.25 0 0 1 10.75 11L8.25 11A0.25 0.25 0 0 0 8 11.25L8 11.75A0.25 0.25 0 0 1 7.75 12L6.25 12A0.25 0.25 0 0 0 6 12.25L6 12.75A0.25 0.25 0 0 0 6.25 13L8.75 13A0.25 0.25 0 0 0 9 12.75L9 12.25A0.25 0.25 0 0 1 9.25 12L9.75 12A0.25 0.25 0 0 1 10 12.25L10 13.75A0.25 0.25 0 0 1 9.75 14L9.25 14A0.25 0.25 0 0 0 9 14.25L9 14.75A0.25 0.25 0 0 0 9.25 15L9.75 15A0.25 0.25 0 0 1 10 15.25L10 15.75A0.25 0.25 0 0 1 9.75 16L9.25 16A0.25 0.25 0 0 0 9 16.25L9 16.75A0.25 0.25 0 0 1 8.75 17L8.25 17A0.25 0.25 0 0 0 8 17.25L8 17.75A0.25 0.25 0 0 1 7.75 18L4.25 18A0.25 0.25 0 0 1 4 17.75L4 17.25A0.25 0.25 0 0 1 4.25 17L4.75 17A0.25 0.25 0 0 0 5 16.75L5 16.25A0.25 0.25 0 0 1 5.25 16L5.75 16A0.25 0.25 0 0 1 6 16.25L6 16.75A0.25 0.25 0 0 0 6.25 17L6.75 17A0.25 0.25 0 0 0 7 16.75L7 16.25A0.25 0.25 0 0 0 6.75 16L6.25 16A0.25 0.25 0 0 1 6 15.75L6 15.25A0.25 0.25 0 0 1 6.25 15L7.75 15A0.25 0.25 0 0 0 8 14.75L8 14.25A0.25 0.25 0 0 0 7.75 14L5.25 14A0.25 0.25 0 0 0 5 14.25L5 15.75A0.25 0.25 0 0 1 4.75 16L4.25 16A0.25 0.25 0 0 1 4 15.75L4 14.25A0.25 0.25 0 0 0 3.75 14L3.25 14A0.25 0.25 0 0 1 3 13.75L3 12.25A0.25 0.25 0 0 0 2.75 12L2.25 12A0.25 0.25 0 0 1 2 11.75L2 10.25A0.25 0.25 0 0 1 2.25 10L2.75 10A0.25 0.25 0 0 1 3 10.25L3 10.75A0.25 0.25 0 0 0 3.25 11L3.75 11A0.25 0.25 0 0 1 4 11.25L4 12.75A0.25 0.25 0 0 0 4.25 13L4.75 13A0.25 0.25 0 0 0 5 12.75L5 11.25A0.25 0.25 0 0 0 4.75 11L4.25 11A0.25 0.25 0 0 1 4 10.75L4 10.25A0.25 0.25 0 0 1 4.25 10L5.75 10A0.25 0.25 0 0 1 6 10.25L6 10.75A0.25 0.25 0 0 0 6.25 11L6.75 11A0.25 0.25 0 0 0 7 10.75L7 10.25A0.25 0.25 0 0 0 6.75 10L6.25 10A0.25 0.25 0 0 1 6 9.75L6 9.25A0.25 0.25 0 0 1 6.25 9L7.75 9A0.25 0.25 0 0 1 8 9.25L8 9.75A0.25 0.25 0 0 0 8.25 10L9.75 10A0.25 0.25 0 0 0 10 9.75L10 9.25A0.25 0.25 0 0 0 9.75 9L8.25 9A0.25 0.25 0 0 1 8 8.75L8 8.25A0.25 0.25 0 0 0 7.75 8L6.25 8A0.25 0.25 0 0 0 6 8.25L6 8.75A0.25 0.25 0 0 1 5.75 9L5.25 9A0.25 0.25 0 0 1 5 8.75L5 8.25A0.25 0.25 0 0 0 4.75 8L3.25 8A0.25 0.25 0 0 0 3 8.25L3 8.75A0.25 0.25 0 0 1 2.75 9L2.25 9A0.25 0.25 0 0 0 2 9.25L2 9.75A0.25 0.25 0 0 1 1.75 10L1.25 10A0.25 0.25 0 0 0 1 10.25L1 14.75A0.25 0.25 0 0 0 1.25 15L1.75 15A0.25 0.25 0 0 1 2 15.25L2 15.75A0.25 0.25 0 0 1 1.75 16L1.25 16A0.25 0.25 0 0 0 1 16.25L1 18.75A0.25 0.25 0 0 1 0.75 19L0.25 19A0.25 0.25 0 0 0 0 19.25L0 24.75A0.25 0.25 0 0 0 0.25 25L1.75 25A0.25 0.25 0 0 0 2 24.75L2 24.25A0.25 0.25 0 0 0 1.75 24L1.25 24A0.25 0.25 0 0 1 1 23.75L1 21.25A0.25 0.25 0 0 1 1.25 21L3.75 21A0.25 0.25 0 0 1 4 21.25L4 21.75A0.25 0.25 0 0 0 4.25 22L4.75 22A0.25 0.25 0 0 1 5 22.25L5 22.75A0.25 0.25 0 0 0 5.25 23L6.75 23A0.25 0.25 0 0 1 7 23.25L7 23.75A0.25 0.25 0 0 1 6.75 24L4.25 24A0.25 0.25 0 0 1 4 23.75L4 23.25A0.25 0.25 0 0 0 3.75 23L3.25 23A0.25 0.25 0 0 1 3 22.75L3 22.25A0.25 0.25 0 0 0 2.75 22L2.25 22A0.25 0.25 0 0 0 2 22.25L2 22.75A0.25 0.25 0 0 0 2.25 23L2.75 23A0.25 0.25 0 0 1 3 23.25L3 24.75A0.25 0.25 0 0 0 3.25 25L6.75 25A0.25 0.25 0 0 0 7 24.75L7 24.25A0.25 0.25 0 0 1 7.25 24L7.75 24A0.25 0.25 0 0 1 8 24.25L8 26.75A0.25 0.25 0 0 0 8.25 27L8.75 27A0.25 0.25 0 0 0 9 26.75L9 26.25A0.25 0.25 0 0 1 9.25 26L9.75 26A0.25 0.25 0 0 0 10 25.75L10 25.25A0.25 0.25 0 0 0 9.75 25L9.25 25A0.25 0.25 0 0 1 9 24.75L9 24.25A0.25 0.25 0 0 1 9.25 24L9.75 24A0.25 0.25 0 0 0 10 23.75L10 23.25A0.25 0.25 0 0 1 10.25 23L10.75 23A0.25 0.25 0 0 1 11 23.25L11 23.75A0.25 0.25 0 0 0 11.25 24L11.75 24A0.25 0.25 0 0 1 12 24.25L12 24.75A0.25 0.25 0 0 1 11.75 25L11.25 25A0.25 0.25 0 0 0 11 25.25L11 25.75A0.25 0.25 0 0 0 11.25 26L11.75 26A0.25 0.25 0 0 1 12 26.25L12 27.75A0.25 0.25 0 0 1 11.75 28L11.25 28A0.25 0.25 0 0 0 11 28.25L11 28.75A0.25 0.25 0 0 1 10.75 29L10.25 29A0.25 0.25 0 0 1 10 28.75L10 28.25A0.25 0.25 0 0 0 9.75 28L8.25 28A0.25 0.25 0 0 0 8 28.25L8 29.75A0.25 0.25 0 0 0 8.25 30L10.75 30A0.25 0.25 0 0 1 11 30.25L11 30.75A0.25 0.25 0 0 1 10.75 31L10.25 31A0.25 0.25 0 0 0 10 31.25L10 31.75A0.25 0.25 0 0 0 10.25 32L10.75 32A0.25 0.25 0 0 0 11 31.75L11 31.25A0.25 0.25 0 0 1 11.25 31L11.75 31A0.25 0.25 0 0 1 12 31.25L12 31.75A0.25 0.25 0 0 0 12.25 32L12.75 32A0.25 0.25 0 0 1 13 32.25L13 32.75A0.25 0.25 0 0 0 13.25 33L13.75 33A0.25 0.25 0 0 0 14 32.75L14 32.25A0.25 0.25 0 0 1 14.25 32L14.75 32A0.25 0.25 0 0 0 15 31.75L15 30.25A0.25 0.25 0 0 1 15.25 30L15.75 30A0.25 0.25 0 0 0 16 29.75L16 29.25A0.25 0.25 0 0 0 15.75 29L15.25 29A0.25 0.25 0 0 1 15 28.75L15 28.25A0.25 0.25 0 0 1 15.25 28L16.75 28A0.25 0.25 0 0 0 17 27.75L17 27.25A0.25 0.25 0 0 1 17.25 27L17.75 27A0.25 0.25 0 0 0 18 26.75L18 26.25A0.25 0.25 0 0 1 18.25 26L18.75 26A0.25 0.25 0 0 1 19 26.25L19 27.75A0.25 0.25 0 0 1 18.75 28L18.25 28A0.25 0.25 0 0 0 18 28.25L18 28.75A0.25 0.25 0 0 1 17.75 29L17.25 29A0.25 0.25 0 0 0 17 29.25L17 30.75A0.25 0.25 0 0 1 16.75 31L16.25 31A0.25 0.25 0 0 0 16 31.25L16 32.75A0.25 0.25 0 0 0 16.25 33L16.75 33A0.25 0.25 0 0 0 17 32.75L17 31.25A0.25 0.25 0 0 1 17.25 31L19.75 31A0.25 0.25 0 0 1 20 31.25L20 31.75A0.25 0.25 0 0 1 19.75 32L19.25 32A0.25 0.25 0 0 0 19 32.25L19 32.75A0.25 0.25 0 0 0 19.25 33L19.75 33A0.25 0.25 0 0 0 20 32.75L20 32.25A0.25 0.25 0 0 1 20.25 32L20.75 32A0.25 0.25 0 0 0 21 31.75L21 31.25A0.25 0.25 0 0 1 21.25 31L21.75 31A0.25 0.25 0 0 1 22 31.25L22 32.75A0.25 0.25 0 0 0 22.25 33L22.75 33A0.25 0.25 0 0 0 23 32.75L23 32.25A0.25 0.25 0 0 1 23.25 32L23.75 32A0.25 0.25 0 0 1 24 32.25L24 32.75A0.25 0.25 0 0 0 24.25 33L24.75 33A0.25 0.25 0 0 0 25 32.75L25 32.25A0.25 0.25 0 0 1 25.25 32L25.75 32A0.25 0.25 0 0 1 26 32.25L26 32.75A0.25 0.25 0 0 0 26.25 33L26.75 33A0.25 0.25 0 0 0 27 32.75L27 32.25A0.25 0.25 0 0 1 27.25 32L28.75 32A0.25 0.25 0 0 1 29 32.25L29 32.75A0.25 0.25 0 0 0 29.25 33L30.75 33A0.25 0.25 0 0 0 31 32.75L31 32.25A0.25 0.25 0 0 1 31.25 32L32.75 32A0.25 0.25 0 0 0 33 31.75L33 30.25A0.25 0.25 0 0 0 32.75 30L32.25 30A0.25 0.25 0 0 1 32 29.75L32 29.25A0.25 0.25 0 0 1 32.25 29L32.75 29A0.25 0.25 0 0 0 33 28.75L33 27.25A0.25 0.25 0 0 0 32.75 27L31.25 27A0.25 0.25 0 0 1 31 26.75L31 25.25A0.25 0.25 0 0 0 30.75 25L30.25 25A0.25 0.25 0 0 0 30 25.25L30 25.75A0.25 0.25 0 0 1 29.75 26L29.25 26A0.25 0.25 0 0 1 29 25.75L29 24.25A0.25 0.25 0 0 1 29.25 24L31.75 24A0.25 0.25 0 0 1 32 24.25L32 24.75A0.25 0.25 0 0 0 32.25 25L32.75 25A0.25 0.25 0 0 0 33 24.75L33 18.25A0.25 0.25 0 0 0 32.75 18L31.25 18A0.25 0.25 0 0 0 31 18.25L31 18.75A0.25 0.25 0 0 1 30.75 19L30.25 19A0.25 0.25 0 0 1 30 18.75L30 17.25A0.25 0.25 0 0 1 30.25 17L30.75 17A0.25 0.25 0 0 0 31 16.75L31 16.25A0.25 0.25 0 0 0 30.75 16L30.25 16A0.25 0.25 0 0 1 30 15.75L30 15.25A0.25 0.25 0 0 0 29.75 15L29.25 15A0.25 0.25 0 0 0 29 15.25L29 15.75A0.25 0.25 0 0 1 28.75 16L28.25 16A0.25 0.25 0 0 1 28 15.75L28 14.25A0.25 0.25 0 0 1 28.25 14L29.75 14A0.25 0.25 0 0 0 30 13.75L30 13.25A0.25 0.25 0 0 0 29.75 13L29.25 13A0.25 0.25 0 0 1 29 12.75L29 12.25A0.25 0.25 0 0 1 29.25 12L30.75 12A0.25 0.25 0 0 0 31 11.75L31 10.25A0.25 0.25 0 0 1 31.25 10L31.75 10A0.25 0.25 0 0 1 32 10.25L32 10.75A0.25 0.25 0 0 0 32.25 11L32.75 11A0.25 0.25 0 0 0 33 10.75L33 10.25A0.25 0.25 0 0 0 32.75 10L32.25 10A0.25 0.25 0 0 1 32 9.75L32 9.25A0.25 0.25 0 0 0 31.75 9L31.25 9A0.25 0.25 0 0 1 31 8.75L31 8.25A0.25 0.25 0 0 0 30.75 8L29.25 8A0.25 0.25 0 0 0 29 8.25L29 8.75A0.25 0.25 0 0 1 28.75 9L27.25 9A0.25 0.25 0 0 0 27 9.25L27 9.75A0.25 0.25 0 0 1 26.75 10L26.25 10A0.25 0.25 0 0 0 26 10.25L26 10.75A0.25 0.25 0 0 1 25.75 11L25.25 11A0.25 0.25 0 0 1 25 10.75L25 9.25A0.25 0.25 0 0 0 24.75 9L23.25 9A0.25 0.25 0 0 1 23 8.75L23 6.25A0.25 0.25 0 0 1 23.25 6L23.75 6A0.25 0.25 0 0 1 24 6.25L24 7.75A0.25 0.25 0 0 0 24.25 8L24.75 8A0.25 0.25 0 0 0 25 7.75L25 6.25A0.25 0.25 0 0 0 24.75 6L24.25 6A0.25 0.25 0 0 1 24 5.75L24 5.25A0.25 0.25 0 0 1 24.25 5L24.75 5A0.25 0.25 0 0 0 25 4.75L25 4.25A0.25 0.25 0 0 0 24.75 4L23.25 4A0.25 0.25 0 0 1 23 3.75L23 2.25A0.25 0.25 0 0 0 22.75 2L21.25 2A0.25 0.25 0 0 1 21 1.75L21 1.25A0.25 0.25 0 0 1 21.25 1L22.75 1A0.25 0.25 0 0 0 23 0.75L23 0.25A0.25 0.25 0 0 0 22.75 0L15.25 0A0.25 0.25 0 0 0 15 0.25L15 0.75A0.25 0.25 0 0 1 14.75 1L13.25 1A0.25 0.25 0 0 0 13 1.25L13 2.75A0.25 0.25 0 0 0 13.25 3L13.75 3A0.25 0.25 0 0 1 14 3.25L14 4.75A0.25 0.25 0 0 0 14.25 5L14.75 5A0.25 0.25 0 0 1 15 5.25L15 5.75A0.25 0.25 0 0 1 14.75 6L14.25 6A0.25 0.25 0 0 0 14 6.25L14 6.75A0.25 0.25 0 0 1 13.75 7L13.25 7A0.25 0.25 0 0 1 13 6.75L13 6.25A0.25 0.25 0 0 0 12.75 6L12.25 6A0.25 0.25 0 0 1 12 5.75L12 5.25A0.25 0.25 0 0 0 11.75 5L10.25 5A0.25 0.25 0 0 1 10 4.75L10 4.25A0.25 0.25 0 0 1 10.25 4L10.75 4A0.25 0.25 0 0 0 11 3.75L11 3.25A0.25 0.25 0 0 0 10.75 3L10.25 3A0.25 0.25 0 0 1 10 2.75L10 2.25A0.25 0.25 0 0 1 10.25 2L10.75 2A0.25 0.25 0 0 0 11 1.75L11 0.25A0.25 0.25 0 0 0 10.75 0L9.25 0A0.25 0.25 0 0 0 9 0.25ZM17 1.25L17 1.75A0.25 0.25 0 0 1 16.75 2L16.25 2A0.25 0.25 0 0 0 16 2.25L16 2.75A0.25 0.25 0 0 1 15.75 3L15.25 3A0.25 0.25 0 0 0 15 3.25L15 3.75A0.25 0.25 0 0 0 15.25 4L15.75 4A0.25 0.25 0 0 1 16 4.25L16 5.75A0.25 0.25 0 0 1 15.75 6L15.25 6A0.25 0.25 0 0 0 15 6.25L15 6.75A0.25 0.25 0 0 1 14.75 7L14.25 7A0.25 0.25 0 0 0 14 7.25L14 7.75A0.25 0.25 0 0 1 13.75 8L13.25 8A0.25 0.25 0 0 1 13 7.75L13 7.25A0.25 0.25 0 0 0 12.75 7L12.25 7A0.25 0.25 0 0 1 12 6.75L12 6.25A0.25 0.25 0 0 0 11.75 6L11.25 6A0.25 0.25 0 0 0 11 6.25L11 7.75A0.25 0.25 0 0 0 11.25 8L12.75 8A0.25 0.25 0 0 1 13 8.25L13 8.75A0.25 0.25 0 0 1 12.75 9L12.25 9A0.25 0.25 0 0 0 12 9.25L12 12.75A0.25 0.25 0 0 1 11.75 13L11.25 13A0.25 0.25 0 0 0 11 13.25L11 13.75A0.25 0.25 0 0 0 11.25 14L13.75 14A0.25 0.25 0 0 1 14 14.25L14 14.75A0.25 0.25 0 0 1 13.75 15L12.25 15A0.25 0.25 0 0 0 12 15.25L12 16.75A0.25 0.25 0 0 0 12.25 17L13.75 17A0.25 0.25 0 0 0 14 16.75L14 15.25A0.25 0.25 0 0 1 14.25 15L14.75 15A0.25 0.25 0 0 0 15 14.75L15 14.25A0.25 0.25 0 0 1 15.25 14L15.75 14A0.25 0.25 0 0 1 16 14.25L16 15.75A0.25 0.25 0 0 0 16.25 16L16.75 16A0.25 0.25 0 0 1 17 16.25L17 16.75A0.25 0.25 0 0 0 17.25 17L17.75 17A0.25 0.25 0 0 1 18 17.25L18 17.75A0.25 0.25 0 0 0 18.25 18L18.75 18A0.25 0.25 0 0 1 19 18.25L19 18.75A0.25 0.25 0 0 0 19.25 19L19.75 19A0.25 0.25 0 0 1 20 19.25L20 19.75A0.25 0.25 0 0 0 20.25 20L20.75 20A0.25 0.25 0 0 1 21 20.25L21 20.75A0.25 0.25 0 0 1 20.75 21L19.25 21A0.25 0.25 0 0 1 19 20.75L19 20.25A0.25 0.25 0 0 0 18.75 20L16.25 20A0.25 0.25 0 0 1 16 19.75L16 19.25A0.25 0.25 0 0 1 16.25 19L16.75 19A0.25 0.25 0 0 0 17 18.75L17 18.25A0.25 0.25 0 0 0 16.75 18L16.25 18A0.25 0.25 0 0 1 16 17.75L16 17.25A0.25 0.25 0 0 0 15.75 17L15.25 17A0.25 0.25 0 0 0 15 17.25L15 17.75A0.25 0.25 0 0 1 14.75 18L10.25 18A0.25 0.25 0 0 1 10 17.75L10 17.25A0.25 0.25 0 0 0 9.75 17L9.25 17A0.25 0.25 0 0 0 9 17.25L9 17.75A0.25 0.25 0 0 0 9.25 18L9.75 18A0.25 0.25 0 0 1 10 18.25L10 18.75A0.25 0.25 0 0 0 10.25 19L11.75 19A0.25 0.25 0 0 1 12 19.25L12 19.75A0.25 0.25 0 0 1 11.75 20L9.25 20A0.25 0.25 0 0 0 9 20.25L9 20.75A0.25 0.25 0 0 1 8.75 21L6.25 21A0.25 0.25 0 0 0 6 21.25L6 21.75A0.25 0.25 0 0 0 6.25 22L6.75 22A0.25 0.25 0 0 1 7 22.25L7 22.75A0.25 0.25 0 0 0 7.25 23L7.75 23A0.25 0.25 0 0 1 8 23.25L8 23.75A0.25 0.25 0 0 0 8.25 24L8.75 24A0.25 0.25 0 0 0 9 23.75L9 23.25A0.25 0.25 0 0 1 9.25 23L9.75 23A0.25 0.25 0 0 0 10 22.75L10 22.25A0.25 0.25 0 0 1 10.25 22L10.75 22A0.25 0.25 0 0 1 11 22.25L11 22.75A0.25 0.25 0 0 0 11.25 23L12.75 23A0.25 0.25 0 0 1 13 23.25L13 23.75A0.25 0.25 0 0 0 13.25 24L13.75 24A0.25 0.25 0 0 1 14 24.25L14 24.75A0.25 0.25 0 0 0 14.25 25L14.75 25A0.25 0.25 0 0 0 15 24.75L15 24.25A0.25 0.25 0 0 1 15.25 24L16.75 24A0.25 0.25 0 0 0 17 23.75L17 23.25A0.25 0.25 0 0 1 17.25 23L17.75 23A0.25 0.25 0 0 1 18 23.25L18 23.75A0.25 0.25 0 0 0 18.25 24L18.75 24A0.25 0.25 0 0 0 19 23.75L19 23.25A0.25 0.25 0 0 0 18.75 23L18.25 23A0.25 0.25 0 0 1 18 22.75L18 22.25A0.25 0.25 0 0 1 18.25 22L21.75 22A0.25 0.25 0 0 1 22 22.25L22 22.75A0.25 0.25 0 0 1 21.75 23L20.25 23A0.25 0.25 0 0 0 20 23.25L20 24.75A0.25 0.25 0 0 0 20.25 25L20.75 25A0.25 0.25 0 0 1 21 25.25L21 25.75A0.25 0.25 0 0 1 20.75 26L20.25 26A0.25 0.25 0 0 0 20 26.25L20 26.75A0.25 0.25 0 0 0 20.25 27L20.75 27A0.25 0.25 0 0 1 21 27.25L21 27.75A0.25 0.25 0 0 1 20.75 28L20.25 28A0.25 0.25 0 0 0 20 28.25L20 30.75A0.25 0.25 0 0 0 20.25 31L20.75 31A0.25 0.25 0 0 0 21 30.75L21 30.25A0.25 0.25 0 0 1 21.25 30L21.75 30A0.25 0.25 0 0 1 22 30.25L22 30.75A0.25 0.25 0 0 0 22.25 31L22.75 31A0.25 0.25 0 0 0 23 30.75L23 30.25A0.25 0.25 0 0 1 23.25 30L23.75 30A0.25 0.25 0 0 1 24 30.25L24 31.75A0.25 0.25 0 0 0 24.25 32L24.75 32A0.25 0.25 0 0 0 25 31.75L25 30.25A0.25 0.25 0 0 1 25.25 30L25.75 30A0.25 0.25 0 0 1 26 30.25L26 30.75A0.25 0.25 0 0 0 26.25 31L27.75 31A0.25 0.25 0 0 0 28 30.75L28 30.25A0.25 0.25 0 0 1 28.25 30L28.75 30A0.25 0.25 0 0 1 29 30.25L29 31.75A0.25 0.25 0 0 0 29.25 32L29.75 32A0.25 0.25 0 0 0 30 31.75L30 30.25A0.25 0.25 0 0 0 29.75 30L29.25 30A0.25 0.25 0 0 1 29 29.75L29 29.25A0.25 0.25 0 0 1 29.25 29L30.75 29A0.25 0.25 0 0 0 31 28.75L31 28.25A0.25 0.25 0 0 0 30.75 28L30.25 28A0.25 0.25 0 0 1 30 27.75L30 27.25A0.25 0.25 0 0 0 29.75 27L29.25 27A0.25 0.25 0 0 0 29 27.25L29 28.75A0.25 0.25 0 0 1 28.75 29L25.25 29A0.25 0.25 0 0 0 25 29.25L25 29.75A0.25 0.25 0 0 1 24.75 30L24.25 30A0.25 0.25 0 0 1 24 29.75L24 29.25A0.25 0.25 0 0 0 23.75 29L23.25 29A0.25 0.25 0 0 1 23 28.75L23 28.25A0.25 0.25 0 0 1 23.25 28L23.75 28A0.25 0.25 0 0 0 24 27.75L24 27.25A0.25 0.25 0 0 0 23.75 27L21.25 27A0.25 0.25 0 0 1 21 26.75L21 26.25A0.25 0.25 0 0 1 21.25 26L21.75 26A0.25 0.25 0 0 0 22 25.75L22 23.25A0.25 0.25 0 0 1 22.25 23L22.75 23A0.25 0.25 0 0 1 23 23.25L23 24.75A0.25 0.25 0 0 0 23.25 25L23.75 25A0.25 0.25 0 0 0 24 24.75L24 24.25A0.25 0.25 0 0 1 24.25 24L25.75 24A0.25 0.25 0 0 0 26 23.75L26 23.25A0.25 0.25 0 0 1 26.25 23L26.75 23A0.25 0.25 0 0 1 27 23.25L27 23.75A0.25 0.25 0 0 0 27.25 24L27.75 24A0.25 0.25 0 0 0 28 23.75L28 22.25A0.25 0.25 0 0 0 27.75 22L26.25 22A0.25 0.25 0 0 0 26 22.25L26 22.75A0.25 0.25 0 0 1 25.75 23L24.25 23A0.25 0.25 0 0 1 24 22.75L24 22.25A0.25 0.25 0 0 1 24.25 22L24.75 22A0.25 0.25 0 0 0 25 21.75L25 21.25A0.25 0.25 0 0 0 24.75 21L24.25 21A0.25 0.25 0 0 1 24 20.75L24 19.25A0.25 0.25 0 0 0 23.75 19L23.25 19A0.25 0.25 0 0 1 23 18.75L23 18.25A0.25 0.25 0 0 0 22.75 18L22.25 18A0.25 0.25 0 0 1 22 17.75L22 16.25A0.25 0.25 0 0 1 22.25 16L22.75 16A0.25 0.25 0 0 1 23 16.25L23 16.75A0.25 0.25 0 0 0 23.25 17L23.75 17A0.25 0.25 0 0 1 24 17.25L24 17.75A0.25 0.25 0 0 0 24.25 18L24.75 18A0.25 0.25 0 0 0 25 17.75L25 17.25A0.25 0.25 0 0 1 25.25 17L25.75 17A0.25 0.25 0 0 0 26 16.75L26 16.25A0.25 0.25 0 0 1 26.25 16L26.75 16A0.25 0.25 0 0 1 27 16.25L27 17.75A0.25 0.25 0 0 0 27.25 18L27.75 18A0.25 0.25 0 0 1 28 18.25L28 19.75A0.25 0.25 0 0 0 28.25 20L28.75 20A0.25 0.25 0 0 1 29 20.25L29 22.75A0.25 0.25 0 0 0 29.25 23L29.75 23A0.25 0.25 0 0 0 30 22.75L30 22.25A0.25 0.25 0 0 1 30.25 22L30.75 22A0.25 0.25 0 0 0 31 21.75L31 20.25A0.25 0.25 0 0 1 31.25 20L31.75 20A0.25 0.25 0 0 0 32 19.75L32 19.25A0.25 0.25 0 0 0 31.75 19L31.25 19A0.25 0.25 0 0 0 31 19.25L31 19.75A0.25 0.25 0 0 1 30.75 20L29.25 20A0.25 0.25 0 0 1 29 19.75L29 18.25A0.25 0.25 0 0 0 28.75 18L28.25 18A0.25 0.25 0 0 1 28 17.75L28 16.25A0.25 0.25 0 0 0 27.75 16L27.25 16A0.25 0.25 0 0 1 27 15.75L27 13.25A0.25 0.25 0 0 0 26.75 13L25.25 13A0.25 0.25 0 0 1 25 12.75L25 12.25A0.25 0.25 0 0 0 24.75 12L24.25 12A0.25 0.25 0 0 1 24 11.75L24 11.25A0.25 0.25 0 0 0 23.75 11L23.25 11A0.25 0.25 0 0 0 23 11.25L23 11.75A0.25 0.25 0 0 1 22.75 12L22.25 12A0.25 0.25 0 0 0 22 12.25L22 13.75A0.25 0.25 0 0 1 21.75 14L21.25 14A0.25 0.25 0 0 0 21 14.25L21 14.75A0.25 0.25 0 0 1 20.75 15L20.25 15A0.25 0.25 0 0 0 20 15.25L20 15.75A0.25 0.25 0 0 0 20.25 16L20.75 16A0.25 0.25 0 0 1 21 16.25L21 18.75A0.25 0.25 0 0 1 20.75 19L20.25 19A0.25 0.25 0 0 1 20 18.75L20 17.25A0.25 0.25 0 0 0 19.75 17L19.25 17A0.25 0.25 0 0 1 19 16.75L19 15.25A0.25 0.25 0 0 0 18.75 15L18.25 15A0.25 0.25 0 0 1 18 14.75L18 13.25A0.25 0.25 0 0 0 17.75 13L16.25 13A0.25 0.25 0 0 1 16 12.75L16 12.25A0.25 0.25 0 0 0 15.75 12L15.25 12A0.25 0.25 0 0 0 15 12.25L15 12.75A0.25 0.25 0 0 1 14.75 13L14.25 13A0.25 0.25 0 0 1 14 12.75L14 11.25A0.25 0.25 0 0 1 14.25 11L14.75 11A0.25 0.25 0 0 0 15 10.75L15 9.25A0.25 0.25 0 0 1 15.25 9L15.75 9A0.25 0.25 0 0 0 16 8.75L16 8.25A0.25 0.25 0 0 1 16.25 8L17.75 8A0.25 0.25 0 0 1 18 8.25L18 8.75A0.25 0.25 0 0 0 18.25 9L19.75 9A0.25 0.25 0 0 1 20 9.25L20 9.75A0.25 0.25 0 0 1 19.75 10L19.25 10A0.25 0.25 0 0 0 19 10.25L19 10.75A0.25 0.25 0 0 1 18.75 11L18.25 11A0.25 0.25 0 0 1 18 10.75L18 10.25A0.25 0.25 0 0 0 17.75 10L17.25 10A0.25 0.25 0 0 0 17 10.25L17 11.75A0.25 0.25 0 0 0 17.25 12L18.75 12A0.25 0.25 0 0 1 19 12.25L19 12.75A0.25 0.25 0 0 0 19.25 13L19.75 13A0.25 0.25 0 0 0 20 12.75L20 12.25A0.25 0.25 0 0 1 20.25 12L20.75 12A0.25 0.25 0 0 0 21 11.75L21 11.25A0.25 0.25 0 0 1 21.25 11L21.75 11A0.25 0.25 0 0 0 22 10.75L22 10.25A0.25 0.25 0 0 1 22.25 10L22.75 10A0.25 0.25 0 0 0 23 9.75L23 9.25A0.25 0.25 0 0 0 22.75 9L22.25 9A0.25 0.25 0 0 1 22 8.75L22 5.25A0.25 0.25 0 0 0 21.75 5L20.25 5A0.25 0.25 0 0 0 20 5.25L20 5.75A0.25 0.25 0 0 1 19.75 6L19.25 6A0.25 0.25 0 0 1 19 5.75L19 4.25A0.25 0.25 0 0 1 19.25 4L19.75 4A0.25 0.25 0 0 0 20 3.75L20 2.25A0.25 0.25 0 0 0 19.75 2L19.25 2A0.25 0.25 0 0 1 19 1.75L19 1.25A0.25 0.25 0 0 0 18.75 1L17.25 1A0.25 0.25 0 0 0 17 1.25ZM24 1.25L24 1.75A0.25 0.25 0 0 0 24.25 2L24.75 2A0.25 0.25 0 0 0 25 1.75L25 1.25A0.25 0.25 0 0 0 24.75 1L24.25 1A0.25 0.25 0 0 0 24 1.25ZM9 3.25L9 3.75A0.25 0.25 0 0 0 9.25 4L9.75 4A0.25 0.25 0 0 0 10 3.75L10 3.25A0.25 0.25 0 0 0 9.75 3L9.25 3A0.25 0.25 0 0 0 9 3.25ZM18 3.25L18 3.75A0.25 0.25 0 0 1 17.75 4L17.25 4A0.25 0.25 0 0 0 17 4.25L17 5.75A0.25 0.25 0 0 1 16.75 6L16.25 6A0.25 0.25 0 0 0 16 6.25L16 6.75A0.25 0.25 0 0 0 16.25 7L16.75 7A0.25 0.25 0 0 0 17 6.75L17 6.25A0.25 0.25 0 0 1 17.25 6L17.75 6A0.25 0.25 0 0 1 18 6.25L18 7.75A0.25 0.25 0 0 0 18.25 8L18.75 8A0.25 0.25 0 0 0 19 7.75L19 6.25A0.25 0.25 0 0 0 18.75 6L18.25 6A0.25 0.25 0 0 1 18 5.75L18 4.25A0.25 0.25 0 0 1 18.25 4L18.75 4A0.25 0.25 0 0 0 19 3.75L19 3.25A0.25 0.25 0 0 0 18.75 3L18.25 3A0.25 0.25 0 0 0 18 3.25ZM20 6.25L20 6.75A0.25 0.25 0 0 0 20.25 7L20.75 7A0.25 0.25 0 0 0 21 6.75L21 6.25A0.25 0.25 0 0 0 20.75 6L20.25 6A0.25 0.25 0 0 0 20 6.25ZM20 8.25L20 8.75A0.25 0.25 0 0 0 20.25 9L20.75 9A0.25 0.25 0 0 1 21 9.25L21 9.75A0.25 0.25 0 0 1 20.75 10L20.25 10A0.25 0.25 0 0 0 20 10.25L20 10.75A0.25 0.25 0 0 0 20.25 11L20.75 11A0.25 0.25 0 0 0 21 10.75L21 10.25A0.25 0.25 0 0 1 21.25 10L21.75 10A0.25 0.25 0 0 0 22 9.75L22 9.25A0.25 0.25 0 0 0 21.75 9L21.25 9A0.25 0.25 0 0 1 21 8.75L21 8.25A0.25 0.25 0 0 0 20.75 8L20.25 8A0.25 0.25 0 0 0 20 8.25ZM13 9.25L13 10.75A0.25 0.25 0 0 0 13.25 11L13.75 11A0.25 0.25 0 0 0 14 10.75L14 9.25A0.25 0.25 0 0 0 13.75 9L13.25 9A0.25 0.25 0 0 0 13 9.25ZM29 9.25L29 9.75A0.25 0.25 0 0 1 28.75 10L28.25 10A0.25 0.25 0 0 0 28 10.25L28 10.75A0.25 0.25 0 0 1 27.75 11L27.25 11A0.25 0.25 0 0 0 27 11.25L27 11.75A0.25 0.25 0 0 0 27.25 12L28.75 12A0.25 0.25 0 0 0 29 11.75L29 10.25A0.25 0.25 0 0 1 29.25 10L30.75 10A0.25 0.25 0 0 0 31 9.75L31 9.25A0.25 0.25 0 0 0 30.75 9L29.25 9A0.25 0.25 0 0 0 29 9.25ZM23 12.25L23 13.75A0.25 0.25 0 0 0 23.25 14L24.75 14A0.25 0.25 0 0 0 25 13.75L25 13.25A0.25 0.25 0 0 0 24.75 13L24.25 13A0.25 0.25 0 0 1 24 12.75L24 12.25A0.25 0.25 0 0 0 23.75 12L23.25 12A0.25 0.25 0 0 0 23 12.25ZM31 13.25L31 13.75A0.25 0.25 0 0 0 31.25 14L32.75 14A0.25 0.25 0 0 0 33 13.75L33 13.25A0.25 0.25 0 0 0 32.75 13L31.25 13A0.25 0.25 0 0 0 31 13.25ZM17 15.25L17 15.75A0.25 0.25 0 0 0 17.25 16L17.75 16A0.25 0.25 0 0 0 18 15.75L18 15.25A0.25 0.25 0 0 0 17.75 15L17.25 15A0.25 0.25 0 0 0 17 15.25ZM24 15.25L24 16.75A0.25 0.25 0 0 0 24.25 17L24.75 17A0.25 0.25 0 0 0 25 16.75L25 15.25A0.25 0.25 0 0 0 24.75 15L24.25 15A0.25 0.25 0 0 0 24 15.25ZM3 19.25L3 19.75A0.25 0.25 0 0 0 3.25 20L3.75 20A0.25 0.25 0 0 1 4 20.25L4 20.75A0.25 0.25 0 0 0 4.25 21L4.75 21A0.25 0.25 0 0 0 5 20.75L5 20.25A0.25 0.25 0 0 1 5.25 20L7.75 20A0.25 0.25 0 0 0 8 19.75L8 19.25A0.25 0.25 0 0 0 7.75 19L5.25 19A0.25 0.25 0 0 0 5 19.25L5 19.75A0.25 0.25 0 0 1 4.75 20L4.25 20A0.25 0.25 0 0 1 4 19.75L4 19.25A0.25 0.25 0 0 0 3.75 19L3.25 19A0.25 0.25 0 0 0 3 19.25ZM14 19.25L14 19.75A0.25 0.25 0 0 0 14.25 20L14.75 20A0.25 0.25 0 0 1 15 20.25L15 22.75A0.25 0.25 0 0 1 14.75 23L14.25 23A0.25 0.25 0 0 1 14 22.75L14 22.25A0.25 0.25 0 0 0 13.75 22L13.25 22A0.25 0.25 0 0 1 13 21.75L13 21.25A0.25 0.25 0 0 0 12.75 21L12.25 21A0.25 0.25 0 0 0 12 21.25L12 21.75A0.25 0.25 0 0 0 12.25 22L12.75 22A0.25 0.25 0 0 1 13 22.25L13 22.75A0.25 0.25 0 0 0 13.25 23L13.75 23A0.25 0.25 0 0 1 14 23.25L14 23.75A0.25 0.25 0 0 0 14.25 24L14.75 24A0.25 0.25 0 0 0 15 23.75L15 23.25A0.25 0.25 0 0 1 15.25 23L15.75 23A0.25 0.25 0 0 0 16 22.75L16 22.25A0.25 0.25 0 0 1 16.25 22L16.75 22A0.25 0.25 0 0 0 17 21.75L17 21.25A0.25 0.25 0 0 0 16.75 21L16.25 21A0.25 0.25 0 0 1 16 20.75L16 20.25A0.25 0.25 0 0 0 15.75 20L15.25 20A0.25 0.25 0 0 1 15 19.75L15 19.25A0.25 0.25 0 0 0 14.75 19L14.25 19A0.25 0.25 0 0 0 14 19.25ZM25 19.25L25 19.75A0.25 0.25 0 0 0 25.25 20L25.75 20A0.25 0.25 0 0 1 26 20.25L26 20.75A0.25 0.25 0 0 0 26.25 21L26.75 21A0.25 0.25 0 0 0 27 20.75L27 20.25A0.25 0.25 0 0 0 26.75 20L26.25 20A0.25 0.25 0 0 1 26 19.75L26 19.25A0.25 0.25 0 0 0 25.75 19L25.25 19A0.25 0.25 0 0 0 25 19.25ZM22 20.25L22 20.75A0.25 0.25 0 0 0 22.25 21L22.75 21A0.25 0.25 0 0 0 23 20.75L23 20.25A0.25 0.25 0 0 0 22.75 20L22.25 20A0.25 0.25 0 0 0 22 20.25ZM25 25.25L25 27.75A0.25 0.25 0 0 0 25.25 28L27.75 28A0.25 0.25 0 0 0 28 27.75L28 25.25A0.25 0.25 0 0 0 27.75 25L25.25 25A0.25 0.25 0 0 0 25 25.25ZM14 26.25L14 26.75A0.25 0.25 0 0 1 13.75 27L13.25 27A0.25 0.25 0 0 0 13 27.25L13 27.75A0.25 0.25 0 0 1 12.75 28L12.25 28A0.25 0.25 0 0 0 12 28.25L12 28.75A0.25 0.25 0 0 0 12.25 29L12.75 29A0.25 0.25 0 0 1 13 29.25L13 29.75A0.25 0.25 0 0 0 13.25 30L14.75 30A0.25 0.25 0 0 0 15 29.75L15 29.25A0.25 0.25 0 0 0 14.75 29L14.25 29A0.25 0.25 0 0 1 14 28.75L14 27.25A0.25 0.25 0 0 1 14.25 27L15.75 27A0.25 0.25 0 0 0 16 26.75L16 26.25A0.25 0.25 0 0 0 15.75 26L14.25 26A0.25 0.25 0 0 0 14 26.25ZM26 26.25L26 26.75A0.25 0.25 0 0 0 26.25 27L26.75 27A0.25 0.25 0 0 0 27 26.75L27 26.25A0.25 0.25 0 0 0 26.75 26L26.25 26A0.25 0.25 0 0 0 26 26.25ZM21 28.25L21 28.75A0.25 0.25 0 0 0 21.25 29L21.75 29A0.25 0.25 0 0 0 22 28.75L22 28.25A0.25 0.25 0 0 0 21.75 28L21.25 28A0.25 0.25 0 0 0 21 28.25ZM18 29.25L18 29.75A0.25 0.25 0 0 0 18.25 30L18.75 30A0.25 0.25 0 0 0 19 29.75L19 29.25A0.25 0.25 0 0 0 18.75 29L18.25 29A0.25 0.25 0 0 0 18 29.25ZM13 31.25L13 31.75A0.25 0.25 0 0 0 13.25 32L13.75 32A0.25 0.25 0 0 0 14 31.75L14 31.25A0.25 0.25 0 0 0 13.75 31L13.25 31A0.25 0.25 0 0 0 13 31.25ZM0 0.25L0 6.75A0.25 0.25 0 0 0 0.25 7L6.75 7A0.25 0.25 0 0 0 7 6.75L7 0.25A0.25 0.25 0 0 0 6.75 0L0.25 0A0.25 0.25 0 0 0 0 0.25ZM1 1.25L1 5.75A0.25 0.25 0 0 0 1.25 6L5.75 6A0.25 0.25 0 0 0 6 5.75L6 1.25A0.25 0.25 0 0 0 5.75 1L1.25 1A0.25 0.25 0 0 0 1 1.25ZM2 2.25L2 4.75A0.25 0.25 0 0 0 2.25 5L4.75 5A0.25 0.25 0 0 0 5 4.75L5 2.25A0.25 0.25 0 0 0 4.75 2L2.25 2A0.25 0.25 0 0 0 2 2.25ZM26 0.25L26 6.75A0.25 0.25 0 0 0 26.25 7L32.75 7A0.25 0.25 0 0 0 33 6.75L33 0.25A0.25 0.25 0 0 0 32.75 0L26.25 0A0.25 0.25 0 0 0 26 0.25ZM27 1.25L27 5.75A0.25 0.25 0 0 0 27.25 6L31.75 6A0.25 0.25 0 0 0 32 5.75L32 1.25A0.25 0.25 0 0 0 31.75 1L27.25 1A0.25 0.25 0 0 0 27 1.25ZM28 2.25L28 4.75A0.25 0.25 0 0 0 28.25 5L30.75 5A0.25 0.25 0 0 0 31 4.75L31 2.25A0.25 0.25 0 0 0 30.75 2L28.25 2A0.25 0.25 0 0 0 28 2.25ZM0 26.25L0 32.75A0.25 0.25 0 0 0 0.25 33L6.75 33A0.25 0.25 0 0 0 7 32.75L7 26.25A0.25 0.25 0 0 0 6.75 26L0.25 26A0.25 0.25 0 0 0 0 26.25ZM1 27.25L1 31.75A0.25 0.25 0 0 0 1.25 32L5.75 32A0.25 0.25 0 0 0 6 31.75L6 27.25A0.25 0.25 0 0 0 5.75 27L1.25 27A0.25 0.25 0 0 0 1 27.25ZM2 28.25L2 30.75A0.25 0.25 0 0 0 2.25 31L4.75 31A0.25 0.25 0 0 0 5 30.75L5 28.25A0.25 0.25 0 0 0 4.75 28L2.25 28A0.25 0.25 0 0 0 2 28.25Z" fill="#000000"/></g></g></svg>
