<?xml version="1.0" encoding="UTF-8"?>
<svg xmlns="http://www.w3.org/2000/svg" version="1.1" width="500" height="500" viewBox="0 0 500 500"><rect x="0" y="0" width="500" height="500" fill="#ffffff"/><g transform="scale(15.152)"><g transform="translate(0,0)"><path fill-rule="evenodd" d="M9.75 0.5A0.25 0.25 0 0 1 9.5 0.75A0.25 0.25 0 0 1 9.25 0.5A0.25 0.25 0 0 1 9.5 0.25A0.25 0.25 0 0 1 9.75 0.5ZM11.75 0.5A0.25 0.25 0 0 1 11.5 0.75A0.25 0.25 0 0 1 11.25 0.5A0.25 0.25 0 0 1 11.5 0.25A0.25 0.25 0 0 1 11.75 0.5ZM14.75 0.5A0.25 0.25 0 0 1 14.5 0.75A0.25 0.25 0 0 1 14.25 0.5A0.25 0.25 0 0 1 14.5 0.25A0.25 0.25 0 0 1 14.75 0.5ZM15.75 0.5A0.25 0.25 0 0 1 15.5 0.75A0.25 0.25 0 0 1 15.25 0.5A0.25 0.25 0 0 1 15.5 0.25A0.25 0.25 0 0 1 15.75 0.5ZM17.75 0.5A0.25 0.25 0 0 1 17.5 0.75A0.25 0.25 0 0 1 17.25 0.5A0.25 0.25 0 0 1 17.5 0.25A0.25 0.25 0 0 1 17.75 0.5ZM18.75 0.5A0.25 0.25 0 0 1 18.5 0.75A0.25 0.25 0 0 1 18.25 0.5A0.25 0.25 0 0 1 18.5 0.25A0.25 0.25 0 0 1 18.75 0.5ZM19.75 0.5A0.25 0.25 0 0 1 19.5 0.75A0.25 0.25 0 0 1 19.25 0.5A0.25 0.25 0 0 1 19.5 0.25A0.25 0.25 0 0 1 19.75 0.5ZM21.75 0.5A0.25 0.25 0 0 1 21.5 0.75A0.25 0.25 0 0 1 21.25 0.5A0.25 0.25 0 0 1 21.5 0.25A0.25 0.25 0 0 1 21.75 0.5ZM22.75 0.5A0.25 0.25 0 0 1 22.5 0.75A0.25 0.25 0 0 1 22.25 0.5A0.25 0.25 0 0 1 22.5 0.25A0.25 0.25 0 0 1 22.75 0.5ZM14.75 1.5A0.25 0.25 0 0 1 14.5 1.75A0.25 0.25 0 0 1 14.25 1.5A0.25 0.25 0 0 1 14.5 1.25A0.25 0.25 0 0 1 14.75 1.5ZM15.75 1.5A0.25 0.25 0 0 1 15.5 1.75A0.25 0.25 0 0 1 15.25 1.5A0.25 0.25 0 0 1 15.5 1.25A0.25 0.25 0 0 1 15.75 1.5ZM18.75 1.5A0.25 0.25 0 0 1 18.5 1.75A0.25 0.25 0 0 1 18.25 1.5A0.25 0.25 0 0 1 18.5 1.25A0.25 0.25 0 0 1 18.75 1.5ZM21.75 1.5A0.25 0.25 0 0 1 21.5 1.75A0.25 0.25 0 0 1 21.25 1.5A0.25 0.25 0 0 1 21.5 1.25A0.25 0.25 0 0 1 21.75 1.5ZM24.75 1.5A0.25 0.25 0 0 1 24.5 1.75A0.25 0.25 0 0 1 24.25 1.5A0.25 0.25 0 0 1 24.5 1.25A0.25 0.25 0 0 1 24.75 1.5ZM8.75 2.5A0.25 0.25 0 0 1 8.5 2.75A0.25 0.25 0 0 1 8.25 2.5A0.25 0.25 0 0 1 8.5 2.25A0.25 0.25 0 0 1 8.75 2.5ZM9.75 2.5A0.25 0.25 0 0 1 9.5 2.75A0.25 0.25 0 0 1 9.25 2.5A0.25 0.25 0 0 1 9.5 2.25A0.25 0.25 0 0 1 9.75 2.5ZM10.75 2.5A0.25 0.25 0 0 1 10.5 2.75A0.25 0.25 0 0 1 10.25 2.5A0.25 0.25 0 0 1 10.5 2.25A0.25 0.25 0 0 1 10.75 2.5ZM13.75 2.5A0.25 0.25 0 0 1 13.5 2.75A0.25 0.25 0 0 1 13.25 2.5A0.25 0.25 0 0 1 13.5 2.25A0.25 0.25 0 0 1 13.75 2.5ZM14.75 2.5A0.25 0.25 0 0 1 14.5 2.75A0.25 0.25 0 0 1 14.25 2.5A0.25 0.25 0 0 1 14.5 2.25A0.25 0.25 0 0 1 14.75 2.5ZM15.75 2.5A0.25 0.25 0 0 1 15.5 2.75A0.25 0.25 0 0 1 15.25 2.5A0.25 0.25 0 0 1 15.5 2.25A0.25 0.25 0 0 1 15.75 2.5ZM16.75 2.5A0.25 0.25 0 0 1 16.5 2.75A0.25 0.25 0 0 1 16.25 2.5A0.25 0.25 0 0 1 16.5 2.25A0.25 0.25 0 0 1 16.75 2.5ZM17.75 2.5A0.25 0.25 0 0 1 17.5 2.75A0.25 0.25 0 0 1 17.25 2.5A0.25 0.25 0 0 1 17.5 2.25A0.25 0.25 0 0 1 17.75 2.5ZM18.75 2.5A0.25 0.25 0 0 1 18.5 2.75A0.25 0.25 0 0 1 18.25 2.5A0.25 0.25 0 0 1 18.5 2.25A0.25 0.25 0 0 1 18.75 2.5ZM20.75 2.5A0.25 0.25 0 0 1 20.5 2.75A0.25 0.25 0 0 1 20.25 2.5A0.25 0.25 0 0 1 20.5 2.25A0.25 0.25 0 0 1 20.75 2.5ZM21.75 2.5A0.25 0.25 0 0 1 21.5 2.75A0.25 0.25 0 0 1 21.25 2.5A0.25 0.25 0 0 1 21.5 2.25A0.25 0.25 0 0 1 21.75 2.5ZM23.75 2.5A0.25 0.25 0 0 1 23.5 2.75A0.25 0.25 0 0 1 23.25 2.5A0.25 0.25 0 0 1 23.5 2.25A0.25 0.25 0 0 1 23.75 2.5ZM24.75 2.5A0.25 0.25 0 0 1 24.5 2.75A0.25 0.25 0 0 1 24.25 2.5A0.25 0.25 0 0 1 24.5 2.25A0.25 0.25 0 0 1 24.75 2.5ZM8.75 3.5A0.25 0.25 0 0 1 8.5 3.75A0.25 0.25 0 0 1 8.25 3.5A0.25 0.25 0 0 1 8.5 3.25A0.25 0.25 0 0 1 8.75 3.5ZM9.75 3.5A0.25 0.25 0 0 1 9.5 3.75A0.25 0.25 0 0 1 9.25 3.5A0.25 0.25 0 0 1 9.5 3.25A0.25 0.25 0 0 1 9.75 3.5ZM11.75 3.5A0.25 0.25 0 0 1 11.5 3.75A0.25 0.25 0 0 1 11.25 3.5A0.25 0.25 0 0 1 11.5 3.25A0.25 0.25 0 0 1 11.75 3.5ZM12.75 3.5A0.25 0.25 0 0 1 12.5 3.75A0.25 0.25 0 0 1 12.25 3.5A0.25 0.25 0 0 1 12.5 3.25A0.25 0.25 0 0 1 12.75 3.5ZM14.75 3.5A0.25 0.25 0 0 1 14.5 3.75A0.25 0.25 0 0 1 14.25 3.5A0.25 0.25 0 0 1 14.5 3.25A0.25 0.25 0 0 1 14.75 3.5ZM17.75 3.5A0.25 0.25 0 0 1 17.5 3.75A0.25 0.25 0 0 1 17.25 3.5A0.25 0.25 0 0 1 17.5 3.25A0.25 0.25 0 0 1 17.75 3.5ZM20.75 3.5A0.25 0.25 0 0 1 20.5 3.75A0.25 0.25 0 0 1 20.25 3.5A0.25 0.25 0 0 1 20.5 3.25A0.25 0.25 0 0 1 20.75 3.5ZM21.75 3.5A0.25 0.25 0 0 1 21.5 3.75A0.25 0.25 0 0 1 21.25 3.5A0.25 0.25 0 0 1 21.5 3.25A0.25 0.25 0 0 1 21.75 3.5ZM22.75 3.5A0.25 0.25 0 0 1 22.5 3.75A0.25 0.25 0 0 1 22.25 3.5A0.25 0.25 0 0 1 22.5 3.25A0.25 0.25 0 0 1 22.75 3.5ZM23.75 3.5A0.25 0.25 0 0 1 23.5 3.75A0.25 0.25 0 0 1 23.25 3.5A0.25 0.25 0 0 1 23.5 3.25A0.25 0.25 0 0 1 23.75 3.5ZM24.75 3.5A0.25 0.25 0 0 1 24.5 3.75A0.25 0.25 0 0 1 24.25 3.5A0.25 0.25 0 0 1 24.5 3.25A0.25 0.25 0 0 1 24.75 3.5ZM9.75 4.5A0.25 0.25 0 0 1 9.5 4.75A0.25 0.25 0 0 1 9.25 4.5A0.25 0.25 0 0 1 9.5 4.25A0.25 0.25 0 0 1 9.75 4.5ZM11.75 4.5A0.25 0.25 0 0 1 11.5 4.75A0.25 0.25 0 0 1 11.25 4.5A0.25 0.25 0 0 1 11.5 4.25A0.25 0.25 0 0 1 11.75 4.5ZM13.75 4.5A0.25 0.25 0 0 1 13.5 4.75A0.25 0.25 0 0 1 13.25 4.5A0.25 0.25 0 0 1 13.5 4.25A0.25 0.25 0 0 1 13.75 4.5ZM14.75 4.5A0.25 0.25 0 0 1 14.5 4.75A0.25 0.25 0 0 1 14.25 4.5A0.25 0.25 0 0 1 14.5 4.25A0.25 0.25 0 0 1 14.75 4.5ZM16.75 4.5A0.25 0.25 0 0 1 16.5 4.75A0.25 0.25 0 0 1 16.25 4.5A0.25 0.25 0 0 1 16.5 4.25A0.25 0.25 0 0 1 16.75 4.5ZM17.75 4.5A0.25 0.25 0 0 1 17.5 4.75A0.25 0.25 0 0 1 17.25 4.5A0.25 0.25 0 0 1 17.5 4.25A0.25 0.25 0 0 1 17.75 4.5ZM18.75 4.5A0.25 0.25 0 0 1 18.5 4.75A0.25 0.25 0 0 1 18.25 4.5A0.25 0.25 0 0 1 18.5 4.25A0.25 0.25 0 0 1 18.75 4.5ZM19.75 4.5A0.25 0.25 0 0 1 19.5 4.75A0.25 0.25 0 0 1 19.25 4.5A0.25 0.25 0 0 1 19.5 4.25A0.25 0.25 0 0 1 19.75 4.5ZM22.75 4.5A0.25 0.25 0 0 1 22.5 4.75A0.25 0.25 0 0 1 22.25 4.5A0.25 0.25 0 0 1 22.5 4.25A0.25 0.25 0 0 1 22.75 4.5ZM23.75 4.5A0.25 0.25 0 0 1 23.5 4.75A0.25 0.25 0 0 1 23.25 4.5A0.25 0.25 0 0 1 23.5 4.25A0.25 0.25 0 0 1 23.75 4.5ZM10.75 5.5A0.25 0.25 0 0 1 10.5 5.75A0.25 0.25 0 0 1 10.25 5.5A0.25 0.25 0 0 1 10.5 5.25A0.25 0.25 0 0 1 10.75 5.5ZM11.75 5.5A0.25 0.25 0 0 1 11.5 5.75A0.25 0.25 0 0 1 11.25 5.5A0.25 0.25 0 0 1 11.5 5.25A0.25 0.25 0 0 1 11.75 5.5ZM13.75 5.5A0.25 0.25 0 0 1 13.5 5.75A0.25 0.25 0 0 1 13.25 5.5A0.25 0.25 0 0 1 13.5 5.25A0.25 0.25 0 0 1 13.75 5.5ZM14.75 5.5A0.25 0.25 0 0 1 14.5 5.75A0.25 0.25 0 0 1 14.25 5.5A0.25 0.25 0 0 1 14.5 5.25A0.25 0.25 0 0 1 14.75 5.5ZM20.75 5.5A0.25 0.25 0 0 1 20.5 5.75A0.25 0.25 0 0 1 20.25 5.5A0.25 0.25 0 0 1 20.5 5.25A0.25 0.25 0 0 1 20.75 5.5ZM22.75 5.5A0.25 0.25 0 0 1 22.5 5.75A0.25 0.25 0 0 1 22.25 5.5A0.25 0.25 0 0 1 22.5 5.25A0.25 0.25 0 0 1 22.75 5.5ZM24.75 5.5A0.25 0.25 0 0 1 24.5 5.75A0.25 0.25 0 0 1 24.25 5.5A0.25 0.25 0 0 1 24.5 5.25A0.25 0.25 0 0 1 24.75 5.5ZM8.75 6.5A0.25 0.25 0 0 1 8.5 6.75A0.25 0.25 0 0 1 8.25 6.5A0.25 0.25 0 0 1 8.5 6.25A0.25 0.25 0 0 1 8.75 6.5ZM10.75 6.5A0.25 0.25 0 0 1 10.5 6.75A0.25 0.25 0 0 1 10.25 6.5A0.25 0.25 0 0 1 10.5 6.25A0.25 0.25 0 0 1 10.75 6.5ZM12.75 6.5A0.25 0.25 0 0 1 12.5 6.75A0.25 0.25 0 0 1 12.25 6.5A0.25 0.25 0 0 1 12.5 6.25A0.25 0.25 0 0 1 12.75 6.5ZM14.75 6.5A0.25 0.25 0 0 1 14.5 6.75A0.25 0.25 0 0 1 14.25 6.5A0.25 0.25 0 0 1 14.5 6.25A0.25 0.25 0 0 1 14.75 6.5ZM16.75 6.5A0.25 0.25 0 0 1 16.5 6.75A0.25 0.25 0 0 1 16.25 6.5A0.25 0.25 0 0 1 16.5 6.25A0.25 0.25 0 0 1 16.75 6.5ZM18.75 6.5A0.25 0.25 0 0 1 18.5 6.75A0.25 0.25 0 0 1 18.25 6.5A0.25 0.25 0 0 1 18.5 6.25A0.25 0.25 0 0 1 18.75 6.5ZM20.75 6.5A0.25 0.25 0 0 1 20.5 6.75A0.25 0.25 0 0 1 20.25 6.5A0.25 0.25 0 0 1 20.5 6.25A0.25 0.25 0 0 1 20.75 6.5ZM22.75 6.5A0.25 0.25 0 0 1 22.5 6.75A0.25 0.25 0 0 1 22.25 6.5A0.25 0.25 0 0 1 22.5 6.25A0.25 0.25 0 0 1 22.75 6.5ZM24.75 6.5A0.25 0.25 0 0 1 24.5 6.75A0.25 0.25 0 0 1 24.25 6.5A0.25 0.25 0 0 1 24.5 6.25A0.25 0.25 0 0 1 24.75 6.5ZM9.75 7.5A0.25 0.25 0 0 1 9.5 7.75A0.25 0.25 0 0 1 9.25 7.5A0.25 0.25 0 0 1 9.5 7.25A0.25 0.25 0 0 1 9.75 7.5ZM11.75 7.5A0.25 0.25 0 0 1 11.5 7.75A0.25 0.25 0 0 1 11.25 7.5A0.25 0.25 0 0 1 11.5 7.25A0.25 0.25 0 0 1 11.75 7.5ZM15.75 7.5A0.25 0.25 0 0 1 15.5 7.75A0.25 0.25 0 0 1 15.25 7.5A0.25 0.25 0 0 1 15.5 7.25A0.25 0.25 0 0 1 15.75 7.5ZM17.75 7.5A0.25 0.25 0 0 1 17.5 7.75A0.25 0.25 0 0 1 17.25 7.5A0.25 0.25 0 0 1 17.5 7.25A0.25 0.25 0 0 1 17.75 7.5ZM19.75 7.5A0.25 0.25 0 0 1 19.5 7.75A0.25 0.25 0 0 1 19.25 7.5A0.25 0.25 0 0 1 19.5 7.25A0.25 0.25 0 0 1 19.75 7.5ZM20.75 7.5A0.25 0.25 0 0 1 20.5 7.75A0.25 0.25 0 0 1 20.25 7.5A0.25 0.25 0 0 1 20.5 7.25A0.25 0.25 0 0 1 20.75 7.5ZM22.75 7.5A0.25 0.25 0 0 1 22.5 7.75A0.25 0.25 0 0 1 22.25 7.5A0.25 0.25 0 0 1 22.5 7.25A0.25 0.25 0 0 1 22.75 7.5ZM23.75 7.5A0.25 0.25 0 0 1 23.5 7.75A0.25 0.25 0 0 1 23.25 7.5A0.25 0.25 0 0 1 23.5 7.25A0.25 0.25 0 0 1 23.75 7.5ZM3.75 8.5A0.25 0.25 0 0 1 3.5 8.75A0.25 0.25 0 0 1 3.25 8.5A0.25 0.25 0 0 1 3.5 8.25A0.25 0.25 0 0 1 3.75 8.5ZM4.75 8.5A0.25 0.25 0 0 1 4.5 8.75A0.25 0.25 0 0 1 4.25 8.5A0.25 0.25 0 0 1 4.5 8.25A0.25 0.25 0 0 1 4.75 8.5ZM6.75 8.5A0.25 0.25 0 0 1 6.5 8.75A0.25 0.25 0 0 1 6.25 8.5A0.25 0.25 0 0 1 6.5 8.25A0.25 0.25 0 0 1 6.75 8.5ZM7.75 8.5A0.25 0.25 0 0 1 7.5 8.75A0.25 0.25 0 0 1 7.25 8.5A0.25 0.25 0 0 1 7.5 8.25A0.25 0.25 0 0 1 7.75 8.5ZM9.75 8.5A0.25 0.25 0 0 1 9.5 8.75A0.25 0.25 0 0 1 9.25 8.5A0.25 0.25 0 0 1 9.5 8.25A0.25 0.25 0 0 1 9.75 8.5ZM10.75 8.5A0.25 0.25 0 0 1 10.5 8.75A0.25 0.25 0 0 1 10.25 8.5A0.25 0.25 0 0 1 10.5 8.25A0.25 0.25 0 0 1 10.75 8.5ZM12.75 8.5A0.25 0.25 0 0 1 12.5 8.75A0.25 0.25 0 0 1 12.25 8.5A0.25 0.25 0 0 1 12.5 8.25A0.25 0.25 0 0 1 12.75 8.5ZM13.75 8.5A0.25 0.25 0 0 1 13.5 8.75A0.25 0.25 0 0 1 13.25 8.5A0.25 0.25 0 0 1 13.5 8.25A0.25 0.25 0 0 1 13.75 8.5ZM14.75 8.5A0.25 0.25 0 0 1 14.5 8.75A0.25 0.25 0 0 1 14.25 8.5A0.25 0.25 0 0 1 14.5 8.25A0.25 0.25 0 0 1 14.75 8.5ZM17.75 8.5A0.25 0.25 0 0 1 17.5 8.75A0.25 0.25 0 0 1 17.25 8.5A0.25 0.25 0 0 1 17.5 8.25A0.25 0.25 0 0 1 17.75 8.5ZM18.75 8.5A0.25 0.25 0 0 1 18.5 8.75A0.25 0.25 0 0 1 18.25 8.5A0.25 0.25 0 0 1 18.5 8.25A0.25 0.25 0 0 1 18.75 8.5ZM19.75 8.5A0.25 0.25 0 0 1 19.5 8.75A0.25 0.25 0 0 1 19.25 8.5A0.25 0.25 0 0 1 19.5 8.25A0.25 0.25 0 0 1 19.75 8.5ZM20.75 8.5A0.25 0.25 0 0 1 20.5 8.75A0.25 0.25 0 0 1 20.25 8.5A0.25 0.25 0 0 1 20.5 8.25A0.25 0.25 0 0 1 20.75 8.5ZM22.75 8.5A0.25 0.25 0 0 1 22.5 8.75A0.25 0.25 0 0 1 22.25 8.5A0.25 0.25 0 0 1 22.5 8.25A0.25 0.25 0 0 1 22.75 8.5ZM23.75 8.5A0.25 0.25 0 0 1 23.5 8.75A0.25 0.25 0 0 1 23.25 8.5A0.25 0.25 0 0 1 23.5 8.25A0.25 0.25 0 0 1 23.75 8.5ZM29.75 8.5A0.25 0.25 0 0 1 29.5 8.75A0.25 0.25 0 0 1 29.25 8.5A0.25 0.25 0 0 1 29.5 8.25A0.25 0.25 0 0 1 29.75 8.5ZM30.75 8.5A0.25 0.25 0 0 1 30.5 8.75A0.25 0.25 0 0 1 30.25 8.5A0.25 0.25 0 0 1 30.5 8.25A0.25 0.25 0 0 1 30.75 8.5ZM2.75 9.5A0.25 0.25 0 0 1 2.5 9.75A0.25 0.25 0 0 1 2.25 9.5A0.25 0.25 0 0 1 2.5 9.25A0.25 0.25 0 0 1 2.75 9.5ZM3.75 9.5A0.25 0.25 0 0 1 3.5 9.75A0.25 0.25 0 0 1 3.25 9.5A0.25 0.25 0 0 1 3.5 9.25A0.25 0.25 0 0 1 3.75 9.5ZM8.75 9.5A0.25 0.25 0 0 1 8.5 9.75A0.25 0.25 0 0 1 8.25 9.5A0.25 0.25 0 0 1 8.5 9.25A0.25 0.25 0 0 1 8.75 9.5ZM10.75 9.5A0.25 0.25 0 0 1 10.5 9.75A0.25 0.25 0 0 1 10.25 9.5A0.25 0.25 0 0 1 10.5 9.25A0.25 0.25 0 0 1 10.75 9.5ZM11.75 9.5A0.25 0.25 0 0 1 11.5 9.75A0.25 0.25 0 0 1 11.25 9.5A0.25 0.25 0 0 1 11.5 9.25A0.25 0.25 0 0 1 11.75 9.5ZM15.75 9.5A0.25 0.25 0 0 1 15.5 9.75A0.25 0.25 0 0 1 15.25 9.5A0.25 0.25 0 0 1 15.5 9.25A0.25 0.25 0 0 1 15.75 9.5ZM20.75 9.5A0.25 0.25 0 0 1 20.5 9.75A0.25 0.25 0 0 1 20.25 9.5A0.25 0.25 0 0 1 20.5 9.25A0.25 0.25 0 0 1 20.75 9.5ZM23.75 9.5A0.25 0.25 0 0 1 23.5 9.75A0.25 0.25 0 0 1 23.25 9.5A0.25 0.25 0 0 1 23.5 9.25A0.25 0.25 0 0 1 23.75 9.5ZM24.75 9.5A0.25 0.25 0 0 1 24.5 9.75A0.25 0.25 0 0 1 24.25 9.5A0.25 0.25 0 0 1 24.5 9.25A0.25 0.25 0 0 1 24.75 9.5ZM27.75 9.5A0.25 0.25 0 0 1 27.5 9.75A0.25 0.25 0 0 1 27.25 9.5A0.25 0.25 0 0 1 27.5 9.25A0.25 0.25 0 0 1 27.75 9.5ZM28.75 9.5A0.25 0.25 0 0 1 28.5 9.75A0.25 0.25 0 0 1 28.25 9.5A0.25 0.25 0 0 1 28.5 9.25A0.25 0.25 0 0 1 28.75 9.5ZM30.75 9.5A0.25 0.25 0 0 1 30.5 9.75A0.25 0.25 0 0 1 30.25 9.5A0.25 0.25 0 0 1 30.5 9.25A0.25 0.25 0 0 1 30.75 9.5ZM31.75 9.5A0.25 0.25 0 0 1 31.5 9.75A0.25 0.25 0 0 1 31.25 9.5A0.25 0.25 0 0 1 31.5 9.25A0.25 0.25 0 0 1 31.75 9.5ZM0.75 10.5A0.25 0.25 0 0 1 0.5 10.75A0.25 0.25 0 0 1 0.25 10.5A0.25 0.25 0 0 1 0.5 10.25A0.25 0.25 0 0 1 0.75 10.5ZM1.75 10.5A0.25 0.25 0 0 1 1.5 10.75A0.25 0.25 0 0 1 1.25 10.5A0.25 0.25 0 0 1 1.5 10.25A0.25 0.25 0 0 1 1.75 10.5ZM2.75 10.5A0.25 0.25 0 0 1 2.5 10.75A0.25 0.25 0 0 1 2.25 10.5A0.25 0.25 0 0 1 2.5 10.25A0.25 0.25 0 0 1 2.75 10.5ZM5.75 10.5A0.25 0.25 0 0 1 5.5 10.75A0.25 0.25 0 0 1 5.25 10.5A0.25 0.25 0 0 1 5.5 10.25A0.25 0.25 0 0 1 5.75 10.5ZM6.75 10.5A0.25 0.25 0 0 1 6.5 10.75A0.25 0.25 0 0 1 6.25 10.5A0.25 0.25 0 0 1 6.5 10.25A0.25 0.25 0 0 1 6.75 10.5ZM9.75 10.5A0.25 0.25 0 0 1 9.5 10.75A0.25 0.25 0 0 1 9.25 10.5A0.25 0.25 0 0 1 9.5 10.25A0.25 0.25 0 0 1 9.75 10.5ZM10.75 10.5A0.25 0.25 0 0 1 10.5 10.75A0.25 0.25 0 0 1 10.25 10.5A0.25 0.25 0 0 1 10.5 10.25A0.25 0.25 0 0 1 10.75 10.5ZM11.75 10.5A0.25 0.25 0 0 1 11.5 10.75A0.25 0.25 0 0 1 11.25 10.5A0.25 0.25 0 0 1 11.5 10.25A0.25 0.25 0 0 1 11.75 10.5ZM13.75 10.5A0.25 0.25 0 0 1 13.5 10.75A0.25 0.25 0 0 1 13.25 10.5A0.25 0.25 0 0 1 13.5 10.25A0.25 0.25 0 0 1 13.75 10.5ZM14.75 10.5A0.25 0.25 0 0 1 14.5 10.75A0.25 0.25 0 0 1 14.25 10.5A0.25 0.25 0 0 1 14.5 10.25A0.25 0.25 0 0 1 14.75 10.5ZM15.75 10.5A0.25 0.25 0 0 1 15.5 10.75A0.25 0.25 0 0 1 15.25 10.5A0.25 0.25 0 0 1 15.5 10.25A0.25 0.25 0 0 1 15.75 10.5ZM16.75 10.5A0.25 0.25 0 0 1 16.5 10.75A0.25 0.25 0 0 1 16.25 10.5A0.25 0.25 0 0 1 16.5 10.25A0.25 0.25 0 0 1 16.75 10.5ZM17.75 10.5A0.25 0.25 0 0 1 17.5 10.75A0.25 0.25 0 0 1 17.25 10.5A0.25 0.25 0 0 1 17.5 10.25A0.25 0.25 0 0 1 17.75 10.5ZM19.75 10.5A0.25 0.25 0 0 1 19.5 10.75A0.25 0.25 0 0 1 19.25 10.5A0.25 0.25 0 0 1 19.5 10.25A0.25 0.25 0 0 1 19.75 10.5ZM21.75 10.5A0.25 0.25 0 0 1 21.5 10.75A0.25 0.25 0 0 1 21.25 10.5A0.25 0.25 0 0 1 21.5 10.25A0.25 0.25 0 0 1 21.75 10.5ZM23.75 10.5A0.25 0.25 0 0 1 23.5 10.75A0.25 0.25 0 0 1 23.25 10.5A0.25 0.25 0 0 1 23.5 10.25A0.25 0.25 0 0 1 23.75 10.5ZM24.75 10.5A0.25 0.25 0 0 1 24.5 10.75A0.25 0.25 0 0 1 24.25 10.5A0.25 0.25 0 0 1 24.5 10.25A0.25 0.25 0 0 1 24.75 10.5ZM26.75 10.5A0.25 0.25 0 0 1 26.5 10.75A0.25 0.25 0 0 1 26.25 10.5A0.25 0.25 0 0 1 26.5 10.25A0.25 0.25 0 0 1 26.75 10.5ZM27.75 10.5A0.25 0.25 0 0 1 27.5 10.75A0.25 0.25 0 0 1 27.25 10.5A0.25 0.25 0 0 1 27.5 10.25A0.25 0.25 0 0 1 27.75 10.5ZM29.75 10.5A0.25 0.25 0 0 1 29.5 10.75A0.25 0.25 0 0 1 29.25 10.5A0.25 0.25 0 0 1 29.5 10.25A0.25 0.25 0 0 1 29.75 10.5ZM31.75 10.5A0.25 0.25 0 0 1 31.5 10.75A0.25 0.25 0 0 1 31.25 10.5A0.25 0.25 0 0 1 31.5 10.25A0.25 0.25 0 0 1 31.75 10.5ZM32.75 10.5A0.25 0.25 0 0 1 32.5 10.75A0.25 0.25 0 0 1 32.25 10.5A0.25 0.25 0 0 1 32.5 10.25A0.25 0.25 0 0 1 32.75 10.5ZM0.75 11.5A0.25 0.25 0 0 1 0.5 11.75A0.25 0.25 0 0 1 0.25 11.5A0.25 0.25 0 0 1 0.5 11.25A0.25 0.25 0 0 1 0.75 11.5ZM1.75 11.5A0.25 0.25 0 0 1 1.5 11.75A0.25 0.25 0 0 1 1.25 11.5A0.25 0.25 0 0 1 1.5 11.25A0.25 0.25 0 0 1 1.75 11.5ZM3.75 11.5A0.25 0.25 0 0 1 3.5 11.75A0.25 0.25 0 0 1 3.25 11.5A0.25 0.25 0 0 1 3.5 11.25A0.25 0.25 0 0 1 3.75 11.5ZM10.75 11.5A0.25 0.25 0 0 1 10.5 11.75A0.25 0.25 0 0 1 10.25 11.5A0.25 0.25 0 0 1 10.5 11.25A0.25 0.25 0 0 1 10.75 11.5ZM11.75 11.5A0.25 0.25 0 0 1 11.5 11.75A0.25 0.25 0 0 1 11.25 11.5A0.25 0.25 0 0 1 11.5 11.25A0.25 0.25 0 0 1 11.75 11.5ZM12.75 11.5A0.25 0.25 0 0 1 12.5 11.75A0.25 0.25 0 0 1 12.25 11.5A0.25 0.25 0 0 1 12.5 11.25A0.25 0.25 0 0 1 12.75 11.5ZM13.75 11.5A0.25 0.25 0 0 1 13.5 11.75A0.25 0.25 0 0 1 13.25 11.5A0.25 0.25 0 0 1 13.5 11.25A0.25 0.25 0 0 1 13.75 11.5ZM14.75 11.5A0.25 0.25 0 0 1 14.5 11.75A0.25 0.25 0 0 1 14.25 11.5A0.25 0.25 0 0 1 14.5 11.25A0.25 0.25 0 0 1 14.75 11.5ZM15.75 11.5A0.25 0.25 0 0 1 15.5 11.75A0.25 0.25 0 0 1 15.25 11.5A0.25 0.25 0 0 1 15.5 11.25A0.25 0.25 0 0 1 15.75 11.5ZM17.75 11.5A0.25 0.25 0 0 1 17.5 11.75A0.25 0.25 0 0 1 17.25 11.5A0.25 0.25 0 0 1 17.5 11.25A0.25 0.25 0 0 1 17.75 11.5ZM18.75 11.5A0.25 0.25 0 0 1 18.5 11.75A0.25 0.25 0 0 1 18.25 11.5A0.25 0.25 0 0 1 18.5 11.25A0.25 0.25 0 0 1 18.75 11.5ZM19.75 11.5A0.25 0.25 0 0 1 19.5 11.75A0.25 0.25 0 0 1 19.25 11.5A0.25 0.25 0 0 1 19.5 11.25A0.25 0.25 0 0 1 19.75 11.5ZM20.75 11.5A0.25 0.25 0 0 1 20.5 11.75A0.25 0.25 0 0 1 20.25 11.5A0.25 0.25 0 0 1 20.5 11.25A0.25 0.25 0 0 1 20.75 11.5ZM24.75 11.5A0.25 0.25 0 0 1 24.5 11.75A0.25 0.25 0 0 1 24.25 11.5A0.25 0.25 0 0 1 24.5 11.25A0.25 0.25 0 0 1 24.75 11.5ZM26.75 11.5A0.25 0.25 0 0 1 26.5 11.75A0.25 0.25 0 0 1 26.25 11.5A0.25 0.25 0 0 1 26.5 11.25A0.25 0.25 0 0 1 26.75 11.5ZM29.75 11.5A0.25 0.25 0 0 1 29.5 11.75A0.25 0.25 0 0 1 29.25 11.5A0.25 0.25 0 0 1 29.5 11.25A0.25 0.25 0 0 1 29.75 11.5ZM30.75 11.5A0.25 0.25 0 0 1 30.5 11.75A0.25 0.25 0 0 1 30.25 11.5A0.25 0.25 0 0 1 30.5 11.25A0.25 0.25 0 0 1 30.75 11.5ZM32.75 11.5A0.25 0.25 0 0 1 32.5 11.75A0.25 0.25 0 0 1 32.25 11.5A0.25 0.25 0 0 1 32.5 11.25A0.25 0.25 0 0 1 32.75 11.5ZM0.75 12.5A0.25 0.25 0 0 1 0.5 12.75A0.25 0.25 0 0 1 0.25 12.5A0.25 0.25 0 0 1 0.5 12.25A0.25 0.25 0 0 1 0.75 12.5ZM1.75 12.5A0.25 0.25 0 0 1 1.5 12.75A0.25 0.25 0 0 1 1.25 12.5A0.25 0.25 0 0 1 1.5 12.25A0.25 0.25 0 0 1 1.75 12.5ZM2.75 12.5A0.25 0.25 0 0 1 2.5 12.75A0.25 0.25 0 0 1 2.25 12.5A0.25 0.25 0 0 1 2.5 12.25A0.25 0.25 0 0 1 2.75 12.5ZM6.75 12.5A0.25 0.25 0 0 1 6.5 12.75A0.25 0.25 0 0 1 6.25 12.5A0.25 0.25 0 0 1 6.5 12.25A0.25 0.25 0 0 1 6.75 12.5ZM10.75 12.5A0.25 0.25 0 0 1 10.5 12.75A0.25 0.25 0 0 1 10.25 12.5A0.25 0.25 0 0 1 10.5 12.25A0.25 0.25 0 0 1 10.75 12.5ZM16.75 12.5A0.25 0.25 0 0 1 16.5 12.75A0.25 0.25 0 0 1 16.25 12.5A0.25 0.25 0 0 1 16.5 12.25A0.25 0.25 0 0 1 16.75 12.5ZM18.75 12.5A0.25 0.25 0 0 1 18.5 12.75A0.25 0.25 0 0 1 18.25 12.5A0.25 0.25 0 0 1 18.5 12.25A0.25 0.25 0 0 1 18.75 12.5ZM19.75 12.5A0.25 0.25 0 0 1 19.5 12.75A0.25 0.25 0 0 1 19.25 12.5A0.25 0.25 0 0 1 19.5 12.25A0.25 0.25 0 0 1 19.75 12.5ZM21.75 12.5A0.25 0.25 0 0 1 21.5 12.75A0.25 0.25 0 0 1 21.25 12.5A0.25 0.25 0 0 1 21.5 12.25A0.25 0.25 0 0 1 21.75 12.5ZM22.75 12.5A0.25 0.25 0 0 1 22.5 12.75A0.25 0.25 0 0 1 22.25 12.5A0.25 0.25 0 0 1 22.5 12.25A0.25 0.25 0 0 1 22.75 12.5ZM23.75 12.5A0.25 0.25 0 0 1 23.5 12.75A0.25 0.25 0 0 1 23.25 12.5A0.25 0.25 0 0 1 23.5 12.25A0.25 0.25 0 0 1 23.75 12.5ZM26.75 12.5A0.25 0.25 0 0 1 26.5 12.75A0.25 0.25 0 0 1 26.25 12.5A0.25 0.25 0 0 1 26.5 12.25A0.25 0.25 0 0 1 26.75 12.5ZM28.75 12.5A0.25 0.25 0 0 1 28.5 12.75A0.25 0.25 0 0 1 28.25 12.5A0.25 0.25 0 0 1 28.5 12.25A0.25 0.25 0 0 1 28.75 12.5ZM0.75 13.5A0.25 0.25 0 0 1 0.5 13.75A0.25 0.25 0 0 1 0.25 13.5A0.25 0.25 0 0 1 0.5 13.25A0.25 0.25 0 0 1 0.75 13.5ZM1.75 13.5A0.25 0.25 0 0 1 1.5 13.75A0.25 0.25 0 0 1 1.25 13.5A0.25 0.25 0 0 1 1.5 13.25A0.25 0.25 0 0 1 1.75 13.5ZM2.75 13.5A0.25 0.25 0 0 1 2.5 13.75A0.25 0.25 0 0 1 2.25 13.5A0.25 0.25 0 0 1 2.5 13.25A0.25 0.25 0 0 1 2.75 13.5ZM3.75 13.5A0.25 0.25 0 0 1 3.5 13.75A0.25 0.25 0 0 1 3.25 13.5A0.25 0.25 0 0 1 3.5 13.25A0.25 0.25 0 0 1 3.75 13.5ZM4.75 13.5A0.25 0.25 0 0 1 4.5 13.75A0.25 0.25 0 0 1 4.25 13.5A0.25 0.25 0 0 1 4.5 13.25A0.25 0.25 0 0 1 4.75 13.5ZM5.75 13.5A0.25 0.25 0 0 1 5.5 13.75A0.25 0.25 0 0 1 5.25 13.5A0.25 0.25 0 0 1 5.5 13.25A0.25 0.25 0 0 1 5.75 13.5ZM7.75 13.5A0.25 0.25 0 0 1 7.5 13.75A0.25 0.25 0 0 1 7.25 13.5A0.25 0.25 0 0 1 7.5 13.25A0.25 0.25 0 0 1 7.75 13.5ZM10.75 13.5A0.25 0.25 0 0 1 10.5 13.75A0.25 0.25 0 0 1 10.25 13.5A0.25 0.25 0 0 1 10.5 13.25A0.25 0.25 0 0 1 10.75 13.5ZM13.75 13.5A0.25 0.25 0 0 1 13.5 13.75A0.25 0.25 0 0 1 13.25 13.5A0.25 0.25 0 0 1 13.5 13.25A0.25 0.25 0 0 1 13.75 13.5ZM15.75 13.5A0.25 0.25 0 0 1 15.5 13.75A0.25 0.25 0 0 1 15.25 13.5A0.25 0.25 0 0 1 15.5 13.25A0.25 0.25 0 0 1 15.75 13.5ZM16.75 13.5A0.25 0.25 0 0 1 16.5 13.75A0.25 0.25 0 0 1 16.25 13.5A0.25 0.25 0 0 1 16.5 13.25A0.25 0.25 0 0 1 16.75 13.5ZM18.75 13.5A0.25 0.25 0 0 1 18.5 13.75A0.25 0.25 0 0 1 18.25 13.5A0.25 0.25 0 0 1 18.5 13.25A0.25 0.25 0 0 1 18.75 13.5ZM20.75 13.5A0.25 0.25 0 0 1 20.5 13.75A0.25 0.25 0 0 1 20.25 13.5A0.25 0.25 0 0 1 20.5 13.25A0.25 0.25 0 0 1 20.75 13.5ZM21.75 13.5A0.25 0.25 0 0 1 21.5 13.75A0.25 0.25 0 0 1 21.25 13.5A0.25 0.25 0 0 1 21.5 13.25A0.25 0.25 0 0 1 21.75 13.5ZM22.75 13.5A0.25 0.25 0 0 1 22.5 13.75A0.25 0.25 0 0 1 22.25 13.5A0.25 0.25 0 0 1 22.5 13.25A0.25 0.25 0 0 1 22.75 13.5ZM23.75 13.5A0.25 0.25 0 0 1 23.5 13.75A0.25 0.25 0 0 1 23.25 13.5A0.25 0.25 0 0 1 23.5 13.25A0.25 0.25 0 0 1 23.75 13.5ZM24.75 13.5A0.25 0.25 0 0 1 24.5 13.75A0.25 0.25 0 0 1 24.25 13.5A0.25 0.25 0 0 1 24.5 13.25A0.25 0.25 0 0 1 24.75 13.5ZM26.75 13.5A0.25 0.25 0 0 1 26.5 13.75A0.25 0.25 0 0 1 26.25 13.5A0.25 0.25 0 0 1 26.5 13.25A0.25 0.25 0 0 1 26.75 13.5ZM29.75 13.5A0.25 0.25 0 0 1 29.5 13.75A0.25 0.25 0 0 1 29.25 13.5A0.25 0.25 0 0 1 29.5 13.25A0.25 0.25 0 0 1 29.75 13.5ZM30.75 13.5A0.25 0.25 0 0 1 30.5 13.75A0.25 0.25 0 0 1 30.25 13.5A0.25 0.25 0 0 1 30.5 13.25A0.25 0.25 0 0 1 30.75 13.5ZM31.75 13.5A0.25 0.25 0 0 1 31.5 13.75A0.25 0.25 0 0 1 31.25 13.5A0.25 0.25 0 0 1 31.5 13.25A0.25 0.25 0 0 1 31.75 13.5ZM32.75 13.5A0.25 0.25 0 0 1 32.5 13.75A0.25 0.25 0 0 1 32.25 13.5A0.25 0.25 0 0 1 32.5 13.25A0.25 0.25 0 0 1 32.75 13.5ZM0.75 14.5A0.25 0.25 0 0 1 0.5 14.75A0.25 0.25 0 0 1 0.25 14.5A0.25 0.25 0 0 1 0.5 14.25A0.25 0.25 0 0 1 0.75 14.5ZM1.75 14.5A0.25 0.25 0 0 1 1.5 14.75A0.25 0.25 0 0 1 1.25 14.5A0.25 0.25 0 0 1 1.5 14.25A0.25 0.25 0 0 1 1.75 14.5ZM6.75 14.5A0.25 0.25 0 0 1 6.5 14.75A0.25 0.25 0 0 1 6.25 14.5A0.25 0.25 0 0 1 6.5 14.25A0.25 0.25 0 0 1 6.75 14.5ZM8.75 14.5A0.25 0.25 0 0 1 8.5 14.75A0.25 0.25 0 0 1 8.25 14.5A0.25 0.25 0 0 1 8.5 14.25A0.25 0.25 0 0 1 8.75 14.5ZM9.75 14.5A0.25 0.25 0 0 1 9.5 14.75A0.25 0.25 0 0 1 9.25 14.5A0.25 0.25 0 0 1 9.5 14.25A0.25 0.25 0 0 1 9.75 14.5ZM10.75 14.5A0.25 0.25 0 0 1 10.5 14.75A0.25 0.25 0 0 1 10.25 14.5A0.25 0.25 0 0 1 10.5 14.25A0.25 0.25 0 0 1 10.75 14.5ZM13.75 14.5A0.25 0.25 0 0 1 13.5 14.75A0.25 0.25 0 0 1 13.25 14.5A0.25 0.25 0 0 1 13.5 14.25A0.25 0.25 0 0 1 13.75 14.5ZM17.75 14.5A0.25 0.25 0 0 1 17.5 14.75A0.25 0.25 0 0 1 17.25 14.5A0.25 0.25 0 0 1 17.5 14.25A0.25 0.25 0 0 1 17.75 14.5ZM18.75 14.5A0.25 0.25 0 0 1 18.5 14.75A0.25 0.25 0 0 1 18.25 14.5A0.25 0.25 0 0 1 18.5 14.25A0.25 0.25 0 0 1 18.75 14.5ZM24.75 14.5A0.25 0.25 0 0 1 24.5 14.75A0.25 0.25 0 0 1 24.25 14.5A0.25 0.25 0 0 1 24.5 14.25A0.25 0.25 0 0 1 24.75 14.5ZM25.75 14.5A0.25 0.25 0 0 1 25.5 14.75A0.25 0.25 0 0 1 25.25 14.5A0.25 0.25 0 0 1 25.5 14.25A0.25 0.25 0 0 1 25.75 14.5ZM26.75 14.5A0.25 0.25 0 0 1 26.5 14.75A0.25 0.25 0 0 1 26.25 14.5A0.25 0.25 0 0 1 26.5 14.25A0.25 0.25 0 0 1 26.75 14.5ZM28.75 14.5A0.25 0.25 0 0 1 28.5 14.75A0.25 0.25 0 0 1 28.25 14.5A0.25 0.25 0 0 1 28.5 14.25A0.25 0.25 0 0 1 28.75 14.5ZM29.75 14.5A0.25 0.25 0 0 1 29.5 14.75A0.25 0.25 0 0 1 29.25 14.5A0.25 0.25 0 0 1 29.5 14.25A0.25 0.25 0 0 1 29.75 14.5ZM30.75 14.5A0.25 0.25 0 0 1 30.5 14.75A0.25 0.25 0 0 1 30.25 14.5A0.25 0.25 0 0 1 30.5 14.25A0.25 0.25 0 0 1 30.75 14.5ZM1.75 15.5A0.25 0.25 0 0 1 1.5 15.75A0.25 0.25 0 0 1 1.25 15.5A0.25 0.25 0 0 1 1.5 15.25A0.25 0.25 0 0 1 1.75 15.5ZM2.75 15.5A0.25 0.25 0 0 1 2.5 15.75A0.25 0.25 0 0 1 2.25 15.5A0.25 0.25 0 0 1 2.5 15.25A0.25 0.25 0 0 1 2.75 15.5ZM3.75 15.5A0.25 0.25 0 0 1 3.5 15.75A0.25 0.25 0 0 1 3.25 15.5A0.25 0.25 0 0 1 3.5 15.25A0.25 0.25 0 0 1 3.75 15.5ZM4.75 15.5A0.25 0.25 0 0 1 4.5 15.75A0.25 0.25 0 0 1 4.25 15.5A0.25 0.25 0 0 1 4.5 15.25A0.25 0.25 0 0 1 4.75 15.5ZM7.75 15.5A0.25 0.25 0 0 1 7.5 15.75A0.25 0.25 0 0 1 7.25 15.5A0.25 0.25 0 0 1 7.5 15.25A0.25 0.25 0 0 1 7.75 15.5ZM8.75 15.5A0.25 0.25 0 0 1 8.5 15.75A0.25 0.25 0 0 1 8.25 15.5A0.25 0.25 0 0 1 8.5 15.25A0.25 0.25 0 0 1 8.75 15.5ZM9.75 15.5A0.25 0.25 0 0 1 9.5 15.75A0.25 0.25 0 0 1 9.25 15.5A0.25 0.25 0 0 1 9.5 15.25A0.25 0.25 0 0 1 9.75 15.5ZM10.75 15.5A0.25 0.25 0 0 1 10.5 15.75A0.25 0.25 0 0 1 10.25 15.5A0.25 0.25 0 0 1 10.5 15.25A0.25 0.25 0 0 1 10.75 15.5ZM12.75 15.5A0.25 0.25 0 0 1 12.5 15.75A0.25 0.25 0 0 1 12.25 15.5A0.25 0.25 0 0 1 12.5 15.25A0.25 0.25 0 0 1 12.75 15.5ZM14.75 15.5A0.25 0.25 0 0 1 14.5 15.75A0.25 0.25 0 0 1 14.25 15.5A0.25 0.25 0 0 1 14.5 15.25A0.25 0.25 0 0 1 14.75 15.5ZM20.75 15.5A0.25 0.25 0 0 1 20.5 15.75A0.25 0.25 0 0 1 20.25 15.5A0.25 0.25 0 0 1 20.5 15.25A0.25 0.25 0 0 1 20.75 15.5ZM26.75 15.5A0.25 0.25 0 0 1 26.5 15.75A0.25 0.25 0 0 1 26.25 15.5A0.25 0.25 0 0 1 26.5 15.25A0.25 0.25 0 0 1 26.75 15.5ZM28.75 15.5A0.25 0.25 0 0 1 28.5 15.75A0.25 0.25 0 0 1 28.25 15.5A0.25 0.25 0 0 1 28.5 15.25A0.25 0.25 0 0 1 28.75 15.5ZM30.75 15.5A0.25 0.25 0 0 1 30.5 15.75A0.25 0.25 0 0 1 30.25 15.5A0.25 0.25 0 0 1 30.5 15.25A0.25 0.25 0 0 1 30.75 15.5ZM31.75 15.5A0.25 0.25 0 0 1 31.5 15.75A0.25 0.25 0 0 1 31.25 15.5A0.25 0.25 0 0 1 31.5 15.25A0.25 0.25 0 0 1 31.75 15.5ZM5.75 16.5A0.25 0.25 0 0 1 5.5 16.75A0.25 0.25 0 0 1 5.25 16.5A0.25 0.25 0 0 1 5.5 16.25A0.25 0.25 0 0 1 5.75 16.5ZM6.75 16.5A0.25 0.25 0 0 1 6.5 16.75A0.25 0.25 0 0 1 6.25 16.5A0.25 0.25 0 0 1 6.5 16.25A0.25 0.25 0 0 1 6.75 16.5ZM7.75 16.5A0.25 0.25 0 0 1 7.5 16.75A0.25 0.25 0 0 1 7.25 16.5A0.25 0.25 0 0 1 7.5 16.25A0.25 0.25 0 0 1 7.75 16.5ZM9.75 16.5A0.25 0.25 0 0 1 9.5 16.75A0.25 0.25 0 0 1 9.25 16.5A0.25 0.25 0 0 1 9.5 16.25A0.25 0.25 0 0 1 9.75 16.5ZM10.75 16.5A0.25 0.25 0 0 1 10.5 16.75A0.25 0.25 0 0 1 10.25 16.5A0.25 0.25 0 0 1 10.5 16.25A0.25 0.25 0 0 1 10.75 16.5ZM11.75 16.5A0.25 0.25 0 0 1 11.5 16.75A0.25 0.25 0 0 1 11.25 16.5A0.25 0.25 0 0 1 11.5 16.25A0.25 0.25 0 0 1 11.75 16.5ZM12.75 16.5A0.25 0.25 0 0 1 12.5 16.75A0.25 0.25 0 0 1 12.25 16.5A0.25 0.25 0 0 1 12.5 16.25A0.25 0.25 0 0 1 12.75 16.5ZM16.75 16.5A0.25 0.25 0 0 1 16.5 16.75A0.25 0.25 0 0 1 16.25 16.5A0.25 0.25 0 0 1 16.5 16.25A0.25 0.25 0 0 1 16.75 16.5ZM19.75 16.5A0.25 0.25 0 0 1 19.5 16.75A0.25 0.25 0 0 1 19.25 16.5A0.25 0.25 0 0 1 19.5 16.25A0.25 0.25 0 0 1 19.75 16.5ZM22.75 16.5A0.25 0.25 0 0 1 22.5 16.75A0.25 0.25 0 0 1 22.25 16.5A0.25 0.25 0 0 1 22.5 16.25A0.25 0.25 0 0 1 22.75 16.5ZM23.75 16.5A0.25 0.25 0 0 1 23.5 16.75A0.25 0.25 0 0 1 23.25 16.5A0.25 0.25 0 0 1 23.5 16.25A0.25 0.25 0 0 1 23.75 16.5ZM24.75 16.5A0.25 0.25 0 0 1 24.5 16.75A0.25 0.25 0 0 1 24.25 16.5A0.25 0.25 0 0 1 24.5 16.25A0.25 0.25 0 0 1 24.75 16.5ZM26.75 16.5A0.25 0.25 0 0 1 26.5 16.75A0.25 0.25 0 0 1 26.25 16.5A0.25 0.25 0 0 1 26.5 16.25A0.25 0.25 0 0 1 26.75 16.5ZM28.75 16.5A0.25 0.25 0 0 1 28.5 16.75A0.25 0.25 0 0 1 28.25 16.5A0.25 0.25 0 0 1 28.5 16.25A0.25 0.25 0 0 1 28.75 16.5ZM29.75 16.5A0.25 0.25 0 0 1 29.5 16.75A0.25 0.25 0 0 1 29.25 16.5A0.25 0.25 0 0 1 29.5 16.25A0.25 0.25 0 0 1 29.75 16.5ZM30.75 16.5A0.25 0.25 0 0 1 30.5 16.75A0.25 0.25 0 0 1 30.25 16.5A0.25 0.25 0 0 1 30.5 16.25A0.25 0.25 0 0 1 30.75 16.5ZM0.75 17.5A0.25 0.25 0 0 1 0.5 17.75A0.25 0.25 0 0 1 0.25 17.5A0.25 0.25 0 0 1 0.5 17.25A0.25 0.25 0 0 1 0.75 17.5ZM3.75 17.5A0.25 0.25 0 0 1 3.5 17.75A0.25 0.25 0 0 1 3.25 17.5A0.25 0.25 0 0 1 3.5 17.25A0.25 0.25 0 0 1 3.75 17.5ZM4.75 17.5A0.25 0.25 0 0 1 4.5 17.75A0.25 0.25 0 0 1 4.25 17.5A0.25 0.25 0 0 1 4.5 17.25A0.25 0.25 0 0 1 4.75 17.5ZM11.75 17.5A0.25 0.25 0 0 1 11.5 17.75A0.25 0.25 0 0 1 11.25 17.5A0.25 0.25 0 0 1 11.5 17.25A0.25 0.25 0 0 1 11.75 17.5ZM13.75 17.5A0.25 0.25 0 0 1 13.5 17.75A0.25 0.25 0 0 1 13.25 17.5A0.25 0.25 0 0 1 13.5 17.25A0.25 0.25 0 0 1 13.75 17.5ZM14.75 17.5A0.25 0.25 0 0 1 14.5 17.75A0.25 0.25 0 0 1 14.25 17.5A0.25 0.25 0 0 1 14.5 17.25A0.25 0.25 0 0 1 14.75 17.5ZM17.75 17.5A0.25 0.25 0 0 1 17.5 17.75A0.25 0.25 0 0 1 17.25 17.5A0.25 0.25 0 0 1 17.5 17.25A0.25 0.25 0 0 1 17.75 17.5ZM18.75 17.5A0.25 0.25 0 0 1 18.5 17.75A0.25 0.25 0 0 1 18.25 17.5A0.25 0.25 0 0 1 18.5 17.25A0.25 0.25 0 0 1 18.75 17.5ZM21.75 17.5A0.25 0.25 0 0 1 21.5 17.75A0.25 0.25 0 0 1 21.25 17.5A0.25 0.25 0 0 1 21.5 17.25A0.25 0.25 0 0 1 21.75 17.5ZM22.75 17.5A0.25 0.25 0 0 1 22.5 17.75A0.25 0.25 0 0 1 22.25 17.5A0.25 0.25 0 0 1 22.5 17.25A0.25 0.25 0 0 1 22.75 17.5ZM23.75 17.5A0.25 0.25 0 0 1 23.5 17.75A0.25 0.25 0 0 1 23.25 17.5A0.25 0.25 0 0 1 23.5 17.25A0.25 0.25 0 0 1 23.75 17.5ZM25.75 17.5A0.25 0.25 0 0 1 25.5 17.75A0.25 0.25 0 0 1 25.25 17.5A0.25 0.25 0 0 1 25.5 17.25A0.25 0.25 0 0 1 25.75 17.5ZM26.75 17.5A0.25 0.25 0 0 1 26.5 17.75A0.25 0.25 0 0 1 26.25 17.5A0.25 0.25 0 0 1 26.5 17.25A0.25 0.25 0 0 1 26.75 17.5ZM28.75 17.5A0.25 0.25 0 0 1 28.5 17.75A0.25 0.25 0 0 1 28.25 17.5A0.25 0.25 0 0 1 28.5 17.25A0.25 0.25 0 0 1 28.75 17.5ZM29.75 17.5A0.25 0.25 0 0 1 29.5 17.75A0.25 0.25 0 0 1 29.25 17.5A0.25 0.25 0 0 1 29.5 17.25A0.25 0.25 0 0 1 29.75 17.5ZM31.75 17.5A0.25 0.25 0 0 1 31.5 17.75A0.25 0.25 0 0 1 31.25 17.5A0.25 0.25 0 0 1 31.5 17.25A0.25 0.25 0 0 1 31.75 17.5ZM0.75 18.5A0.25 0.25 0 0 1 0.5 18.75A0.25 0.25 0 0 1 0.25 18.5A0.25 0.25 0 0 1 0.5 18.25A0.25 0.25 0 0 1 0.75 18.5ZM2.75 18.5A0.25 0.25 0 0 1 2.5 18.75A0.25 0.25 0 0 1 2.25 18.5A0.25 0.25 0 0 1 2.5 18.25A0.25 0.25 0 0 1 2.75 18.5ZM5.75 18.5A0.25 0.25 0 0 1 5.5 18.75A0.25 0.25 0 0 1 5.25 18.5A0.25 0.25 0 0 1 5.5 18.25A0.25 0.25 0 0 1 5.75 18.5ZM6.75 18.5A0.25 0.25 0 0 1 6.5 18.75A0.25 0.25 0 0 1 6.25 18.5A0.25 0.25 0 0 1 6.5 18.25A0.25 0.25 0 0 1 6.75 18.5ZM8.75 18.5A0.25 0.25 0 0 1 8.5 18.75A0.25 0.25 0 0 1 8.25 18.5A0.25 0.25 0 0 1 8.5 18.25A0.25 0.25 0 0 1 8.75 18.5ZM9.75 18.5A0.25 0.25 0 0 1 9.5 18.75A0.25 0.25 0 0 1 9.25 18.5A0.25 0.25 0 0 1 9.5 18.25A0.25 0.25 0 0 1 9.75 18.5ZM12.75 18.5A0.25 0.25 0 0 1 12.5 18.75A0.25 0.25 0 0 1 12.25 18.5A0.25 0.25 0 0 1 12.5 18.25A0.25 0.25 0 0 1 12.75 18.5ZM14.75 18.5A0.25 0.25 0 0 1 14.5 18.75A0.25 0.25 0 0 1 14.25 18.5A0.25 0.25 0 0 1 14.5 18.25A0.25 0.25 0 0 1 14.75 18.5ZM15.75 18.5A0.25 0.25 0 0 1 15.5 18.75A0.25 0.25 0 0 1 15.25 18.5A0.25 0.25 0 0 1 15.5 18.25A0.25 0.25 0 0 1 15.75 18.5ZM18.75 18.5A0.25 0.25 0 0 1 18.5 18.75A0.25 0.25 0 0 1 18.25 18.5A0.25 0.25 0 0 1 18.5 18.25A0.25 0.25 0 0 1 18.75 18.5ZM21.75 18.5A0.25 0.25 0 0 1 21.5 18.75A0.25 0.25 0 0 1 21.25 18.5A0.25 0.25 0 0 1 21.5 18.25A0.25 0.25 0 0 1 21.75 18.5ZM22.75 18.5A0.25 0.25 0 0 1 22.5 18.75A0.25 0.25 0 0 1 22.25 18.5A0.25 0.25 0 0 1 22.5 18.25A0.25 0.25 0 0 1 22.75 18.5ZM23.75 18.5A0.25 0.25 0 0 1 23.5 18.75A0.25 0.25 0 0 1 23.25 18.5A0.25 0.25 0 0 1 23.5 18.25A0.25 0.25 0 0 1 23.75 18.5ZM24.75 18.5A0.25 0.25 0 0 1 24.5 18.75A0.25 0.25 0 0 1 24.25 18.5A0.25 0.25 0 0 1 24.5 18.25A0.25 0.25 0 0 1 24.75 18.5ZM27.75 18.5A0.25 0.25 0 0 1 27.5 18.75A0.25 0.25 0 0 1 27.25 18.5A0.25 0.25 0 0 1 27.5 18.25A0.25 0.25 0 0 1 27.75 18.5ZM28.75 18.5A0.25 0.25 0 0 1 28.5 18.75A0.25 0.25 0 0 1 28.25 18.5A0.25 0.25 0 0 1 28.5 18.25A0.25 0.25 0 0 1 28.75 18.5ZM29.75 18.5A0.25 0.25 0 0 1 29.5 18.75A0.25 0.25 0 0 1 29.25 18.5A0.25 0.25 0 0 1 29.5 18.25A0.25 0.25 0 0 1 29.75 18.5ZM32.75 18.5A0.25 0.25 0 0 1 32.5 18.75A0.25 0.25 0 0 1 32.25 18.5A0.25 0.25 0 0 1 32.5 18.25A0.25 0.25 0 0 1 32.75 18.5ZM0.75 19.5A0.25 0.25 0 0 1 0.5 19.75A0.25 0.25 0 0 1 0.25 19.5A0.25 0.25 0 0 1 0.5 19.25A0.25 0.25 0 0 1 0.75 19.5ZM2.75 19.5A0.25 0.25 0 0 1 2.5 19.75A0.25 0.25 0 0 1 2.25 19.5A0.25 0.25 0 0 1 2.5 19.25A0.25 0.25 0 0 1 2.75 19.5ZM3.75 19.5A0.25 0.25 0 0 1 3.5 19.75A0.25 0.25 0 0 1 3.25 19.5A0.25 0.25 0 0 1 3.5 19.25A0.25 0.25 0 0 1 3.75 19.5ZM4.75 19.5A0.25 0.25 0 0 1 4.5 19.75A0.25 0.25 0 0 1 4.25 19.5A0.25 0.25 0 0 1 4.5 19.25A0.25 0.25 0 0 1 4.75 19.5ZM7.75 19.5A0.25 0.25 0 0 1 7.5 19.75A0.25 0.25 0 0 1 7.25 19.5A0.25 0.25 0 0 1 7.5 19.25A0.25 0.25 0 0 1 7.75 19.5ZM12.75 19.5A0.25 0.25 0 0 1 12.5 19.75A0.25 0.25 0 0 1 12.25 19.5A0.25 0.25 0 0 1 12.5 19.25A0.25 0.25 0 0 1 12.75 19.5ZM14.75 19.5A0.25 0.25 0 0 1 14.5 19.75A0.25 0.25 0 0 1 14.25 19.5A0.25 0.25 0 0 1 14.5 19.25A0.25 0.25 0 0 1 14.75 19.5ZM15.75 19.5A0.25 0.25 0 0 1 15.5 19.75A0.25 0.25 0 0 1 15.25 19.5A0.25 0.25 0 0 1 15.5 19.25A0.25 0.25 0 0 1 15.75 19.5ZM16.75 19.5A0.25 0.25 0 0 1 16.5 19.75A0.25 0.25 0 0 1 16.25 19.5A0.25 0.25 0 0 1 16.5 19.25A0.25 0.25 0 0 1 16.75 19.5ZM18.75 19.5A0.25 0.25 0 0 1 18.5 19.75A0.25 0.25 0 0 1 18.25 19.5A0.25 0.25 0 0 1 18.5 19.25A0.25 0.25 0 0 1 18.75 19.5ZM19.75 19.5A0.25 0.25 0 0 1 19.5 19.75A0.25 0.25 0 0 1 19.25 19.5A0.25 0.25 0 0 1 19.5 19.25A0.25 0.25 0 0 1 19.75 19.5ZM20.75 19.5A0.25 0.25 0 0 1 20.5 19.75A0.25 0.25 0 0 1 20.25 19.5A0.25 0.25 0 0 1 20.5 19.25A0.25 0.25 0 0 1 20.75 19.5ZM22.75 19.5A0.25 0.25 0 0 1 22.5 19.75A0.25 0.25 0 0 1 22.25 19.5A0.25 0.25 0 0 1 22.5 19.25A0.25 0.25 0 0 1 22.75 19.5ZM25.75 19.5A0.25 0.25 0 0 1 25.5 19.75A0.25 0.25 0 0 1 25.25 19.5A0.25 0.25 0 0 1 25.5 19.25A0.25 0.25 0 0 1 25.75 19.5ZM27.75 19.5A0.25 0.25 0 0 1 27.5 19.75A0.25 0.25 0 0 1 27.25 19.5A0.25 0.25 0 0 1 27.5 19.25A0.25 0.25 0 0 1 27.75 19.5ZM29.75 19.5A0.25 0.25 0 0 1 29.5 19.75A0.25 0.25 0 0 1 29.25 19.5A0.25 0.25 0 0 1 29.5 19.25A0.25 0.25 0 0 1 29.75 19.5ZM30.75 19.5A0.25 0.25 0 0 1 30.5 19.75A0.25 0.25 0 0 1 30.25 19.5A0.25 0.25 0 0 1 30.5 19.25A0.25 0.25 0 0 1 30.75 19.5ZM0.75 20.5A0.25 0.25 0 0 1 0.5 20.75A0.25 0.25 0 0 1 0.25 20.5A0.25 0.25 0 0 1 0.5 20.25A0.25 0.25 0 0 1 0.75 20.5ZM4.75 20.5A0.25 0.25 0 0 1 4.5 20.75A0.25 0.25 0 0 1 4.25 20.5A0.25 0.25 0 0 1 4.5 20.25A0.25 0.25 0 0 1 4.75 20.5ZM6.75 20.5A0.25 0.25 0 0 1 6.5 20.75A0.25 0.25 0 0 1 6.25 20.5A0.25 0.25 0 0 1 6.5 20.25A0.25 0.25 0 0 1 6.75 20.5ZM7.75 20.5A0.25 0.25 0 0 1 7.5 20.75A0.25 0.25 0 0 1 7.25 20.5A0.25 0.25 0 0 1 7.5 20.25A0.25 0.25 0 0 1 7.75 20.5ZM9.75 20.5A0.25 0.25 0 0 1 9.5 20.75A0.25 0.25 0 0 1 9.25 20.5A0.25 0.25 0 0 1 9.5 20.25A0.25 0.25 0 0 1 9.75 20.5ZM13.75 20.5A0.25 0.25 0 0 1 13.5 20.75A0.25 0.25 0 0 1 13.25 20.5A0.25 0.25 0 0 1 13.5 20.25A0.25 0.25 0 0 1 13.75 20.5ZM17.75 20.5A0.25 0.25 0 0 1 17.5 20.75A0.25 0.25 0 0 1 17.25 20.5A0.25 0.25 0 0 1 17.5 20.25A0.25 0.25 0 0 1 17.75 20.5ZM19.75 20.5A0.25 0.25 0 0 1 19.5 20.75A0.25 0.25 0 0 1 19.25 20.5A0.25 0.25 0 0 1 19.5 20.25A0.25 0.25 0 0 1 19.75 20.5ZM22.75 20.5A0.25 0.25 0 0 1 22.5 20.75A0.25 0.25 0 0 1 22.25 20.5A0.25 0.25 0 0 1 22.5 20.25A0.25 0.25 0 0 1 22.75 20.5ZM23.75 20.5A0.25 0.25 0 0 1 23.5 20.75A0.25 0.25 0 0 1 23.25 20.5A0.25 0.25 0 0 1 23.5 20.25A0.25 0.25 0 0 1 23.75 20.5ZM26.75 20.5A0.25 0.25 0 0 1 26.5 20.75A0.25 0.25 0 0 1 26.25 20.5A0.25 0.25 0 0 1 26.5 20.25A0.25 0.25 0 0 1 26.75 20.5ZM27.75 20.5A0.25 0.25 0 0 1 27.5 20.75A0.25 0.25 0 0 1 27.25 20.5A0.25 0.25 0 0 1 27.5 20.25A0.25 0.25 0 0 1 27.75 20.5ZM28.75 20.5A0.25 0.25 0 0 1 28.5 20.75A0.25 0.25 0 0 1 28.25 20.5A0.25 0.25 0 0 1 28.5 20.25A0.25 0.25 0 0 1 28.75 20.5ZM31.75 20.5A0.25 0.25 0 0 1 31.5 20.75A0.25 0.25 0 0 1 31.25 20.5A0.25 0.25 0 0 1 31.5 20.25A0.25 0.25 0 0 1 31.75 20.5ZM0.75 21.5A0.25 0.25 0 0 1 0.5 21.75A0.25 0.25 0 0 1 0.25 21.5A0.25 0.25 0 0 1 0.5 21.25A0.25 0.25 0 0 1 0.75 21.5ZM1.75 21.5A0.25 0.25 0 0 1 1.5 21.75A0.25 0.25 0 0 1 1.25 21.5A0.25 0.25 0 0 1 1.5 21.25A0.25 0.25 0 0 1 1.75 21.5ZM2.75 21.5A0.25 0.25 0 0 1 2.5 21.75A0.25 0.25 0 0 1 2.25 21.5A0.25 0.25 0 0 1 2.5 21.25A0.25 0.25 0 0 1 2.75 21.5ZM3.75 21.5A0.25 0.25 0 0 1 3.5 21.75A0.25 0.25 0 0 1 3.25 21.5A0.25 0.25 0 0 1 3.5 21.25A0.25 0.25 0 0 1 3.75 21.5ZM4.75 21.5A0.25 0.25 0 0 1 4.5 21.75A0.25 0.25 0 0 1 4.25 21.5A0.25 0.25 0 0 1 4.5 21.25A0.25 0.25 0 0 1 4.75 21.5ZM8.75 21.5A0.25 0.25 0 0 1 8.5 21.75A0.25 0.25 0 0 1 8.25 21.5A0.25 0.25 0 0 1 8.5 21.25A0.25 0.25 0 0 1 8.75 21.5ZM11.75 21.5A0.25 0.25 0 0 1 11.5 21.75A0.25 0.25 0 0 1 11.25 21.5A0.25 0.25 0 0 1 11.5 21.25A0.25 0.25 0 0 1 11.75 21.5ZM14.75 21.5A0.25 0.25 0 0 1 14.5 21.75A0.25 0.25 0 0 1 14.25 21.5A0.25 0.25 0 0 1 14.5 21.25A0.25 0.25 0 0 1 14.75 21.5ZM16.75 21.5A0.25 0.25 0 0 1 16.5 21.75A0.25 0.25 0 0 1 16.25 21.5A0.25 0.25 0 0 1 16.5 21.25A0.25 0.25 0 0 1 16.75 21.5ZM18.75 21.5A0.25 0.25 0 0 1 18.5 21.75A0.25 0.25 0 0 1 18.25 21.5A0.25 0.25 0 0 1 18.5 21.25A0.25 0.25 0 0 1 18.75 21.5ZM21.75 21.5A0.25 0.25 0 0 1 21.5 21.75A0.25 0.25 0 0 1 21.25 21.5A0.25 0.25 0 0 1 21.5 21.25A0.25 0.25 0 0 1 21.75 21.5ZM24.75 21.5A0.25 0.25 0 0 1 24.5 21.75A0.25 0.25 0 0 1 24.25 21.5A0.25 0.25 0 0 1 24.5 21.25A0.25 0.25 0 0 1 24.75 21.5ZM26.75 21.5A0.25 0.25 0 0 1 26.5 21.75A0.25 0.25 0 0 1 26.25 21.5A0.25 0.25 0 0 1 26.5 21.25A0.25 0.25 0 0 1 26.75 21.5ZM27.75 21.5A0.25 0.25 0 0 1 27.5 21.75A0.25 0.25 0 0 1 27.25 21.5A0.25 0.25 0 0 1 27.5 21.25A0.25 0.25 0 0 1 27.75 21.5ZM28.75 21.5A0.25 0.25 0 0 1 28.5 21.75A0.25 0.25 0 0 1 28.25 21.5A0.25 0.25 0 0 1 28.5 21.25A0.25 0.25 0 0 1 28.75 21.5ZM29.75 21.5A0.25 0.25 0 0 1 29.5 21.75A0.25 0.25 0 0 1 29.25 21.5A0.25 0.25 0 0 1 29.5 21.25A0.25 0.25 0 0 1 29.75 21.5ZM31.75 21.5A0.25 0.25 0 0 1 31.5 21.75A0.25 0.25 0 0 1 31.25 21.5A0.25 0.25 0 0 1 31.5 21.25A0.25 0.25 0 0 1 31.75 21.5ZM0.75 22.5A0.25 0.25 0 0 1 0.5 22.75A0.25 0.25 0 0 1 0.25 22.5A0.25 0.25 0 0 1 0.5 22.25A0.25 0.25 0 0 1 0.75 22.5ZM2.75 22.5A0.25 0.25 0 0 1 2.5 22.75A0.25 0.25 0 0 1 2.25 22.5A0.25 0.25 0 0 1 2.5 22.25A0.25 0.25 0 0 1 2.75 22.5ZM4.75 22.5A0.25 0.25 0 0 1 4.5 22.75A0.25 0.25 0 0 1 4.25 22.5A0.25 0.25 0 0 1 4.5 22.25A0.25 0.25 0 0 1 4.75 22.5ZM6.75 22.5A0.25 0.25 0 0 1 6.5 22.75A0.25 0.25 0 0 1 6.25 22.5A0.25 0.25 0 0 1 6.5 22.25A0.25 0.25 0 0 1 6.75 22.5ZM7.75 22.5A0.25 0.25 0 0 1 7.5 22.75A0.25 0.25 0 0 1 7.25 22.5A0.25 0.25 0 0 1 7.5 22.25A0.25 0.25 0 0 1 7.75 22.5ZM9.75 22.5A0.25 0.25 0 0 1 9.5 22.75A0.25 0.25 0 0 1 9.25 22.5A0.25 0.25 0 0 1 9.5 22.25A0.25 0.25 0 0 1 9.75 22.5ZM12.75 22.5A0.25 0.25 0 0 1 12.5 22.75A0.25 0.25 0 0 1 12.25 22.5A0.25 0.25 0 0 1 12.5 22.25A0.25 0.25 0 0 1 12.75 22.5ZM14.75 22.5A0.25 0.25 0 0 1 14.5 22.75A0.25 0.25 0 0 1 14.25 22.5A0.25 0.25 0 0 1 14.5 22.25A0.25 0.25 0 0 1 14.75 22.5ZM15.75 22.5A0.25 0.25 0 0 1 15.5 22.75A0.25 0.25 0 0 1 15.25 22.5A0.25 0.25 0 0 1 15.5 22.25A0.25 0.25 0 0 1 15.75 22.5ZM16.75 22.5A0.25 0.25 0 0 1 16.5 22.75A0.25 0.25 0 0 1 16.25 22.5A0.25 0.25 0 0 1 16.5 22.25A0.25 0.25 0 0 1 16.75 22.5ZM17.75 22.5A0.25 0.25 0 0 1 17.5 22.75A0.25 0.25 0 0 1 17.25 22.5A0.25 0.25 0 0 1 17.5 22.25A0.25 0.25 0 0 1 17.75 22.5ZM21.75 22.5A0.25 0.25 0 0 1 21.5 22.75A0.25 0.25 0 0 1 21.25 22.5A0.25 0.25 0 0 1 21.5 22.25A0.25 0.25 0 0 1 21.75 22.5ZM23.75 22.5A0.25 0.25 0 0 1 23.5 22.75A0.25 0.25 0 0 1 23.25 22.5A0.25 0.25 0 0 1 23.5 22.25A0.25 0.25 0 0 1 23.75 22.5ZM25.75 22.5A0.25 0.25 0 0 1 25.5 22.75A0.25 0.25 0 0 1 25.25 22.5A0.25 0.25 0 0 1 25.5 22.25A0.25 0.25 0 0 1 25.75 22.5ZM28.75 22.5A0.25 0.25 0 0 1 28.5 22.75A0.25 0.25 0 0 1 28.25 22.5A0.25 0.25 0 0 1 28.5 22.25A0.25 0.25 0 0 1 28.75 22.5ZM29.75 22.5A0.25 0.25 0 0 1 29.5 22.75A0.25 0.25 0 0 1 29.25 22.5A0.25 0.25 0 0 1 29.5 22.25A0.25 0.25 0 0 1 29.75 22.5ZM30.75 22.5A0.25 0.25 0 0 1 30.5 22.75A0.25 0.25 0 0 1 30.25 22.5A0.25 0.25 0 0 1 30.5 22.25A0.25 0.25 0 0 1 30.75 22.5ZM32.75 22.5A0.25 0.25 0 0 1 32.5 22.75A0.25 0.25 0 0 1 32.25 22.5A0.25 0.25 0 0 1 32.5 22.25A0.25 0.25 0 0 1 32.75 22.5ZM0.75 23.5A0.25 0.25 0 0 1 0.5 23.75A0.25 0.25 0 0 1 0.25 23.5A0.25 0.25 0 0 1 0.5 23.25A0.25 0.25 0 0 1 0.75 23.5ZM3.75 23.5A0.25 0.25 0 0 1 3.5 23.75A0.25 0.25 0 0 1 3.25 23.5A0.25 0.25 0 0 1 3.5 23.25A0.25 0.25 0 0 1 3.75 23.5ZM4.75 23.5A0.25 0.25 0 0 1 4.5 23.75A0.25 0.25 0 0 1 4.25 23.5A0.25 0.25 0 0 1 4.5 23.25A0.25 0.25 0 0 1 4.75 23.5ZM7.75 23.5A0.25 0.25 0 0 1 7.5 23.75A0.25 0.25 0 0 1 7.25 23.5A0.25 0.25 0 0 1 7.5 23.25A0.25 0.25 0 0 1 7.75 23.5ZM9.75 23.5A0.25 0.25 0 0 1 9.5 23.75A0.25 0.25 0 0 1 9.25 23.5A0.25 0.25 0 0 1 9.5 23.25A0.25 0.25 0 0 1 9.75 23.5ZM10.75 23.5A0.25 0.25 0 0 1 10.5 23.75A0.25 0.25 0 0 1 10.25 23.5A0.25 0.25 0 0 1 10.5 23.25A0.25 0.25 0 0 1 10.75 23.5ZM11.75 23.5A0.25 0.25 0 0 1 11.5 23.75A0.25 0.25 0 0 1 11.25 23.5A0.25 0.25 0 0 1 11.5 23.25A0.25 0.25 0 0 1 11.75 23.5ZM12.75 23.5A0.25 0.25 0 0 1 12.5 23.75A0.25 0.25 0 0 1 12.25 23.5A0.25 0.25 0 0 1 12.5 23.25A0.25 0.25 0 0 1 12.75 23.5ZM15.75 23.5A0.25 0.25 0 0 1 15.5 23.75A0.25 0.25 0 0 1 15.25 23.5A0.25 0.25 0 0 1 15.5 23.25A0.25 0.25 0 0 1 15.75 23.5ZM18.75 23.5A0.25 0.25 0 0 1 18.5 23.75A0.25 0.25 0 0 1 18.25 23.5A0.25 0.25 0 0 1 18.5 23.25A0.25 0.25 0 0 1 18.75 23.5ZM19.75 23.5A0.25 0.25 0 0 1 19.5 23.75A0.25 0.25 0 0 1 19.25 23.5A0.25 0.25 0 0 1 19.5 23.25A0.25 0.25 0 0 1 19.75 23.5ZM23.75 23.5A0.25 0.25 0 0 1 23.5 23.75A0.25 0.25 0 0 1 23.25 23.5A0.25 0.25 0 0 1 23.5 23.25A0.25 0.25 0 0 1 23.75 23.5ZM24.75 23.5A0.25 0.25 0 0 1 24.5 23.75A0.25 0.25 0 0 1 24.25 23.5A0.25 0.25 0 0 1 24.5 23.25A0.25 0.25 0 0 1 24.75 23.5ZM26.75 23.5A0.25 0.25 0 0 1 26.5 23.75A0.25 0.25 0 0 1 26.25 23.5A0.25 0.25 0 0 1 26.5 23.25A0.25 0.25 0 0 1 26.75 23.5ZM27.75 23.5A0.25 0.25 0 0 1 27.5 23.75A0.25 0.25 0 0 1 27.25 23.5A0.25 0.25 0 0 1 27.5 23.25A0.25 0.25 0 0 1 27.75 23.5ZM28.75 23.5A0.25 0.25 0 0 1 28.5 23.75A0.25 0.25 0 0 1 28.25 23.5A0.25 0.25 0 0 1 28.5 23.25A0.25 0.25 0 0 1 28.75 23.5ZM29.75 23.5A0.25 0.25 0 0 1 29.5 23.75A0.25 0.25 0 0 1 29.25 23.5A0.25 0.25 0 0 1 29.5 23.25A0.25 0.25 0 0 1 29.75 23.5ZM30.75 23.5A0.25 0.25 0 0 1 30.5 23.75A0.25 0.25 0 0 1 30.25 23.5A0.25 0.25 0 0 1 30.5 23.25A0.25 0.25 0 0 1 30.75 23.5ZM31.75 23.5A0.25 0.25 0 0 1 31.5 23.75A0.25 0.25 0 0 1 31.25 23.5A0.25 0.25 0 0 1 31.5 23.25A0.25 0.25 0 0 1 31.75 23.5ZM32.75 23.5A0.25 0.25 0 0 1 32.5 23.75A0.25 0.25 0 0 1 32.25 23.5A0.25 0.25 0 0 1 32.5 23.25A0.25 0.25 0 0 1 32.75 23.5ZM0.75 24.5A0.25 0.25 0 0 1 0.5 24.75A0.25 0.25 0 0 1 0.25 24.5A0.25 0.25 0 0 1 0.5 24.25A0.25 0.25 0 0 1 0.75 24.5ZM1.75 24.5A0.25 0.25 0 0 1 1.5 24.75A0.25 0.25 0 0 1 1.25 24.5A0.25 0.25 0 0 1 1.5 24.25A0.25 0.25 0 0 1 1.75 24.5ZM2.75 24.5A0.25 0.25 0 0 1 2.5 24.75A0.25 0.25 0 0 1 2.25 24.5A0.25 0.25 0 0 1 2.5 24.25A0.25 0.25 0 0 1 2.75 24.5ZM3.75 24.5A0.25 0.25 0 0 1 3.5 24.75A0.25 0.25 0 0 1 3.25 24.5A0.25 0.25 0 0 1 3.5 24.25A0.25 0.25 0 0 1 3.75 24.5ZM4.75 24.5A0.25 0.25 0 0 1 4.5 24.75A0.25 0.25 0 0 1 4.25 24.5A0.25 0.25 0 0 1 4.5 24.25A0.25 0.25 0 0 1 4.75 24.5ZM5.75 24.5A0.25 0.25 0 0 1 5.5 24.75A0.25 0.25 0 0 1 5.25 24.5A0.25 0.25 0 0 1 5.5 24.25A0.25 0.25 0 0 1 5.75 24.5ZM6.75 24.5A0.25 0.25 0 0 1 6.5 24.75A0.25 0.25 0 0 1 6.25 24.5A0.25 0.25 0 0 1 6.5 24.25A0.25 0.25 0 0 1 6.75 24.5ZM7.75 24.5A0.25 0.25 0 0 1 7.5 24.75A0.25 0.25 0 0 1 7.25 24.5A0.25 0.25 0 0 1 7.5 24.25A0.25 0.25 0 0 1 7.75 24.5ZM8.75 24.5A0.25 0.25 0 0 1 8.5 24.75A0.25 0.25 0 0 1 8.25 24.5A0.25 0.25 0 0 1 8.5 24.25A0.25 0.25 0 0 1 8.75 24.5ZM10.75 24.5A0.25 0.25 0 0 1 10.5 24.75A0.25 0.25 0 0 1 10.25 24.5A0.25 0.25 0 0 1 10.5 24.25A0.25 0.25 0 0 1 10.75 24.5ZM11.75 24.5A0.25 0.25 0 0 1 11.5 24.75A0.25 0.25 0 0 1 11.25 24.5A0.25 0.25 0 0 1 11.5 24.25A0.25 0.25 0 0 1 11.75 24.5ZM12.75 24.5A0.25 0.25 0 0 1 12.5 24.75A0.25 0.25 0 0 1 12.25 24.5A0.25 0.25 0 0 1 12.5 24.25A0.25 0.25 0 0 1 12.75 24.5ZM13.75 24.5A0.25 0.25 0 0 1 13.5 24.75A0.25 0.25 0 0 1 13.25 24.5A0.25 0.25 0 0 1 13.5 24.25A0.25 0.25 0 0 1 13.75 24.5ZM15.75 24.5A0.25 0.25 0 0 1 15.5 24.75A0.25 0.25 0 0 1 15.25 24.5A0.25 0.25 0 0 1 15.5 24.25A0.25 0.25 0 0 1 15.75 24.5ZM17.75 24.5A0.25 0.25 0 0 1 17.5 24.75A0.25 0.25 0 0 1 17.25 24.5A0.25 0.25 0 0 1 17.5 24.25A0.25 0.25 0 0 1 17.75 24.5ZM18.75 24.5A0.25 0.25 0 0 1 18.5 24.75A0.25 0.25 0 0 1 18.25 24.5A0.25 0.25 0 0 1 18.5 24.25A0.25 0.25 0 0 1 18.75 24.5ZM22.75 24.5A0.25 0.25 0 0 1 22.5 24.75A0.25 0.25 0 0 1 22.25 24.5A0.25 0.25 0 0 1 22.5 24.25A0.25 0.25 0 0 1 22.75 24.5ZM23.75 24.5A0.25 0.25 0 0 1 23.5 24.75A0.25 0.25 0 0 1 23.25 24.5A0.25 0.25 0 0 1 23.5 24.25A0.25 0.25 0 0 1 23.75 24.5ZM24.75 24.5A0.25 0.25 0 0 1 24.5 24.75A0.25 0.25 0 0 1 24.25 24.5A0.25 0.25 0 0 1 24.5 24.25A0.25 0.25 0 0 1 24.75 24.5ZM25.75 24.5A0.25 0.25 0 0 1 25.5 24.75A0.25 0.25 0 0 1 25.25 24.5A0.25 0.25 0 0 1 25.5 24.25A0.25 0.25 0 0 1 25.75 24.5ZM26.75 24.5A0.25 0.25 0 0 1 26.5 24.75A0.25 0.25 0 0 1 26.25 24.5A0.25 0.25 0 0 1 26.5 24.25A0.25 0.25 0 0 1 26.75 24.5ZM27.75 24.5A0.25 0.25 0 0 1 27.5 24.75A0.25 0.25 0 0 1 27.25 24.5A0.25 0.25 0 0 1 27.5 24.25A0.25 0.25 0 0 1 27.75 24.5ZM28.75 24.5A0.25 0.25 0 0 1 28.5 24.75A0.25 0.25 0 0 1 28.25 24.5A0.25 0.25 0 0 1 28.5 24.25A0.25 0.25 0 0 1 28.75 24.5ZM32.75 24.5A0.25 0.25 0 0 1 32.5 24.75A0.25 0.25 0 0 1 32.25 24.5A0.25 0.25 0 0 1 32.5 24.25A0.25 0.25 0 0 1 32.75 24.5ZM8.75 25.5A0.25 0.25 0 0 1 8.5 25.75A0.25 0.25 0 0 1 8.25 25.5A0.25 0.25 0 0 1 8.5 25.25A0.25 0.25 0 0 1 8.75 25.5ZM9.75 25.5A0.25 0.25 0 0 1 9.5 25.75A0.25 0.25 0 0 1 9.25 25.5A0.25 0.25 0 0 1 9.5 25.25A0.25 0.25 0 0 1 9.75 25.5ZM11.75 25.5A0.25 0.25 0 0 1 11.5 25.75A0.25 0.25 0 0 1 11.25 25.5A0.25 0.25 0 0 1 11.5 25.25A0.25 0.25 0 0 1 11.75 25.5ZM14.75 25.5A0.25 0.25 0 0 1 14.5 25.75A0.25 0.25 0 0 1 14.25 25.5A0.25 0.25 0 0 1 14.5 25.25A0.25 0.25 0 0 1 14.75 25.5ZM15.75 25.5A0.25 0.25 0 0 1 15.5 25.75A0.25 0.25 0 0 1 15.25 25.5A0.25 0.25 0 0 1 15.5 25.25A0.25 0.25 0 0 1 15.75 25.5ZM16.75 25.5A0.25 0.25 0 0 1 16.5 25.75A0.25 0.25 0 0 1 16.25 25.5A0.25 0.25 0 0 1 16.5 25.25A0.25 0.25 0 0 1 16.75 25.5ZM20.75 25.5A0.25 0.25 0 0 1 20.5 25.75A0.25 0.25 0 0 1 20.25 25.5A0.25 0.25 0 0 1 20.5 25.25A0.25 0.25 0 0 1 20.75 25.5ZM21.75 25.5A0.25 0.25 0 0 1 21.5 25.75A0.25 0.25 0 0 1 21.25 25.5A0.25 0.25 0 0 1 21.5 25.25A0.25 0.25 0 0 1 21.75 25.5ZM22.75 25.5A0.25 0.25 0 0 1 22.5 25.75A0.25 0.25 0 0 1 22.25 25.5A0.25 0.25 0 0 1 22.5 25.25A0.25 0.25 0 0 1 22.75 25.5ZM23.75 25.5A0.25 0.25 0 0 1 23.5 25.75A0.25 0.25 0 0 1 23.25 25.5A0.25 0.25 0 0 1 23.5 25.25A0.25 0.25 0 0 1 23.75 25.5ZM24.75 25.5A0.25 0.25 0 0 1 24.5 25.75A0.25 0.25 0 0 1 24.25 25.5A0.25 0.25 0 0 1 24.5 25.25A0.25 0.25 0 0 1 24.75 25.5ZM28.75 25.5A0.25 0.25 0 0 1 28.5 25.75A0.25 0.25 0 0 1 28.25 25.5A0.25 0.25 0 0 1 28.5 25.25A0.25 0.25 0 0 1 28.75 25.5ZM31.75 25.5A0.25 0.25 0 0 1 31.5 25.75A0.25 0.25 0 0 1 31.25 25.5A0.25 0.25 0 0 1 31.5 25.25A0.25 0.25 0 0 1 31.75 25.5ZM8.75 26.5A0.25 0.25 0 0 1 8.5 26.75A0.25 0.25 0 0 1 8.25 26.5A0.25 0.25 0 0 1 8.5 26.25A0.25 0.25 0 0 1 8.75 26.5ZM10.75 26.5A0.25 0.25 0 0 1 10.5 26.75A0.25 0.25 0 0 1 10.25 26.5A0.25 0.25 0 0 1 10.5 26.25A0.25 0.25 0 0 1 10.75 26.5ZM12.75 26.5A0.25 0.25 0 0 1 12.5 26.75A0.25 0.25 0 0 1 12.25 26.5A0.25 0.25 0 0 1 12.5 26.25A0.25 0.25 0 0 1 12.75 26.5ZM13.75 26.5A0.25 0.25 0 0 1 13.5 26.75A0.25 0.25 0 0 1 13.25 26.5A0.25 0.25 0 0 1 13.5 26.25A0.25 0.25 0 0 1 13.75 26.5ZM16.75 26.5A0.25 0.25 0 0 1 16.5 26.75A0.25 0.25 0 0 1 16.25 26.5A0.25 0.25 0 0 1 16.5 26.25A0.25 0.25 0 0 1 16.75 26.5ZM17.75 26.5A0.25 0.25 0 0 1 17.5 26.75A0.25 0.25 0 0 1 17.25 26.5A0.25 0.25 0 0 1 17.5 26.25A0.25 0.25 0 0 1 17.75 26.5ZM20.75 26.5A0.25 0.25 0 0 1 20.5 26.75A0.25 0.25 0 0 1 20.25 26.5A0.25 0.25 0 0 1 20.5 26.25A0.25 0.25 0 0 1 20.75 26.5ZM23.75 26.5A0.25 0.25 0 0 1 23.5 26.75A0.25 0.25 0 0 1 23.25 26.5A0.25 0.25 0 0 1 23.5 26.25A0.25 0.25 0 0 1 23.75 26.5ZM24.75 26.5A0.25 0.25 0 0 1 24.5 26.75A0.25 0.25 0 0 1 24.25 26.5A0.25 0.25 0 0 1 24.5 26.25A0.25 0.25 0 0 1 24.75 26.5ZM26.75 26.5A0.25 0.25 0 0 1 26.5 26.75A0.25 0.25 0 0 1 26.25 26.5A0.25 0.25 0 0 1 26.5 26.25A0.25 0.25 0 0 1 26.75 26.5ZM28.75 26.5A0.25 0.25 0 0 1 28.5 26.75A0.25 0.25 0 0 1 28.25 26.5A0.25 0.25 0 0 1 28.5 26.25A0.25 0.25 0 0 1 28.75 26.5ZM30.75 26.5A0.25 0.25 0 0 1 30.5 26.75A0.25 0.25 0 0 1 30.25 26.5A0.25 0.25 0 0 1 30.5 26.25A0.25 0.25 0 0 1 30.75 26.5ZM9.75 27.5A0.25 0.25 0 0 1 9.5 27.75A0.25 0.25 0 0 1 9.25 27.5A0.25 0.25 0 0 1 9.5 27.25A0.25 0.25 0 0 1 9.75 27.5ZM11.75 27.5A0.25 0.25 0 0 1 11.5 27.75A0.25 0.25 0 0 1 11.25 27.5A0.25 0.25 0 0 1 11.5 27.25A0.25 0.25 0 0 1 11.75 27.5ZM12.75 27.5A0.25 0.25 0 0 1 12.5 27.75A0.25 0.25 0 0 1 12.25 27.5A0.25 0.25 0 0 1 12.5 27.25A0.25 0.25 0 0 1 12.75 27.5ZM15.75 27.5A0.25 0.25 0 0 1 15.5 27.75A0.25 0.25 0 0 1 15.25 27.5A0.25 0.25 0 0 1 15.5 27.25A0.25 0.25 0 0 1 15.75 27.5ZM16.75 27.5A0.25 0.25 0 0 1 16.5 27.75A0.25 0.25 0 0 1 16.25 27.5A0.25 0.25 0 0 1 16.5 27.25A0.25 0.25 0 0 1 16.75 27.5ZM17.75 27.5A0.25 0.25 0 0 1 17.5 27.75A0.25 0.25 0 0 1 17.25 27.5A0.25 0.25 0 0 1 17.5 27.25A0.25 0.25 0 0 1 17.75 27.5ZM18.75 27.5A0.25 0.25 0 0 1 18.5 27.75A0.25 0.25 0 0 1 18.25 27.5A0.25 0.25 0 0 1 18.5 27.25A0.25 0.25 0 0 1 18.75 27.5ZM20.75 27.5A0.25 0.25 0 0 1 20.5 27.75A0.25 0.25 0 0 1 20.25 27.5A0.25 0.25 0 0 1 20.5 27.25A0.25 0.25 0 0 1 20.75 27.5ZM21.75 27.5A0.25 0.25 0 0 1 21.5 27.75A0.25 0.25 0 0 1 21.25 27.5A0.25 0.25 0 0 1 21.5 27.25A0.25 0.25 0 0 1 21.75 27.5ZM22.75 27.5A0.25 0.25 0 0 1 22.5 27.75A0.25 0.25 0 0 1 22.25 27.5A0.25 0.25 0 0 1 22.5 27.25A0.25 0.25 0 0 1 22.75 27.5ZM24.75 27.5A0.25 0.25 0 0 1 24.5 27.75A0.25 0.25 0 0 1 24.25 27.5A0.25 0.25 0 0 1 24.5 27.25A0.25 0.25 0 0 1 24.75 27.5ZM28.75 27.5A0.25 0.25 0 0 1 28.5 27.75A0.25 0.25 0 0 1 28.25 27.5A0.25 0.25 0 0 1 28.5 27.25A0.25 0.25 0 0 1 28.75 27.5ZM29.75 27.5A0.25 0.25 0 0 1 29.5 27.75A0.25 0.25 0 0 1 29.25 27.5A0.25 0.25 0 0 1 29.5 27.25A0.25 0.25 0 0 1 29.75 27.5ZM30.75 27.5A0.25 0.25 0 0 1 30.5 27.75A0.25 0.25 0 0 1 30.25 27.5A0.25 0.25 0 0 1 30.5 27.25A0.25 0.25 0 0 1 30.75 27.5ZM32.75 27.5A0.25 0.25 0 0 1 32.5 27.75A0.25 0.25 0 0 1 32.25 27.5A0.25 0.25 0 0 1 32.5 27.25A0.25 0.25 0 0 1 32.75 27.5ZM8.75 28.5A0.25 0.25 0 0 1 8.5 28.75A0.25 0.25 0 0 1 8.25 28.5A0.25 0.25 0 0 1 8.5 28.25A0.25 0.25 0 0 1 8.75 28.5ZM9.75 28.5A0.25 0.25 0 0 1 9.5 28.75A0.25 0.25 0 0 1 9.25 28.5A0.25 0.25 0 0 1 9.5 28.25A0.25 0.25 0 0 1 9.75 28.5ZM12.75 28.5A0.25 0.25 0 0 1 12.5 28.75A0.25 0.25 0 0 1 12.25 28.5A0.25 0.25 0 0 1 12.5 28.25A0.25 0.25 0 0 1 12.75 28.5ZM13.75 28.5A0.25 0.25 0 0 1 13.5 28.75A0.25 0.25 0 0 1 13.25 28.5A0.25 0.25 0 0 1 13.5 28.25A0.25 0.25 0 0 1 13.75 28.5ZM20.75 28.5A0.25 0.25 0 0 1 20.5 28.75A0.25 0.25 0 0 1 20.25 28.5A0.25 0.25 0 0 1 20.5 28.25A0.25 0.25 0 0 1 20.75 28.5ZM21.75 28.5A0.25 0.25 0 0 1 21.5 28.75A0.25 0.25 0 0 1 21.25 28.5A0.25 0.25 0 0 1 21.5 28.25A0.25 0.25 0 0 1 21.75 28.5ZM22.75 28.5A0.25 0.25 0 0 1 22.5 28.75A0.25 0.25 0 0 1 22.25 28.5A0.25 0.25 0 0 1 22.5 28.25A0.25 0.25 0 0 1 22.75 28.5ZM23.75 28.5A0.25 0.25 0 0 1 23.5 28.75A0.25 0.25 0 0 1 23.25 28.5A0.25 0.25 0 0 1 23.5 28.25A0.25 0.25 0 0 1 23.75 28.5ZM24.75 28.5A0.25 0.25 0 0 1 24.5 28.75A0.25 0.25 0 0 1 24.25 28.5A0.25 0.25 0 0 1 24.5 28.25A0.25 0.25 0 0 1 24.75 28.5ZM25.75 28.5A0.25 0.25 0 0 1 25.5 28.75A0.25 0.25 0 0 1 25.25 28.5A0.25 0.25 0 0 1 25.5 28.25A0.25 0.25 0 0 1 25.75 28.5ZM26.75 28.5A0.25 0.25 0 0 1 26.5 28.75A0.25 0.25 0 0 1 26.25 28.5A0.25 0.25 0 0 1 26.5 28.25A0.25 0.25 0 0 1 26.75 28.5ZM27.75 28.5A0.25 0.25 0 0 1 27.5 28.75A0.25 0.25 0 0 1 27.25 28.5A0.25 0.25 0 0 1 27.5 28.25A0.25 0.25 0 0 1 27.75 28.5ZM28.75 28.5A0.25 0.25 0 0 1 28.5 28.75A0.25 0.25 0 0 1 28.25 28.5A0.25 0.25 0 0 1 28.5 28.25A0.25 0.25 0 0 1 28.75 28.5ZM29.75 28.5A0.25 0.25 0 0 1 29.5 28.75A0.25 0.25 0 0 1 29.25 28.5A0.25 0.25 0 0 1 29.5 28.25A0.25 0.25 0 0 1 29.75 28.5ZM30.75 28.5A0.25 0.25 0 0 1 30.5 28.75A0.25 0.25 0 0 1 30.25 28.5A0.25 0.25 0 0 1 30.5 28.25A0.25 0.25 0 0 1 30.75 28.5ZM8.75 29.5A0.25 0.25 0 0 1 8.5 29.75A0.25 0.25 0 0 1 8.25 29.5A0.25 0.25 0 0 1 8.5 29.25A0.25 0.25 0 0 1 8.75 29.5ZM10.75 29.5A0.25 0.25 0 0 1 10.5 29.75A0.25 0.25 0 0 1 10.25 29.5A0.25 0.25 0 0 1 10.5 29.25A0.25 0.25 0 0 1 10.75 29.5ZM12.75 29.5A0.25 0.25 0 0 1 12.5 29.75A0.25 0.25 0 0 1 12.25 29.5A0.25 0.25 0 0 1 12.5 29.25A0.25 0.25 0 0 1 12.75 29.5ZM18.75 29.5A0.25 0.25 0 0 1 18.5 29.75A0.25 0.25 0 0 1 18.25 29.5A0.25 0.25 0 0 1 18.5 29.25A0.25 0.25 0 0 1 18.75 29.5ZM20.75 29.5A0.25 0.25 0 0 1 20.5 29.75A0.25 0.25 0 0 1 20.25 29.5A0.25 0.25 0 0 1 20.5 29.25A0.25 0.25 0 0 1 20.75 29.5ZM22.75 29.5A0.25 0.25 0 0 1 22.5 29.75A0.25 0.25 0 0 1 22.25 29.5A0.25 0.25 0 0 1 22.5 29.25A0.25 0.25 0 0 1 22.75 29.5ZM24.75 29.5A0.25 0.25 0 0 1 24.5 29.75A0.25 0.25 0 0 1 24.25 29.5A0.25 0.25 0 0 1 24.5 29.25A0.25 0.25 0 0 1 24.75 29.5ZM25.75 29.5A0.25 0.25 0 0 1 25.5 29.75A0.25 0.25 0 0 1 25.25 29.5A0.25 0.25 0 0 1 25.5 29.25A0.25 0.25 0 0 1 25.75 29.5ZM31.75 29.5A0.25 0.25 0 0 1 31.5 29.75A0.25 0.25 0 0 1 31.25 29.5A0.25 0.25 0 0 1 31.5 29.25A0.25 0.25 0 0 1 31.75 29.5ZM9.75 30.5A0.25 0.25 0 0 1 9.5 30.75A0.25 0.25 0 0 1 9.25 30.5A0.25 0.25 0 0 1 9.5 30.25A0.25 0.25 0 0 1 9.75 30.5ZM10.75 30.5A0.25 0.25 0 0 1 10.5 30.75A0.25 0.25 0 0 1 10.25 30.5A0.25 0.25 0 0 1 10.5 30.25A0.25 0.25 0 0 1 10.75 30.5ZM14.75 30.5A0.25 0.25 0 0 1 14.5 30.75A0.25 0.25 0 0 1 14.25 30.5A0.25 0.25 0 0 1 14.5 30.25A0.25 0.25 0 0 1 14.75 30.5ZM15.75 30.5A0.25 0.25 0 0 1 15.5 30.75A0.25 0.25 0 0 1 15.25 30.5A0.25 0.25 0 0 1 15.5 30.25A0.25 0.25 0 0 1 15.75 30.5ZM18.75 30.5A0.25 0.25 0 0 1 18.5 30.75A0.25 0.25 0 0 1 18.25 30.5A0.25 0.25 0 0 1 18.5 30.25A0.25 0.25 0 0 1 18.75 30.5ZM20.75 30.5A0.25 0.25 0 0 1 20.5 30.75A0.25 0.25 0 0 1 20.25 30.5A0.25 0.25 0 0 1 20.5 30.25A0.25 0.25 0 0 1 20.75 30.5ZM21.75 30.5A0.25 0.25 0 0 1 21.5 30.75A0.25 0.25 0 0 1 21.25 30.5A0.25 0.25 0 0 1 21.5 30.25A0.25 0.25 0 0 1 21.75 30.5ZM22.75 30.5A0.25 0.25 0 0 1 22.5 30.75A0.25 0.25 0 0 1 22.25 30.5A0.25 0.25 0 0 1 22.5 30.25A0.25 0.25 0 0 1 22.75 30.5ZM24.75 30.5A0.25 0.25 0 0 1 24.5 30.75A0.25 0.25 0 0 1 24.25 30.5A0.25 0.25 0 0 1 24.5 30.25A0.25 0.25 0 0 1 24.75 30.5ZM28.75 30.5A0.25 0.25 0 0 1 28.5 30.75A0.25 0.25 0 0 1 28.25 30.5A0.25 0.25 0 0 1 28.5 30.25A0.25 0.25 0 0 1 28.75 30.5ZM29.75 30.5A0.25 0.25 0 0 1 29.5 30.75A0.25 0.25 0 0 1 29.25 30.5A0.25 0.25 0 0 1 29.5 30.25A0.25 0.25 0 0 1 29.75 30.5ZM31.75 30.5A0.25 0.25 0 0 1 31.5 30.75A0.25 0.25 0 0 1 31.25 30.5A0.25 0.25 0 0 1 31.5 30.25A0.25 0.25 0 0 1 31.75 30.5ZM32.75 30.5A0.25 0.25 0 0 1 32.5 30.75A0.25 0.25 0 0 1 32.25 30.5A0.25 0.25 0 0 1 32.5 30.25A0.25 0.25 0 0 1 32.75 30.5ZM9.75 31.5A0.25 0.25 0 0 1 9.5 31.75A0.25 0.25 0 0 1 9.25 31.5A0.25 0.25 0 0 1 9.5 31.25A0.25 0.25 0 0 1 9.75 31.5ZM11.75 31.5A0.25 0.25 0 0 1 11.5 31.75A0.25 0.25 0 0 1 11.25 31.5A0.25 0.25 0 0 1 11.5 31.25A0.25 0.25 0 0 1 11.75 31.5ZM16.75 31.5A0.25 0.25 0 0 1 16.5 31.75A0.25 0.25 0 0 1 16.25 31.5A0.25 0.25 0 0 1 16.5 31.25A0.25 0.25 0 0 1 16.75 31.5ZM19.75 31.5A0.25 0.25 0 0 1 19.5 31.75A0.25 0.25 0 0 1 19.25 31.5A0.25 0.25 0 0 1 19.5 31.25A0.25 0.25 0 0 1 19.75 31.5ZM21.75 31.5A0.25 0.25 0 0 1 21.5 31.75A0.25 0.25 0 0 1 21.25 31.5A0.25 0.25 0 0 1 21.5 31.25A0.25 0.25 0 0 1 21.75 31.5ZM22.75 31.5A0.25 0.25 0 0 1 22.5 31.75A0.25 0.25 0 0 1 22.25 31.5A0.25 0.25 0 0 1 22.5 31.25A0.25 0.25 0 0 1 22.75 31.5ZM23.75 31.5A0.25 0.25 0 0 1 23.5 31.75A0.25 0.25 0 0 1 23.25 31.5A0.25 0.25 0 0 1 23.5 31.25A0.25 0.25 0 0 1 23.75 31.5ZM26.75 31.5A0.25 0.25 0 0 1 26.5 31.75A0.25 0.25 0 0 1 26.25 31.5A0.25 0.25 0 0 1 26.5 31.25A0.25 0.25 0 0 1 26.75 31.5ZM27.75 31.5A0.25 0.25 0 0 1 27.5 31.75A0.25 0.25 0 0 1 27.25 31.5A0.25 0.25 0 0 1 27.5 31.25A0.25 0.25 0 0 1 27.75 31.5ZM28.75 31.5A0.25 0.25 0 0 1 28.5 31.75A0.25 0.25 0 0 1 28.25 31.5A0.25 0.25 0 0 1 28.5 31.25A0.25 0.25 0 0 1 28.75 31.5ZM29.75 31.5A0.25 0.25 0 0 1 29.5 31.75A0.25 0.25 0 0 1 29.25 31.5A0.25 0.25 0 0 1 29.5 31.25A0.25 0.25 0 0 1 29.75 31.5ZM31.75 31.5A0.25 0.25 0 0 1 31.5 31.75A0.25 0.25 0 0 1 31.25 31.5A0.25 0.25 0 0 1 31.5 31.25A0.25 0.25 0 0 1 31.75 31.5ZM32.75 31.5A0.25 0.25 0 0 1 32.5 31.75A0.25 0.25 0 0 1 32.25 31.5A0.25 0.25 0 0 1 32.5 31.25A0.25 0.25 0 0 1 32.75 31.5ZM13.75 32.5A0.25 0.25 0 0 1 13.5 32.75A0.25 0.25 0 0 1 13.25 32.5A0.25 0.25 0 0 1 13.5 32.25A0.25 0.25 0 0 1 13.75 32.5ZM15.75 32.5A0.25 0.25 0 0 1 15.5 32.75A0.25 0.25 0 0 1 15.25 32.5A0.25 0.25 0 0 1 15.5 32.25A0.25 0.25 0 0 1 15.75 32.5ZM17.75 32.5A0.25 0.25 0 0 1 17.5 32.75A0.25 0.25 0 0 1 17.25 32.5A0.25 0.25 0 0 1 17.5 32.25A0.25 0.25 0 0 1 17.75 32.5ZM18.75 32.5A0.25 0.25 0 0 1 18.5 32.75A0.25 0.25 0 0 1 18.25 32.5A0.25 0.25 0 0 1 18.5 32.25A0.25 0.25 0 0 1 18.75 32.5ZM19.75 32.5A0.25 0.25 0 0 1 19.5 32.75A0.25 0.25 0 0 1 19.25 32.5A0.25 0.25 0 0 1 19.5 32.25A0.25 0.25 0 0 1 19.75 32.5ZM20.75 32.5A0.25 0.25 0 0 1 20.5 32.75A0.25 0.25 0 0 1 20.25 32.5A0.25 0.25 0 0 1 20.5 32.25A0.25 0.25 0 0 1 20.75 32.5ZM22.75 32.5A0.25 0.25 0 0 1 22.5 32.75A0.25 0.25 0 0 1 22.25 32.5A0.25 0.25 0 0 1 22.5 32.25A0.25 0.25 0 0 1 22.75 32.5ZM24.75 32.5A0.25 0.25 0 0 1 24.5 32.75A0.25 0.25 0 0 1 24.25 32.5A0.25 0.25 0 0 1 24.5 32.25A0.25 0.25 0 0 1 24.75 32.5ZM25.75 32.5A0.25 0.25 0 0 1 25.5 32.75A0.25 0.25 0 0 1 25.25 32.5A0.25 0.25 0 0 1 25.5 32.25A0.25 0.25 0 0 1 25.75 32.5ZM26.75 32.5A0.25 0.25 0 0 1 26.5 32.75A0.25 0.25 0 0 1 26.25 32.5A0.25 0.25 0 0 1 26.5 32.25A0.25 0.25 0 0 1 26.75 32.5ZM30.75 32.5A0.25 0.25 0 0 1 30.5 32.75A0.25 0.25 0 0 1 30.25 32.5A0.25 0.25 0 0 1 30.5 32.25A0.25 0.25 0 0 1 30.75 32.5ZM0 0L7 0L7 7L0 7ZM1 1L1 6L6 6L6 1ZM5 3.5A1.5 1.5 0 0 1 3.5 5A1.5 1.5 0 0 1 2 3.5A1.5 1.5 0 0 1 3.5 2A1.5 1.5 0 0 1 5 3.5ZM26 0L33 0L33 7L26 7ZM27 1L27 6L32 6L32 1ZM31 3.5A1.5 1.5 0 0 1 29.5 5A1.5 1.5 0 0 1 28 3.5A1.5 1.5 0 0 1 29.5 2A1.5 1.5 0 0 1 31 3.5ZM0 26L7 26L7 33L0 33ZM1 27L1 32L6 32L6 27ZM5 29.5A1.5 1.5 0 0 1 3.5 31A1.5 1.5 0 0 1 2 29.5A1.5 1.5 0 0 1 3.5 28A1.5 1.5 0 0 1 5 29.5Z" fill="#000000"/></g></g></svg>
